<svg width="748" height="230" viewBox="0 0 748 230" fill="none" xmlns="http://www.w3.org/2000/svg">
<path d="M187.426 17.5762V85.0371H205.218V35.3681C219.134 35.3681 234.736 33.3097 247.474 40.0111C260.893 47.0707 265.508 62.7498 254.116 73.8505C249.5 78.3481 243.804 82.0244 238.578 85.7785V86.5198C245.816 89.7283 253.96 90.9448 260.818 95.011C275.303 103.599 283.586 121.051 271.694 135.448C269.059 138.639 265.839 141.503 262.301 143.656C251.024 150.52 238.694 150.274 225.975 150.274C213.124 150.274 200.251 149.644 188.168 144.749C163.663 134.823 150.431 110.757 150.36 85.0371H132.568C131.247 93.8464 125.468 98.834 117 100.605V118.397C124.059 118.251 130.227 115.997 136.275 112.466C138.553 119.458 141.403 126.3 145.426 132.482C164.552 161.871 195.591 168.066 228.199 168.066C246.153 168.066 264.327 167.135 278.61 154.586C299.431 136.291 303.898 93.4216 272.679 81.3305C275.485 74.5918 278.542 68.7435 279.224 61.3146C279.65 56.6894 278.503 51.6195 277.106 47.2293C265.367 10.3304 217.161 17.5762 187.426 17.5762Z" fill="#2872B9"/>
<path d="M158.515 53.6468C148.071 56.8086 152.334 73.4048 162.962 70.3446C173.935 67.1858 169.38 50.3568 158.515 53.6468Z" fill="#2872B9"/>
<path d="M314.946 72.177C304.459 75.5508 310.537 91.5242 320.863 88.2594C331.7 84.8337 325.777 68.6927 314.946 72.177Z" fill="#2872B9"/>
<path d="M351.26 72.4336V97.6388H339.398V115.431H351.26V168.065H369.052V130.257L370.24 116.619L381.654 115.431V97.6388C378.618 97.6388 373.397 98.63 370.77 96.8767C366.49 94.0211 369.052 77.2463 369.052 72.4336H351.26Z" fill="#2872B9"/>
<path d="M309.008 97.6406V168.067H326.8V97.6406H309.008Z" fill="#2872B9"/>
<path d="M392.031 97.6396V194.754H409.823V134.706C409.823 130.636 407.714 117.819 412.157 115.879C432.382 107.049 457.394 135.992 433.546 148.051C428.884 150.407 423.791 150.274 418.719 150.274V168.807C430.02 168.807 440.925 167.064 449.844 159.567C466.086 145.914 464.827 120.436 449.854 106.605C435.048 92.9277 410.607 97.6396 392.031 97.6396ZM469.871 97.6396V194.754C473.579 194.754 485.193 196.657 487.642 193.565C490.641 189.779 488.404 177.267 488.404 172.514V115.432C496.923 115.432 507.197 113.758 514.348 119.427C524.215 127.253 522.855 141.321 512.127 147.692C507.388 150.506 501.87 150.274 496.559 150.274C496.559 153.982 494.656 165.597 497.747 168.045C499.838 169.701 503.831 168.568 506.196 168.277C515.3 167.159 523.239 164.333 529.889 157.658C544.305 143.188 542.437 117.323 526.211 104.979C521.067 101.065 514.941 98.1845 508.42 97.7063C495.708 96.7745 482.619 97.6396 469.871 97.6396ZM547.71 97.6396C547.71 112.213 545.438 129.061 551.012 142.861C560.374 166.041 590.327 177.184 611.465 162.135C611.465 167.642 612.273 173.859 610.691 179.186C604.043 201.575 575.1 196.236 557.348 196.236V214.028C571.73 214.028 589.677 216.914 603.31 211.755C629.474 201.857 629.998 177.655 629.998 153.981V97.6396H611.465C611.465 109.508 614.383 125.915 609.477 136.93C602.338 152.962 579.634 154.867 570.297 139.895C563.07 128.306 566.244 110.76 566.244 97.6396H547.71Z" fill="#FBC237"/>
</svg>
