<svg width="782" height="200" viewBox="0 0 782 200" fill="none" xmlns="http://www.w3.org/2000/svg">
<g clip-path="url(#clip0_1142_108)">
<path d="M156.435 0.972656H42.3896C18.9785 0.972656 0 19.9511 0 43.3623V157.407C0 180.819 18.9785 199.797 42.3896 199.797H156.435C179.846 199.797 198.824 180.819 198.824 157.407V43.3623C198.824 19.9511 179.846 0.972656 156.435 0.972656Z" fill="#E32C28"/>
<path d="M31.9968 110.827V105.113C31.9938 105.065 31.9732 105.019 31.9389 104.985C31.9045 104.95 31.8588 104.93 31.8103 104.927H23.0569C22.8703 104.927 22.8703 104.744 22.9636 104.651L50.7966 76.8224C50.8188 76.8042 50.8452 76.792 50.8734 76.7868C50.9015 76.7816 50.9306 76.7836 50.9577 76.7927C50.9846 76.8024 51.0089 76.8181 51.0288 76.8387C51.0486 76.8593 51.0635 76.8842 51.0722 76.9114V109.259C51.0722 135.341 71.1606 157.918 97.1497 159.024C103.673 159.318 110.189 158.287 116.303 155.992C122.417 153.698 128.003 150.188 132.722 145.675C137.442 141.161 141.198 135.738 143.764 129.733C146.329 123.727 147.651 117.264 147.648 110.734V76.9114C147.648 76.7291 147.835 76.7291 147.928 76.8224L175.757 104.651C175.85 104.838 175.85 104.927 175.664 104.927H166.817C166.769 104.931 166.724 104.951 166.69 104.986C166.655 105.02 166.634 105.065 166.631 105.113V108.971C166.631 145.557 138.157 176.794 101.571 177.994C100.723 178.023 99.9135 178.04 99.0869 178.04C62.0638 178.066 31.9968 147.969 31.9968 110.827ZM89.1296 137.919V75.6058C89.1296 70.519 92.542 65.9282 97.4253 65.0084C98.9111 64.7401 100.438 64.8008 101.897 65.1862C103.357 65.5715 104.715 66.2722 105.875 67.2388C107.034 68.2055 107.968 69.4146 108.61 70.7811C109.252 72.1475 109.587 73.6382 109.591 75.148V137.372C109.591 142.437 106.2 147.045 101.295 147.969C100.661 148.088 100.017 148.147 99.3709 148.147C96.6598 148.142 94.0611 147.063 92.1429 145.147C90.2246 143.231 89.1428 140.634 89.1338 137.923L89.1296 137.919ZM82.6821 96.542C74.6964 92.6857 68.2371 86.2593 64.3401 78.2933C59.9243 69.0036 59.3625 58.3442 62.7775 48.6418C66.1924 38.9394 73.3068 30.9818 82.5677 26.5059C101.919 17.2904 125.144 25.4885 134.359 44.7334C136.563 49.3251 137.84 54.3062 138.117 59.3919C138.393 64.4775 137.664 69.5678 135.971 74.3713C134.278 79.1749 131.654 83.5973 128.25 87.3857C124.846 91.174 120.728 94.2538 116.132 96.4488C115.931 96.5509 115.712 96.6142 115.487 96.6353C115.293 96.637 115.101 96.6 114.921 96.5265C114.741 96.4529 114.578 96.3443 114.441 96.207C114.303 96.0697 114.195 95.9064 114.121 95.7267C114.048 95.5469 114.011 95.3543 114.012 95.1601V79.0521C113.967 77.2936 114.52 75.5718 115.581 74.1688C117.34 71.8904 118.6 69.2672 119.278 66.4697C119.956 63.6722 120.037 60.7633 119.517 57.9323C118.996 55.1013 117.885 52.4117 116.256 50.0386C114.627 47.6654 112.516 45.662 110.062 44.1586C107.607 42.6552 104.863 41.6857 102.009 41.3131C99.1546 40.9405 96.2538 41.1731 93.4954 41.9959C90.7371 42.8187 88.1829 44.2132 85.9992 46.0886C83.8155 47.964 82.0512 50.2782 80.8212 52.8807C77.4301 59.8835 79.0705 68.0859 83.4918 74.5376C84.3249 75.7592 84.7682 77.2046 84.7635 78.6833V95.2703C84.7461 95.4951 84.6842 95.7141 84.5812 95.9147C84.467 96.1557 84.2871 96.3596 84.0621 96.5028C83.8371 96.6461 83.5762 96.7228 83.3095 96.7243C83.0766 96.7208 82.8476 96.6642 82.6397 96.559L82.6821 96.542Z" fill="white"/>
<path d="M592.213 59.8974H554.74C565.249 46.4436 579.361 36.2482 595.434 30.496L592.552 36.3796H603.967L610.08 24.2732C610.888 22.6413 612.138 21.2685 613.686 20.3103C615.235 19.3521 617.021 18.8467 618.842 18.8515H645.475L608.117 93.4573C608.023 93.7056 608.018 93.9787 608.102 94.2305C608.186 94.4822 608.355 94.6973 608.579 94.8392C608.694 94.8392 608.927 94.9536 609.041 94.9536H712.23L718.11 83.3092H626.548L635.565 65.3106C636.373 63.6823 637.621 62.3125 639.167 61.356C640.713 60.3994 642.496 59.8942 644.314 59.8974H684.092L689.972 48.1385H650.77L659.765 30.1526C660.56 28.5103 661.806 27.1283 663.358 26.1682C664.909 25.2081 666.702 24.7096 668.527 24.731H701.73L704.846 18.3725C705.655 16.7415 706.905 15.3696 708.453 14.4121C710.002 13.4547 711.787 12.9499 713.608 12.9551H739.69L740.267 13.1883L734.604 24.6165H773.806L764.353 42.6067C763.546 44.2396 762.297 45.6132 760.748 46.5709C759.199 47.5287 757.412 48.0322 755.591 48.0241H722.383L716.503 59.7999H781.991L773 77.7901C772.191 79.4211 770.942 80.793 769.393 81.7505C767.845 82.7079 766.059 83.2126 764.238 83.2075H750.631L744.748 94.8519H777.494L768.515 112.821C767.733 114.449 766.506 115.822 764.975 116.782C763.445 117.741 761.674 118.248 759.868 118.243H733.12L700.692 183.039C699.896 184.682 698.649 186.064 697.097 187.023C695.544 187.983 693.751 188.48 691.926 188.457H599.474C599.352 188.459 599.231 188.436 599.118 188.39C599.005 188.344 598.903 188.276 598.817 188.19C598.644 188.015 598.548 187.778 598.55 187.533V167.355C598.552 165.835 598.908 164.336 599.588 162.976L613.424 135.304C614.22 133.661 615.467 132.279 617.019 131.319C618.572 130.359 620.365 129.861 622.191 129.883H670.845L654.589 146.025C652.77 147.833 650.61 149.263 648.236 150.233C645.861 151.203 643.318 151.693 640.753 151.675H637.871L633.487 160.552C633.385 160.782 633.376 161.044 633.462 161.281C633.548 161.518 633.723 161.712 633.95 161.823C634.064 161.823 634.297 161.938 634.412 161.938H672.562C674.381 161.93 676.161 161.419 677.708 160.463C679.254 159.506 680.506 158.14 681.324 156.516L700.578 118.009H599.381C598.301 118.007 597.241 118.308 596.324 118.878C595.407 119.449 594.668 120.265 594.192 121.235L563.409 182.806C562.601 184.444 561.349 185.821 559.796 186.782C558.243 187.743 556.452 188.248 554.626 188.241H454.662C454.417 188.242 454.18 188.146 454.005 187.973C453.919 187.888 453.851 187.785 453.805 187.672C453.759 187.559 453.736 187.438 453.738 187.316V167.139C453.739 165.617 454.094 164.116 454.777 162.756L494.678 82.8429V82.7285L524.08 23.9256C524.885 22.2943 526.132 20.9217 527.679 19.964C529.225 19.0063 531.01 18.5019 532.829 18.5082H559.462L527.318 82.8429H571.827L556.843 97.7174C549.532 105.021 539.623 109.126 529.289 109.133H514.072L488.472 160.424C488.369 160.655 488.359 160.917 488.445 161.154C488.532 161.392 488.707 161.586 488.934 161.696C489.049 161.696 489.282 161.811 489.397 161.811H535.054C536.873 161.802 538.653 161.291 540.199 160.334C541.745 159.377 542.997 158.012 543.816 156.389L578.868 86.2892L592.213 59.8974Z" fill="#2E2E2E"/>
<path d="M494.554 83.1943L479.679 98.0646C472.369 105.368 462.46 109.474 452.126 109.48H442.211L405.425 183.043C404.631 184.686 403.385 186.068 401.833 187.028C400.281 187.987 398.488 188.484 396.663 188.461H225.1C224.978 188.462 224.858 188.44 224.746 188.394C224.634 188.348 224.532 188.28 224.447 188.193C224.36 188.107 224.292 188.005 224.246 187.892C224.201 187.779 224.178 187.658 224.18 187.536V103.041C224.18 101.519 224.536 100.018 225.218 98.658L265.349 18.283C266.13 16.6543 267.357 15.2804 268.888 14.3208C270.418 13.3612 272.19 12.8551 273.996 12.8614H428.379C428.697 12.8832 429.009 12.9622 429.299 13.0945C429.533 13.2085 429.74 13.3693 429.909 13.5671C430.077 13.7648 430.203 13.9952 430.279 14.2438C430.354 14.4924 430.378 14.7539 430.348 15.012C430.318 15.2701 430.235 15.5192 430.104 15.7439L380.085 115.822C379.302 117.45 378.075 118.823 376.545 119.783C375.014 120.742 373.244 121.248 371.437 121.243H262.687C261.129 121.25 259.638 121.872 258.537 122.973C257.435 124.074 256.814 125.565 256.807 127.123V161.251C256.808 161.526 256.918 161.789 257.113 161.984C257.307 162.178 257.571 162.288 257.846 162.289H377.181C378.998 162.281 380.778 161.771 382.324 160.816C383.87 159.861 385.123 158.498 385.943 156.876L452.24 24.2812C453.047 22.6479 454.295 21.2741 455.845 20.3163C457.394 19.3584 459.181 18.8551 461.002 18.8638H487.521L455.352 83.2028L494.554 83.1943ZM360.577 89.4213L387.096 36.2689H360.348C358.542 36.2618 356.771 36.767 355.24 37.7259C353.71 38.6848 352.482 40.0581 351.701 41.6863L325.182 94.8387H351.824C353.643 94.8453 355.428 94.341 356.976 93.3833C358.523 92.4256 359.771 91.0529 360.577 89.4213V89.4213ZM295.085 89.4213L321.604 36.2689H294.971C293.152 36.2759 291.372 36.7857 289.825 37.7417C288.279 38.6978 287.027 40.0631 286.209 41.6863L259.69 94.8387H286.323C288.147 94.8625 289.941 94.3655 291.493 93.4059C293.045 92.4464 294.291 91.0641 295.085 89.4213V89.4213Z" fill="#2E2E2E"/>
</g>
<defs>
<clipPath id="clip0_1142_108">
<rect width="782" height="198.824" fill="white" transform="translate(0 0.976562)"/>
</clipPath>
</defs>
</svg>
