<svg width="730" height="201" viewBox="0 0 730 201" fill="none" xmlns="http://www.w3.org/2000/svg">
<g clip-path="url(#clip0_1140_8)">
<path fill-rule="evenodd" clip-rule="evenodd" d="M87.3592 89.274C91.4274 89.274 96.0362 88.2441 99.6152 86.21C102.679 84.1759 104.713 81.6012 104.713 77.0181C104.713 72.9242 101.649 68.8303 97.0661 67.8261C91.9423 66.2812 88.8784 66.2812 85.2994 66.2812C81.7205 66.2812 77.6523 66.7962 77.6523 66.7962V89.7889C77.6523 89.274 83.2654 89.274 87.3592 89.274Z" fill="#F89C1C"/>
<path fill-rule="evenodd" clip-rule="evenodd" d="M104.199 103.59C102.165 102.56 97.0668 101.015 91.4281 100.526C85.815 100.011 78.168 100.526 78.168 100.526V126.068C78.168 126.068 85.815 126.068 91.4281 126.068C96.5519 125.553 102.165 124.523 104.714 122.978C107.263 121.459 110.842 119.425 110.842 113.271C110.353 107.143 106.259 105.109 104.199 103.59Z" fill="#F89C1C"/>
<path fill-rule="evenodd" clip-rule="evenodd" d="M173.694 12.6486C116.972 -4.21619 56.6965 -4.21619 0 12.6486V103.59V109.718C0 148.03 33.2146 182.764 86.8471 200.633C140.48 182.764 173.694 147.515 173.694 109.718V103.59V12.6486ZM124.13 132.685C116.972 137.808 109.325 138.323 106.261 138.838C104.716 138.838 101.652 139.327 98.5881 139.327V158.741H86.8471V139.842C84.8131 139.842 81.2341 139.842 77.6552 139.842V158.741H65.8885V139.842C54.1475 139.842 42.9215 139.842 42.9215 139.842L45.4705 125.552C45.4705 125.552 50.0536 125.552 52.6284 125.552C55.1774 125.552 56.1816 125.552 57.2115 124.523C58.2414 123.493 58.2414 121.973 58.2414 120.944C58.2414 119.914 58.2414 74.9839 58.2414 71.9199C58.2414 68.8302 58.2414 67.826 56.6965 66.2811C55.1774 64.762 52.1134 64.762 50.0536 64.762C48.0195 64.762 42.9215 64.762 42.9215 64.762V52.5061C42.9215 52.5061 54.1475 52.5061 65.8885 52.5061V33.6072L77.6552 33.5815V52.5061C80.7192 52.5061 83.7831 52.5061 86.8471 52.5061V33.5815H98.5881V52.9953C107.265 53.5102 113.908 55.0551 119.547 59.6382C126.679 65.277 126.679 74.4689 126.19 77.0179C126.19 79.052 125.16 83.6609 123.126 86.2099C121.066 89.2739 116.483 91.8229 116.483 91.8229C116.483 91.8229 122.096 92.8528 126.19 95.9168C130.258 98.9808 133.322 104.079 132.807 112.267C132.807 120.429 131.288 128.101 124.13 132.685Z" fill="#F89C1C"/>
<path fill-rule="evenodd" clip-rule="evenodd" d="M230.377 79.0537C233.956 79.0537 237.02 79.5687 239.569 81.1136C242.118 82.6327 244.178 84.1775 246.212 86.2116C247.757 88.2457 249.276 90.8205 250.306 93.8844C251.31 96.9484 251.31 100.012 251.31 103.591C251.31 108.689 250.306 113.787 248.246 118.396C246.212 123.005 243.663 127.073 240.599 130.652C237.02 134.231 233.441 136.78 228.832 138.84C224.249 140.874 219.64 141.904 214.027 141.904C213.512 141.904 211.993 141.904 210.448 141.904C208.929 141.904 206.869 141.904 204.835 141.389C202.801 140.874 200.226 140.874 197.677 139.844C195.128 139.329 193.094 138.325 190.52 137.295L209.933 55.0568L227.313 52.5078L220.155 81.6028C221.7 81.1136 223.219 80.5986 224.764 80.0836C227.313 79.5687 228.832 79.0537 230.377 79.0537ZM216.061 127.588C218.636 127.588 221.185 127.073 223.734 125.554C226.283 124.009 228.343 122.49 229.862 120.43C231.407 118.396 232.926 115.847 233.956 113.298C234.986 110.723 235.475 107.659 235.475 104.595C235.475 101.017 234.986 97.9526 233.441 95.9185C232.411 93.8844 229.862 92.8545 226.798 92.8545C225.768 92.8545 224.249 92.8545 222.704 93.3695C221.185 93.8844 219.64 94.3736 218.121 95.9185L210.448 127.073C210.963 127.073 211.478 127.073 211.478 127.073C211.993 127.073 211.993 127.073 212.508 127.073C212.997 127.073 213.512 127.073 214.027 127.073C214.542 127.073 215.057 127.588 216.061 127.588Z" fill="#F89C1C"/>
<path fill-rule="evenodd" clip-rule="evenodd" d="M270.714 139.844H253.875L268.165 80.0836H285.03L270.714 139.844ZM278.902 72.9258C276.353 72.9258 274.293 72.4108 272.774 70.8917C270.714 69.3468 269.71 67.3128 269.71 64.2488C269.71 62.7039 270.225 61.1848 270.714 59.6399C271.229 58.1208 272.259 57.0909 273.289 56.061C274.293 55.0568 275.323 54.0269 276.842 53.512C278.387 52.997 279.932 52.5078 281.451 52.5078C284 52.5078 286.06 52.997 287.579 54.5419C289.613 56.061 290.643 58.1208 290.643 61.1848C290.643 62.7039 290.128 64.2488 289.613 65.7679C289.124 67.3128 288.094 68.3427 287.064 69.3468C286.06 70.3767 285.03 71.4067 283.485 71.8959C281.966 72.9258 280.936 72.9258 278.902 72.9258Z" fill="#F89C1C"/>
<path fill-rule="evenodd" clip-rule="evenodd" d="M301.384 65.7697L318.738 63.2207L314.67 80.6004H333.569L329.99 94.4012L311.606 94.3755L306.482 115.334C305.967 116.853 305.967 118.913 305.452 120.432C304.963 121.977 305.452 123.496 305.967 124.526C306.482 125.556 307.512 126.56 308.542 127.075C309.546 127.59 311.606 128.105 313.64 128.105C315.674 128.105 317.219 128.105 318.738 127.59C320.283 127.075 322.317 126.56 323.862 126.071L324.866 138.842C322.832 139.846 320.283 140.361 317.734 140.876C315.185 141.391 312.095 141.906 308.542 141.906C303.418 141.906 299.324 140.876 296.26 139.331C293.196 137.812 291.162 135.778 290.132 133.203C289.128 130.654 288.613 127.59 288.613 124.011C288.613 120.432 289.128 116.853 290.132 113.3L301.384 65.7697Z" fill="#F89C1C"/>
<path fill-rule="evenodd" clip-rule="evenodd" d="M355.009 128.105C359.103 128.105 361.652 127.59 363.171 126.56C364.716 125.556 365.231 124.526 365.231 123.007C365.231 121.977 365.231 121.462 364.716 120.947C364.201 120.432 364.201 119.943 363.171 119.428C362.682 118.913 361.652 118.398 360.622 117.883C359.618 117.368 358.073 116.879 356.554 115.849C354.494 114.819 352.975 114.304 351.43 113.3C349.911 112.27 348.366 111.24 346.847 109.721C345.817 108.176 344.787 106.657 343.757 105.112C343.268 103.593 342.753 101.533 342.753 98.9841C342.753 92.8561 344.787 88.273 349.396 84.6941C353.979 81.1152 360.622 79.5703 368.81 79.5703C372.878 79.5703 376.457 80.0853 379.521 81.1152C382.585 82.1193 385.134 83.1492 387.194 84.1792L381.581 96.95C380.036 95.9201 378.002 95.4052 375.453 94.401C372.878 93.8861 370.329 93.3711 368.295 93.3711C367.265 93.3711 366.235 93.3711 365.231 93.3711C364.201 93.3711 363.171 93.8861 362.167 93.8861C361.137 94.401 360.622 94.8902 360.107 95.4052C359.592 95.9201 359.103 96.95 359.103 97.9542C359.103 99.4991 359.592 100.529 360.622 101.533C361.652 102.048 363.686 103.078 365.72 104.108C368.81 105.627 371.359 106.657 372.878 108.176C374.938 109.206 376.457 110.725 377.487 112.27C378.517 113.789 379.521 115.334 380.036 116.879C380.551 118.398 381.066 120.432 381.066 123.007C381.066 125.556 380.551 127.59 379.521 130.139C378.517 132.714 376.972 134.748 374.938 136.267C372.878 138.327 369.814 139.357 366.75 140.876C363.171 141.906 359.103 142.421 354.494 142.421C351.43 142.421 348.881 142.421 346.332 141.906C343.757 141.391 341.723 140.876 340.204 140.361C338.144 139.846 336.625 139.331 335.595 138.842C334.565 138.327 333.561 137.812 332.531 137.297L338.144 124.526C339.689 125.041 341.208 126.071 344.272 127.59C347.851 127.59 351.43 128.105 355.009 128.105Z" fill="#F89C1C"/>
<path fill-rule="evenodd" clip-rule="evenodd" d="M432.171 83.1518C433.69 82.6369 434.72 82.1219 436.265 81.6069C437.784 81.1177 439.329 80.6028 441.363 80.0878C443.397 79.5729 445.457 79.5729 447.491 79.0579C450.04 78.543 452.615 78.543 455.679 78.543C459.232 78.543 462.322 79.0579 464.871 80.0878C467.42 81.1177 469.454 82.1219 471.514 84.1817C474.063 82.6369 477.127 81.1177 479.676 80.0878C482.225 79.0579 485.804 78.543 489.383 78.543C492.962 78.543 496.026 79.0579 498.575 80.0878C501.124 81.1177 503.183 82.6369 504.703 84.1817C506.247 85.7008 507.767 88.2499 508.282 90.3097C508.796 92.8587 509.311 95.4077 509.311 98.4717C509.311 100.017 509.311 101.021 508.796 102.566C508.796 104.085 508.282 105.63 507.767 107.149L500.12 139.333H483.255L490.928 107.664C490.928 106.66 491.417 105.63 491.417 104.085C491.932 102.566 491.932 101.536 491.932 100.017C491.932 97.9568 491.417 95.9227 490.413 94.4036C489.383 92.8587 487.349 91.8288 484.8 91.8288C483.255 91.8288 481.71 92.3438 480.191 92.8587C478.646 93.3737 477.642 93.8886 476.097 94.4036C476.097 94.8928 476.097 95.4077 476.097 95.9227C476.097 96.4376 476.097 96.9526 476.097 97.4676C476.097 98.9867 476.097 100.017 475.582 101.536C475.093 103.081 475.093 104.6 474.578 106.145L466.905 138.329H450.04L457.713 106.66C457.713 105.63 458.228 104.6 458.228 103.081C458.743 101.536 458.743 100.532 458.743 98.9867C458.743 96.9526 458.228 94.8928 457.198 93.3737C456.168 91.8288 454.134 90.8246 451.585 90.8246C450.555 90.8246 449.551 90.8246 448.521 90.8246C447.491 90.8246 446.461 91.3396 445.457 91.3396L434.72 137.299H417.855L432.171 83.1518Z" fill="#9DB8CD"/>
<path fill-rule="evenodd" clip-rule="evenodd" d="M515.434 116.854C515.434 112.271 516.464 107.147 517.983 103.079C519.527 98.4704 522.077 94.3765 525.14 90.8234C528.204 87.2444 531.783 84.6954 536.367 82.1206C540.975 80.0866 545.584 79.0566 551.197 79.0566C553.746 79.0566 556.295 79.5716 558.355 80.0866C560.389 80.6015 562.423 82.1206 564.483 83.1505C566.002 84.6954 567.547 86.2145 568.551 88.2486C569.581 90.3084 570.096 92.8574 570.096 95.4065C570.096 99.5003 569.066 103.079 567.032 106.143C564.972 109.207 562.423 111.241 559.359 113.301C555.78 115.335 552.201 116.365 547.618 117.369C543.009 118.399 537.911 118.399 532.788 118.399C533.303 121.463 534.332 124.012 536.367 125.042C537.911 126.587 540.975 127.076 545.069 127.076C547.618 127.076 550.167 127.076 552.201 126.587C554.776 126.072 556.81 125.557 559.359 124.527L560.389 137.813C558.355 138.843 555.78 139.358 552.201 139.847C549.137 140.362 545.584 140.877 541.49 140.877C536.881 140.877 532.813 140.362 529.724 138.843C526.66 137.298 524.111 135.779 522.077 133.23C520.017 131.17 518.498 128.106 517.468 125.042C515.949 123.497 515.434 119.918 515.434 116.854ZM548.648 92.3425C544.554 92.3425 541.49 93.8873 538.426 96.4364C535.362 98.9854 533.817 103.079 532.813 107.147C537.396 107.147 541.49 106.658 544.039 106.143C547.103 105.628 549.137 104.598 550.682 103.594C552.201 102.564 553.231 101.534 553.746 100.505C554.261 99.5003 554.776 98.4704 554.776 97.4405C554.776 93.8873 552.716 92.3425 548.648 92.3425Z" fill="#9DB8CD"/>
<path fill-rule="evenodd" clip-rule="evenodd" d="M594.101 141.39C590.522 141.39 586.943 140.875 584.394 139.33C581.845 137.811 579.296 136.266 577.751 134.232C576.232 132.198 574.687 129.624 574.172 126.56C573.168 123.496 573.168 120.432 573.168 116.853C573.168 111.755 574.172 106.657 575.717 102.563C577.751 97.9539 580.326 93.8857 583.39 90.8217C586.454 87.2428 590.522 84.668 595.131 82.634C599.714 80.5999 604.323 79.57 609.936 79.57C611.481 79.57 612.485 79.57 613.515 79.57C614.545 79.57 616.064 80.0849 617.094 80.0849L623.222 54.5432L640.601 51.9941L625.771 114.304C624.766 118.398 624.251 122.981 624.766 127.075C625.256 131.168 626.286 135.262 627.315 138.841L612.485 140.875C611.996 139.845 611.481 139.33 611.481 138.326C610.966 137.296 610.966 136.781 610.451 135.262C608.417 136.781 605.842 138.326 603.293 139.33C600.229 140.875 597.68 141.39 594.101 141.39ZM614.03 93.8857C613.515 93.8857 613 93.8857 613 93.8857C612.485 93.8857 612.485 93.8857 611.996 93.8857C611.481 93.8857 610.966 93.8857 610.451 93.8857C609.936 93.8857 609.421 93.8857 608.417 93.8857C605.868 93.8857 603.293 94.3749 601.259 95.9198C599.225 96.9497 597.165 98.9838 595.646 101.018C594.101 103.078 592.582 105.627 592.067 108.176C591.037 110.725 590.522 113.789 590.522 116.363C590.522 119.917 591.037 123.006 592.582 125.04C593.586 127.075 596.161 128.104 599.225 128.104C600.744 128.104 602.289 127.59 603.808 127.075C605.353 126.56 606.872 125.04 608.417 123.496C608.417 121.462 608.932 119.427 608.932 117.368C609.447 115.334 609.447 113.3 609.936 111.755L614.03 93.8857Z" fill="#9DB8CD"/>
<path fill-rule="evenodd" clip-rule="evenodd" d="M652.345 139.844H635.48L649.796 80.0836H666.661L652.345 139.844ZM660.533 72.9258C657.958 72.9258 655.924 72.4108 654.379 70.8917C652.345 69.3468 651.315 67.3128 651.315 64.2488C651.315 62.7039 651.83 61.1848 652.345 59.6399C652.86 58.1208 653.89 57.0909 654.894 56.061C655.924 55.0568 656.954 54.0269 658.473 53.512C660.018 52.997 661.537 52.5078 663.082 52.5078C665.631 52.5078 667.665 52.997 669.21 54.5419C671.244 56.061 672.274 58.1208 672.274 61.1848C672.274 62.7039 671.759 64.2488 671.244 65.7679C670.729 67.3128 669.725 68.3427 668.695 69.3468C667.665 70.3767 666.661 71.4067 665.116 71.8959C663.597 72.9258 662.052 72.9258 660.533 72.9258Z" fill="#9DB8CD"/>
<path fill-rule="evenodd" clip-rule="evenodd" d="M722.324 114.304C721.294 118.397 720.805 123.006 721.294 127.074C721.809 131.168 722.839 135.262 723.869 138.841L709.039 140.875C708.524 139.845 708.034 139.33 708.034 138.326C707.519 137.296 707.519 136.781 707.004 135.262C704.97 136.781 702.396 138.326 699.847 139.33C697.298 140.36 694.234 140.875 691.17 140.875C687.591 140.875 684.012 140.36 681.463 138.841C678.914 137.296 676.339 135.751 674.82 133.717C673.275 131.683 671.756 129.134 671.241 126.07C670.726 122.981 670.211 119.917 670.211 116.363C670.211 111.24 671.241 106.142 672.786 101.533C674.82 96.9496 677.369 92.8557 680.433 89.2768C683.497 85.6979 687.591 83.1488 692.174 81.1148C696.783 79.0549 701.391 78.0508 706.49 78.0508C707.004 78.0508 708.524 78.0508 710.068 78.0508C711.588 78.0508 713.647 78.0508 715.681 78.54C717.716 79.0549 720.29 79.0549 722.839 80.0849C725.388 80.5998 727.422 81.604 729.997 82.6339L722.324 114.304ZM710.583 93.3707C709.553 93.3707 708.549 92.8557 708.034 92.8557C707.004 92.8557 706.49 92.8557 704.97 92.8557C702.396 92.8557 699.847 93.3707 697.813 94.8898C695.753 96.4347 693.719 97.9538 692.2 100.014C690.655 102.048 689.136 104.597 688.106 107.171C687.076 109.72 686.561 112.784 686.561 115.848C686.561 119.427 687.076 122.491 688.621 124.525C690.14 126.56 692.2 127.589 695.263 127.589C696.783 127.589 698.327 127.074 699.847 126.56C701.391 126.07 702.911 124.525 704.455 123.006C704.455 120.947 704.97 118.912 704.97 116.878C705.485 114.819 705.485 112.784 705.975 111.24L710.583 93.3707Z" fill="#9DB8CD"/>
<path fill-rule="evenodd" clip-rule="evenodd" d="M82.2383 0.39463C90.941 1.42454 172.664 15.7145 172.664 118.397C173.179 115.848 173.179 112.784 173.179 110.235V104.081V13.1655C144.059 3.97357 112.904 -0.120325 82.2383 0.39463Z" fill="white" fill-opacity="0.301961"/>
<path fill-rule="evenodd" clip-rule="evenodd" d="M399.989 139.842C397.44 139.842 395.38 139.327 393.861 137.808C391.827 136.263 390.797 134.229 390.797 131.165C390.797 129.62 391.312 128.101 391.827 126.556C392.316 125.037 393.346 124.007 394.376 123.003C395.38 121.973 396.41 120.943 397.955 120.428C399.474 119.913 401.019 119.424 402.538 119.424C405.087 119.424 407.147 119.913 408.666 121.458C410.726 122.977 411.73 125.037 411.73 128.101C411.73 129.62 411.215 131.165 410.726 132.684C410.211 134.229 409.181 135.259 408.151 136.263C407.147 137.293 406.117 138.323 404.598 138.838C403.053 139.842 401.534 139.842 399.989 139.842Z" fill="#9DB8CD"/>
</g>
<defs>
<clipPath id="clip0_1140_8">
<rect width="730" height="200.636" fill="white"/>
</clipPath>
</defs>
</svg>
