<svg width="1087" height="201" viewBox="0 0 1087 201" fill="none" xmlns="http://www.w3.org/2000/svg">
<g clip-path="url(#clip0_1143_132)">
<path d="M0 0H79.65C94.8214 0 106.2 3.79286 114.629 10.1143C123.9 17.7 128.957 28.6571 128.957 42.1429C128.957 57.7357 122.636 67.4286 109.993 73.3286V74.1714C126.85 79.65 136.543 94.8214 136.543 112.943C136.543 130.221 129.8 143.707 118.843 152.136C109.571 158.879 97.7714 161.829 81.7571 161.829H0V0ZM71.6429 63.2143C80.0714 63.2143 86.3929 58.5786 86.3929 48.8857C86.3929 39.6143 80.0714 34.9786 71.2214 34.9786H43.8286V62.7929H71.6429V63.2143ZM75.4357 126.007C85.1285 126.007 92.2928 120.107 92.2928 109.571C92.2928 98.1929 84.7071 93.1357 75.4357 93.1357H44.25V126.429H75.4357V126.007Z" fill="black"/>
<path d="M143.711 0H185.432V162.25H143.711V0Z" fill="black"/>
<path d="M193.859 104.517C193.859 67.853 217.459 43.4102 254.124 43.4102C290.788 43.4102 313.967 68.2744 313.967 104.517C313.967 141.182 290.788 165.624 254.124 165.624C217.459 165.624 193.859 141.182 193.859 104.517ZM272.245 104.517C272.245 84.2887 265.924 71.6459 253.281 71.6459C240.638 71.6459 234.738 84.2887 234.738 104.517C234.738 124.746 240.638 137.81 253.281 137.81C265.924 137.389 272.245 124.746 272.245 104.517Z" fill="black"/>
<path d="M318.609 104.517C318.609 67.853 342.209 43.4102 378.874 43.4102C415.538 43.4102 438.295 67.853 438.295 104.517C438.295 141.182 415.116 165.624 378.452 165.624C342.209 165.624 318.609 141.182 318.609 104.517ZM396.995 104.517C396.995 84.2887 390.674 71.6459 378.031 71.6459C365.388 71.6459 359.488 84.2887 359.488 104.517C359.488 124.746 365.388 137.81 378.031 137.81C390.674 137.389 396.995 124.746 396.995 104.517Z" fill="black"/>
<path d="M446.711 46.3519H485.482V63.6305H486.325C493.911 50.1448 504.447 42.9805 521.304 42.9805C536.054 42.9805 547.011 50.1448 552.49 62.7876H553.332C562.604 47.6162 574.825 42.9805 589.154 42.9805C616.125 42.9805 627.504 62.7876 627.504 89.3376V161.823H587.047V96.5019C587.047 84.7019 583.254 77.1162 573.14 77.1162C563.025 77.1162 557.968 86.3876 557.968 99.0305V161.823H517.511V96.5019C517.511 84.7019 513.718 77.1162 503.604 77.1162C493.49 77.1162 488.432 86.3876 488.432 99.0305V161.823H446.711C446.711 161.823 446.711 46.3519 446.711 46.3519Z" fill="black"/>
<path d="M678.494 146.657H678.072V161.829H639.301V0H679.758V58.1571H680.601C688.186 48.0429 698.722 42.5643 713.472 42.5643C742.551 42.5643 759.408 68.6929 759.408 103.671C759.408 142.864 741.286 165.621 710.944 165.621C698.301 165.621 685.236 159.721 678.494 146.657ZM717.686 103.25C717.686 84.7071 710.944 72.4857 698.722 72.4857C686.079 72.4857 678.494 84.7071 678.494 103.25C678.494 121.793 686.501 134.014 698.722 134.014C710.944 134.014 717.686 122.214 717.686 103.25Z" fill="black"/>
<path d="M764.055 104.088C764.055 67.8448 788.076 42.9805 822.633 42.9805C839.912 42.9805 852.976 48.459 863.09 58.1519C876.576 71.2162 882.476 91.4448 882.055 115.045H804.512C806.198 129.373 812.94 136.959 825.162 136.959C832.326 136.959 838.648 133.588 841.176 126.002H880.369C873.626 152.552 852.976 165.616 823.898 165.616C788.076 165.195 764.055 140.752 764.055 104.088ZM804.512 91.8662H841.598C840.755 77.959 833.169 70.7948 823.476 70.7948C812.098 70.3733 805.776 78.3805 804.512 91.8662Z" fill="black"/>
<path d="M927.986 66.1658H928.829C937.258 50.1515 948.215 43.8301 962.122 43.8301C965.493 43.8301 967.601 44.2515 968.865 45.0944V80.4944H968.022C944.001 76.2801 930.093 87.6586 930.093 113.787V162.251H889.215V46.3586H927.986V66.1658Z" fill="black"/>
<path d="M973.068 162.248H1012.26C1013.95 167.305 1019 171.941 1028.7 171.941C1041.76 171.941 1046.4 163.934 1046.4 151.713V143.284H1045.55C1039.23 150.87 1030.38 156.348 1017.74 156.348C992.875 156.348 970.961 137.805 970.961 101.563C970.961 68.2696 988.661 42.5625 1015.63 42.5625C1031.23 42.5625 1040.5 48.8839 1046.82 58.5768H1047.66V45.9339H1086.43V146.234C1086.43 164.777 1080.11 179.105 1070.42 187.534C1060.3 196.384 1045.98 200.177 1029.54 200.177C998.354 200.598 976.861 187.955 973.068 162.248ZM1048.08 99.8768C1048.08 85.5482 1041.34 73.7482 1029.54 73.7482C1018.16 73.7482 1011 83.8625 1011 99.8768C1011 115.47 1018.16 126.427 1029.54 126.427C1040.92 126.427 1048.08 115.048 1048.08 99.8768Z" fill="black"/>
</g>
<defs>
<clipPath id="clip0_1143_132">
<rect width="1086.44" height="200.6" fill="white"/>
</clipPath>
</defs>
</svg>
