<svg width="1175" height="204" viewBox="0 0 1175 204" fill="none" xmlns="http://www.w3.org/2000/svg">
<path fill-rule="evenodd" clip-rule="evenodd" d="M798.918 46.127C826.217 46.127 842.277 62.3789 846.215 84.6829H817.661C814.799 76.6528 808.914 71.2931 798.918 71.2931C783.741 71.2931 775.18 84.683 775.18 102.709C775.18 120.55 783.741 134.113 798.918 134.113C808.914 134.113 814.805 128.765 817.661 120.55H846.221C842.277 143.045 826.217 159.285 798.918 159.285C768.219 159.285 746.273 135.899 746.273 102.709C746.273 69.5128 768.219 46.1331 798.918 46.1331V46.127ZM907.254 71.2931C892.449 71.2931 882.805 83.7928 882.805 102.709C882.805 121.626 892.449 134.119 907.254 134.119C922.066 134.119 932.062 121.625 932.062 102.715C932.062 83.7928 922.066 71.2931 907.254 71.2931V71.2931ZM907.254 159.279C875.659 159.279 853.893 135.368 853.893 102.715C853.893 69.8651 875.659 46.1331 907.254 46.1331C939.023 46.1331 960.974 69.8651 960.974 102.709C960.974 135.368 939.023 159.279 907.254 159.279ZM972.948 157.505H1001.68V47.9197H972.948V157.505ZM1114.82 157.499H1091.61L1045.75 93.424V157.499H1018.09V47.9135H1044.86L1087.16 108.236V47.9197H1114.82V157.499ZM1142.85 125.372C1152.13 125.372 1159.45 132.505 1159.45 141.976C1159.45 151.428 1152.13 158.747 1142.85 158.747C1133.74 158.747 1126.43 151.428 1126.43 141.976C1126.43 132.505 1133.74 125.372 1142.85 125.372Z" fill="#FF6600"/>
<path fill-rule="evenodd" clip-rule="evenodd" d="M26.3612 135.719H42.743C49.5801 135.719 53.3757 132.072 53.3757 126.755C53.3757 121.149 49.5801 117.656 42.743 117.656H26.3612V135.719V135.719ZM40.3197 99.4442C47.4473 99.4442 51.2492 96.718 51.2492 90.9504C51.2492 85.1889 47.4473 82.6049 40.3197 82.6049H26.3612V99.4442H40.3135H40.3197ZM76.8913 129.642C76.8913 146.494 65.3499 155.742 45.9266 155.742H3.14844V62.582H43.0521C62.4692 62.582 74.1466 71.2366 74.1466 87.9275C74.1466 97.942 68.5459 105.212 61.7088 107.647C70.5117 110.528 76.8913 119.177 76.8913 129.642V129.642ZM111.794 105.521H126.97C135.612 105.521 139.563 101.126 139.563 94.2948C139.563 87.4577 135.606 83.0624 126.97 83.0624H111.794V105.521ZM111.794 124.944V155.742H87.6724V62.582H129.542C149.571 62.582 163.381 73.9628 163.381 94.2948C163.381 108.408 156.241 118.113 144.873 122.36L166.719 155.742H139.705L120.294 124.944H111.794V124.944ZM206.932 117.662H226.052L216.489 91.414L206.932 117.662V117.662ZM229.236 62.582L264.744 155.742H240.017L233.341 137.691H199.495L192.967 155.742H168.846L204.348 62.582H229.236V62.582ZM287.351 155.748L252.61 62.582H278.709L299.795 122.818L320.888 62.582H345.924L311.182 155.742L287.351 155.748ZM420.582 62.582V83.5199H377.952V98.0842H416.941V118.571H377.952V134.656H420.582V155.742H353.967V62.582H420.582ZM542.277 155.748H522.557L483.562 101.274V155.748H460.047V62.582H482.808L518.768 113.866V62.582H542.283L542.277 155.748ZM622.851 62.582V83.5199H580.221V98.0842H619.21V118.571H580.221V134.656H622.851V155.742H556.236V62.582H622.851ZM742.444 62.582H726.94L714.051 117.353L699.79 62.582H681.275L666.865 117.353L653.803 62.582H628.915L653.358 155.742H675.656L690.227 101.126L704.63 155.742H726.947L734.903 125.581C732.767 118.145 731.697 110.444 731.725 102.708C731.725 87.47 735.601 73.7897 742.438 62.582" fill="black"/>
</svg>
