<svg width="1210" height="201" viewBox="0 0 1210 201" fill="none" xmlns="http://www.w3.org/2000/svg">
<g clip-path="url(#clip0_1142_101)">
<path d="M288.198 155.295C275.959 155.295 265.176 152.928 255.85 148.196C246.796 143.696 239.297 136.588 234.321 127.787C229.266 118.913 226.738 108.51 226.738 96.5765C226.738 84.6431 229.266 74.2397 234.321 65.3662C239.31 56.5535 246.806 49.4222 255.856 44.8775C265.158 40.0919 275.94 37.6991 288.204 37.6991C295.483 37.6152 302.744 38.4375 309.819 40.147C316.052 41.707 321.991 44.2655 327.407 47.7231V74.8272C322.652 71.0517 317.197 68.2562 311.355 66.6023C304.651 64.7861 297.726 63.9148 290.781 64.0137C279.7 64.0137 271.149 66.892 265.127 72.6486C259.105 78.4051 256.094 86.3893 256.094 96.601C256.094 106.821 259.134 114.833 265.213 120.639C271.292 126.445 279.814 129.349 290.781 129.353C297.812 129.445 304.821 128.52 311.588 126.606C317.766 124.755 323.56 121.805 328.692 117.897V144.824C318.476 151.809 304.978 155.299 288.198 155.295ZM393.383 155.295C382.624 155.449 372 152.896 362.485 147.872C353.464 143.089 345.932 135.919 340.711 127.144C335.387 118.271 332.735 108.071 332.755 96.5459C332.551 85.7925 335.303 75.1894 340.711 65.8924C345.914 57.0835 353.449 49.883 362.485 45.0856C372.024 40.2064 382.586 37.6621 393.3 37.6621C404.015 37.6621 414.577 40.2064 424.116 45.0856C433.143 49.8698 440.657 57.075 445.816 65.8924C451.185 75.203 453.917 85.8002 453.717 96.5459C453.717 108.059 451.081 118.258 445.81 127.144C440.628 135.928 433.112 143.102 424.098 147.872C414.638 152.883 404.069 155.436 393.365 155.295H393.383ZM393.383 128.515C398.843 128.572 404.228 127.239 409.031 124.641C413.761 122.059 417.673 118.203 420.322 113.51C423.205 108.338 424.654 102.49 424.52 96.5704C424.668 90.6875 423.256 84.8704 420.426 79.7107C417.793 75.0325 413.911 71.1784 409.215 68.579C404.376 65.9173 398.929 64.5572 393.408 64.6318C387.832 64.5451 382.329 65.905 377.435 68.579C372.738 71.1799 368.855 75.0334 366.218 79.7107C363.386 84.8701 361.97 90.6867 362.112 96.5704C361.977 102.479 363.395 108.32 366.224 113.51C368.842 118.227 372.761 122.091 377.515 124.641C382.409 127.249 387.881 128.581 393.426 128.515H393.383ZM464.983 40.1103H493.544V152.871H465.008L464.983 40.1103ZM508.06 40.1103H536.29L577.751 107.219V40.1103H606.305V152.871H578.258L536.645 85.6039V152.871H508.078L508.06 40.1103Z" fill="black"/>
<path d="M685.055 152.871C672.257 152.871 661.019 150.587 651.342 146.017C642.091 141.823 634.267 135.016 628.834 126.434C623.53 117.94 620.878 107.945 620.878 96.448C620.671 85.6941 623.423 75.0902 628.834 65.7945C634.026 56.9955 641.568 49.8179 650.614 45.0672C660.168 40.239 670.724 37.7235 681.429 37.7235C692.135 37.7235 702.69 40.239 712.245 45.0672C721.278 49.8053 728.798 56.9876 733.945 65.7945C739.312 75.106 742.043 85.7025 741.846 96.448C741.797 103.089 740.223 109.63 737.244 115.566C734.567 121.344 730.689 126.485 725.867 130.645H744.765V152.908L685.055 152.871ZM681.506 128.515C686.968 128.572 692.355 127.239 697.16 124.641C701.89 122.059 705.802 118.203 708.451 113.51C711.332 108.337 712.779 102.489 712.643 96.5704C712.782 90.6862 711.364 84.8697 708.53 79.7107C705.896 75.0337 702.015 71.18 697.319 68.579C692.478 65.9173 687.03 64.5573 681.506 64.6318C675.93 64.5459 670.427 65.9058 665.533 68.579C660.838 71.18 656.956 75.0337 654.322 79.7107C651.489 84.8697 650.07 90.6862 650.21 96.5704C650.076 102.479 651.494 108.32 654.322 113.51C656.943 118.226 660.864 122.09 665.619 124.641C670.506 127.242 675.97 128.57 681.506 128.503V128.515ZM804.126 155.295C787.133 155.295 774.335 150.75 765.731 141.66C757.126 132.57 752.824 120.551 752.824 105.603V40.1225H781.379V105.927C781.379 113.455 783.396 119.154 787.431 123.026C791.466 126.897 797.031 128.833 804.126 128.833C811.224 128.833 816.765 126.897 820.747 123.026C824.728 119.154 826.719 113.455 826.719 105.927V40.1103H855.274V105.591C855.274 120.649 850.99 132.697 842.422 141.734C833.855 150.77 821.089 155.291 804.126 155.295ZM926.409 155.295C915.65 155.448 905.026 152.895 895.511 147.872C886.488 143.09 878.953 135.92 873.731 127.144C868.427 118.271 865.775 108.071 865.775 96.5459C865.569 85.7922 868.321 75.1886 873.731 65.8924C878.936 57.083 886.473 49.8826 895.511 45.0856C905.05 40.2064 915.612 37.6621 926.326 37.6621C937.041 37.6621 947.603 40.2064 957.142 45.0856C966.168 49.8684 973.681 57.074 978.836 65.8924C984.207 75.202 986.939 85.7998 986.737 96.5459C986.737 108.059 984.101 118.258 978.83 127.144C973.649 135.929 966.133 143.104 957.117 147.872C947.661 152.881 937.097 155.433 926.397 155.295H926.409ZM926.409 128.515C931.869 128.572 937.254 127.239 942.057 124.641C946.789 122.062 950.701 118.205 953.348 113.51C956.23 108.338 957.68 102.49 957.546 96.5704C957.685 90.6862 956.267 84.8697 953.433 79.7107C950.797 75.035 946.916 71.1818 942.222 68.579C937.381 65.9173 931.933 64.5573 926.409 64.6318C920.833 64.5459 915.33 65.9058 910.436 68.579C905.742 71.1818 901.861 75.035 899.225 79.7107C896.392 84.8697 894.973 90.6862 895.113 96.5704C894.979 102.479 896.397 108.32 899.225 113.51C901.846 118.226 905.768 122.09 910.522 124.641C915.416 127.25 920.888 128.583 926.433 128.515H926.409ZM998.009 40.1103H1048.67C1061.9 40.1103 1072.25 43.4434 1079.72 50.1098C1087.2 56.7762 1090.94 66.3473 1090.94 78.8233C1090.94 87.2154 1089.1 94.3693 1085.43 100.285C1081.77 106.199 1076.36 110.823 1069.95 113.51L1089.94 152.871H1060.57L1042.66 117.542H1026.58V152.871H998.021L998.009 40.1103ZM1043.67 93.5044C1049.38 93.5044 1053.79 92.4029 1056.89 90.1998C1060 87.9967 1061.56 84.2045 1061.57 78.8233C1061.57 73.2299 1060.04 69.3847 1056.97 67.2877C1053.9 65.1907 1049.47 64.1443 1043.67 64.1483H1026.57V93.5228L1043.67 93.5044ZM1136.91 40.1103H1164.98L1209.99 152.871H1180.79L1171.75 129.617H1130.14L1121.11 152.871H1091.73L1136.91 40.1103ZM1164.67 107.696L1150.96 69.754L1137.08 107.696H1164.67Z" fill="#FF9D00"/>
<path d="M99.2769 200.78C85.993 200.802 72.8437 198.118 60.6312 192.891C48.8161 187.836 38.0989 180.528 29.0782 171.375C15.1012 157.153 5.62778 139.126 1.84311 119.549C-1.94157 99.9711 0.130492 79.7122 7.80009 61.3062C12.7705 49.3985 19.9957 38.5637 29.0782 29.3982C38.2417 20.0819 49.168 12.6828 61.2202 7.63222C73.2723 2.58159 86.2093 -0.0195313 99.2769 -0.0195312C112.345 -0.0195313 125.282 2.58159 137.334 7.63222C149.386 12.6828 160.312 20.0819 169.476 29.3982C187.135 47.2933 197.492 71.1275 198.524 96.2479C199.556 121.368 191.189 145.972 175.057 165.255L144.911 165.292C154.229 158.477 161.971 149.737 167.611 139.665C173.251 129.592 176.657 118.424 177.598 106.919C178.538 95.4131 176.991 83.8399 173.062 72.9854C169.132 62.1309 162.913 52.2493 154.825 44.012C147.588 36.6207 138.949 30.7485 129.413 26.7395C119.877 22.7305 109.637 20.6655 99.2922 20.6655C88.9479 20.6655 78.7077 22.7305 69.1718 26.7395C59.6359 30.7485 50.9962 36.6207 43.7593 44.012C32.7001 55.3308 25.209 69.6485 22.2161 85.1876C19.2232 100.727 20.8602 116.803 26.9241 131.419C30.8543 140.869 36.5681 149.473 43.7532 156.761C50.8857 164.026 59.3668 169.829 68.7214 173.847C78.3752 177.996 88.7755 180.126 99.2831 180.107C99.8522 180.107 100.323 180.107 100.764 180.107H159.611C142.362 193.524 121.129 200.799 99.2769 200.78V200.78ZM99.2769 165.347C90.7493 165.359 82.3097 163.622 74.48 160.243C66.8875 156.962 60.0072 152.234 54.2239 146.321C48.3906 140.378 43.7553 133.368 40.5709 125.673C33.8944 109.476 33.8944 91.2965 40.5709 75.0999C43.756 67.4075 48.3912 60.3996 54.2239 54.4583C60.0054 48.5433 66.8861 43.814 74.48 40.536C82.3145 37.1689 90.7526 35.4323 99.28 35.4323C107.807 35.4323 116.246 37.1689 124.08 40.536C131.673 43.8126 138.552 48.5421 144.33 54.4583C150.167 60.3987 154.802 67.4094 157.983 75.1061C164.66 91.3026 164.66 109.482 157.983 125.679C154.801 133.375 150.165 140.385 144.33 146.327C138.55 152.241 131.672 156.97 124.08 160.249C116.247 163.625 107.806 165.36 99.2769 165.347ZM98.5242 50.1745C91.9978 50.1666 85.5397 51.504 79.5532 54.1033C73.7202 56.6388 68.4413 60.294 64.0154 64.8617C59.5405 69.4452 55.9897 74.8472 53.5569 80.7729C48.447 93.2477 48.447 107.231 53.5569 119.706C55.9912 125.631 59.5418 131.033 64.0154 135.617C68.4366 140.165 73.7018 143.806 79.5165 146.339C85.5129 148.931 91.9764 150.268 98.5089 150.268C105.042 150.268 111.505 148.931 117.501 146.339C123.319 143.808 128.586 140.166 133.009 135.617V135.617L122.709 125.214V125.245C116.573 131.663 108.139 135.38 99.2619 135.58C90.3848 135.78 81.7919 132.445 75.3735 126.309C75.0063 125.963 74.6514 125.608 74.3087 125.245C67.8751 118.524 64.2839 109.58 64.2839 100.276C64.2839 90.9728 67.8751 82.0284 74.3087 75.308C77.3479 72.13 80.9833 69.5818 85.0074 67.809C89.0314 66.0361 93.3653 65.0733 97.7615 64.9756C102.158 64.8778 106.53 65.647 110.629 67.2393C114.728 68.8315 118.473 71.2156 121.65 74.2554C122.012 74.5981 122.36 74.9531 122.709 75.308L133.009 64.9046C128.591 60.3353 123.32 56.6761 117.495 54.1339C111.512 51.5204 105.053 50.1724 98.5242 50.1745V50.1745Z" fill="#FF9D00"/>
</g>
<defs>
<clipPath id="clip0_1142_101">
<rect width="1210" height="200.786" fill="white"/>
</clipPath>
</defs>
</svg>
