<svg width="859" height="201" viewBox="0 0 859 201" fill="none" xmlns="http://www.w3.org/2000/svg">
<path d="M124.57 146.166L88.8148 161.755V160.182C81.9499 161.898 74.2269 162.899 67.0759 163.328C33.3234 163.042 6.72189 145.308 6.29284 124.427V116.704C17.3053 132.722 39.9023 143.592 67.0759 143.163C76.2291 143.592 85.6684 142.162 93.5344 140.016L96.6808 132.293C87.3846 135.154 77.0872 137.013 67.0759 137.013C33.3234 137.013 6.72189 119.422 6.29284 98.1118V91.8189C17.3053 106.693 39.9023 117.419 67.0759 116.704C79.3756 117.419 91.2461 114.845 101.4 110.411L102.974 102.688C93.1054 107.837 80.3767 110.84 67.2189 110.411C33.4664 110.84 6.86491 93.2491 6.43586 71.5102V65.2174C17.4483 80.3774 40.0453 91.2469 67.2189 91.6759C82.665 91.2469 97.2529 87.0993 109.267 80.8065L110.84 71.5102C99.9703 79.5193 84.0952 84.811 67.2189 85.5261C33.4664 84.811 6.86491 67.0766 6.43586 45.0517C6.72189 24.0279 33.4664 6.43661 67.2189 6.15057C87.2416 6.43661 105.977 13.4445 116.99 24.8861L118.134 26.7453H126L124.856 24.8861C113.843 9.86907 91.6752 0.00074558 67.2189 0.00074558C29.748 -0.142273 0 20.3095 0 44.9087V46.4819V125.857C1.28717 149.885 30.32 169.478 66.9329 169.478C91.1031 169.621 112.985 160.039 124.57 146.166Z" fill="#263238"/>
<path d="M109.985 200.941L122.571 147.452L86.3868 163.184L108.412 70.5078H66.0781L77.0906 24.8848H212.244L201.231 70.5078H157.181L147.742 95.6792L196.511 75.2274L109.985 200.941ZM132.01 136.583L125.717 168.047L177.633 89.5293L135.156 108.408L154.035 64.358H196.511L204.378 31.3206H81.6672L73.8012 64.358H116.278L95.8261 152.315L132.01 136.583Z" fill="#FABF2C"/>
<path d="M301.921 55.4801V55.6231C302.064 60.6288 300.49 64.4902 297.344 67.3506C294.198 70.211 289.907 71.6412 284.329 71.6412C278.752 71.6412 274.175 69.782 270.742 66.2065C267.31 62.631 265.594 57.9114 265.594 52.1906V42.8944C265.594 37.1736 267.31 32.454 270.599 28.8785C274.032 25.303 278.465 23.4438 283.9 23.4438C289.621 23.4438 294.055 24.874 297.344 27.5914C300.633 30.4517 302.207 34.3132 302.064 39.3189V39.4619H292.91C292.91 36.4585 292.195 34.1702 290.765 32.74C289.335 31.3099 287.047 30.5948 284.043 30.5948C281.183 30.5948 279.038 31.7389 277.464 34.0272C275.891 36.3155 275.033 39.1759 275.033 42.7514V52.1906C275.033 55.7661 275.891 58.7695 277.464 61.0578C279.181 63.3461 281.469 64.4902 284.472 64.4902C287.333 64.4902 289.335 63.7751 290.765 62.345C292.195 60.9148 292.91 58.6265 292.91 55.6231H301.921V55.4801ZM353.693 51.7616C353.693 57.4823 351.834 62.345 348.259 66.0635C344.683 69.782 339.964 71.6412 334.1 71.6412C328.236 71.6412 323.659 69.782 319.941 66.0635C316.366 62.345 314.506 57.4823 314.506 51.7616V43.3234C314.506 37.6027 316.366 32.8831 319.941 29.0215C323.516 25.303 328.236 23.3008 333.957 23.3008C339.821 23.3008 344.54 25.16 348.116 29.0215C351.834 32.74 353.55 37.6027 353.55 43.3234V51.7616H353.693ZM344.254 43.1804C344.254 39.4619 343.396 36.6016 341.537 34.1702C339.678 31.8819 337.246 30.5948 333.957 30.5948C330.81 30.5948 328.236 31.7389 326.52 34.1702C324.804 36.4585 323.802 39.4619 323.802 43.1804V51.6185C323.802 55.337 324.661 58.3404 326.52 60.7717C328.236 63.06 330.81 64.3472 333.957 64.3472C337.246 64.3472 339.678 63.2031 341.537 60.7717C343.396 58.4834 344.254 55.337 344.254 51.6185V43.1804ZM378.007 70.9261H368.567V24.0159H378.007V70.9261ZM432.211 70.9261H422.772L403.893 39.3189H403.75V70.9261H394.311V24.0159H403.75L422.629 55.6231H422.772V24.0159H432.211V70.9261ZM479.55 31.3099H466.106V70.9261H456.667V31.3099H443.509V24.0159H479.55V31.3099ZM518.451 50.3314H501.003V63.7751H521.741V70.9261H491.707V24.0159H521.741V31.3099H501.146V43.0374H518.594V50.3314H518.451ZM544.624 63.7751H565.648V70.9261H535.185V24.0159H544.624V63.7751ZM605.693 50.3314H588.245V63.7751H608.982V70.9261H578.948V24.0159H608.982V31.3099H588.388V43.0374H605.836V50.3314H605.693ZM658.467 64.6333C657.037 66.4925 654.891 68.2087 651.888 69.6389C649.028 71.0691 645.309 71.7842 640.733 71.7842C635.012 71.7842 630.435 70.068 626.86 66.4925C623.284 62.917 621.425 58.3404 621.425 52.6197V42.7514C621.425 37.0306 623.141 32.454 626.717 28.8785C630.149 25.303 634.726 23.4438 640.161 23.4438C645.881 23.4438 650.315 24.874 653.318 27.5914C656.322 30.3087 657.895 33.8842 657.752 38.4608V38.6038H648.885C648.885 36.1725 648.17 34.1702 646.739 32.74C645.309 31.3099 643.164 30.5948 640.447 30.5948C637.586 30.5948 635.298 31.7389 633.439 33.8842C631.722 36.1725 630.864 39.0329 630.864 42.4653V52.3336C630.864 55.9091 631.722 58.7695 633.582 61.0578C635.441 63.3461 637.872 64.3472 640.876 64.3472C643.164 64.3472 644.88 64.0612 646.167 63.6321C647.454 63.2031 648.456 62.631 649.171 61.9159V52.7627H640.161V46.1838H658.61V64.6333H658.467ZM682.78 52.1906V70.9261H673.341V24.0159H689.645C694.937 24.0159 699.227 25.3031 702.231 27.7344C705.234 30.1657 706.807 33.5981 706.807 37.8887C706.807 40.32 706.235 42.3223 704.948 44.1816C703.661 45.8978 701.802 47.328 699.37 48.4721C702.088 49.3302 704.09 50.6174 705.377 52.6197C706.521 54.4789 707.236 56.9102 707.236 59.7706V63.2031C707.236 64.4902 707.38 65.9204 707.809 67.3506C708.095 68.7808 708.81 69.782 709.668 70.4971V71.2121H699.943C699.084 70.4971 698.512 69.3529 698.226 67.7797C697.94 66.2065 697.797 64.6333 697.797 63.2031V59.9137C697.797 57.6254 697.225 55.7661 695.938 54.4789C694.651 53.1917 692.792 52.4767 690.503 52.4767H682.78V52.1906ZM682.78 45.0396H689.502C692.077 45.0396 694.079 44.4676 695.366 43.3234C696.653 42.1793 697.368 40.6061 697.368 38.3178C697.368 36.1725 696.653 34.4563 695.366 33.1691C694.079 31.8819 692.219 31.3099 689.645 31.3099H682.78V45.0396ZM746.71 60.9148H731.55L728.403 71.0691H718.535L734.41 24.1589H743.992L759.724 71.0691H749.856L746.71 60.9148ZM733.838 53.4778H744.421L739.273 36.8876H739.13L733.838 53.4778ZM780.605 53.9068V70.9261H771.166V24.0159H789.186C794.621 24.0159 798.769 25.4461 801.915 28.1634C805.061 30.8808 806.492 34.5993 806.492 39.0329C806.492 43.4665 804.918 47.185 801.915 49.9023C798.769 52.6197 794.621 54.0499 789.186 54.0499H780.605V53.9068ZM780.605 46.7559H789.186C791.761 46.7559 793.763 46.0408 795.193 44.6106C796.48 43.1804 797.195 41.3212 797.195 39.1759C797.195 36.8876 796.48 35.0283 795.193 33.5981C793.906 32.1679 791.904 31.4528 789.186 31.4528H780.605V46.7559ZM858.122 70.9261H848.682V51.4755H829.518V70.9261H820.079V24.0159H829.518V44.1816H848.682V24.0159H858.122V70.9261Z" fill="#263238"/>
<path d="M282.744 147.587H276.88V116.695H266.297V111.69H293.327V116.695H282.744V147.587ZM322.074 147.587H316.211V130.854C316.211 128.709 315.781 127.136 314.923 126.134C314.065 125.133 312.778 124.561 310.919 124.561C308.487 124.561 306.771 125.276 305.627 126.707C304.483 128.137 303.911 130.568 303.911 134.001V147.444H298.19V109.258H303.911V118.984C303.911 120.557 303.768 122.13 303.625 123.989H304.054C304.769 122.702 305.913 121.701 307.343 120.986C308.774 120.271 310.347 119.842 312.206 119.842C318.785 119.842 322.074 123.131 322.074 129.853V147.587ZM341.954 148.016C337.663 148.016 334.374 146.729 332.086 144.298C329.654 141.867 328.51 138.434 328.51 134.144C328.51 129.71 329.654 126.277 331.8 123.703C333.945 121.129 337.091 119.842 340.953 119.842C344.528 119.842 347.389 120.986 349.391 123.131C351.536 125.276 352.537 128.28 352.537 132.141V135.288H334.374C334.517 137.862 335.232 140.007 336.519 141.295C337.806 142.725 339.809 143.44 342.24 143.44C343.813 143.44 345.386 143.297 346.674 143.011C348.104 142.725 349.534 142.153 351.107 141.438V146.157C349.677 146.872 348.247 147.301 346.817 147.587C345.529 147.873 343.813 148.016 341.954 148.016ZM340.953 124.275C339.094 124.275 337.663 124.847 336.519 125.991C335.375 127.136 334.803 128.852 334.517 131.14H346.817C346.817 128.852 346.245 127.136 345.243 125.991C344.242 124.847 342.812 124.275 340.953 124.275ZM385.718 124.704H379.139V147.587H373.275V124.704H368.842V121.987L373.275 120.271V118.554C373.275 115.408 373.99 112.977 375.563 111.404C377.137 109.83 379.425 109.115 382.428 109.115C384.431 109.115 386.433 109.401 388.435 110.116L386.862 114.55C385.432 114.121 384.145 113.835 382.714 113.835C381.427 113.835 380.426 114.264 379.854 114.979C379.282 115.837 378.996 116.981 378.996 118.554V120.271H385.575V124.704H385.718ZM409.602 147.587L408.744 144.012H408.458C407.6 145.299 406.456 146.3 405.025 147.015C403.595 147.73 401.879 148.159 400.02 148.159C396.73 148.159 394.299 147.301 392.583 145.728C390.866 144.155 390.151 141.581 390.151 138.291V120.414H396.015V137.147C396.015 139.292 396.444 140.722 397.302 141.867C398.16 142.868 399.448 143.44 401.307 143.44C403.738 143.44 405.454 142.725 406.599 141.295C407.743 139.864 408.315 137.433 408.315 134.001V120.414H414.179V147.587H409.602ZM432.485 143.297C433.915 143.297 435.345 143.011 436.776 142.582V146.872C436.203 147.158 435.345 147.444 434.344 147.587C433.343 147.73 432.342 147.873 431.198 147.873C425.763 147.873 423.046 145.013 423.046 139.292V124.704H419.327V122.13L423.332 119.985L425.334 114.264H428.909V120.271H436.633V124.704H428.909V139.292C428.909 140.722 429.196 141.724 429.911 142.439C430.34 143.011 431.341 143.297 432.485 143.297ZM461.232 147.587L460.374 144.012H460.088C459.23 145.299 458.085 146.3 456.655 147.015C455.225 147.73 453.509 148.159 451.65 148.159C448.36 148.159 445.929 147.301 444.213 145.728C442.639 144.155 441.781 141.581 441.781 138.291V120.414H447.645V137.147C447.645 139.292 448.074 140.722 448.932 141.867C449.79 142.868 451.077 143.44 452.937 143.44C455.368 143.44 457.084 142.725 458.228 141.295C459.373 139.864 459.945 137.433 459.945 134.001V120.414H465.808V147.587H461.232ZM487.833 119.842C488.978 119.842 489.979 119.985 490.694 120.128L490.122 125.562C489.264 125.419 488.405 125.276 487.547 125.276C485.259 125.276 483.4 125.991 481.97 127.565C480.539 129.138 479.824 130.997 479.824 133.428V147.587H474.104V120.414H478.68L479.395 125.133H479.681C480.539 123.56 481.827 122.273 483.257 121.272C484.544 120.414 486.117 119.842 487.833 119.842ZM506.569 148.016C502.278 148.016 498.989 146.729 496.701 144.298C494.269 141.867 493.125 138.434 493.125 134.144C493.125 129.71 494.269 126.277 496.414 123.703C498.56 121.129 501.706 119.842 505.568 119.842C509.143 119.842 512.004 120.986 514.006 123.131C516.151 125.276 517.152 128.28 517.152 132.141V135.288H498.989C499.132 137.862 499.847 140.007 501.134 141.295C502.421 142.725 504.424 143.44 506.855 143.44C508.428 143.44 510.001 143.297 511.288 143.011C512.719 142.725 514.149 142.153 515.722 141.438V146.157C514.292 146.872 512.862 147.301 511.431 147.587C510.001 147.873 508.428 148.016 506.569 148.016ZM505.568 124.275C503.708 124.275 502.278 124.847 501.134 125.991C499.99 127.136 499.418 128.852 499.132 131.14H511.431C511.431 128.852 510.859 127.136 509.858 125.991C508.714 124.847 507.284 124.275 505.568 124.275ZM560.773 133.858C560.773 138.291 559.629 141.724 557.341 144.298C555.052 146.729 551.906 148.016 547.901 148.016C545.327 148.016 543.182 147.444 541.179 146.3C539.177 145.156 537.747 143.44 536.746 141.295C535.745 139.149 535.173 136.718 535.173 133.858C535.173 129.424 536.317 125.991 538.605 123.56C540.893 121.129 544.04 119.842 548.187 119.842C552.049 119.842 555.195 121.129 557.484 123.703C559.772 126.277 560.773 129.567 560.773 133.858ZM541.036 133.858C541.036 140.15 543.325 143.297 548.044 143.297C552.621 143.297 554.909 140.15 554.909 133.858C554.909 127.708 552.621 124.561 548.044 124.561C545.613 124.561 543.897 125.419 542.753 126.993C541.608 128.566 541.036 130.854 541.036 133.858ZM581.082 124.704H574.503V147.587H568.639V124.704H564.205V121.987L568.639 120.271V118.554C568.639 115.408 569.354 112.977 570.927 111.404C572.501 109.83 574.789 109.115 577.792 109.115C579.795 109.115 581.797 109.401 583.799 110.116L582.226 114.55C580.796 114.121 579.509 113.835 578.078 113.835C576.791 113.835 575.79 114.264 575.218 114.979C574.646 115.694 574.36 116.981 574.36 118.554V120.271H580.939V124.704H581.082ZM621.699 147.587H615.835V130.854C615.835 128.709 615.406 127.279 614.691 126.134C613.976 125.133 612.689 124.561 610.973 124.561C608.684 124.561 607.111 125.276 606.11 126.707C605.109 128.137 604.537 130.568 604.537 134.001V147.587H598.816V120.414H603.393L604.251 123.989H604.537C605.252 122.702 606.396 121.701 607.826 120.986C609.256 120.271 610.83 119.985 612.546 119.985C616.693 119.985 619.554 121.415 620.841 124.275H621.27C622.128 122.988 623.272 121.844 624.703 121.129C626.133 120.414 627.849 119.985 629.708 119.985C632.998 119.985 635.286 120.843 636.859 122.416C638.289 123.989 639.147 126.564 639.147 129.853V147.587H633.427V130.854C633.427 128.709 632.998 127.279 632.283 126.134C631.424 125.133 630.28 124.561 628.564 124.561C626.276 124.561 624.703 125.276 623.701 126.707C622.7 128.137 622.128 130.282 622.128 133.142V147.587H621.699ZM670.898 133.858C670.898 138.291 669.754 141.724 667.465 144.298C665.177 146.729 662.03 148.016 658.026 148.016C655.452 148.016 653.306 147.444 651.304 146.3C649.302 145.156 647.872 143.44 646.87 141.295C645.869 139.149 645.297 136.718 645.297 133.858C645.297 129.424 646.441 125.991 648.73 123.56C651.018 121.129 654.164 119.842 658.312 119.842C662.173 119.842 665.32 121.129 667.608 123.703C669.753 126.277 670.898 129.567 670.898 133.858ZM651.161 133.858C651.161 140.15 653.449 143.297 658.169 143.297C662.746 143.297 665.034 140.15 665.034 133.858C665.034 127.708 662.746 124.561 658.169 124.561C655.738 124.561 654.021 125.419 652.877 126.993C651.733 128.566 651.161 130.854 651.161 133.858ZM701.504 147.587H695.64V130.854C695.64 128.709 695.211 127.136 694.353 126.134C693.495 125.133 692.208 124.561 690.348 124.561C687.917 124.561 686.058 125.276 685.057 126.707C684.055 128.137 683.34 130.568 683.34 134.001V147.587H677.62V120.414H682.196L683.054 123.989H683.34C684.198 122.702 685.343 121.701 686.773 120.986C688.203 120.271 689.919 119.985 691.778 119.985C698.357 119.985 701.504 123.274 701.504 129.996V147.587ZM721.383 148.016C717.093 148.016 713.803 146.729 711.515 144.298C709.084 141.867 707.94 138.434 707.94 134.144C707.94 129.71 709.084 126.277 711.229 123.703C713.374 121.129 716.521 119.842 720.382 119.842C723.958 119.842 726.818 120.986 728.82 123.131C730.966 125.276 731.967 128.28 731.967 132.141V135.288H713.803C713.946 137.862 714.661 140.007 715.949 141.295C717.236 142.725 719.238 143.44 721.669 143.44C723.243 143.44 724.816 143.297 726.103 143.011C727.39 142.725 728.963 142.153 730.537 141.438V146.157C729.106 146.872 727.676 147.301 726.246 147.587C724.816 147.873 723.243 148.016 721.383 148.016ZM720.239 124.275C718.38 124.275 716.95 124.847 715.806 125.991C714.661 127.136 714.089 128.852 713.803 131.14H726.103C726.103 128.852 725.531 127.136 724.53 125.991C723.529 124.847 722.098 124.275 720.239 124.275ZM733.397 120.414H739.69L745.268 135.86C746.126 138.005 746.698 140.15 746.984 142.01H747.127C747.27 141.151 747.556 140.007 747.985 138.72C748.414 137.433 750.416 131.283 754.278 120.414H760.571L748.986 151.163C746.841 156.741 743.408 159.601 738.403 159.601C737.115 159.601 735.828 159.458 734.684 159.172V154.595C735.542 154.738 736.543 154.881 737.688 154.881C740.405 154.881 742.407 153.308 743.551 150.019L744.552 147.444L733.397 120.414Z" fill="#263238"/>
</svg>
