<svg width="753" height="202" viewBox="0 0 753 202" fill="none" xmlns="http://www.w3.org/2000/svg">
<g clip-path="url(#clip0_1142_76)">
<path d="M752.552 137.998C751.765 137.969 752.076 138.586 752.029 138.951C751.441 143.301 750.912 147.67 749.372 151.809C747.877 155.544 745.666 158.952 742.863 161.839C737.183 168.104 729.456 172.142 721.069 173.227C710.233 174.726 700.491 171.857 692.119 164.773C688.268 161.515 685.134 157.496 682.913 152.967C680.693 148.439 679.435 143.499 679.217 138.46C679 133.421 679.829 128.392 681.652 123.689C683.475 118.986 686.252 114.712 689.808 111.136C697.452 103.587 706.67 99.6534 717.441 100.253C730.376 100.965 740.37 107.008 747.467 117.891C747.931 118.602 747.884 119.067 747.073 119.49C743.075 121.497 739.087 123.521 735.108 125.564C734.403 125.928 734.068 125.775 733.603 125.123C728.565 117.95 721.627 114.54 712.949 115.786C704.089 117.056 697.998 122.253 695.47 130.873C694.631 133.644 694.372 136.558 694.707 139.433C695.043 142.309 695.966 145.085 697.42 147.588C698.875 150.092 700.828 152.269 703.16 153.986C705.492 155.702 708.151 156.92 710.974 157.565C715.266 158.554 719.758 158.216 723.853 156.593C727.948 154.971 731.453 152.142 733.903 148.481C734.056 148.252 734.368 148.034 734.138 147.723C733.909 147.411 733.521 147.54 733.204 147.54H717.388C715.742 147.54 715.742 147.54 715.742 145.871C715.742 143.278 715.742 140.685 715.742 138.092C715.742 137.14 716.03 136.752 717.041 136.758C728.381 136.781 739.72 136.781 751.059 136.758C751.606 136.758 752.017 137.281 752.57 136.999L752.552 137.998Z" fill="#575757"/>
<path d="M122.793 1.17383C122.546 1.76176 122.793 2.4026 122.793 3.01405C122.793 26.3039 122.793 49.5919 122.793 72.8778C122.793 74.0831 122.47 74.4946 121.247 74.43C119.371 74.3359 117.484 74.3653 115.603 74.43C114.703 74.43 114.392 74.1301 114.468 73.2541C114.515 72.7544 114.468 72.2487 114.468 71.749V3.14927C114.468 2.49079 114.468 1.83231 114.468 1.17383H122.793Z" fill="#F4AA07"/>
<path d="M155.17 1.17383V4.27222C155.17 27.1897 155.17 50.119 155.17 73.0601C155.17 74.0831 154.917 74.5005 153.841 74.4535C152.042 74.3829 150.243 74.4182 148.444 74.4535C147.592 74.4535 147.186 74.1536 147.268 73.2776C147.298 72.8602 147.268 72.4428 147.268 72.0253C147.268 49.1 147.268 26.1707 147.268 3.23746C147.258 2.5322 147.384 1.83161 147.639 1.17383H155.17Z" fill="#F4AA07"/>
<path d="M138.105 1.17977C138.481 1.62391 138.667 2.19855 138.622 2.77894C138.622 26.2452 138.622 49.7095 138.622 73.1718C138.622 74.0949 138.352 74.4535 137.411 74.43C135.612 74.383 133.813 74.3889 132.014 74.43C131.261 74.43 130.92 74.1654 130.956 73.4129C130.956 73.1189 130.956 72.825 130.956 72.5369C130.956 49.6115 130.956 26.6822 130.956 3.74902C130.956 2.88477 131.02 2.02051 131.056 1.15625L138.105 1.17977Z" fill="#F4AA07"/>
<path d="M19.29 16.46C20.3835 14.661 22.1826 13.6086 23.7818 12.3857C29.4574 7.97832 35.9465 4.73374 42.8778 2.83767C45.0766 2.21016 47.3216 1.758 49.5919 1.48543C49.8389 1.48543 50.0975 1.45016 50.221 1.17383H103.205C102.988 3.4256 103.152 5.68326 103.105 7.93503C103.07 9.92223 103.035 9.96339 101.065 9.96339C86.461 9.96339 71.8569 9.93399 57.2585 9.96339C47.107 9.86033 37.2061 13.1158 29.0967 19.2233C21.2959 25.023 15.3365 32.9526 11.935 42.0585C9.78313 47.7181 8.59089 53.6972 8.4074 59.7493C7.99087 68.8768 9.90066 77.9604 13.9575 86.1474C19.2018 96.6596 27.1565 104.456 37.9685 109.159C42.8666 111.342 48.1419 112.554 53.5017 112.728C69.2758 113.133 85.0441 112.798 100.818 112.904C102.711 112.904 102.711 112.904 102.711 114.744C102.711 116.673 102.676 118.595 102.711 120.518C102.711 121.453 102.482 121.876 101.447 121.876C85.4674 121.847 69.4816 121.994 53.5017 121.77C46.5416 121.592 39.7 119.929 33.4356 116.89C27.357 114.065 21.8334 110.174 17.1264 105.402C11.8971 100.086 7.7306 93.8198 4.85043 86.9411C2.60846 81.5907 1.07853 75.9691 0.299844 70.2204C0.299665 70.1162 0.271807 70.0139 0.219121 69.9241C0.166436 69.8342 0.0908154 69.7599 0 69.7089L0 54.1464C0.523258 53.0058 0.58793 51.7359 0.770189 50.56C1.84144 44.6027 3.75991 38.8295 6.46723 33.4159C9.16508 27.9977 12.6369 23.0009 16.7737 18.5825C17.3218 17.8893 18.0191 17.3286 18.8138 16.9421C18.8843 17.336 18.6139 17.5595 18.3728 17.7887C17.1088 19.0058 15.9329 20.311 14.7864 21.6397C11.6336 25.3283 8.96436 29.4042 6.84351 33.7687C4.54338 38.441 2.83689 43.3827 1.76379 48.4787C1.01321 52.1485 0.51232 55.8649 0.264569 59.6024C0.0705516 62.2951 0.399793 64.9996 0.623206 67.7099C0.980097 71.5231 1.65863 75.2993 2.65157 78.9982C6.23583 92.5997 14.6446 104.433 26.3099 112.293C30.3443 114.98 34.7201 117.116 39.3208 118.642C46.0114 120.865 52.949 121.37 59.9395 121.394C64.7076 121.394 69.4816 121.394 74.2497 121.394C83.0687 121.394 91.8876 121.394 100.742 121.394C101.918 121.394 102.306 121.059 102.229 119.901C102.141 118.566 102.229 117.225 102.229 115.885C102.229 113.533 102.229 113.533 99.9364 113.533C85.7516 113.533 71.5668 113.533 57.382 113.533C53.7938 113.533 50.2147 113.171 46.6993 112.451C41.9047 111.476 37.3014 109.724 33.0711 107.266C26.6513 103.555 21.1541 98.4395 16.9912 92.3031C14.7209 89.0057 12.8444 85.454 11.4 81.7203C9.98574 78.0263 8.9841 74.1873 8.41328 70.2733C7.8777 66.6188 7.68089 62.9227 7.82535 59.232C7.92939 56.067 8.32299 52.9182 9.00121 49.8251C10.0012 45.2238 11.6023 40.7742 13.7635 36.5908C18.8772 26.5765 27.1402 18.5201 37.2807 13.6615C43.8008 10.5866 50.7619 9.29903 57.9111 9.24611C71.8451 9.13441 85.779 9.21084 99.713 9.21672C100.131 9.20487 100.55 9.22255 100.965 9.26963C102.37 9.46953 102.441 9.42249 102.447 7.96443C102.447 6.28882 102.365 4.60734 102.447 2.9435C102.529 1.69121 102.188 1.32081 100.877 1.32669C87.1078 1.3796 73.3384 1.32669 59.5691 1.36197C53.1551 1.30524 46.7703 2.23322 40.6377 4.11348C34.2724 6.1617 28.3319 9.34906 23.1057 13.5204C21.8475 14.4963 20.7892 15.7604 19.29 16.46Z" fill="#F9CA64"/>
<path d="M288.75 137.021C288.75 125.726 288.75 114.432 288.75 103.132C288.75 101.956 289.085 101.568 290.302 101.568C301.773 101.615 313.231 101.568 324.702 101.621C328.682 101.574 332.624 102.409 336.243 104.067C341.658 106.648 344.209 111.122 344.627 116.931C344.844 119.935 344.768 122.963 343.492 125.803C342.091 128.824 339.783 131.333 336.89 132.981C336.555 133.187 335.996 133.252 336.014 133.769C336.031 134.287 336.602 134.269 336.972 134.398C340.169 135.543 342.942 137.634 344.923 140.393C346.904 143.152 347.998 146.448 348.06 149.843C348.143 153.324 348.102 156.781 346.62 160.056C344.409 164.941 340.641 168.128 335.761 170.098C331.83 171.64 327.637 172.402 323.414 172.343C312.614 172.302 301.82 172.343 291.025 172.343C288.503 172.343 288.785 172.543 288.791 170.174C288.783 159.117 288.77 148.066 288.75 137.021ZM314.107 160.173C315.948 160.173 317.794 160.173 319.634 160.173C321.607 160.211 323.579 160.033 325.513 159.644C328.964 158.827 331.446 156.963 332.222 153.347C332.599 151.456 332.555 149.505 332.092 147.633C331.826 146.383 331.258 145.218 330.439 144.238C329.619 143.259 328.572 142.494 327.389 142.012C325.072 140.954 322.603 140.877 320.145 140.836C315.336 140.766 310.521 140.836 305.706 140.789C304.624 140.789 304.36 141.171 304.371 142.183C304.407 147.75 304.412 153.312 304.371 158.88C304.371 159.979 304.759 160.214 305.759 160.197C308.499 160.138 311.303 160.179 314.107 160.173ZM304.336 121.958V127.249C304.336 130.224 304.336 130.253 307.323 130.218C312.338 130.159 317.359 130.459 322.368 129.948C324.254 129.762 326.027 128.961 327.412 127.667C329.382 125.868 329.541 123.516 329.476 121.082C329.484 119.841 329.143 118.624 328.492 117.567C327.841 116.511 326.907 115.659 325.796 115.108C323.303 113.721 320.504 113.844 317.841 113.744C313.725 113.592 309.645 113.744 305.541 113.686C304.583 113.686 304.307 114.05 304.318 114.95C304.36 117.278 304.336 119.624 304.336 121.964V121.958Z" fill="#575757"/>
<path d="M147.393 89.7368C136.598 89.7368 125.804 89.7368 115.009 89.7662C113.716 89.7662 113.316 89.3899 113.387 88.1318C113.481 86.4209 113.463 84.6983 113.387 82.9874C113.334 81.8644 113.757 81.5705 114.839 81.5705C130.368 81.5979 145.893 81.5979 161.415 81.5705C166.224 81.5705 171.033 81.5999 175.848 81.5705C186.149 81.4882 195.838 83.8105 204.78 88.9549C211.766 92.9712 217.83 98.4116 222.577 104.923C225.794 109.255 228.41 114.001 230.355 119.033C234.012 128.605 235.459 138.47 234.054 148.689C232.384 160.912 227.11 171.436 219.038 180.654C212.393 188.299 203.969 194.19 194.509 197.81C186.338 200.998 177.541 202.253 168.805 201.479C160.153 200.811 151.724 198.412 144.018 194.424C137.908 191.266 132.425 187.02 127.838 181.895C122.442 175.918 118.449 168.811 116.15 161.094C114.555 155.498 113.8 149.697 113.91 143.879C113.91 139.111 113.939 134.343 113.91 129.575C113.91 128.399 114.163 127.905 115.45 127.982C117.33 128.085 119.214 128.085 121.094 127.982C122.27 127.929 122.588 128.393 122.576 129.516C122.523 133.949 122.576 138.388 122.547 142.821C122.5 148.747 122.993 154.58 124.934 160.247C128.873 171.688 136.21 180.325 146.628 186.387C155.577 191.59 165.301 193.824 175.584 193.53C184.966 193.245 194.066 190.254 201.788 184.917C211.599 178.428 219.05 168.941 223.03 157.872C224.877 152.886 225.87 147.625 225.969 142.31C226.051 137.833 225.551 133.364 224.482 129.016C222.455 120.565 218.401 112.733 212.67 106.199C207.339 100.024 200.516 95.3165 192.851 92.5236C188.228 90.7743 183.337 89.8413 178.394 89.7662C168.058 89.7309 157.723 89.7662 147.387 89.7662L147.393 89.7368Z" fill="#F4AA07"/>
<path d="M610.408 136.867C610.408 125.491 610.408 114.109 610.408 102.732C610.408 101.645 610.685 101.292 611.814 101.304C616.909 101.362 622.004 101.362 627.1 101.304C627.53 101.276 627.959 101.368 628.34 101.568C628.722 101.768 629.041 102.069 629.263 102.438C639.035 116.157 648.822 129.875 658.625 143.593C658.836 143.893 659.018 144.387 659.43 144.281C659.971 144.14 659.742 143.576 659.742 143.199C659.742 129.767 659.742 116.337 659.742 102.909C659.742 101.333 659.742 101.333 661.358 101.333C664.886 101.333 668.414 101.333 671.9 101.333C672.847 101.333 673.205 101.562 673.205 102.603C673.178 125.446 673.178 148.287 673.205 171.126C673.205 172.226 672.805 172.467 671.812 172.455C668.284 172.414 664.698 172.402 661.147 172.455C660.716 172.492 660.283 172.409 659.897 172.216C659.51 172.023 659.184 171.728 658.954 171.361C652.683 162.538 646.38 153.731 640.046 144.94L623.76 122.193C623.549 121.899 623.366 121.434 622.931 121.605C622.496 121.775 622.743 122.193 622.743 122.498C622.743 138.608 622.743 154.715 622.743 170.82C622.743 172.461 622.743 172.455 621.079 172.455C617.981 172.455 614.882 172.408 611.79 172.484C610.661 172.484 610.373 172.137 610.379 171.05C610.42 159.626 610.408 148.25 610.408 136.867Z" fill="#575757"/>
<path d="M541.082 50.5645C540.3 31.639 557.192 13.6718 577.875 13.7365C598.1 13.8012 614.973 30.516 614.915 51.0407C614.85 70.9363 597.559 88.5448 576.158 87.6864C558.056 86.975 540.142 70.5541 541.082 50.5645ZM555.928 50.7232C555.587 62.4818 565.811 72.4766 577.246 72.7588C589.593 73.0587 600.105 62.764 599.946 50.4998C599.799 38.7 589.898 28.8698 578.028 28.6935C565.817 28.5171 555.557 39.2468 555.928 50.735V50.7232Z" fill="#888888"/>
<path d="M358.637 137.053C358.637 125.759 358.637 114.465 358.637 103.171C358.637 101.995 358.937 101.566 360.177 101.566C371.013 101.613 381.854 101.478 392.684 101.637C399.898 101.736 406.206 104.223 410.839 110.032C413.338 113.16 414.543 116.846 415.043 120.75C415.706 125.371 415.073 130.085 413.214 134.367C412.068 137.119 410.31 139.575 408.075 141.548C405.839 143.521 403.183 144.96 400.309 145.755C399.057 146.125 399.245 146.49 399.827 147.319C405.397 155.256 410.951 163.205 416.489 171.165C416.713 171.494 417.212 171.753 416.924 172.229C416.707 172.582 416.23 172.417 415.872 172.417C410.851 172.417 405.83 172.417 400.809 172.417C400.418 172.448 400.027 172.37 399.678 172.191C399.329 172.013 399.037 171.741 398.834 171.406C393.542 163.763 388.127 156.12 382.83 148.477C382.048 147.336 381.225 146.848 379.855 146.972C378.485 147.074 377.11 147.074 375.74 146.972C374.64 146.901 374.305 147.266 374.311 148.377C374.358 155.867 374.311 163.352 374.364 170.842C374.364 172.018 374.082 172.453 372.829 172.435C368.608 172.365 364.381 172.37 360.154 172.435C358.978 172.435 358.654 172.088 358.66 170.924C358.637 159.642 358.637 148.348 358.637 137.053ZM374.229 124.248C374.229 127.012 374.229 129.769 374.229 132.532C374.229 135.296 373.929 134.931 376.651 134.884C381.125 134.837 385.605 135.131 390.067 134.719C393.048 134.449 395.906 133.679 397.769 131.098C400.533 127.276 400.462 123.067 398.722 118.945C397.211 115.388 393.93 114.242 390.332 113.96C385.37 113.583 380.39 113.707 375.416 113.66C374.429 113.66 374.24 114.095 374.24 114.953C374.223 118.063 374.211 121.156 374.217 124.248H374.229Z" fill="#575757"/>
<path d="M325.72 61.3962C325.429 61.8511 325.323 62.4005 325.426 62.9307C325.426 70.6267 325.396 78.3228 325.426 86.0188C325.426 87.1946 325.12 87.6062 323.88 87.5827C319.864 87.5062 315.848 87.518 311.833 87.5827C310.698 87.5827 310.422 87.2123 310.422 86.1363C310.445 62.5094 310.445 38.8765 310.422 15.2378C310.422 14.1737 310.733 13.7562 311.856 13.7621C320.14 13.7974 328.424 13.6739 336.708 13.8091C342.593 13.9027 348.27 16 352.801 19.7548C357.333 23.5096 360.449 28.6974 361.635 34.462C362.821 40.2266 362.006 46.2232 359.325 51.4621C356.643 56.7009 352.255 60.8688 346.885 63.2776C345.951 63.7009 345.809 64.1007 346.421 64.9591C351.418 72.0691 356.398 79.189 361.36 86.3186C361.566 86.6126 362.013 86.8595 361.807 87.2828C361.601 87.7061 361.06 87.5474 360.672 87.5474C355.651 87.5474 350.63 87.5474 345.61 87.5827C345.098 87.6273 344.584 87.5262 344.127 87.2911C343.67 87.0559 343.29 86.6964 343.029 86.2539C338.878 80.2335 334.68 74.2484 330.494 68.2515L325.72 61.3962ZM325.42 39.7428C325.42 43.0058 325.42 46.2688 325.42 49.5318C325.42 50.3961 325.667 50.7077 326.561 50.7077C329.696 50.6606 332.832 50.6606 335.967 50.7077C337.474 50.7585 338.974 50.4869 340.367 49.911C341.761 49.335 343.015 48.4681 344.046 47.3682C347.173 44.1405 348.161 39.7663 346.568 35.8389C345.778 33.7767 344.385 32.0004 342.571 30.7418C340.756 29.4833 338.605 28.8009 336.397 28.7837C333.134 28.7837 329.871 28.7837 326.608 28.7837C325.649 28.7837 325.396 29.113 325.432 30.0243C325.42 33.2167 325.391 36.4797 325.391 39.7428H325.42Z" fill="#888888"/>
<path d="M457.48 136.739C457.48 125.445 457.48 114.151 457.48 102.857C457.48 101.681 457.751 101.299 458.997 101.299C475.232 101.346 491.465 101.346 507.696 101.299C508.995 101.299 509.324 101.646 509.295 102.91C509.207 106.296 509.236 109.689 509.295 113.075C509.295 114.092 509.036 114.445 507.96 114.439C496.789 114.398 485.619 114.439 474.448 114.41C472.837 114.41 472.837 114.41 472.837 115.991C472.837 120.26 472.837 124.528 472.837 128.79C472.837 129.878 473.155 130.237 474.272 130.231C484.02 130.19 493.768 130.231 503.515 130.178C504.691 130.178 505.056 130.495 505.038 131.665C504.973 135.387 504.979 139.115 505.038 142.836C505.038 143.883 504.703 144.194 503.662 144.188C493.873 144.153 484.084 144.188 474.295 144.141C473.219 144.141 472.82 144.4 472.837 145.535C472.904 149.591 472.904 153.648 472.837 157.705C472.837 158.822 473.178 159.122 474.278 159.122C486.577 159.081 498.877 159.122 511.176 159.063C512.481 159.063 512.805 159.457 512.775 160.703C512.693 164.007 512.705 167.312 512.775 170.616C512.775 171.792 512.511 172.209 511.241 172.209C493.799 172.166 476.357 172.166 458.915 172.209C457.739 172.209 457.539 171.786 457.545 170.751C457.522 159.412 457.5 148.075 457.48 136.739Z" fill="#575757"/>
<path d="M430.445 50.6857V15.4099C430.445 13.7695 430.445 13.7695 432.115 13.7695C439.899 13.7695 447.678 13.7695 455.462 13.7695C462.058 13.7695 468.026 15.5804 473.029 19.9604C477.733 24.076 480.931 29.0969 481.848 35.4054C483.165 44.6359 480.584 52.52 473.676 58.8579C469.528 62.7567 464.153 65.091 458.472 65.4604C454.539 65.7485 450.611 65.5603 446.713 65.5897C445.714 65.5897 445.426 65.8896 445.432 66.8773C445.473 73.2798 445.432 79.6765 445.479 86.0791C445.479 87.255 445.173 87.596 443.991 87.5783C439.974 87.5078 435.958 87.5078 431.945 87.5783C430.769 87.5783 430.469 87.1962 430.469 86.0673C430.473 74.2774 430.465 62.4835 430.445 50.6857ZM445.408 39.7149C445.408 42.9309 445.449 46.1821 445.408 49.3687C445.408 50.4388 445.743 50.7151 446.766 50.6916C449.9 50.6328 453.039 50.5975 456.173 50.6916C461.465 50.8503 466.08 46.3762 467.003 42.1195C468.449 35.4348 463.393 28.8382 456.538 28.7559C453.233 28.7147 449.929 28.7559 446.631 28.7559C445.696 28.7559 445.396 29.0322 445.408 29.967C445.432 33.1948 445.408 36.4519 445.408 39.7149Z" fill="#888888"/>
<path d="M145.502 104.563C135.331 104.563 125.166 104.563 114.994 104.563C113.777 104.563 113.383 104.228 113.448 103.016C113.542 101.182 113.495 99.336 113.448 97.4958C113.448 96.6903 113.724 96.3199 114.548 96.3846C114.794 96.3846 115.047 96.3846 115.3 96.3846C134.09 96.3846 152.881 96.3846 171.671 96.3846C177.038 96.2828 182.39 96.9924 187.545 98.4894C195.032 100.75 201.774 104.982 207.064 110.742C211.783 115.82 215.237 121.94 217.147 128.603C219.499 136.658 219.752 144.748 217.194 152.82C213.308 165.078 205.771 174.573 194.994 181.435C188.644 185.48 181.648 187.808 174.028 187.808C167.142 187.832 160.351 186.201 154.227 183.051C143.456 177.56 135.813 169.17 131.756 157.717C130.397 153.797 129.74 149.667 129.816 145.518C129.863 140.162 129.816 134.806 129.816 129.45C129.816 128.386 130.098 127.951 131.239 127.998C133.156 128.086 135.09 128.074 137.012 127.998C138.088 127.956 138.376 128.374 138.365 129.385C138.329 134.089 138.423 138.792 138.365 143.443C138.188 152.109 140.616 159.905 146.231 166.531C152.634 174.109 160.724 178.624 170.695 179.553C180.813 180.494 189.168 176.614 196.452 169.993C201.819 165.149 205.879 159.03 208.258 152.203C210.517 145.769 210.795 138.806 209.057 132.213C207.393 125.213 203.68 118.868 198.392 113.987C193.33 109.291 186.986 106.205 180.166 105.121C177.352 104.708 174.509 104.529 171.665 104.586L145.502 104.563Z" fill="#F4AA07"/>
<path d="M279.537 87.6021C267.631 87.7079 258.565 83.1632 251.169 74.9439C246.94 70.3741 244.078 64.7093 242.909 58.5936C241.38 50.3626 241.997 42.2139 245.778 34.5414C247.188 31.69 248.982 29.0452 251.11 26.6807C255.884 21.3364 261.511 17.2738 268.478 15.3219C274.639 13.5196 281.162 13.3494 287.409 14.8281C293.573 16.2789 299.269 19.2686 303.965 23.5177C305.259 24.6935 305.241 24.6935 304.036 25.8694C301.196 28.7091 298.339 31.5312 295.534 34.4003C294.882 35.0646 294.47 35.0411 293.77 34.4355C288.326 29.6321 282.059 27.9095 274.839 29.103C266.479 30.4846 258.336 38.2806 257.172 47.9168C255.608 60.8512 265.226 71.2282 276.15 72.4981C282.947 73.286 288.873 71.4516 293.929 66.8423C294.488 66.3366 294.858 66.3249 295.387 66.8423C298.421 69.8995 301.46 72.9567 304.535 75.9728C305.282 76.7077 304.847 77.0605 304.306 77.5661C298.009 83.5924 288.479 87.996 279.537 87.6021Z" fill="#888888"/>
<path d="M521.863 136.869C521.863 125.533 521.863 114.192 521.863 102.857C521.863 101.681 522.163 101.299 523.398 101.299C539.676 101.346 555.953 101.346 572.231 101.299C573.407 101.299 573.736 101.622 573.719 102.775C573.648 106.208 573.66 109.636 573.719 113.069C573.719 114.086 573.454 114.439 572.372 114.433C561.202 114.392 550.031 114.433 538.86 114.404C537.285 114.404 537.285 114.404 537.285 116.026C537.285 120.254 537.314 124.475 537.285 128.702C537.285 129.831 537.579 130.231 538.772 130.231C548.479 130.184 558.174 130.231 567.898 130.172C569.127 130.172 569.503 130.537 569.48 131.736C569.429 135.373 569.429 139.013 569.48 142.654C569.48 143.777 569.18 144.194 567.992 144.188C558.28 144.141 548.591 144.188 538.866 144.135C537.69 144.135 537.273 144.388 537.279 145.652C537.332 154.06 537.279 162.467 537.338 170.88C537.338 172.097 536.938 172.356 535.827 172.338C531.711 172.286 527.537 172.274 523.398 172.338C522.222 172.338 521.899 172.045 521.904 170.875C521.881 159.545 521.863 148.21 521.863 136.869Z" fill="#575757"/>
<path d="M77.3338 97.977H100.927C102.574 97.977 102.574 97.977 102.574 99.6761C102.574 101.516 102.544 103.362 102.574 105.203C102.574 106.179 102.333 106.614 101.227 106.614C86.335 106.578 71.4368 106.614 56.5445 106.578C47.0553 106.578 38.7126 103.298 31.387 97.3596C23.8433 91.3426 18.3474 83.1377 15.654 73.8718C12.9561 64.9046 13.3495 55.291 16.7711 46.5742C19.4959 39.2968 23.904 32.7674 29.635 27.5194C36.1492 21.5049 43.7041 17.5246 52.5643 16.3487C54.2654 16.1468 55.978 16.0565 57.691 16.0783C72.2129 16.0783 86.7289 16.0783 101.245 16.0371C102.538 16.0371 102.926 16.4134 102.856 17.6774C102.75 19.4412 102.856 21.2697 102.826 23.0688C102.826 24.6327 102.756 24.7032 101.198 24.7032H61.3068C59.4254 24.7032 57.544 24.7032 55.6626 24.7502C48.8015 24.9501 42.787 27.5018 37.4368 31.6349C29.9649 37.2963 24.7691 45.4478 22.7915 54.6112C21.2952 61.2331 21.8657 68.1546 24.4259 74.4421C27.9888 83.4551 34.0092 90.3515 42.7164 94.7492C46.9433 96.9022 51.6246 98.011 56.3682 97.9828C63.3587 97.9652 70.3433 97.9829 77.3338 97.977Z" fill="#F4AA07"/>
<path d="M390.209 70.9667C390.209 66.5337 390.109 62.1007 390.251 57.6736C390.29 55.6315 389.756 53.6191 388.71 51.8648C383.295 41.9817 377.939 32.0692 372.56 22.1685C371.243 19.7462 369.949 17.3181 368.562 14.9369C367.974 13.961 368.327 13.7611 369.244 13.7611C374.094 13.7611 378.95 13.7611 383.801 13.7611C384.151 13.7337 384.501 13.8165 384.801 13.9978C385.101 14.1791 385.338 14.45 385.477 14.7723C389.004 21.3454 392.608 27.9008 396.183 34.4562C396.447 34.9325 396.724 35.3969 396.959 35.8908C397.1 36.1965 397.2 36.561 397.6 36.5669C397.999 36.5728 398.076 36.1436 398.223 35.8673C400.351 31.9791 402.472 28.0909 404.584 24.2027C406.277 21.0671 407.969 17.9432 409.658 14.8311C409.801 14.488 410.048 14.1987 410.365 14.0044C410.681 13.8102 411.051 13.7209 411.422 13.7493C416.231 13.8022 421.04 13.7493 425.85 13.7493C427.178 13.7493 427.225 13.8551 426.626 14.9605C421.413 24.5516 416.194 34.1309 410.969 43.6985C409.152 47.0379 407.359 50.3833 405.501 53.6933C405.164 54.3146 405 55.0151 405.025 55.7217C405.025 65.8458 405.025 75.9641 405.055 86.0883C405.055 87.2289 404.778 87.5993 403.597 87.5816C399.579 87.5111 395.563 87.5111 391.55 87.5816C390.409 87.5816 390.151 87.223 390.162 86.1471C390.239 81.0909 390.209 76.0288 390.209 70.9667Z" fill="#888888"/>
<path d="M521.047 58.2975C521.047 67.5868 521.047 76.8702 521.047 86.1595C521.047 87.259 520.759 87.6058 519.642 87.5882C515.628 87.5255 511.611 87.5255 507.589 87.5882C506.355 87.5882 505.932 87.2942 505.937 85.9832C505.977 67.4516 505.977 48.9181 505.937 30.3826C505.937 28.7364 505.937 28.7422 504.297 28.7422C499.194 28.7422 494.091 28.7422 488.981 28.7422C487.941 28.7422 487.606 28.4306 487.617 27.3841C487.668 23.2804 487.668 19.1805 487.617 15.0846C487.617 14.0146 487.982 13.7441 488.999 13.7441C505.277 13.7677 521.555 13.7677 537.833 13.7441C538.956 13.7441 539.373 14.0205 539.349 15.2198C539.275 19.2335 539.275 23.251 539.349 27.2724C539.349 28.4836 538.932 28.7481 537.821 28.7422C532.718 28.6952 527.614 28.7422 522.535 28.6952C521.294 28.6952 520.983 29.1009 520.988 30.2826C521.065 39.6366 521.047 48.9671 521.047 58.2975Z" fill="#888888"/>
<path d="M144.399 117.877H114.903C113.421 117.877 113.374 117.783 113.409 116.313C113.444 114.602 113.409 112.886 113.409 111.175C113.38 110.205 113.65 109.734 114.75 109.734C134.245 109.764 153.747 109.734 173.243 109.781C181.815 109.811 188.647 113.726 194.279 119.935C197.773 123.739 200.383 128.268 201.922 133.199C203.471 138.004 203.59 143.155 202.263 148.026C200.246 155.793 195.505 162.576 188.905 167.14C182.585 171.614 175.565 172.925 168.022 171.52C161.701 170.458 155.886 167.398 151.431 162.789C146.88 158.056 144.276 152.442 144.223 145.798C144.181 140.195 144.223 134.586 144.193 128.983C144.193 128.06 144.47 127.719 145.416 127.743C147.38 127.801 149.349 127.825 151.295 127.743C152.471 127.69 152.836 128.072 152.824 129.236C152.771 134.292 152.953 139.36 152.765 144.416C152.407 154.105 159.503 160.802 167.111 162.966C170.962 164.065 174.836 164.465 178.717 163.224C184.984 161.214 189.27 156.898 192.121 151.136C196.648 141.988 194.532 133.675 188.594 125.985C186.046 122.57 182.509 120.02 178.464 118.683C176.709 118.128 174.877 117.854 173.037 117.871L144.399 117.877Z" fill="#F4AA07"/>
<path d="M77.7134 91.4966C70.6583 91.4966 63.5855 91.4966 56.495 91.4966C49.6456 91.4966 43.8604 88.9274 39.0217 84.2004C33.1894 78.4916 29.95 71.5364 29.6148 63.3406C29.1798 51.8525 33.6539 42.7631 43.3136 36.4311C46.919 34.0113 51.1536 32.6993 55.4955 32.6565C70.8582 32.5625 86.2149 32.6036 101.572 32.5684C102.589 32.5684 102.871 32.9505 102.842 33.9088C102.789 35.8314 102.765 37.7598 102.842 39.6823C102.9 40.9111 102.436 41.258 101.242 41.258C86.5441 41.2227 71.8459 41.258 57.1476 41.2109C51.9268 41.2109 47.435 42.8807 43.8075 46.5846C38.2692 52.3287 36.5936 59.2251 38.2104 66.9329C39.351 72.3183 42.079 76.7925 46.7001 79.9614C49.1241 81.7158 52.0119 82.7159 55.0017 82.8364C59.4347 82.9305 63.8735 82.9011 68.3065 82.907H100.948C102.536 82.907 102.565 82.9422 102.571 84.5296C102.571 86.3287 102.512 88.1337 102.571 89.9268C102.618 91.1027 102.324 91.5437 101.043 91.5319C93.2818 91.4672 85.4976 91.4966 77.7134 91.4966Z" fill="#F4AA07"/>
<path d="M445.842 136.991C445.842 148.327 445.842 159.664 445.842 171.003C445.842 171.95 445.636 172.355 444.602 172.344C440.208 172.301 435.816 172.301 431.426 172.344C430.433 172.344 430.145 172.009 430.145 171.027C430.176 148.356 430.176 125.684 430.145 103.009C430.145 101.91 430.491 101.557 431.591 101.569C435.853 101.616 440.122 101.627 444.39 101.569C445.607 101.569 445.848 102.015 445.848 103.121C445.831 114.409 445.842 125.703 445.842 136.991Z" fill="#575757"/>
<path d="M598.333 136.991C598.333 148.327 598.333 159.662 598.333 170.997C598.333 172.079 597.968 172.35 596.957 172.344C592.606 172.301 588.256 172.301 583.905 172.344C582.911 172.344 582.623 172.009 582.629 171.027C582.653 148.356 582.653 125.686 582.629 103.015C582.629 101.916 582.964 101.557 584.064 101.569C588.332 101.622 592.6 101.627 596.869 101.569C598.086 101.569 598.327 102.01 598.327 103.115C598.315 114.409 598.333 125.703 598.333 136.991Z" fill="#575757"/>
<path d="M19.2835 16.4613C20.7827 15.7793 21.841 14.5152 23.0992 13.5216C28.3254 9.35033 34.2658 6.16297 40.6312 4.11476C46.7794 2.24624 53.1783 1.3341 59.6037 1.41028C73.3731 1.41028 87.1424 1.41028 100.912 1.375C102.223 1.375 102.564 1.73952 102.482 2.99181C102.376 4.65565 102.482 6.33713 102.482 8.01273C102.482 9.4708 102.405 9.51784 101 9.31794C100.584 9.27086 100.166 9.25318 99.7476 9.26503C85.8137 9.26503 71.8797 9.18272 57.9458 9.29442C50.7966 9.34734 43.8355 10.6349 37.3153 13.7098C27.1748 18.5684 18.9119 26.6248 13.7981 36.6391C11.637 40.8225 10.0358 45.2721 9.03586 49.8734C8.35763 52.9666 7.96403 56.1153 7.86 59.2803C7.71553 62.971 7.91235 66.6671 8.44793 70.3216C9.00882 74.2181 9.9966 78.0411 11.3935 81.7216C12.8379 85.4552 14.7144 89.007 16.9847 92.3043C21.1385 98.4516 26.6298 103.579 33.0469 107.302C37.2773 109.761 41.8805 111.512 46.6752 112.488C50.1906 113.207 53.7696 113.57 57.3579 113.57C71.5387 113.601 85.7235 113.601 99.9123 113.57C102.205 113.57 102.205 113.57 102.205 115.921C102.205 117.262 102.135 118.602 102.205 119.937C102.282 121.113 101.882 121.436 100.718 121.43C91.8988 121.389 83.0798 121.43 74.2256 121.43C69.4575 121.43 64.6835 121.43 59.9154 121.43C52.9249 121.43 45.9873 120.901 39.2966 118.679C34.7002 117.14 30.3303 114.992 26.3034 112.294C14.6381 104.435 6.22931 92.601 2.64505 78.9995C1.65212 75.3006 0.973584 71.5244 0.616694 67.7112C0.39328 65.0008 0.064039 62.3199 0.258056 59.6036C0.505808 55.8661 1.0067 52.1497 1.75728 48.48C2.83132 43.388 4.53779 38.4503 6.837 33.7817C8.94782 29.4147 11.6071 25.3349 14.7505 21.641C15.897 20.3122 17.0729 19.007 18.3369 17.79C18.578 17.5607 18.8484 17.3373 18.7779 16.9434L19.2835 16.4613Z" fill="#F4A801"/>
</g>
<defs>
<clipPath id="clip0_1142_76">
<rect width="752.551" height="201.725" fill="white"/>
</clipPath>
</defs>
</svg>
