<svg width="596" height="200" viewBox="0 0 596 200" fill="none" xmlns="http://www.w3.org/2000/svg">
<path d="M215.587 143H199.004V63.5117H244.566V77.3216H215.587V97.8189H242.554V111.574H215.587V143ZM283.712 80.9643C291.867 80.9643 298.12 82.7404 302.469 86.2926C306.819 89.8447 308.994 95.2454 308.994 102.495V143H297.413L294.205 134.736H293.77C292.03 136.911 290.254 138.687 288.442 140.064C286.63 141.441 284.545 142.456 282.189 143.109C279.833 143.761 276.97 144.087 273.599 144.087C270.011 144.087 266.785 143.399 263.921 142.021C261.094 140.644 258.865 138.542 257.234 135.714C255.603 132.851 254.787 129.226 254.787 124.841C254.787 118.389 257.053 113.64 261.583 110.596C266.114 107.515 272.91 105.811 281.972 105.485L292.52 105.159V102.495C292.52 99.305 291.686 96.9671 290.019 95.481C288.351 93.9949 286.032 93.2519 283.059 93.2519C280.123 93.2519 277.242 93.6687 274.415 94.5024C271.587 95.336 268.76 96.3872 265.933 97.6558L260.442 86.4557C263.668 84.7521 267.274 83.411 271.261 82.4323C275.284 81.4537 279.435 80.9643 283.712 80.9643ZM292.52 114.837L286.104 115.054C280.74 115.199 277.006 116.16 274.904 117.936C272.838 119.712 271.805 122.05 271.805 124.949C271.805 127.487 272.548 129.299 274.034 130.386C275.52 131.437 277.459 131.963 279.852 131.963C283.404 131.963 286.394 130.912 288.822 128.81C291.287 126.707 292.52 123.717 292.52 119.839V114.837ZM342.703 82.2148V143H326.12V82.2148H342.703ZM334.439 58.401C336.903 58.401 339.024 58.9809 340.8 60.1408C342.576 61.2644 343.464 63.3849 343.464 66.502C343.464 69.583 342.576 71.7215 340.8 72.9176C339.024 74.0775 336.903 74.6575 334.439 74.6575C331.938 74.6575 329.799 74.0775 328.023 72.9176C326.283 71.7215 325.413 69.583 325.413 66.502C325.413 63.3849 326.283 61.2644 328.023 60.1408C329.799 58.9809 331.938 58.401 334.439 58.401ZM376.738 143H360.155V58.401H376.738V143ZM449.43 112.499C449.43 117.573 448.741 122.068 447.364 125.982C446.023 129.897 444.048 133.213 441.438 135.932C438.864 138.614 435.747 140.644 432.086 142.021C428.462 143.399 424.366 144.087 419.799 144.087C415.522 144.087 411.589 143.399 408.001 142.021C404.448 140.644 401.349 138.614 398.703 135.932C396.094 133.213 394.064 129.897 392.614 125.982C391.2 122.068 390.494 117.573 390.494 112.499C390.494 105.757 391.69 100.048 394.082 95.3723C396.474 90.6965 399.881 87.1443 404.303 84.7158C408.725 82.2873 413.999 81.0731 420.125 81.0731C425.816 81.0731 430.854 82.2873 435.24 84.7158C439.662 87.1443 443.123 90.6965 445.624 95.3723C448.162 100.048 449.43 105.757 449.43 112.499ZM407.402 112.499C407.402 116.486 407.837 119.839 408.707 122.557C409.577 125.276 410.936 127.323 412.785 128.701C414.634 130.078 417.044 130.767 420.016 130.767C422.952 130.767 425.326 130.078 427.139 128.701C428.987 127.323 430.328 125.276 431.162 122.557C432.032 119.839 432.467 116.486 432.467 112.499C432.467 108.475 432.032 105.141 431.162 102.495C430.328 99.8125 428.987 97.8008 427.139 96.4597C425.29 95.1185 422.88 94.448 419.907 94.448C415.522 94.448 412.332 95.9522 410.338 98.9607C408.381 101.969 407.402 106.482 407.402 112.499ZM497.058 81.0731C497.892 81.0731 498.852 81.1275 499.939 81.2362C501.063 81.3087 501.969 81.4174 502.658 81.5624L501.407 97.1121C500.864 96.9309 500.084 96.804 499.07 96.7315C498.091 96.6228 497.239 96.5684 496.514 96.5684C494.376 96.5684 492.291 96.8403 490.262 97.3839C488.268 97.9276 486.474 98.8157 484.879 100.048C483.284 101.244 482.016 102.839 481.073 104.833C480.167 106.79 479.714 109.2 479.714 112.064V143H463.131V82.2148H475.691L478.137 92.4363H478.953C480.149 90.3703 481.635 88.4855 483.411 86.7819C485.223 85.0421 487.271 83.6647 489.555 82.6498C491.875 81.5987 494.376 81.0731 497.058 81.0731ZM504.996 82.2148H523.155L534.627 116.413C534.99 117.501 535.298 118.606 535.552 119.73C535.805 120.853 536.023 122.013 536.204 123.209C536.385 124.406 536.53 125.656 536.639 126.961H536.965C537.183 125.004 537.473 123.173 537.835 121.47C538.234 119.766 538.723 118.081 539.303 116.413L550.558 82.2148H568.336L542.62 150.775C541.061 154.979 539.031 158.477 536.53 161.268C534.029 164.095 531.148 166.216 527.885 167.629C524.659 169.043 521.107 169.75 517.229 169.75C515.344 169.75 513.713 169.641 512.336 169.424C510.958 169.242 509.78 169.043 508.802 168.826V155.668C509.563 155.849 510.523 156.012 511.683 156.157C512.843 156.302 514.057 156.375 515.326 156.375C517.646 156.375 519.639 155.886 521.307 154.907C522.974 153.928 524.37 152.605 525.493 150.938C526.617 149.307 527.505 147.513 528.157 145.555L529.136 142.565L504.996 82.2148Z" fill="black"/>
<g clip-path="url(#clip0_1153_2)">
<path fill-rule="evenodd" clip-rule="evenodd" d="M38 158.726V59.901L97.7217 8V116.779L38 158.726Z" fill="black"/>
<path fill-rule="evenodd" clip-rule="evenodd" d="M108.382 28.6216L138.242 17.957V133.846L53.6367 160.151L108.382 121.759V28.6216Z" fill="black"/>
<path fill-rule="evenodd" clip-rule="evenodd" d="M149.633 57.0586H178.072V169.392H153.899V191.432L133.281 169.392H56.4961L148.922 141.664L149.633 57.0586Z" fill="black"/>
</g>
<defs>
<clipPath id="clip0_1153_2">
<rect width="140.062" height="184.853" fill="white" transform="translate(27 8)"/>
</clipPath>
</defs>
</svg>
