<svg width="1761" height="201" viewBox="0 0 1761 201" fill="none" xmlns="http://www.w3.org/2000/svg">
<path fill-rule="evenodd" clip-rule="evenodd" d="M144.363 54.7442L192.774 4.04492V151.214L144.363 195.576V54.7442Z" fill="#2471B9"/>
<path fill-rule="evenodd" clip-rule="evenodd" d="M73.043 80.6255L96.4562 99.8138L121.454 77.6328V151.217L73.043 195.579V80.6255Z" fill="#458CCA"/>
<path fill-rule="evenodd" clip-rule="evenodd" d="M50.3368 54.7442L1.75 4.04492V196.104L50.3368 154.734V54.7442Z" fill="#75B5E3"/>
<path d="M591.315 116.007H657.681V83.0882H591.315V60.027H666.835V26.9316H555.227V173.22H667.892V140.125H591.315V116.007Z" fill="black"/>
<path d="M358.932 84.1444L323.372 26.9316H285.699V173.22H321.611V88.1933L356.643 141.357H360.34L395.724 87.6652V173.22H431.988V26.9316H394.315L358.932 84.1444Z" fill="black"/>
<path d="M845.335 83.6149C820.337 77.2775 816.993 74.6369 816.993 67.7714V67.4193C816.993 61.61 822.978 57.9132 832.308 57.9132C842.87 57.9132 854.313 62.3142 867.34 71.2922L869.628 72.8766L888.641 45.2384L886.704 43.654C871.389 31.3313 853.257 25.1699 832.66 25.1699C802.029 25.1699 780.729 43.654 780.729 70.236V70.412C780.729 101.219 801.853 108.965 829.491 116.006C853.961 122.344 855.721 126.04 855.721 131.322V131.674C855.721 138.363 849.208 142.236 838.117 142.236C824.21 142.236 811.359 136.955 797.804 125.688L795.692 123.928L774.039 149.982L775.975 151.742C792.699 166.705 814.528 174.979 837.589 174.979C870.685 174.979 891.985 156.847 891.985 128.681V128.505C891.985 101.219 873.325 90.8326 845.335 83.6149Z" fill="black"/>
<path d="M1603.52 76.5747V76.2226C1603.52 62.3155 1599.12 50.5209 1590.67 42.071C1580.81 32.2128 1566.02 26.9316 1547.71 26.9316H1480.46V173.22H1516.9V128.154H1537.15L1567.25 173.22H1610.03L1574.65 121.465C1593.31 113.367 1603.52 97.5234 1603.52 76.5747ZM1566.55 77.807V78.1591C1566.55 88.8974 1558.63 95.4109 1545.6 95.4109H1516.9V60.3791H1544.9C1554.93 60.3791 1566.55 63.3718 1566.55 77.807Z" fill="black"/>
<path d="M1066.77 83.6149C1041.77 77.2775 1038.43 74.6369 1038.43 67.7714V67.4193C1038.43 61.61 1044.42 57.9132 1053.75 57.9132C1064.31 57.9132 1075.75 62.3142 1088.78 71.2922L1091.07 72.8766L1110.08 45.2384L1108.14 43.654C1092.83 31.3313 1074.69 25.1699 1054.1 25.1699C1023.47 25.1699 1002.17 43.654 1002.17 70.236V70.412C1002.17 101.219 1023.29 108.965 1050.93 116.006C1075.4 122.344 1077.16 126.04 1077.16 131.322V131.674C1077.16 138.363 1070.65 142.236 1059.55 142.236C1045.65 142.236 1032.8 136.955 1019.24 125.688L1017.13 123.928L995.477 149.982L997.413 151.742C1014.14 166.705 1035.97 174.979 1059.03 174.979C1092.12 174.979 1113.42 156.847 1113.42 128.681V128.505C1113.42 101.219 1094.76 90.8326 1066.77 83.6149Z" fill="black"/>
<path d="M1758.62 26.9316H1722.18V173.22H1758.62V26.9316Z" fill="black"/>
<path d="M1276.1 25.873L1213.43 173.042H1250.92L1263.77 141.531H1319.58L1332.43 173.042H1370.8L1308.13 25.873H1276.1V25.873ZM1306.37 108.788H1277.15L1291.76 73.0516L1306.37 108.788Z" fill="black"/>
</svg>
