<svg width="278" height="201" viewBox="0 0 278 201" fill="none" xmlns="http://www.w3.org/2000/svg">
<g clip-path="url(#clip0_1142_56)">
<path d="M36.2583 97.3862C30.9164 97.3862 26.4139 96.2415 22.7508 93.9521C19.0878 91.6119 16.4677 88.3558 14.8906 84.184L25.4218 78.0789C27.5586 83.0139 31.298 85.4813 36.6399 85.4813C41.473 85.4813 43.8896 84.0314 43.8896 81.1314C43.8896 79.5035 43.1011 78.2825 41.524 77.4685C39.8959 76.5018 36.996 75.4589 32.8242 74.3396C28.5507 73.1695 24.9385 71.4906 21.9877 69.3029C18.7317 66.6574 17.1036 62.9181 17.1036 58.0849C17.1036 53.1499 18.8589 49.207 22.3693 46.2562C25.9306 43.3055 30.1532 41.8301 35.0373 41.8301C39.4127 41.8301 43.2792 42.873 46.6369 44.959C49.9947 46.994 52.6402 49.9702 54.5735 53.8876L44.2712 59.9164C42.338 55.7955 39.26 53.735 35.0373 53.735C33.2566 53.735 31.8576 54.1166 30.84 54.8796C29.8226 55.6429 29.3139 56.6095 29.3139 57.7796C29.3139 59.0514 29.9243 60.1962 31.1453 61.2137C32.4681 62.2312 35.0628 63.2996 38.9293 64.4189L43.8896 66.0215C45.1616 66.4285 46.6369 67.1153 48.3158 68.0819C50.1474 68.9977 51.521 69.9897 52.4368 71.0581C54.8788 73.7037 56.0998 77.0106 56.0998 80.9789C56.0998 86.0155 54.2682 90.0347 50.6052 93.0364C46.9422 95.9363 42.1599 97.3862 36.2583 97.3862ZM103.038 42.8985H115.248V96.3179H103.038V65.2583L89.2258 87.9234H87.8521L74.0394 65.2583V96.3179H61.8292V42.8985H74.0394L88.5389 66.6319L103.038 42.8985ZM222.874 96.3179H209.748L199.675 78.7658H193.876V96.3179H181.665V42.8985H203.033C208.12 42.8985 212.445 44.6791 216.006 48.2405C219.567 51.8017 221.348 56.1261 221.348 61.2137C221.348 64.4189 220.432 67.4205 218.6 70.2187C216.82 73.0169 214.454 75.1791 211.504 76.7053L222.874 96.3179ZM203.033 54.3455H193.876V68.0819H203.033C204.712 68.0819 206.137 67.4205 207.306 66.0977C208.527 64.775 209.138 63.147 209.138 61.2137C209.138 59.2805 208.527 57.6524 207.306 56.3297C206.137 55.0068 204.712 54.3455 203.033 54.3455ZM223.682 42.8985H263.366V54.6507H249.629V96.3179H237.419V54.6507H223.682V42.8985Z" fill="black"/>
<path d="M22.7552 93.9535L21.7251 95.5659L21.733 95.571L21.7411 95.5761L22.7552 93.9535ZM14.895 84.1854L13.9353 82.5299L12.5312 83.3439L13.1051 84.862L14.895 84.1854ZM25.4262 78.0803L27.1822 77.3201L26.3275 75.3461L24.4666 76.4249L25.4262 78.0803ZM41.5284 77.4698L40.5515 79.1151L40.6003 79.144L40.6508 79.1702L41.5284 77.4698ZM32.8286 74.341L32.3233 76.1864L32.328 76.1878L32.3329 76.1891L32.8286 74.341ZM21.9921 69.3042L20.7856 70.7893L20.8185 70.8161L20.8526 70.8413L21.9921 69.3042ZM22.3737 46.2576L21.1529 44.7842L21.1477 44.7886L21.1425 44.7929L22.3737 46.2576ZM46.6414 44.9603L45.6316 46.5857L45.6407 46.5912L45.6496 46.5967L46.6414 44.9603ZM54.5779 53.889L55.5444 55.5404L57.0826 54.6403L56.2938 53.0422L54.5779 53.889ZM44.2756 59.9177L42.5433 60.7304L43.4334 62.6276L45.242 61.5692L44.2756 59.9177ZM30.8445 54.881L29.6964 53.3503L30.8445 54.881ZM31.1498 61.215L29.9248 62.685L29.9535 62.7089L29.9831 62.7317L31.1498 61.215ZM38.9337 64.4203L39.522 62.5995L39.494 62.5905L39.4658 62.5822L38.9337 64.4203ZM43.894 66.0228L43.3058 67.8436L43.3084 67.8444L43.3109 67.8453L43.894 66.0228ZM48.3202 68.0832L47.3656 69.7416L47.4143 69.7695L47.4645 69.7947L48.3202 68.0832ZM52.4412 71.0595L50.9884 72.3047L51.0113 72.3315L51.0351 72.3573L52.4412 71.0595ZM50.6096 93.0377L51.7973 94.538L51.81 94.528L51.8225 94.5177L50.6096 93.0377ZM36.2627 95.4741C31.1946 95.4741 27.0637 94.3898 23.7694 92.3308L21.7411 95.5761C25.7729 98.0959 30.647 99.3011 36.2627 99.3011V95.4741ZM23.7855 92.3411C20.4794 90.2289 18.1202 87.3057 16.6849 83.5087L13.1051 84.862C14.8241 89.4087 17.7051 92.9976 21.7251 95.5659L23.7855 92.3411ZM15.8546 85.8408L26.3859 79.7358L24.4666 76.4249L13.9353 82.5299L15.8546 85.8408ZM23.6703 78.8406C24.8565 81.58 26.542 83.7527 28.7795 85.2292C31.0178 86.7062 33.6719 87.3962 36.6443 87.3962V83.5692C34.2748 83.5692 32.3882 83.0254 30.8872 82.035C29.3854 81.044 28.1327 79.5155 27.1822 77.3201L23.6703 78.8406ZM36.6443 87.3962C39.1898 87.3962 41.4169 87.0255 43.0661 86.0361C44.8709 84.9531 45.8075 83.2311 45.8075 81.1328H41.9806C41.9806 81.9346 41.7089 82.3874 41.0971 82.7544C40.3297 83.215 38.932 83.5692 36.6443 83.5692V87.3962ZM45.8075 81.1328C45.8075 79.9962 45.5275 78.914 44.9101 77.958C44.2984 77.0109 43.4261 76.296 42.406 75.7695L40.6508 79.1702C41.2078 79.4576 41.5183 79.7602 41.6952 80.0342C41.8664 80.2991 41.9806 80.6415 41.9806 81.1328H45.8075ZM42.5053 75.8245C40.6311 74.7118 37.5055 73.6146 33.3244 72.4928L32.3329 76.1891C36.4954 77.3058 39.1695 78.2945 40.5515 79.1151L42.5053 75.8245ZM33.334 72.4954C29.2432 71.3753 25.8572 69.7877 23.1317 67.7671L20.8526 70.8413C24.0286 73.1961 27.867 74.9663 32.3233 76.1864L33.334 72.4954ZM23.1987 67.8193C20.461 65.5948 19.0215 62.4416 19.0215 58.0863H15.1946C15.1946 63.3973 17.0112 67.7227 20.7856 70.7893L23.1987 67.8193ZM19.0215 58.0863C19.0215 53.6674 20.5632 50.2792 23.605 47.7224L21.1425 44.7929C17.1634 48.1376 15.1946 52.6351 15.1946 58.0863H19.0215ZM23.5945 47.731C26.7924 45.0814 30.5764 43.7449 35.0417 43.7449V39.918C29.7389 39.918 25.0777 41.5323 21.1529 44.7842L23.5945 47.731ZM35.0417 43.7449C39.0996 43.7449 42.6088 44.7078 45.6316 46.5857L47.651 43.3349C43.9584 41.041 39.7345 39.918 35.0417 39.918V43.7449ZM45.6496 46.5967C48.6614 48.422 51.0713 51.1071 52.8621 54.7358L56.2938 53.0422C54.2181 48.836 51.3369 45.5687 47.6331 43.3239L45.6496 46.5967ZM53.6115 52.2375L43.3093 58.2662L45.242 61.5692L55.5444 55.5404L53.6115 52.2375ZM46.008 59.105C44.9273 56.8014 43.4694 54.9553 41.5816 53.6916C39.6851 52.422 37.4774 51.8229 35.0417 51.8229V55.6498C36.8288 55.6498 38.2713 56.0809 39.4528 56.8717C40.643 57.6686 41.6907 58.9131 42.5433 60.7304L46.008 59.105ZM35.0417 51.8229C33.0087 51.8229 31.1545 52.2567 29.6964 53.3503L31.9925 56.4118C32.5695 55.9791 33.5135 55.6498 35.0417 55.6498V51.8229ZM29.6964 53.3503C28.2456 54.4384 27.4048 55.9504 27.4048 57.781H31.2316C31.2316 57.2713 31.4083 56.85 31.9925 56.4118L29.6964 53.3503ZM27.4048 57.781C27.4048 59.7588 28.3861 61.4028 29.9248 62.685L32.3747 59.7451C31.4713 58.9923 31.2316 58.3468 31.2316 57.781H27.4048ZM29.9831 62.7317C31.6229 63.9931 34.5403 65.1405 38.4017 66.2582L39.4658 62.5822C35.5941 61.4615 33.3221 60.4721 32.3164 59.6984L29.9831 62.7317ZM38.3455 66.2411L43.3058 67.8436L44.4823 64.2021L39.522 62.5995L38.3455 66.2411ZM43.3109 67.8453C44.4099 68.197 45.7566 68.8152 47.3656 69.7416L49.2749 66.425C47.5261 65.4181 45.922 64.6627 44.4773 64.2004L43.3109 67.8453ZM47.4645 69.7947C49.1631 70.644 50.296 71.4971 50.9884 72.3047L53.894 69.8142C52.7547 68.4852 51.1404 67.3541 49.176 66.3718L47.4645 69.7947ZM51.0351 72.3573C53.1164 74.6121 54.1908 77.4396 54.1908 80.9803H58.0177C58.0177 76.5842 56.6499 72.7979 53.8471 69.7616L51.0351 72.3573ZM54.1908 80.9803C54.1908 85.4852 52.585 88.9452 49.3968 91.5577L51.8225 94.5177C55.9603 91.127 58.0177 86.5485 58.0177 80.9803H54.1908ZM49.422 91.5375C46.1776 94.106 41.8488 95.4741 36.2627 95.4741V99.3011C42.4799 99.3011 47.7156 97.7694 51.7973 94.538L49.422 91.5375ZM103.043 42.8998V40.9863H101.97L101.41 41.9023L103.043 42.8998ZM115.253 42.8998H117.166V40.9863H115.253V42.8998ZM115.253 96.3192V98.2327H117.166V96.3192H115.253ZM103.043 96.3192H101.129V98.2327H103.043V96.3192ZM103.043 65.2596H104.956V58.443L101.409 64.2639L103.043 65.2596ZM89.2302 87.9247V89.8382H90.3048L90.8642 88.9205L89.2302 87.9247ZM87.8565 87.9247L86.2225 88.9205L86.7819 89.8382H87.8565V87.9247ZM74.0438 65.2596L75.6777 64.2639L72.1304 58.443V65.2596H74.0438ZM74.0438 96.3192V98.2327H75.9572V96.3192H74.0438ZM61.8336 96.3192H59.9202V98.2327H61.8336V96.3192ZM61.8336 42.8998V40.9863H59.9202V42.8998H61.8336ZM74.0438 42.8998L75.6766 41.9023L75.1171 40.9863H74.0438V42.8998ZM88.5433 66.6333L86.9105 67.6309L88.5433 70.3036L90.1762 67.6309L88.5433 66.6333ZM103.043 44.8133H115.253V40.9863H103.043V44.8133ZM113.339 42.8998V96.3192H117.166V42.8998H113.339ZM115.253 94.4058H103.043V98.2327H115.253V94.4058ZM104.956 96.3192V65.2596H101.129V96.3192H104.956ZM101.409 64.2639L87.5962 86.929L90.8642 88.9205L104.677 66.2555L101.409 64.2639ZM89.2302 86.0113H87.8565V89.8382H89.2302V86.0113ZM89.4905 86.929L75.6777 64.2639L72.4099 66.2555L86.2225 88.9205L89.4905 86.929ZM72.1304 65.2596V96.3192H75.9572V65.2596H72.1304ZM74.0438 94.4058H61.8336V98.2327H74.0438V94.4058ZM63.7471 96.3192V42.8998H59.9202V96.3192H63.7471ZM61.8336 44.8133H74.0438V40.9863H61.8336V44.8133ZM72.411 43.8974L86.9105 67.6309L90.1762 65.6358L75.6766 41.9023L72.411 43.8974ZM90.1762 67.6309L104.676 43.8974L101.41 41.9023L86.9105 65.6358L90.1762 67.6309ZM222.879 96.3192V98.2327H226.199L224.534 95.3595L222.879 96.3192ZM209.753 96.3192L208.093 97.2717L208.645 98.2327H209.753V96.3192ZM199.679 78.7671L201.339 77.8147L200.787 76.8537H199.679V78.7671ZM193.88 78.7671V76.8537H191.966V78.7671H193.88ZM193.88 96.3192V98.2327H195.793V96.3192H193.88ZM181.67 96.3192H179.756V98.2327H181.67V96.3192ZM181.67 42.8998V40.9863H179.756V42.8998H181.67ZM216.01 48.2418L217.364 46.8888L216.01 48.2418ZM218.605 70.2201L217.004 69.1721L216.998 69.1823L216.991 69.1927L218.605 70.2201ZM211.508 76.7066L210.629 75.0071L208.846 75.9295L209.853 77.6665L211.508 76.7066ZM193.88 54.3468V52.4334H191.966V54.3468H193.88ZM193.88 68.0832H191.966V69.9967H193.88V68.0832ZM207.31 66.0991L205.905 64.8013L205.891 64.8161L205.878 64.8314L207.31 66.0991ZM207.31 56.3311L205.878 57.5988L205.891 57.614L205.905 57.6289L207.31 56.3311ZM222.879 94.4058H209.753V98.2327H222.879V94.4058ZM211.412 95.3668L201.339 77.8147L198.02 79.7196L208.093 97.2717L211.412 95.3668ZM199.679 76.8537H193.88V80.6806H199.679V76.8537ZM191.966 78.7671V96.3192H195.793V78.7671H191.966ZM193.88 94.4058H181.67V98.2327H193.88V94.4058ZM183.583 96.3192V42.8998H179.756V96.3192H183.583ZM181.67 44.8133H203.037V40.9863H181.67V44.8133ZM203.037 44.8133C207.623 44.8133 211.459 46.3965 214.657 49.5948L217.364 46.8888C213.439 42.9645 208.626 40.9863 203.037 40.9863V44.8133ZM214.657 49.5948C217.856 52.7932 219.439 56.6292 219.439 61.215H223.265C223.265 55.6258 221.287 50.8129 217.364 46.8888L214.657 49.5948ZM219.439 61.215C219.439 64.0312 218.641 66.6712 217.004 69.1721L220.206 71.268C222.232 68.1726 223.265 64.8092 223.265 61.215H219.439ZM216.991 69.1927C215.392 71.7053 213.28 73.6358 210.629 75.0071L212.387 78.4062C215.638 76.725 218.258 74.331 220.219 71.2474L216.991 69.1927ZM209.853 77.6665L221.223 97.2789L224.534 95.3595L213.164 75.7469L209.853 77.6665ZM203.037 52.4334H193.88V56.2603H203.037V52.4334ZM191.966 54.3468V68.0832H195.793V54.3468H191.966ZM193.88 69.9967H203.037V66.1698H193.88V69.9967ZM203.037 69.9967C205.296 69.9967 207.232 69.0761 208.744 67.367L205.878 64.8314C205.049 65.7677 204.136 66.1698 203.037 66.1698V69.9967ZM208.717 67.3969C210.289 65.6932 211.055 63.5905 211.055 61.215H207.229C207.229 62.7062 206.774 63.8595 205.905 64.8013L208.717 67.3969ZM211.055 61.215C211.055 58.8397 210.289 56.737 208.717 55.0331L205.905 57.6289C206.774 58.5706 207.229 59.724 207.229 61.215H211.055ZM208.744 55.0632C207.232 53.354 205.296 52.4334 203.037 52.4334V56.2603C204.136 56.2603 205.049 56.6624 205.878 57.5988L208.744 55.0632ZM223.686 42.8998V40.9863H221.773V42.8998H223.686ZM263.37 42.8998H265.283V40.9863H263.37V42.8998ZM263.37 54.6521V56.5656H265.283V54.6521H263.37ZM249.633 54.6521V52.7386H247.72V54.6521H249.633ZM249.633 96.3192V98.2327H251.547V96.3192H249.633ZM237.423 96.3192H235.51V98.2327H237.423V96.3192ZM237.423 54.6521H239.336V52.7386H237.423V54.6521ZM223.686 54.6521H221.773V56.5656H223.686V54.6521ZM223.686 44.8133H263.37V40.9863H223.686V44.8133ZM261.456 42.8998V54.6521H265.283V42.8998H261.456ZM263.37 52.7386H249.633V56.5656H263.37V52.7386ZM247.72 54.6521V96.3192H251.547V54.6521H247.72ZM249.633 94.4058H237.423V98.2327H249.633V94.4058ZM239.336 96.3192V54.6521H235.51V96.3192H239.336ZM237.423 52.7386H223.686V56.5656H237.423V52.7386ZM225.6 54.6521V42.8998H221.773V54.6521H225.6Z" fill="black"/>
<path d="M13.854 116.544V147.602H28.0571V157.798H3.30469V116.544H13.854ZM31.9087 157.798V116.544H42.4579V157.798H31.9087ZM90.6111 137.171C90.6111 142.122 89.1378 146.522 86.191 150.372L89.9039 154.38L82.5371 160.921L78.4707 156.56C75.5239 157.975 72.361 158.682 68.9821 158.682C62.8922 158.682 57.7649 156.62 53.6003 152.494C49.4355 148.33 47.3532 143.222 47.3532 137.171C47.3532 131.12 49.4355 126.032 53.6003 121.907C57.7649 117.742 62.8922 115.66 68.9821 115.66C75.0328 115.66 80.1405 117.742 84.3051 121.907C88.5092 126.032 90.6111 131.12 90.6111 137.171ZM68.9821 148.368C69.1786 148.368 69.7483 148.33 70.6913 148.25L65.1514 142.298L72.5772 135.815L78.8832 142.534C79.7082 140.884 80.1207 139.096 80.1207 137.171C80.1207 133.87 79.06 131.199 76.9383 129.157C74.8166 127.034 72.1647 125.974 68.9821 125.974C65.7997 125.974 63.1477 127.034 61.026 129.157C58.9044 131.199 57.8435 133.87 57.8435 137.171C57.8435 140.432 58.9044 143.123 61.026 145.245C63.1869 147.328 65.839 148.368 68.9821 148.368ZM95.2075 144.243V116.544H105.757V143.241C105.757 146.699 107.682 148.428 111.533 148.428C115.382 148.428 117.308 146.699 117.308 143.241V116.544H127.857V144.243C127.857 148.565 126.325 152.062 123.26 154.733C120.275 157.366 116.365 158.682 111.533 158.682C106.7 158.682 102.771 157.366 99.7456 154.733C96.7202 152.062 95.2075 148.565 95.2075 144.243ZM133.951 157.798V116.544H144.5V157.798H133.951ZM150.987 116.544H167.783C173.44 116.544 178.195 118.528 182.045 122.497C185.895 126.465 187.82 131.356 187.82 137.171C187.82 143.025 185.895 147.936 182.045 151.905C178.234 155.834 173.48 157.798 167.783 157.798H150.987V116.544ZM161.83 147.602H167.783C170.612 147.602 172.95 146.659 174.796 144.773C176.603 142.848 177.507 140.314 177.507 137.171C177.507 133.988 176.603 131.474 174.796 129.627C172.988 127.702 170.651 126.74 167.783 126.74H161.83V147.602ZM192.713 157.798V116.544H203.262V157.798H192.713ZM207.096 116.544H238.037V126.74H227.841V157.798H217.292V126.74H207.096V116.544ZM265.142 116.544H276.988L263.08 141.945V157.798H252.53V142.062L238.622 116.544H250.467L257.775 131.808L265.142 116.544Z" fill="black"/>
<path d="M152.397 87.9082H141.311C140.143 87.9082 139.195 88.8561 139.195 90.0253C139.195 91.1946 140.143 92.1424 141.311 92.1424H152.397C153.567 92.1424 154.515 91.1946 154.515 90.0253C154.515 88.8561 153.567 87.9082 152.397 87.9082Z" fill="black"/>
<path d="M149.632 93.9473H144.09C142.92 93.9473 141.973 94.8952 141.973 96.0644C141.973 97.2336 142.92 98.1815 144.09 98.1815H149.632C150.802 98.1815 151.749 97.2336 151.749 96.0644C151.749 94.8952 150.802 93.9473 149.632 93.9473Z" fill="black"/>
<path d="M146.852 27.6967C147.66 27.6967 148.313 27.0423 148.313 26.2352V21.192C148.313 20.3848 147.66 19.7305 146.852 19.7305C146.045 19.7305 145.391 20.3848 145.391 21.192V26.2352C145.391 27.0423 146.045 27.6967 146.852 27.6967Z" fill="black"/>
<path d="M135.121 31.6966C135.407 31.982 135.78 32.1248 136.155 32.1248C136.529 32.1248 136.902 31.9822 137.188 31.697C137.759 31.1262 137.759 30.201 137.188 29.6302L133.625 26.065C133.054 25.494 132.128 25.494 131.557 26.0646C130.986 26.6354 130.986 27.5606 131.557 28.1314L135.121 31.6966Z" fill="black"/>
<path d="M157.543 32.1266C157.917 32.1266 158.292 31.9839 158.577 31.6985L162.141 28.1334C162.712 27.5626 162.712 26.6373 162.141 26.0667C161.571 25.496 160.645 25.496 160.075 26.0669L156.51 29.6319C155.939 30.2027 155.94 31.128 156.511 31.6986C156.795 31.9842 157.169 32.1266 157.543 32.1266Z" fill="black"/>
<g filter="url(#filter0_d_1142_56)">
<path fill-rule="evenodd" clip-rule="evenodd" d="M126.117 56.7908C126.117 45.3591 135.418 36.0586 146.85 36.0586C158.28 36.0586 167.579 45.3591 167.579 56.7908C167.579 61.4735 166.045 65.8962 163.14 69.581C162.652 70.2028 162.115 70.8335 161.547 71.5008L161.531 71.5188L161.446 71.6196C159.458 73.9571 157.226 76.5833 156.469 79.3183C156.342 79.7792 156.28 80.6672 156.288 81.8843V83.4865C156.288 84.9359 155.112 86.111 153.663 86.111H139.921C138.472 86.111 137.297 84.9359 137.297 83.4865V81.9028C137.307 80.971 137.283 79.7613 137.113 79.1303C136.36 76.3772 134.345 74.039 132.397 71.7784L132.363 71.7379C131.726 70.9991 131.124 70.3014 130.551 69.5726C127.651 65.8899 126.117 61.4694 126.117 56.7908Z" fill="black"/>
</g>
<path d="M147.081 194.683C149.773 194.683 151.955 192.501 151.955 189.81C151.955 187.118 149.773 184.936 147.081 184.936C144.389 184.936 142.207 187.118 142.207 189.81C142.207 192.501 144.389 194.683 147.081 194.683Z" stroke="black" stroke-width="1.94959"/>
<path d="M151.4 193.356L150.098 194.658L155.737 200.298L157.04 198.995L151.4 193.356Z" fill="black"/>
<path d="M47.5106 199.894H44.1617L40.9927 194.432H38.6329V199.894H35.5312V184.16H41.8244C43.2777 184.16 44.5138 184.67 45.5327 185.689C46.5516 186.708 47.061 187.936 47.061 189.375C47.061 190.348 46.7838 191.255 46.2295 192.094C45.675 192.919 44.9409 193.54 44.0269 193.96L47.5106 199.894ZM41.8244 187.06H38.6329V191.712H41.8244C42.4087 191.712 42.9106 191.488 43.3302 191.038C43.7497 190.573 43.9595 190.019 43.9595 189.375C43.9595 188.731 43.7497 188.184 43.3302 187.734C42.9106 187.285 42.4087 187.06 41.8244 187.06Z" fill="black"/>
<path d="M66.4884 193.398V196.927H73.1185V199.894H63.3867V184.16H73.0061V187.127H66.4884V190.476H72.4443V193.398H66.4884Z" fill="black"/>
<path d="M94.7159 200.209C93.1726 200.209 91.869 199.865 90.8052 199.176C89.7413 198.487 88.9847 197.535 88.5352 196.321L91.1873 194.771C91.8016 196.374 93.0077 197.175 94.8058 197.175C95.6448 197.175 96.2741 197.026 96.6937 196.726C97.1132 196.426 97.323 196.021 97.323 195.512C97.323 194.958 97.0757 194.53 96.5813 194.231C96.0869 193.916 95.2028 193.579 93.9292 193.22C92.5508 192.8 91.4644 192.313 90.6704 191.759C89.6815 191.025 89.1869 189.946 89.1869 188.523C89.1869 187.085 89.689 185.953 90.6927 185.128C91.6967 184.274 92.9178 183.848 94.3562 183.848C95.6148 183.848 96.7312 184.155 97.705 184.769C98.6789 185.383 99.4356 186.252 99.975 187.377L97.368 188.882C96.7387 187.533 95.7348 186.86 94.3562 186.86C93.7269 186.86 93.2251 187.01 92.8504 187.308C92.4758 187.594 92.2885 187.968 92.2885 188.432C92.2885 188.927 92.4908 189.332 92.8954 189.646C93.3449 189.961 94.139 190.291 95.2777 190.636L96.3566 190.995C96.5513 191.054 96.8884 191.182 97.368 191.377C97.8174 191.541 98.147 191.699 98.3568 191.849C99.091 192.299 99.5855 192.763 99.8402 193.242C100.23 193.871 100.425 194.613 100.425 195.467C100.425 196.921 99.8927 198.075 98.8288 198.929C97.7649 199.783 96.394 200.209 94.7159 200.209Z" fill="black"/>
<path d="M119.492 193.398V196.927H126.122V199.894H116.391V184.16H126.01V187.127H119.492V190.476H125.448V193.398H119.492Z" fill="black"/>
<path d="M183.639 199.894H180.291L177.121 194.432H174.761V199.894H171.66V184.16H177.953C179.407 184.16 180.642 184.67 181.662 185.689C182.68 186.708 183.19 187.936 183.19 189.375C183.19 190.348 182.913 191.255 182.358 192.094C181.804 192.919 181.07 193.54 180.155 193.96L183.639 199.894ZM177.953 187.06H174.761V191.712H177.953C178.537 191.712 179.04 191.488 179.459 191.038C179.879 190.573 180.088 190.019 180.088 189.375C180.088 188.731 179.879 188.184 179.459 187.734C179.04 187.285 178.537 187.06 177.953 187.06Z" fill="black"/>
<path d="M206.794 200.209C204.442 200.209 202.487 199.423 200.929 197.85C199.385 196.292 198.613 194.351 198.613 192.029C198.613 189.691 199.385 187.751 200.929 186.207C202.487 184.635 204.442 183.848 206.794 183.848C208.218 183.848 209.529 184.185 210.728 184.859C211.941 185.518 212.886 186.418 213.559 187.556L210.885 189.107C210.495 188.403 209.941 187.856 209.222 187.466C208.502 187.061 207.694 186.86 206.794 186.86C205.266 186.86 204.03 187.339 203.086 188.298C202.157 189.271 201.693 190.515 201.693 192.029C201.693 193.527 202.157 194.763 203.086 195.737C204.03 196.696 205.266 197.175 206.794 197.175C207.694 197.175 208.502 196.98 209.222 196.591C209.956 196.187 210.51 195.639 210.885 194.95L213.559 196.501C212.886 197.639 211.941 198.546 210.728 199.221C209.529 199.88 208.218 200.209 206.794 200.209Z" fill="black"/>
<path d="M238.46 190.409V184.16H241.54V199.894H238.46V193.376H232.617V199.894H229.516V184.16H232.617V190.409H238.46Z" fill="black"/>
</g>
<defs>
<filter id="filter0_d_1142_56" x="90.0929" y="0.0343475" width="113.509" height="122.101" filterUnits="userSpaceOnUse" color-interpolation-filters="sRGB">
<feFlood flood-opacity="0" result="BackgroundImageFix"/>
<feColorMatrix in="SourceAlpha" type="matrix" values="0 0 0 0 0 0 0 0 0 0 0 0 0 0 0 0 0 0 127 0" result="hardAlpha"/>
<feOffset/>
<feGaussianBlur stdDeviation="18.0121"/>
<feColorMatrix type="matrix" values="0 0 0 0 1 0 0 0 0 1 0 0 0 0 1 0 0 0 1 0"/>
<feBlend mode="normal" in2="BackgroundImageFix" result="effect1_dropShadow_1142_56"/>
<feBlend mode="normal" in="SourceGraphic" in2="effect1_dropShadow_1142_56" result="shape"/>
</filter>
<clipPath id="clip0_1142_56">
<rect width="277.069" height="200.362" fill="white"/>
</clipPath>
</defs>
</svg>
