<svg width="488" height="203" viewBox="0 0 488 203" fill="none" xmlns="http://www.w3.org/2000/svg">
<path fill-rule="evenodd" clip-rule="evenodd" d="M102.854 125.857C98.3698 125.857 94.7344 129.493 94.7344 133.977V166.457C94.7344 170.942 98.3698 174.577 102.854 174.577C107.339 174.577 110.974 170.942 110.974 166.457V133.977C110.974 129.493 107.339 125.857 102.854 125.857Z" fill="#457DED"/>
<path fill-rule="evenodd" clip-rule="evenodd" d="M102.854 28.4219C98.3698 28.4219 94.7344 32.0573 94.7344 36.5419V101.502C94.7344 105.986 98.3698 109.622 102.854 109.622C107.339 109.622 110.974 105.986 110.974 101.502V36.5419C110.974 32.0573 107.339 28.4219 102.854 28.4219Z" fill="#457DED"/>
<path fill-rule="evenodd" clip-rule="evenodd" d="M75.7841 142.1C71.2995 142.1 67.6641 145.735 67.6641 150.22V166.46C67.6641 170.944 71.2995 174.58 75.7841 174.58C80.2687 174.58 83.9041 170.944 83.9041 166.46V150.22C83.9041 145.735 80.2687 142.1 75.7841 142.1Z" fill="#457DED"/>
<path fill-rule="evenodd" clip-rule="evenodd" d="M75.7841 142.1C71.2995 142.1 67.6641 145.735 67.6641 150.22V166.46C67.6641 170.944 71.2995 174.58 75.7841 174.58C80.2687 174.58 83.9041 170.944 83.9041 166.46V150.22C83.9041 145.735 80.2687 142.1 75.7841 142.1Z" fill="#457DED"/>
<path fill-rule="evenodd" clip-rule="evenodd" d="M75.7841 28.4219C71.2995 28.4219 67.6641 32.0573 67.6641 36.5419V117.742C67.6641 122.226 71.2995 125.862 75.7841 125.862C80.2687 125.862 83.9041 122.226 83.9041 117.742V36.5419C83.9041 32.0573 80.2687 28.4219 75.7841 28.4219Z" fill="#457DED"/>
<path fill-rule="evenodd" clip-rule="evenodd" d="M48.7216 28.4219C44.237 28.4219 40.6016 32.0573 40.6016 36.5419V133.982C40.6016 138.466 44.237 142.102 48.7216 142.102C53.2062 142.102 56.8416 138.466 56.8416 133.982V36.5419C56.8416 32.0573 53.2062 28.4219 48.7216 28.4219Z" fill="#457DED"/>
<path fill-rule="evenodd" clip-rule="evenodd" d="M48.7216 158.344C44.237 158.344 40.6016 161.979 40.6016 166.464C40.6016 170.948 44.237 174.584 48.7216 174.584C53.2062 174.584 56.8416 170.948 56.8416 166.464C56.8416 161.979 53.2062 158.344 48.7216 158.344Z" fill="#457DED"/>
<path fill-rule="evenodd" clip-rule="evenodd" d="M129.921 44.6562C125.436 44.6562 121.801 48.2916 121.801 52.7763V85.2563C121.801 89.7409 125.436 93.3763 129.921 93.3763C134.405 93.3763 138.041 89.7409 138.041 85.2563V52.7763C138.041 48.2916 134.405 44.6562 129.921 44.6562Z" fill="#457DED"/>
<path fill-rule="evenodd" clip-rule="evenodd" d="M129.921 109.621C125.436 109.621 121.801 113.256 121.801 117.741V150.221C121.801 154.706 125.436 158.341 129.921 158.341C134.405 158.341 138.041 154.706 138.041 150.221V117.741C138.041 113.256 134.405 109.621 129.921 109.621Z" fill="#457DED"/>
<path d="M398.693 42.6296C402.239 42.6296 405.122 45.4692 405.19 48.9977V49.1256V56.8396H440.106C443.651 56.8396 446.534 59.6792 446.602 63.2077V63.3356V99.0636C446.602 113.715 434.844 125.619 420.249 125.856L419.806 125.86H408.438C404.851 125.86 401.942 122.951 401.942 119.364C401.942 115.819 404.78 112.937 408.309 112.869L408.438 112.868H419.806C427.354 112.868 433.488 106.81 433.61 99.292V99.0636V69.8316H405.19V70.6436C405.19 103.283 390.831 123.165 362.898 128.193C359.369 128.828 355.989 126.481 355.356 122.951C354.727 119.462 357.011 116.123 360.472 115.43L360.597 115.406C381.713 111.605 391.991 97.6287 392.194 71.4411L392.197 70.6436V69.8316H372.304C370.991 69.8316 369.766 69.4412 368.744 68.7703C368.663 68.7303 368.585 68.688 368.507 68.6437L368.389 68.5747L358.862 62.9293L315.464 62.9296C312.143 62.9296 309.444 60.2717 309.376 56.9672L309.374 56.8396C309.374 53.5189 312.032 50.8186 315.337 50.751L315.464 50.7496H360.529C361.561 50.7496 362.576 51.0118 363.476 51.5102L363.635 51.6005L372.476 56.8396H392.197V49.1256C392.197 45.5379 395.107 42.6296 398.693 42.6296ZM195.638 74.0063C197.345 76.851 196.459 80.529 193.667 82.2894L193.549 82.3618L184.326 87.8952V119.77C184.326 123.09 181.668 125.791 178.364 125.858L178.236 125.86C174.915 125.86 172.216 123.202 172.148 119.897L172.146 119.77V84.4476C172.146 82.356 173.219 80.4143 174.982 79.3002L175.103 79.2254L187.283 71.9174C190.167 70.1869 193.908 71.1224 195.638 74.0063ZM244.82 40.5996C248.141 40.5996 250.841 43.2576 250.909 46.5621L250.91 46.6896L250.91 49.5316H273.646C282.58 49.5316 290.11 55.5431 292.411 63.7416H293.946C296.861 63.7416 299.224 66.1045 299.224 69.0196C299.224 71.8931 296.928 74.2299 294.071 74.2963L293.946 74.2976L292.411 74.2983C290.137 82.3976 282.761 88.3625 273.969 88.5049L273.646 88.5076H250.91V92.1616H283.796C286.711 92.1616 289.074 94.5245 289.074 97.4396C289.074 100.313 286.778 102.65 283.921 102.716L283.796 102.718H250.91V106.372H293.946C296.861 106.372 299.224 108.735 299.224 111.65C299.224 114.523 296.928 116.86 294.071 116.926L293.946 116.928H250.91L250.91 119.77C250.91 123.133 248.184 125.86 244.82 125.86C241.499 125.86 238.8 123.202 238.732 119.897L238.73 119.77L238.73 116.928H194.476C191.561 116.928 189.198 114.565 189.198 111.65C189.198 108.776 191.494 106.439 194.352 106.373L194.476 106.372H238.73V102.718H206.656C203.741 102.718 201.378 100.355 201.378 97.4396C201.378 94.5661 203.674 92.2293 206.532 92.163L206.656 92.1616H238.73V88.5076H206.656C203.741 88.5076 201.378 86.1447 201.378 83.2296C201.378 80.3561 203.674 78.0193 206.532 77.953L206.656 77.9516H238.73V74.2976H206.656C203.741 74.2976 201.378 71.9347 201.378 69.0196C201.378 66.1461 203.674 63.8093 206.532 63.743L206.656 63.7416H238.73V60.0876H206.656C203.741 60.0876 201.378 57.7247 201.378 54.8096C201.378 51.9361 203.674 49.5993 206.532 49.533L206.656 49.5316H238.73L238.73 46.6896C238.73 43.3262 241.457 40.5996 244.82 40.5996ZM364.995 73.4856C368.359 73.4856 371.086 76.2122 371.086 79.5756C371.086 82.8964 368.43 85.5966 365.124 85.6643L364.995 85.6656L340.128 85.6663C339.942 86.0922 339.705 86.5033 339.414 86.8904L339.326 87.0027L324.732 105.494L328.801 105.493C331.51 105.488 333.691 105.469 335.343 105.439L335.723 105.432H335.804C346.303 105.5 351.767 102.339 353.827 95.82L353.888 95.6214C354.862 92.4022 358.263 90.5819 361.48 91.5557C364.701 92.5297 366.521 95.929 365.547 99.1482C361.842 111.391 351.513 117.588 336.19 117.613L335.814 117.612L334.842 117.629C332.936 117.658 330.477 117.673 327.462 117.675H325.794C322.466 117.673 318.541 117.656 314.017 117.625L312.171 117.612C307.155 117.574 304.353 111.842 307.343 107.869L307.436 107.749L324.865 85.6656H309.374C306.011 85.6656 303.284 82.939 303.284 79.5756C303.284 76.2549 305.942 73.5546 309.247 73.487L309.374 73.4856H364.995ZM280.853 74.2979L250.91 74.2976V77.9516H273.646C276.605 77.9516 279.227 76.5134 280.853 74.2979ZM196.856 48.8343C198.563 51.679 197.677 55.357 194.885 57.1174L194.767 57.1898L176.497 68.1518C173.614 69.8824 169.873 68.9469 168.142 66.0629C166.435 63.2182 167.322 59.5402 170.113 57.7798L170.231 57.7074L188.501 46.7454C191.385 45.0149 195.126 45.9504 196.856 48.8343ZM273.646 60.0876H250.91V63.7416L280.853 63.7419C279.255 61.5631 276.692 60.1357 273.794 60.089L273.646 60.0876Z" fill="#425984"/>
<path d="M435.936 144.537C439.627 144.537 442.926 145.573 445.23 147.619C446.347 148.609 446.448 150.316 445.457 151.432C444.486 152.525 442.825 152.644 441.708 151.714L441.644 151.658C440.422 150.575 438.399 149.939 435.936 149.939C434.81 149.939 433.629 150.249 432.82 150.769C432.076 151.25 431.734 151.82 431.734 152.64V152.736C431.771 154.024 432.573 154.537 435.97 155.286L436.907 155.487C439.336 156.018 440.994 156.545 442.507 157.408C444.963 158.807 446.438 160.931 446.438 163.743C446.438 169.052 441.789 172.145 435.936 172.145C431.744 172.145 428.134 170.424 426.148 168.276C425.137 167.181 425.204 165.472 426.3 164.46C427.373 163.467 429.038 163.513 430.056 164.549L430.117 164.611C430.452 164.974 431.132 165.47 431.974 165.871C433.138 166.425 434.464 166.744 435.936 166.744C439.16 166.744 441.035 165.495 441.035 163.743C441.035 162.472 439.55 161.594 435.672 160.747L434.691 160.536C432.346 160.019 431.064 159.603 429.748 158.806C427.559 157.478 426.331 155.393 426.331 152.64C426.331 149.894 427.671 147.663 429.894 146.23C431.622 145.113 433.822 144.537 435.936 144.537ZM234.577 144.837C242.035 144.837 248.081 150.883 248.081 158.341C248.081 165.799 242.035 171.845 234.577 171.845C227.119 171.845 221.073 165.799 221.073 158.341C221.073 150.883 227.119 144.837 234.577 144.837ZM267.586 144.837C271.088 144.837 274.319 146.104 276.889 148.438C278.035 149.461 278.126 151.359 276.889 152.64C275.883 153.811 273.974 153.902 272.688 152.64C271.359 151.54 269.572 150.839 267.586 150.839C263.498 150.839 260.12 154.198 260.084 158.341C260.12 162.484 263.498 165.843 267.586 165.843C269.421 165.843 271.083 165.247 272.51 164.179L272.688 164.043C273.932 162.838 275.84 162.946 276.889 164.043C278.06 165.419 277.951 167.316 276.589 168.544C274.237 170.611 271.044 171.845 267.586 171.845C260.164 171.845 254.082 165.799 254.082 158.341C254.082 150.883 260.164 144.837 267.586 144.837ZM419.73 145.738C421.222 145.738 422.43 146.947 422.43 148.438C422.43 149.903 421.266 151.096 419.811 151.138L419.73 151.139H413.728V168.844C413.728 170.501 412.385 171.845 410.727 171.845C409.1 171.845 407.773 170.546 407.729 168.928L407.726 168.844V151.139H401.724C400.232 151.139 399.024 149.93 399.024 148.438C399.024 146.973 400.191 145.781 401.646 145.739L401.724 145.738H419.73ZM383.119 144.537C384.625 144.537 385.9 145.366 386.489 146.743L395.218 167.81C395.79 169.188 395.137 170.768 393.756 171.339C392.403 171.9 390.857 171.279 390.261 169.952L390.227 169.878L388.806 166.443H377.435L376.014 169.878C375.452 171.231 373.92 171.886 372.56 171.369L372.485 171.339C371.132 170.779 370.475 169.246 370.993 167.886L371.024 167.81L379.749 146.743C380.341 145.366 381.617 144.537 383.119 144.537ZM180.411 145.137C184.803 145.137 188.363 148.698 188.363 153.089C188.363 154.723 187.871 156.241 187.027 157.504C188.761 158.962 189.864 161.149 189.864 163.593C189.864 167.941 186.374 171.474 182.043 171.544L181.911 171.545H169.158C167.666 171.545 166.457 170.336 166.457 168.844C166.457 167.379 167.623 166.187 169.078 166.144L169.158 166.143H181.911C183.32 166.143 184.462 165.001 184.462 163.593C184.462 162.21 183.361 161.084 181.988 161.043L181.911 161.042H169.158C167.666 161.042 166.457 159.833 166.457 158.341C166.457 156.876 167.623 155.684 169.078 155.642L169.158 155.64H180.411C181.82 155.64 182.962 154.498 182.962 153.089C182.962 151.706 181.861 150.58 180.488 150.54L180.411 150.539H169.158C167.666 150.539 166.457 149.33 166.457 147.838C166.457 146.373 167.623 145.181 169.078 145.138L169.158 145.137H180.411ZM199.767 145.137C201.232 145.137 202.424 146.304 202.466 147.758L202.468 147.838V166.143H214.771C216.236 166.143 217.428 167.31 217.471 168.764L217.472 168.844C217.472 170.309 216.305 171.502 214.851 171.544L214.771 171.545H199.767C198.302 171.545 197.109 170.379 197.067 168.924L197.066 168.844V147.838C197.066 146.347 198.275 145.137 199.767 145.137ZM286.492 145.137C287.957 145.137 289.149 146.304 289.191 147.758L289.193 147.838V156.37L301.539 145.788C302.671 144.817 304.377 144.948 305.347 146.081C306.299 147.191 306.191 148.853 305.119 149.832L305.054 149.889L297.037 156.76L305.4 167.151C306.336 168.313 306.152 170.013 304.99 170.948C303.85 171.866 302.192 171.706 301.246 170.602L301.193 170.538L292.934 160.277L289.193 163.484V168.844C289.193 170.336 287.983 171.545 286.492 171.545C285.027 171.545 283.834 170.379 283.792 168.924L283.791 168.844V147.838C283.791 146.347 285 145.137 286.492 145.137ZM328.954 145.137C333.346 145.137 336.906 148.698 336.906 153.089C336.906 154.723 336.414 156.241 335.57 157.504C337.304 158.962 338.408 161.149 338.408 163.593C338.408 167.941 334.917 171.474 330.586 171.544L330.454 171.545H317.701C316.209 171.545 315 170.336 315 168.844C315 167.379 316.166 166.187 317.621 166.144L317.701 166.143H330.454C331.863 166.143 333.005 165.001 333.005 163.593C333.005 162.21 331.904 161.084 330.531 161.043L330.454 161.042H317.701C316.209 161.042 315 159.833 315 158.341C315 156.876 316.166 155.684 317.621 155.642L317.701 155.64H328.954C330.363 155.64 331.505 154.498 331.505 153.089C331.505 151.706 330.404 150.58 329.031 150.54L328.954 150.539H317.701C316.209 150.539 315 149.33 315 147.838C315 146.373 316.166 145.181 317.621 145.138L317.701 145.137H328.954ZM363.313 145.137C364.805 145.137 366.016 146.347 366.016 147.838C366.016 149.303 364.849 150.495 363.394 150.538L363.313 150.539H351.011V155.04H360.914C362.406 155.04 363.614 156.249 363.614 157.741C363.614 159.206 362.447 160.399 360.992 160.44L360.914 160.442L351.011 160.441V166.143H363.313C364.778 166.143 365.972 167.31 366.013 168.764L366.016 168.844C366.016 170.309 364.849 171.502 363.394 171.544L363.313 171.545H348.311C346.846 171.545 345.652 170.379 345.611 168.924L345.608 168.844V147.838C345.608 146.373 346.775 145.181 348.23 145.138L348.311 145.137H363.313ZM234.577 150.839C230.433 150.839 227.075 154.198 227.075 158.341C227.075 162.484 230.433 165.843 234.577 165.843C238.72 165.843 242.079 162.484 242.079 158.341C242.079 154.198 238.72 150.839 234.577 150.839ZM383.119 152.721L379.671 161.042H386.567L383.119 152.721Z" fill="#ADBAD1"/>
</svg>
