<svg width="847" height="201" viewBox="0 0 847 201" fill="none" xmlns="http://www.w3.org/2000/svg">
<path fill-rule="evenodd" clip-rule="evenodd" d="M87.4258 1.37555C87.6862 5.54182 93.6752 9.1873 98.3622 13.0932L117.371 27.9355C122.058 31.581 132.994 39.6531 135.859 43.8194C133.515 47.9857 127.787 55.0163 124.662 58.141L100.445 86.0029C96.2791 90.6899 92.894 95.1166 89.2485 100.585L90.5505 102.147C94.4564 107.095 111.121 118.812 113.986 118.812C116.329 118.812 127.005 105.793 129.87 102.668L141.066 90.4295C142.368 88.8672 144.191 88.086 144.712 85.7425C150.18 86.2633 163.721 99.8036 169.449 103.449C164.241 113.344 156.69 119.854 149.92 128.186L93.6752 193.545C92.3732 195.367 90.0297 198.232 89.7693 200.836C115.808 200.836 132.994 197.971 153.045 186.254C162.679 180.265 170.23 173.234 177.521 164.641L185.333 152.924C186.895 150.32 188.718 146.935 190.02 144.331C204.862 111.261 202.259 73.2437 182.729 43.559C168.668 22.4673 147.055 9.4477 122.839 3.19829C114.246 1.11516 107.736 0.333984 98.1018 0.333984C93.4148 0.333984 91.0713 1.11516 87.4258 1.37555Z" fill="#0088CC"/>
<path fill-rule="evenodd" clip-rule="evenodd" d="M0 95.0093C0 122.611 3.1247 134.589 16.6651 156.722C21.0917 164.013 26.2996 169.742 32.2886 175.47C35.6737 178.855 49.4744 189.011 53.1199 189.011C54.6823 189.011 62.7544 179.637 63.796 178.335L83.065 155.42C84.8877 153.337 85.9293 151.514 87.752 149.171C89.3144 147.088 91.3975 145.005 91.9183 142.401C88.2728 141.359 52.8595 115.32 48.6933 111.674C46.3497 109.591 45.3082 109.07 43.4854 106.467C44.2666 103.081 46.6101 100.998 48.6933 98.3944L81.5026 59.8564C85.4085 55.4298 86.9709 52.8259 89.5748 47.8784C86.7105 43.7122 59.3693 22.6204 54.1615 19.2353C53.3803 18.7145 48.4329 15.5898 48.1725 15.5898C43.7458 15.5898 32.0282 25.4847 29.1639 28.349C18.4878 39.2855 10.1553 53.0863 5.20784 68.189C2.86431 75.2196 0 85.8956 0 95.0093Z" fill="#0088CC"/>
<path fill-rule="evenodd" clip-rule="evenodd" d="M215.637 69.7042C215.637 83.2446 216.158 84.8069 231.521 85.5881C240.374 86.1089 250.79 85.5881 259.903 85.5881C258.081 88.4524 256.258 90.7959 254.175 93.6602C243.759 108.763 230.739 125.428 220.063 141.052C216.418 146.259 215.637 145.739 215.637 153.03C215.637 159.019 221.365 164.226 227.354 164.226H289.848C299.743 164.226 298.702 154.852 298.702 148.082C298.702 138.968 289.848 139.229 280.474 139.229C271.1 139.229 261.986 139.229 252.612 139.229C253.133 137.406 259.122 129.594 260.945 127.251C271.361 113.45 282.037 97.5661 292.452 83.5049C295.837 79.0783 296.879 78.2971 296.879 72.0477C296.879 65.7983 290.89 60.3301 284.641 60.3301H225.011C219.282 60.3301 215.637 63.9756 215.637 69.7042Z" fill="#0088CC"/>
<path fill-rule="evenodd" clip-rule="evenodd" d="M665.752 137.982C658.981 137.982 654.034 132.774 654.034 127.306V124.442C654.034 117.411 664.97 109.86 673.303 117.411C681.115 124.442 675.647 137.982 665.752 137.982ZM628.516 100.225V187.457C628.516 197.091 637.89 196.31 643.358 196.31C652.211 196.31 653.253 191.102 653.253 181.468C653.253 173.396 653.253 165.063 653.253 156.731C658.461 160.116 658.981 161.678 667.314 162.199C689.708 164.021 713.143 132.254 695.697 106.214C691.27 99.9651 681.375 90.0702 672.782 90.0702C667.314 90.0702 663.408 89.5494 658.2 92.1533C655.596 93.4553 654.815 95.0177 652.732 96.58C651.951 93.7157 651.17 92.1533 648.305 90.8514C643.618 88.7683 628.516 86.6851 628.516 100.225Z" fill="#0088CC"/>
<path fill-rule="evenodd" clip-rule="evenodd" d="M435.312 165.477C443.645 165.477 451.717 163.915 458.227 160.79C462.132 158.967 471.767 154.02 471.767 149.072C471.767 142.562 464.476 131.886 459.008 132.147C452.238 132.147 446.249 145.166 425.678 137.875C404.065 130.064 402.503 98.0354 424.115 87.8802C429.323 85.5366 433.75 85.2763 439.218 85.2763C451.977 85.2763 457.185 100.639 467.34 87.3594C477.235 74.8606 469.423 70.1735 459.008 64.9657C431.927 51.4253 397.295 66.2677 387.4 91.2653C383.494 101.16 382.192 112.878 384.796 124.595C386.358 131.626 388.442 136.834 392.608 142.562C398.597 150.635 397.555 149.072 405.888 155.322C413.179 160.79 424.636 165.477 435.312 165.477Z" fill="#0088CC"/>
<path fill-rule="evenodd" clip-rule="evenodd" d="M808.72 140.141C793.357 140.141 790.493 119.83 802.992 114.362C812.105 110.196 822.521 116.185 822 126.34C821.74 131.027 820.959 133.631 818.355 135.975C816.532 137.797 812.105 140.141 808.72 140.141ZM769.922 126.6C769.922 156.285 804.294 176.335 829.812 159.149C837.363 154.202 846.998 142.745 846.998 131.808C846.998 117.226 846.998 108.894 834.239 97.4366C818.355 83.3755 795.44 85.1982 780.858 99.7801C777.213 103.686 775.65 105.769 773.047 110.977C771.224 114.883 769.922 120.872 769.922 126.6Z" fill="#0088CC"/>
<path fill-rule="evenodd" clip-rule="evenodd" d="M541.094 99.4976C541.094 105.226 552.811 122.152 556.196 127.88C557.759 130.745 571.299 153.138 571.299 154.44C571.299 155.221 565.31 168.241 564.529 170.064C562.967 172.928 558.28 183.344 558.28 186.989C558.28 192.718 569.216 197.405 574.164 197.405C580.934 197.405 583.277 189.333 586.142 182.302L605.931 137.775C609.056 131.526 622.076 103.924 622.076 98.9768C622.076 92.9878 608.796 88.3008 606.192 88.3008C602.025 88.3008 599.422 91.9463 597.859 94.8106L588.745 115.382C587.183 119.027 585.881 122.672 584.319 126.058C581.975 124.495 574.164 110.174 572.08 106.528C568.174 100.279 563.227 88.3008 557.759 88.3008C549.426 88.3008 541.094 95.3314 541.094 99.4976Z" fill="#0088CC"/>
<path fill-rule="evenodd" clip-rule="evenodd" d="M297 100.279C297 102.883 320.696 142.723 325.903 151.055C329.028 156.003 326.685 155.742 323.3 164.075C321.216 169.022 319.133 173.449 317.311 178.136C314.967 183.604 312.363 187.51 317.311 192.197C320.175 194.801 326.685 197.405 331.892 197.405C337.1 197.405 342.829 181.521 345.433 175.532L370.17 119.548C372.774 114.6 377.982 103.924 377.982 98.9768C377.982 95.5918 374.597 92.9878 372.253 91.6859C355.849 82.3118 354.286 94.5502 344.912 115.642C343.35 119.027 341.787 122.933 340.225 126.058C338.402 124.756 324.602 100.279 322.258 96.1125C317.831 88.8216 317.571 88.3008 311.322 88.3008C308.718 88.3008 297 94.0294 297 100.279Z" fill="#0088CC"/>
<path fill-rule="evenodd" clip-rule="evenodd" d="M718.895 73.531V89.9357C707.958 89.9357 705.875 90.4564 705.875 104.778C705.875 115.975 712.906 114.673 718.895 114.673C718.895 131.338 715.249 153.471 731.654 160.762C737.643 163.627 752.485 166.23 757.953 162.325C761.338 159.721 761.338 155.034 761.338 150.607C761.338 140.712 755.61 140.191 745.975 140.191C744.413 138.108 743.632 137.848 743.632 132.9V114.673C763.942 114.673 764.724 116.496 764.724 97.7474C764.724 87.8525 749.881 89.9357 743.632 89.9357C743.632 75.3537 746.757 63.8965 731.654 63.8965C724.363 63.8965 718.895 65.9796 718.895 73.531Z" fill="#0088CC"/>
<path fill-rule="evenodd" clip-rule="evenodd" d="M504.808 96.3912C503.245 89.3606 497.256 89.3606 491.267 89.3606C484.237 89.3606 480.07 92.7457 480.07 100.037V156.021C480.07 166.697 502.985 167.218 504.808 157.583C506.63 147.949 501.683 122.43 507.672 116.441C513.921 110.452 521.473 115.4 527.201 115.4C535.013 115.4 536.836 104.203 536.836 98.2139C536.836 90.4022 527.201 88.8398 520.691 88.8398C513.4 88.8398 508.713 93.7873 504.808 96.3912Z" fill="#0088CC"/>
<path fill-rule="evenodd" clip-rule="evenodd" d="M69.9379 13.2158C70.9794 17.3821 79.5724 23.1107 83.2178 25.7146C89.4672 30.4017 105.351 40.557 108.476 44.9836C107.695 47.5876 99.3621 57.7428 96.7582 60.3468L83.7386 74.6683C78.7912 81.1781 61.3449 98.8847 60.043 105.134L84.5198 123.101C86.6029 124.664 107.695 140.547 109.517 141.068C109.257 144.714 98.8413 156.431 95.4563 160.077L85.0406 172.055C83.7386 173.617 83.7386 173.617 82.4367 174.919L74.6249 184.033C69.4171 189.501 71.7606 188.72 71.7606 191.324C81.9159 193.667 80.8743 189.241 92.0712 176.742L137.379 123.622C138.681 122.32 138.681 122.06 139.462 121.018C140.504 119.716 141.285 119.456 142.066 118.154L151.44 107.478C151.44 104.613 148.316 98.1036 140.244 108.259L136.859 112.425C136.077 113.206 135.557 113.467 134.775 114.508L123.579 127.528C121.235 130.392 118.631 133.777 115.506 135.86C111.601 133.256 108.476 130.653 104.57 127.788L82.6971 111.904C80.6139 110.342 73.0626 104.353 71.2398 103.832C71.5002 100.968 74.3645 97.8432 75.9269 95.76C80.3535 89.771 87.9049 82.4801 91.5504 77.5326L113.423 52.535C121.756 42.3797 119.152 43.1609 108.997 35.0888C102.226 29.6205 94.4147 24.4127 87.9049 18.9445C82.6971 14.2574 76.708 9.83075 69.9379 13.2158Z" fill="#0088CC"/>
</svg>
