<svg width="958" height="230" viewBox="0 0 958 230" fill="none" xmlns="http://www.w3.org/2000/svg">
<g clip-path="url(#clip0_1178_299)">
<g clip-path="url(#clip1_1178_299)">
<path fill-rule="evenodd" clip-rule="evenodd" d="M157.862 121.881L207.82 173.599C208.42 174.211 208.898 174.939 209.226 175.742C209.553 176.545 209.725 177.407 209.731 178.279C209.737 179.151 209.577 180.016 209.259 180.824C208.942 181.632 208.475 182.367 207.884 182.988L204.218 186.769C203.187 187.887 201.827 188.616 200.351 188.842C199.376 188.977 198.384 188.877 197.453 188.548C196.522 188.221 195.678 187.674 194.984 186.952L133.979 123.798C132.918 122.702 132.077 121.4 131.502 119.967C130.928 118.534 130.633 116.998 130.633 115.446C130.633 113.894 130.928 112.358 131.502 110.925C132.077 109.492 132.918 108.19 133.979 107.093L194.984 43.9401C195.579 43.3238 196.284 42.8349 197.062 42.5013C197.839 42.1678 198.672 41.9961 199.513 41.9961C200.354 41.9961 201.187 42.1678 201.964 42.5013C202.741 42.8349 203.447 43.3238 204.042 43.9401L207.82 47.9174C208.416 48.5326 208.888 49.2633 209.21 50.0677C209.532 50.8721 209.698 51.7344 209.698 52.6052C209.698 53.4761 209.532 54.3383 209.21 55.1427C208.888 55.9472 208.416 56.6779 207.82 57.2932L157.862 109.023C156.223 110.733 155.304 113.044 155.304 115.452C155.304 117.861 156.223 120.171 157.862 121.881ZM92.1014 109.078L42.1622 57.3475C41.5563 56.7347 41.0738 56.0035 40.7429 55.1961C40.412 54.3888 40.2392 53.5214 40.2345 52.6443C40.2298 51.7673 40.3933 50.8979 40.7156 50.0868C41.0379 49.2757 41.5125 48.539 42.1119 47.9193L45.7635 44.1246C46.8034 43.014 48.1653 42.2859 49.6418 42.0512C50.616 41.9205 51.6062 42.023 52.5361 42.3508C53.4661 42.6786 54.311 43.2229 55.0059 43.942L115.988 107.096C117.049 108.192 117.889 109.495 118.463 110.928C119.037 112.361 119.333 113.897 119.333 115.449C119.333 117 119.037 118.537 118.463 119.97C117.889 121.403 117.049 122.705 115.988 123.801L55.0059 186.955C54.4107 187.572 53.704 188.061 52.9262 188.395C52.1484 188.729 51.3148 188.9 50.4728 188.9C49.6309 188.9 48.7972 188.729 48.0195 188.395C47.2417 188.061 46.535 187.572 45.9398 186.955L42.1622 183.044C41.5668 182.427 41.0944 181.695 40.7721 180.89C40.4499 180.084 40.284 179.221 40.284 178.349C40.284 177.477 40.4499 176.614 40.7721 175.808C41.0944 175.002 41.5668 174.27 42.1622 173.654L92.1014 121.936C93.7392 120.227 94.6582 117.916 94.6582 115.507C94.6582 113.099 93.7392 110.788 92.1014 109.078Z" fill="black"/>
<path fill-rule="evenodd" clip-rule="evenodd" d="M401.162 104.291C397.419 101.847 393.033 100.572 388.563 100.63C384.916 100.572 381.316 101.462 378.117 103.214C376.077 104.295 374.252 105.74 372.733 107.478V75.8613H360.888V153.397H372.733V147.764C374.235 149.468 376.021 150.901 378.01 151.998C381.266 153.69 384.894 154.541 388.563 154.474C393.018 154.535 397.395 153.301 401.162 150.921C404.941 148.578 408.026 145.27 410.1 141.337C412.351 137.133 413.5 132.428 413.438 127.66C413.517 122.89 412.368 118.181 410.1 113.984C408.05 110.005 404.962 106.656 401.162 104.291ZM399.331 135.737C398.162 138.047 396.372 139.986 394.163 141.337C391.878 142.67 389.269 143.348 386.625 143.294C383.947 143.339 381.306 142.663 378.979 141.337C376.768 139.988 374.977 138.049 373.81 135.737C372.548 133.196 371.921 130.388 371.979 127.552C371.921 124.717 372.548 121.909 373.81 119.368C374.96 117.072 376.757 115.163 378.979 113.876C381.284 112.489 383.935 111.779 386.625 111.83C389.282 111.77 391.9 112.481 394.163 113.876C396.382 115.166 398.179 117.074 399.331 119.368C400.667 121.886 401.341 124.703 401.289 127.552C401.341 130.402 400.667 133.218 399.331 135.737ZM272.656 142.629C277.251 142.629 281.127 141.947 284.286 140.582C287.384 139.232 290.166 137.248 292.45 134.758L300.85 143.157C297.377 146.693 293.243 149.511 288.681 151.449C284.015 153.46 278.667 154.465 272.637 154.465C267.436 154.513 262.278 153.525 257.463 151.557C252.92 149.612 248.809 146.782 245.37 143.232C241.932 139.682 239.234 135.484 237.433 130.881C235.55 126.045 234.601 120.896 234.634 115.706C234.596 110.547 235.549 105.429 237.444 100.63C239.233 96.0067 241.94 91.7939 245.402 88.2455C248.938 84.6073 253.179 81.7282 257.865 79.7841C262.551 77.8399 267.584 76.8716 272.656 76.9381C278.761 76.9349 284.035 77.9465 288.476 79.973C292.891 81.9515 296.908 84.7184 300.331 88.1378L291.932 96.5376C289.653 94.0601 286.86 92.112 283.748 90.8301C280.595 89.466 276.899 88.7839 272.656 88.7839C269.15 88.7465 265.671 89.4122 262.426 90.742C259.369 92.0075 256.615 93.9098 254.35 96.3222C252.072 98.7795 250.317 101.674 249.191 104.83C247.939 108.318 247.32 112.001 247.36 115.706C247.319 119.405 247.935 123.081 249.181 126.563C250.326 129.745 252.082 132.671 254.35 135.178C256.638 137.543 259.387 139.412 262.426 140.67C265.671 142.001 269.15 142.666 272.656 142.629ZM314.06 101.706L327.301 135.384L341.305 101.706H354.442L330.428 153.935L320.845 174.935H307.707L320.683 148.198L301.03 101.706H314.06ZM446.698 100.621C451.52 100.618 455.762 101.731 459.424 103.96C463.104 106.147 466.109 109.308 468.107 113.094C470.307 117.157 471.42 121.719 471.337 126.339C471.336 127.241 471.264 128.141 471.122 129.032C471.035 130.008 470.892 130.979 470.692 131.939H432.136C432.444 133.25 432.915 134.516 433.541 135.708C434.784 138.099 436.691 140.081 439.032 141.416C441.551 142.751 444.366 143.425 447.216 143.374C449.733 143.406 452.23 142.93 454.558 141.974C456.792 141.087 458.785 139.685 460.373 137.882L467.911 145.527C465.433 148.447 462.295 150.736 458.758 152.204C455.144 153.717 451.262 154.487 447.343 154.466C442.461 154.542 437.641 153.361 433.345 151.039C429.203 148.695 425.774 145.273 423.423 141.136C421.072 136.998 419.886 132.301 419.992 127.543C419.937 124.011 420.589 120.503 421.909 117.226C423.229 113.949 425.19 110.969 427.678 108.461C430.166 105.952 433.13 103.967 436.396 102.621C439.662 101.275 443.165 100.594 446.698 100.621ZM438.65 113.436C436.431 114.726 434.635 116.635 433.482 118.929L433.472 118.938C432.923 119.986 432.502 121.098 432.219 122.247H459.722C459.446 120.83 458.987 119.454 458.357 118.155C457.348 116.074 455.734 114.347 453.726 113.201C451.791 112.052 449.386 111.478 446.512 111.478C443.763 111.417 441.049 112.093 438.65 113.436ZM513.179 102.03C510.972 101.07 508.585 100.593 506.179 100.629C500.306 100.629 495.891 102.676 492.934 106.768C492.888 106.832 492.844 106.898 492.8 106.965L492.719 107.086V101.702H480.873V153.397H492.719V124.644C492.719 120.193 493.796 116.93 495.949 114.854C498.103 112.779 500.831 111.738 504.133 111.731C505.489 111.706 506.839 111.925 508.118 112.377C509.313 112.839 510.383 113.577 511.24 114.531L519.018 106.552C517.43 104.631 515.435 103.087 513.179 102.03ZM562.477 142.629C567.076 142.629 570.952 141.946 574.11 140.582C577.212 139.234 579.997 137.249 582.28 134.758L590.681 143.157C587.207 146.693 583.076 149.51 578.511 151.449C573.845 153.46 568.5 154.465 562.466 154.465C557.268 154.513 552.109 153.524 547.296 151.557C542.753 149.612 538.641 146.782 535.202 143.232C531.764 139.682 529.065 135.484 527.266 130.88C525.382 126.045 524.432 120.896 524.466 115.706C524.424 110.548 525.375 105.429 527.266 100.629C529.058 96.0057 531.769 91.7929 535.234 88.2454C538.769 84.6084 543.007 81.73 547.691 79.7859C552.375 77.8418 557.409 76.8728 562.477 76.938C568.579 76.9347 573.856 77.9464 578.308 79.9729C582.72 81.9524 586.732 84.7192 590.156 88.1377L581.754 96.5375C579.477 94.06 576.681 92.1118 573.568 90.8299C570.415 89.4659 566.72 88.7838 562.477 88.7838C558.974 88.7464 555.494 89.4121 552.251 90.7418C549.188 92.0074 546.437 93.9097 544.171 96.3221C541.889 98.779 540.132 101.673 539.003 104.83C537.751 108.318 537.132 112.001 537.172 115.706C537.134 119.405 537.754 123.081 539.003 126.563C540.148 129.744 541.906 132.671 544.171 135.178C546.459 137.543 549.211 139.412 552.251 140.67C555.494 142.001 558.974 142.666 562.477 142.629ZM636.129 104.184C631.937 101.788 627.174 100.561 622.343 100.631C617.535 100.571 612.806 101.838 608.67 104.292C604.642 106.601 601.275 109.9 598.879 113.876C596.478 117.994 595.246 122.689 595.314 127.455C595.258 132.249 596.484 136.972 598.868 141.132C601.258 145.167 604.625 148.534 608.659 150.921C611.738 152.738 615.145 153.926 618.682 154.416C622.225 154.907 625.824 154.691 629.281 153.781C632.733 152.87 635.976 151.283 638.813 149.112C641.649 146.941 644.027 144.228 645.813 141.132C648.265 136.996 649.536 132.264 649.48 127.455C649.547 122.679 648.282 117.98 645.819 113.886C643.508 109.848 640.163 106.499 636.129 104.184ZM635.378 135.512C634.185 137.844 632.355 139.787 630.1 141.112C627.733 142.446 625.061 143.122 622.343 143.07C619.637 143.105 616.959 142.43 614.592 141.112C612.366 139.747 610.546 137.814 609.315 135.512C608.06 133.007 607.433 130.236 607.484 127.435C607.427 124.668 608.055 121.929 609.315 119.466C610.552 117.225 612.377 115.363 614.592 114.082C616.942 112.703 619.62 111.995 622.343 112.035C625.072 111.977 627.756 112.686 630.1 114.082C632.315 115.365 634.135 117.226 635.378 119.466C636.711 121.907 637.383 124.654 637.332 127.435C637.378 130.253 636.705 133.037 635.378 135.521V135.512ZM686.577 100.63C690.244 100.569 693.848 101.62 696.911 103.645C699.899 105.548 702.357 108.183 704.041 111.301C705.713 114.254 706.589 117.59 706.583 120.984V153.398H694.741V123.568C694.741 120.125 693.634 117.289 691.419 115.061C689.266 112.835 686.47 111.722 683.023 111.722C680.882 111.685 678.763 112.204 676.882 113.23C675.119 114.208 673.661 115.663 672.684 117.43C671.655 119.311 671.136 121.426 671.175 123.568V153.398H659.333V101.707H671.175V107.557C672.593 105.852 674.311 104.417 676.238 103.322C679.379 101.513 682.95 100.583 686.577 100.63ZM756.223 103.645C753.161 101.62 749.556 100.569 745.884 100.63C742.257 100.583 738.686 101.513 735.544 103.322C733.612 104.416 731.895 105.85 730.471 107.557V101.707H718.623V153.398H730.471V123.568C730.431 121.426 730.951 119.311 731.979 117.43C732.957 115.663 734.409 114.208 736.177 113.23C738.059 112.204 740.172 111.685 742.313 111.722C745.76 111.722 748.562 112.835 750.714 115.061C752.946 117.286 754.053 120.122 754.053 123.568V153.398H765.896V120.984C765.89 117.583 765.003 114.243 763.314 111.291C761.636 108.181 759.195 105.55 756.223 103.645ZM801.304 100.621C806.123 100.618 810.366 101.731 814.027 103.96C817.705 106.15 820.711 109.31 822.711 113.094C824.914 117.157 826.027 121.719 825.943 126.339C825.937 127.241 825.864 128.141 825.728 129.032C825.638 130.008 825.496 130.979 825.299 131.939H786.738C787.049 133.25 787.518 134.516 788.145 135.708C789.388 138.099 791.298 140.081 793.637 141.416C796.157 142.751 798.97 143.425 801.823 143.374C804.338 143.405 806.835 142.929 809.163 141.974C811.394 141.085 813.389 139.683 814.976 137.882L822.513 145.527C820.033 148.445 816.897 150.733 813.36 152.204C809.75 153.717 805.869 154.486 801.948 154.466C797.066 154.542 792.247 153.362 787.947 151.039C783.806 148.695 780.382 145.273 778.026 141.136C775.676 136.998 774.489 132.301 774.596 127.543C774.54 124.011 775.195 120.503 776.512 117.226C777.834 113.949 779.794 110.969 782.28 108.461C784.772 105.952 787.733 103.967 791.004 102.621C794.269 101.275 797.772 100.594 801.304 100.621ZM793.258 113.436C791.032 114.723 789.235 116.632 788.088 118.929L788.077 118.938C787.529 119.986 787.105 121.097 786.829 122.247H814.321C814.05 120.829 813.592 119.454 812.959 118.155C811.954 116.075 810.338 114.349 808.332 113.201C806.388 112.052 803.987 111.478 801.117 111.478C798.366 111.416 795.654 112.092 793.258 113.436ZM851.413 114.092C853.797 112.703 856.514 111.995 859.277 112.045C861.644 112.016 863.995 112.493 866.164 113.445C868.3 114.292 870.193 115.662 871.656 117.43L879.413 109.569C876.984 106.702 873.916 104.444 870.458 102.98C866.944 101.385 863.119 100.576 859.26 100.611C854.396 100.55 849.604 101.776 845.367 104.164C841.333 106.476 837.988 109.822 835.678 113.856C833.271 118.008 832.045 122.736 832.124 127.533C832.062 132.327 833.288 137.051 835.678 141.209C837.988 145.244 841.333 148.59 845.367 150.902C849.181 152.993 853.424 154.195 857.769 154.419C862.113 154.643 866.453 153.882 870.458 152.194C873.905 150.668 876.956 148.386 879.396 145.517L871.645 137.656C870.159 139.433 868.277 140.834 866.153 141.748C863.961 142.629 861.622 143.069 859.26 143.04C856.514 143.085 853.802 142.41 851.401 141.082C849.192 139.739 847.378 137.847 846.124 135.59C844.87 133.085 844.243 130.314 844.294 127.513C844.226 124.711 844.853 121.936 846.124 119.437C847.367 117.208 849.198 115.361 851.413 114.092ZM906.815 101.708H919.194V112.477H906.815V153.399H894.968V112.477H882.583V101.708H894.968V80.17H906.815V101.708Z" fill="black"/>
</g>
</g>
<defs>
<clipPath id="clip0_1178_299">
<rect width="958" height="230" rx="36.2202" fill="white"/>
</clipPath>
<clipPath id="clip1_1178_299">
<rect width="943.532" height="146.904" fill="white" transform="translate(40.2344 42)"/>
</clipPath>
</defs>
</svg>
