<svg width="748" height="230" viewBox="0 0 748 230" fill="none" xmlns="http://www.w3.org/2000/svg">
<path d="M251.562 110.986C251.562 105.008 256.338 100.227 262.308 100.227C268.277 100.227 273.053 105.008 273.053 110.986C273.053 116.963 268.277 121.745 262.308 121.745C256.338 121.745 251.562 116.764 251.562 110.986Z" fill="#120F43"/>
<path d="M314.658 147.054C311.673 158.411 305.106 168.772 294.361 174.55C279.637 182.122 262.127 179.332 247.402 173.554C235.264 182.122 235.264 182.122 235.264 182.122C232.479 183.915 228.897 180.926 230.489 177.937C227.106 178.535 226.111 175.347 227.106 172.757C224.32 174.949 221.933 170.963 223.524 168.572C224.519 166.978 226.111 165.185 227.305 163.79C210.193 154.027 194.672 142.072 178.953 130.317C187.907 135.896 223.723 154.226 232.479 158.012C241.632 161.997 250.785 165.982 260.336 168.174C268.295 169.967 278.443 170.963 285.806 166.381C292.571 162.396 295.157 154.226 296.153 146.854C298.54 130.915 292.969 112.982 284.611 99.4328C275.856 85.2862 261.53 72.5345 245.213 68.3502C239.244 66.7561 233.274 66.7561 227.703 67.7523C249.989 60.9779 292.969 69.9441 308.091 104.414C315.255 121.35 316.648 134.899 314.658 147.054Z" fill="#120F43"/>
<path d="M316.448 137.096C316.05 140.483 315.652 143.87 314.657 147.058C311.673 158.416 305.106 168.776 294.361 174.555C279.637 182.126 262.127 179.337 247.402 173.558C235.264 182.126 235.264 182.126 235.264 182.126C232.479 183.92 228.897 180.931 230.489 177.942C227.106 178.54 226.111 175.352 227.106 172.761C224.32 174.953 221.933 170.968 223.524 168.577C224.519 166.983 226.111 165.19 227.305 163.795C210.193 154.032 194.672 142.077 178.953 130.321C187.907 135.9 223.723 154.231 232.479 158.017C241.632 162.002 250.785 165.987 260.336 168.179C268.295 169.972 278.443 170.968 285.805 166.385C292.571 162.401 295.157 154.231 296.152 146.859C298.54 130.919 292.969 112.987 284.611 99.4377C275.856 85.291 261.53 72.5389 245.213 68.355C239.244 66.7609 233.274 66.7609 227.703 67.7571C214.769 69.9489 203.029 77.9187 194.075 87.8814C181.142 102.227 172.188 119.961 164.029 137.494C158.458 149.25 150.698 177.942 132.391 166.585C124.233 161.404 119.06 152.438 115.478 143.671C111.498 134.307 108.713 121.754 111.299 111.592C116.871 90.2721 146.718 109.201 156.866 115.975C156.269 115.776 132.391 104.817 123.636 113.385C119.657 117.37 119.856 124.543 120.453 129.724C121.646 139.088 126.223 153.036 134.978 158.216C146.32 164.791 152.091 144.269 155.075 137.096C160.05 124.942 164.825 112.788 170.397 100.833C176.565 87.6821 183.927 74.7308 194.075 64.1707C191.887 61.5804 188.703 58.3925 188.504 55.0052C188.106 51.2195 191.887 47.0352 195.866 49.0277C191.29 43.8473 197.458 36.0765 203.427 39.0653C200.642 34.6818 205.019 29.1028 209.596 29.3021C212.183 29.3021 214.769 31.4938 216.759 32.8886C221.933 36.2758 227.106 39.8623 232.479 43.2495C282.025 35.4788 320.826 91.8665 316.448 137.096Z" fill="#120F43"/>
<path d="M403.591 132.697L393.321 143.404V162.742H375.731V86.2644H393.321V121.99L427.19 86.2644H446.856L415.172 120.352L448.713 162.742H428.064L403.591 132.697ZM480.918 163.616C474.727 163.616 469.155 162.342 464.202 159.792C459.322 157.17 455.499 153.565 452.731 148.976C449.963 144.388 448.579 139.18 448.579 133.353C448.579 127.526 449.963 122.318 452.731 117.73C455.499 113.141 459.322 109.572 464.202 107.023C469.155 104.401 474.727 103.089 480.918 103.089C487.109 103.089 492.645 104.401 497.525 107.023C502.405 109.572 506.229 113.141 508.997 117.73C511.764 122.318 513.148 127.526 513.148 133.353C513.148 139.18 511.764 144.388 508.997 148.976C506.229 153.565 502.405 157.17 497.525 159.792C492.645 162.342 487.109 163.616 480.918 163.616ZM480.918 149.632C485.289 149.632 488.857 148.175 491.625 145.262C494.466 142.275 495.886 138.306 495.886 133.353C495.886 128.4 494.466 124.467 491.625 121.553C488.857 118.567 485.289 117.074 480.918 117.074C476.548 117.074 472.943 118.567 470.102 121.553C467.262 124.467 465.841 128.4 465.841 133.353C465.841 138.306 467.262 142.275 470.102 145.262C472.943 148.175 476.548 149.632 480.918 149.632ZM524.541 103.964H541.584V162.742H524.541V103.964ZM533.062 95.7695C529.93 95.7695 527.381 94.859 525.415 93.0381C523.448 91.2172 522.465 88.9593 522.465 86.2644C522.465 83.5694 523.448 81.3115 525.415 79.4906C527.381 77.6697 529.93 76.7593 533.062 76.7593C536.194 76.7593 538.744 77.6333 540.71 79.3814C542.677 81.1294 543.66 83.3145 543.66 85.9366C543.66 88.7772 542.677 91.1444 540.71 93.0381C538.744 94.859 536.194 95.7695 533.062 95.7695ZM557.402 103.964H574.446V162.742H557.402V103.964ZM565.924 95.7695C562.792 95.7695 560.243 94.859 558.276 93.0381C556.31 91.2172 555.326 88.9593 555.326 86.2644C555.326 83.5694 556.31 81.3115 558.276 79.4906C560.243 77.6697 562.792 76.7593 565.924 76.7593C569.056 76.7593 571.605 77.6333 573.572 79.3814C575.538 81.1294 576.522 83.3145 576.522 85.9366C576.522 88.7772 575.538 91.1444 573.572 93.0381C571.605 94.859 569.056 95.7695 565.924 95.7695Z" fill="#120F43"/>
</svg>
