<svg width="748" height="230" viewBox="0 0 748 230" fill="none" xmlns="http://www.w3.org/2000/svg">
<path fill-rule="evenodd" clip-rule="evenodd" d="M186.493 161.78C212.355 161.78 233.317 140.816 233.317 114.958C233.317 89.0994 212.352 68.1348 186.493 68.1348C160.634 68.1348 139.672 89.0994 139.672 114.958C139.672 140.816 160.637 161.78 186.493 161.78Z" fill="url(#paint0_linear_1178_218)"/>
<path fill-rule="evenodd" clip-rule="evenodd" d="M134.249 166.924C163.104 166.924 186.495 143.66 186.495 114.962C186.495 86.2632 163.104 63 134.249 63C105.391 63 82 86.2632 82 114.962C82 143.66 105.391 166.924 134.249 166.924Z" fill="url(#paint1_linear_1178_218)"/>
<path fill-rule="evenodd" clip-rule="evenodd" d="M264.727 156.675V77.2715H283.884L305.394 137.748H305.73L327.24 77.2715H346.51V156.675H332.73V100.566H332.282C331.61 103.03 330.937 105.718 329.705 109.078L312.116 156.675H299.232L281.643 109.078C280.6 106.299 279.74 103.456 279.067 100.566H278.619V156.675H264.727ZM387.119 158.355C369.53 158.355 356.535 143.796 356.535 125.653C356.535 107.51 369.53 92.9506 387.119 92.9506C398.098 92.9506 406.613 98.8862 410.534 107.062H410.982V94.7425H424.65V156.675H410.982V144.58H410.534C405.156 154.323 397.09 158.355 387.119 158.355ZM464.923 94.7425H476.068V77.2715H490.072V94.7425H499.931V107.846H490.072V143.572H499.595V156.675H476.068V107.846H455.065V143.572H464.587V156.675H441.061V107.846H431.538V94.7425H441.061V77.2715H455.065V94.7425H464.923ZM390.032 145.14C378.941 145.14 371.323 136.74 371.323 125.653C371.323 114.453 378.941 106.166 390.032 106.166C401.235 106.166 408.965 114.453 408.965 125.653C408.965 136.74 401.235 145.14 390.032 145.14ZM538.076 158.355C519.143 158.355 504.354 143.572 504.354 125.429C504.354 107.286 519.143 93.0626 538.076 93.0626C557.009 93.0626 571.798 107.286 571.798 125.877C571.798 126.885 571.686 128.676 571.349 130.356H519.367C520.935 138.868 528.889 145.252 538.3 145.252C545.694 145.252 551.856 141.78 554.769 135.508H570.229C565.86 148.835 553.536 158.355 538.076 158.355ZM519.591 119.717H556.225C554.993 112.325 547.711 106.166 537.852 106.166C527.993 106.166 520.599 111.877 519.591 119.717ZM579.918 156.675V94.7425H617.224V107.846H594.034V156.675H579.918ZM642.149 158.355C628.93 158.355 619.071 149.395 619.071 138.532H633.075C633.187 142.564 637.22 145.476 642.373 145.476C647.863 145.476 651.336 142.788 651.336 138.756C651.336 133.604 645.846 132.484 640.245 131.028C628.594 128.117 620.303 123.301 620.303 111.989C620.303 101.35 629.938 93.0626 642.598 93.0626C654.809 93.0626 664.892 101.462 664.892 112.437L650.888 112.325C650.888 108.182 646.967 105.83 642.598 105.83C638.116 105.83 634.307 108.07 634.307 111.877C634.307 116.469 639.685 117.589 645.286 119.045C653.577 121.173 665.004 123.973 665.004 138.532C665.004 149.507 654.697 158.355 642.149 158.355Z" fill="black"/>
<defs>
<linearGradient id="paint0_linear_1178_218" x1="129.155" y1="120.356" x2="198.724" y2="174.61" gradientUnits="userSpaceOnUse">
<stop stop-color="#D7EAE1"/>
<stop offset="1" stop-color="#79B1A6"/>
</linearGradient>
<linearGradient id="paint1_linear_1178_218" x1="77.5049" y1="114.272" x2="137.583" y2="176.951" gradientUnits="userSpaceOnUse">
<stop stop-color="#F4E2BC"/>
<stop offset="1" stop-color="#BF9F5E"/>
</linearGradient>
</defs>
</svg>
