<svg width="748" height="230" viewBox="0 0 748 230" fill="none" xmlns="http://www.w3.org/2000/svg">
<path d="M166.986 62H60V168.986H166.986V62Z" fill="#FFFF00"/>
<path fill-rule="evenodd" clip-rule="evenodd" d="M687.772 128.238C686.953 129.056 685.561 129.848 683.592 130.616C680.322 131.917 677.376 132.868 674.757 133.469C672.137 134.07 669.676 134.37 667.374 134.37C663.469 134.37 660.191 133.744 657.538 132.493C654.884 131.241 652.908 129.382 651.606 126.911C650.939 125.743 650.463 124.358 650.179 122.757C649.896 121.155 649.753 118.686 649.753 115.348V113.796V97.0778H641.245C639.842 97.0778 638.824 96.802 638.191 96.2515C637.556 95.701 637.239 94.8091 637.239 93.5738C637.239 92.2052 637.673 91.2713 638.541 90.77C639.409 90.2697 641.261 90.0196 644.098 90.0196H649.753V79.7577V77.1046C649.753 75.6704 650.062 74.6104 650.68 73.9266C651.297 73.2428 652.257 72.9004 653.558 72.9004C655.026 72.9004 656.044 73.3176 656.612 74.1521C657.179 74.9866 657.463 76.8883 657.463 79.8582V90.0196H677.235C678.87 90.0196 680.063 90.3035 680.814 90.8704C681.565 91.4384 681.94 92.3395 681.94 93.5738C681.94 94.7425 681.59 95.618 680.89 96.2013C680.188 96.7856 679.138 97.0778 677.735 97.0778H657.463V113.796C657.463 119.269 658.171 122.874 659.59 124.608C661.008 126.344 663.436 127.211 666.874 127.211C669.909 127.211 673.547 126.328 677.785 124.558C682.023 122.79 684.644 121.906 685.644 121.906C686.578 121.906 687.372 122.239 688.023 122.907C688.673 123.575 688.999 124.392 688.999 125.36C688.999 126.461 688.59 127.42 687.772 128.238ZM610.113 105.687C617.053 105.855 622.126 107.064 625.329 109.316C628.533 111.569 630.135 115.048 630.135 119.753C630.135 124.258 628.366 127.862 624.829 130.566C621.291 133.269 616.52 134.62 610.513 134.62C608.611 134.62 606.491 134.445 604.156 134.094C601.819 133.744 598.882 133.152 595.345 132.318C594.177 133.086 593.176 133.661 592.343 134.044C591.508 134.427 590.807 134.62 590.24 134.62C589.071 134.62 588.178 134.211 587.561 133.394C586.944 132.576 586.636 131.4 586.636 129.864V120.955C586.636 119.487 586.911 118.435 587.462 117.801C588.012 117.168 588.904 116.85 590.14 116.85C591.508 116.85 592.593 117.785 593.393 119.653C593.927 120.788 594.411 121.639 594.845 122.207C596.247 124.008 598.315 125.452 601.052 126.536C603.788 127.62 606.809 128.163 610.113 128.163C613.65 128.163 616.486 127.445 618.622 126.01C620.757 124.576 621.825 122.69 621.825 120.354C621.825 117.985 620.966 116.3 619.248 115.298C617.529 114.297 614.584 113.796 610.413 113.796H607.66C600.852 113.796 595.662 112.612 592.092 110.243C588.521 107.874 586.736 104.436 586.736 99.9308C586.736 95.5257 588.479 92.1058 591.966 89.6689C595.454 87.2332 600.351 86.0153 606.658 86.0153C609.228 86.0153 611.847 86.3741 614.517 87.0917C617.186 87.8093 618.589 88.1671 618.722 88.1671C619.089 88.1671 619.789 87.8421 620.825 87.1911C621.858 86.5402 622.877 86.2152 623.878 86.2152C625.013 86.2152 625.855 86.6334 626.406 87.4669C626.956 88.3014 627.232 89.5531 627.232 91.221V97.0778C627.232 98.8472 626.964 100.124 626.431 100.907C625.896 101.691 625.045 102.084 623.878 102.084C622.877 102.084 621.642 101.233 620.174 99.53C619.139 98.3623 618.289 97.4776 617.621 96.8779C615.852 95.2427 613.966 94.0669 611.964 93.3483C609.962 92.6317 607.609 92.2718 604.906 92.2718C601.769 92.2718 599.241 92.9648 597.323 94.3498C595.404 95.7348 594.444 97.495 594.444 99.6304C594.444 101.733 595.428 103.235 597.398 104.136C599.367 105.036 603.605 105.555 610.113 105.687ZM576.628 133.469H568.77C567.835 133.469 567.067 133.186 566.466 132.618C565.866 132.051 565.465 131.233 565.265 130.165L564.865 127.112C562.127 129.582 559.149 131.467 555.929 132.768C552.708 134.07 549.397 134.721 545.993 134.721C541.02 134.721 537.008 133.336 533.955 130.566C530.901 127.796 529.375 124.192 529.375 119.753C529.375 114.481 531.401 110.393 535.456 107.489C539.51 104.586 545.209 103.134 552.55 103.134C554.486 103.134 556.438 103.26 558.407 103.51C560.375 103.76 562.395 104.152 564.464 104.687V104.336C564.464 100.499 563.546 97.6621 561.711 95.8261C559.875 93.991 557.022 93.0735 553.151 93.0735C550.548 93.0735 547.645 93.7737 544.441 95.1751C541.238 96.5775 539.119 97.2777 538.084 97.2777C537.116 97.2777 536.315 96.8861 535.681 96.1018C535.047 95.3176 534.73 94.3078 534.73 93.0735C534.73 91.1042 536.574 89.4362 540.262 88.0676C543.948 86.6991 548.663 86.0153 554.403 86.0153C560.276 86.0153 564.714 87.5089 567.718 90.4952C570.721 93.4825 572.223 97.8959 572.223 103.735V126.411H574.675C577.045 126.411 578.63 126.661 579.431 127.162C580.232 127.662 580.633 128.564 580.633 129.864C580.633 131.066 580.298 131.967 579.631 132.568C578.964 133.169 577.962 133.469 576.628 133.469ZM564.464 111.344C562.629 110.743 560.851 110.301 559.133 110.017C557.414 109.734 555.704 109.592 554.002 109.592C548.863 109.592 544.808 110.46 541.838 112.195C538.868 113.93 537.383 116.267 537.383 119.203C537.383 121.473 538.31 123.341 540.161 124.809C542.014 126.277 544.374 127.011 547.244 127.011C551.482 127.011 555.412 125.902 559.032 123.683C562.653 121.464 564.464 119.153 564.464 116.75V111.344ZM497.741 127.211C499.977 127.211 502.105 126.904 504.124 126.286C506.143 125.668 508.054 124.743 509.856 123.507C510.489 123.107 511.34 122.489 512.408 121.655C514.578 119.887 516.279 119.003 517.515 119.003C518.548 119.003 519.392 119.328 520.042 119.979C520.693 120.629 521.019 121.473 521.019 122.507C521.019 125.143 518.524 127.838 513.535 130.59C508.546 133.344 503.249 134.721 497.642 134.721C490.4 134.721 484.368 132.401 479.546 127.762C474.724 123.124 472.313 117.334 472.313 110.393C472.313 103.452 474.715 97.6529 479.521 92.9976C484.326 88.3424 490.334 86.0153 497.542 86.0153C500.078 86.0153 502.622 86.3577 505.175 87.0415C507.729 87.7252 510.439 88.7853 513.31 90.2195V90.0196C513.31 88.9185 513.626 88.1097 514.261 87.592C514.895 87.0753 515.879 86.8159 517.214 86.8159C518.582 86.8159 519.524 87.2168 520.042 88.0174C520.56 88.8181 520.818 90.4706 520.818 92.973V102.284C520.818 103.519 520.5 104.445 519.867 105.062C519.233 105.68 518.282 105.987 517.014 105.987C516.112 105.987 515.337 105.729 514.686 105.211C514.035 104.695 513.242 103.618 512.308 101.983C510.707 99.2798 508.762 97.2367 506.477 95.8517C504.191 94.4667 501.562 93.7737 498.593 93.7737C493.387 93.7737 489.157 95.3094 485.904 98.3787C482.65 101.45 481.023 105.421 481.023 110.292C481.023 115.265 482.582 119.328 485.703 122.481C488.824 125.635 492.836 127.211 497.741 127.211ZM466.41 133.469H458.551C457.616 133.469 456.849 133.186 456.248 132.618C455.648 132.051 455.247 131.233 455.047 130.165L454.646 127.112C451.91 129.582 448.932 131.467 445.712 132.768C442.491 134.07 439.18 134.721 435.775 134.721C430.802 134.721 426.79 133.336 423.736 130.566C420.684 127.796 419.156 124.192 419.156 119.753C419.156 114.481 421.184 110.393 425.238 107.489C429.293 104.586 434.991 103.134 442.333 103.134C444.267 103.134 446.22 103.26 448.19 103.51C450.158 103.76 452.176 104.152 454.246 104.687V104.336C454.246 100.499 453.328 97.6621 451.493 95.8261C449.658 93.991 446.804 93.0735 442.934 93.0735C440.331 93.0735 437.427 93.7737 434.224 95.1751C431.02 96.5775 428.9 97.2777 427.866 97.2777C426.898 97.2777 426.097 96.8861 425.464 96.1018C424.829 95.3176 424.513 94.3078 424.513 93.0735C424.513 91.1042 426.356 89.4362 430.043 88.0676C433.731 86.6991 438.444 86.0153 444.184 86.0153C450.057 86.0153 454.496 87.5089 457.5 90.4952C460.503 93.4825 462.005 97.8959 462.005 103.735V126.411H464.458C466.827 126.411 468.412 126.661 469.213 127.162C470.014 127.662 470.414 128.564 470.414 129.864C470.414 131.066 470.08 131.967 469.414 132.568C468.745 133.169 467.745 133.469 466.41 133.469ZM454.246 111.344C452.41 110.743 450.634 110.301 448.915 110.017C447.196 109.734 445.486 109.592 443.785 109.592C438.644 109.592 434.59 110.46 431.62 112.195C428.65 113.93 427.166 116.267 427.166 119.203C427.166 121.473 428.091 123.341 429.944 124.809C431.795 126.277 434.156 127.011 437.027 127.011C441.265 127.011 445.194 125.902 448.815 123.683C452.436 121.464 454.246 119.153 454.246 116.75V111.344ZM413.351 133.469H407.295C405.96 133.469 404.975 133.068 404.341 132.267C403.706 131.467 403.39 130.199 403.39 128.463V105.588C403.39 100.882 402.966 97.7031 402.119 96.0516C401.271 94.4001 399.816 93.5738 397.754 93.5738C395.293 93.5738 393.34 94.642 391.895 96.7774C390.447 98.9128 389.724 101.85 389.724 105.588V126.411H390.618C392.637 126.411 393.985 126.654 394.664 127.137C395.342 127.62 395.682 128.531 395.682 129.864C395.682 131.066 395.398 131.967 394.831 132.568C394.263 133.169 393.395 133.469 392.228 133.469H385.871C384.436 133.469 383.459 133.136 382.942 132.467C382.424 131.801 382.166 130.366 382.166 128.163V126.711V105.588V101.683C382.166 99.1804 381.598 97.2029 380.464 95.7512C379.329 94.2996 377.777 93.5738 375.809 93.5738C374.307 93.5738 372.93 94.0167 371.679 94.9003C370.428 95.7851 369.351 97.0952 368.45 98.8298V126.411H370.289C372.277 126.411 373.618 126.661 374.314 127.162C375.01 127.662 375.359 128.564 375.359 129.864C375.359 131.233 375.075 132.176 374.509 132.693C373.943 133.211 372.861 133.469 371.263 133.469H357.98C356.681 133.469 355.724 133.177 355.108 132.592C354.492 132.009 354.184 131.1 354.184 129.864C354.184 128.531 354.574 127.62 355.352 127.137C356.131 126.654 357.645 126.411 359.898 126.411H360.892V94.274H359.998C357.678 94.274 356.096 94.0095 355.251 93.4795C354.406 92.9484 353.984 92.0207 353.984 90.6951C353.984 89.5367 354.317 88.6663 354.986 88.0861C355.652 87.5069 356.654 87.2168 357.988 87.2168H365.647C366.748 87.2168 367.474 87.4074 367.825 87.7878C368.175 88.1702 368.384 88.9729 368.45 90.199C369.821 88.7381 371.292 87.6596 372.863 86.9615C374.435 86.2634 376.207 85.9148 378.18 85.9148C380.519 85.9148 382.45 86.4212 383.971 87.4331C385.491 88.4449 386.62 89.9806 387.356 92.0371C388.759 89.9478 390.378 88.4049 392.215 87.4085C394.052 86.413 396.154 85.9148 398.526 85.9148C402.834 85.9148 405.981 87.3162 407.968 90.12C409.955 92.9228 410.948 97.4612 410.948 103.735V126.411H411.743C413.794 126.411 415.168 126.661 415.863 127.162C416.557 127.662 416.905 128.564 416.905 129.864C416.905 131.066 416.605 131.967 416.004 132.568C415.404 133.169 414.519 133.469 413.351 133.469ZM344.974 97.128C344.206 97.128 342.913 96.6195 341.095 95.6005C339.275 94.5836 337.648 94.0741 336.214 94.0741C333.611 94.0741 330.866 95.0018 327.98 96.8574C325.093 98.7119 321.898 101.645 318.394 105.655V126.411H335.012C336.314 126.411 337.273 126.686 337.891 127.237C338.508 127.788 338.817 128.663 338.817 129.864C338.817 131.233 338.525 132.176 337.941 132.693C337.357 133.211 336.281 133.469 334.712 133.469H301.976C300.674 133.469 299.69 133.169 299.022 132.568C298.354 131.967 298.021 131.066 298.021 129.864C298.021 128.697 298.363 127.83 299.047 127.262C299.731 126.695 300.791 126.411 302.226 126.411H310.936V94.274H307.532C304.295 94.274 302.276 94.0177 301.474 93.5041C300.674 92.9905 300.273 92.0545 300.273 90.6951C300.273 89.5367 300.599 88.6663 301.25 88.0861C301.9 87.5069 302.893 87.2168 304.228 87.2168H315.641C316.542 87.2168 317.225 87.3921 317.693 87.7416C318.16 88.0923 318.394 88.6018 318.394 89.2691V97.778C321.563 93.8075 324.867 90.854 328.305 88.9185C331.742 86.983 335.446 86.0153 339.418 86.0153C342.387 86.0153 344.79 86.6129 346.626 87.8062C348.461 89.0005 349.379 90.5424 349.379 92.4328C349.379 93.6609 348.92 94.7496 348.002 95.701C347.084 96.6523 346.075 97.128 344.974 97.128ZM285.661 112.545H284.909H251.271C251.538 117.367 253.165 121.092 256.151 123.721C259.138 126.348 263.218 127.662 268.391 127.662C272.295 127.662 276.55 126.62 281.155 124.534C285.76 122.448 288.546 121.405 289.514 121.405C290.516 121.405 291.349 121.723 292.018 122.356C292.685 122.991 293.018 123.775 293.018 124.709C293.018 125.677 292.669 126.56 291.967 127.359C291.266 128.159 290.148 128.939 288.614 129.7C285.276 131.324 281.831 132.566 278.277 133.428C274.723 134.289 271.193 134.721 267.689 134.721C260.081 134.721 253.99 132.527 249.419 128.138C244.847 123.75 242.562 117.935 242.562 110.693C242.562 103.318 244.98 97.3454 249.82 92.7731C254.658 88.2009 260.965 85.9148 268.741 85.9148C275.782 85.9148 281.622 88.0512 286.261 92.3221C290.899 96.5939 293.219 101.767 293.219 107.84C293.219 109.709 292.826 110.961 292.042 111.594C291.258 112.229 289.131 112.545 285.661 112.545ZM279.128 96.4022C276.307 93.9828 272.846 92.7731 268.741 92.7731C264.302 92.7731 260.565 93.9408 257.528 96.2771C254.492 98.6125 252.489 101.85 251.522 105.987H284.108C283.608 102.017 281.947 98.8216 279.128 96.4022ZM214.822 133.569C211.284 133.569 208.03 132.943 205.061 131.691C202.09 130.441 199.604 128.647 197.602 126.31V146.283H209.616C210.884 146.283 211.835 146.584 212.469 147.185C213.103 147.785 213.42 148.686 213.42 149.887C213.42 151.189 213.112 152.106 212.495 152.64C211.877 153.174 210.784 153.441 209.215 153.441H187.14C185.806 153.441 184.796 153.141 184.112 152.54C183.427 151.939 183.086 151.056 183.086 149.887C183.086 148.552 183.511 147.617 184.362 147.084C185.213 146.55 186.79 146.283 189.092 146.283H190.044V94.3242H189.092C186.79 94.3242 185.213 94.0577 184.362 93.5236C183.511 92.9905 183.086 92.0555 183.086 90.7208C183.086 89.5531 183.427 88.6766 184.112 88.0923C184.796 87.5089 185.806 87.2168 187.14 87.2168H194.749C195.751 87.2168 196.477 87.3839 196.927 87.717C197.377 88.0512 197.602 88.5679 197.602 89.2691V94.1243C199.872 91.789 202.383 90.037 205.136 88.8683C207.889 87.7006 210.85 87.1163 214.021 87.1163C220.729 87.1163 226.335 89.386 230.84 93.9244C235.346 98.4628 237.598 104.152 237.598 110.993C237.598 117.568 235.461 122.974 231.191 127.211C226.919 131.45 221.462 133.569 214.822 133.569ZM224.508 99.2552C221.521 96.3017 217.725 94.8255 213.12 94.8255C208.515 94.8255 204.743 96.2935 201.807 99.2296C198.87 102.167 197.402 105.921 197.402 110.493C197.402 115.098 198.862 118.87 201.782 121.806C204.701 124.743 208.481 126.211 213.12 126.211C217.758 126.211 221.562 124.751 224.533 121.83C227.503 118.911 228.988 115.132 228.988 110.493C228.988 105.955 227.494 102.209 224.508 99.2552Z" fill="black"/>
</svg>
