<svg width="748" height="230" viewBox="0 0 748 230" fill="none" xmlns="http://www.w3.org/2000/svg">
<g clip-path="url(#clip0_1178_249)">
<path d="M458.122 124.114C452.284 115.447 438.205 110.831 428.129 108.111C426.955 107.802 425.732 107.493 424.434 107.17H424.331C418.905 105.797 412.745 104.279 407.951 101.676C402.456 98.6677 399.764 94.7666 399.764 89.7529C399.758 88.9392 399.834 88.127 399.99 87.3284V87.1842C400.068 86.8156 400.164 86.4511 400.279 86.0922C400.292 86.0431 400.308 85.9949 400.327 85.9479V85.893C401.037 83.8137 402.228 81.9312 403.802 80.3985C407.875 76.2776 414.372 73.963 421.659 73.963H421.886C427.251 74.0813 432.532 75.3238 437.387 77.61C442.239 79.8123 446.624 82.9222 450.306 86.7721L450.396 97.2185V97.3284H459.462V65.8724H450.416V73.0015C450.416 73.0536 450.403 73.1049 450.378 73.1505C450.353 73.1962 450.316 73.2347 450.272 73.2625C450.19 73.2625 450.08 73.2075 450.025 73.1526C446.194 70.2406 441.933 67.9442 437.394 66.3463C432.528 64.6803 427.428 63.7948 422.284 63.7227C416.385 63.7227 411.563 64.4095 407.539 65.7213C404.191 66.837 401.082 68.5676 398.37 70.8243C395.421 73.1279 393.053 76.0891 391.453 79.4713C389.907 82.7305 389.096 86.2897 389.077 89.8971C389.033 92.0327 389.299 94.1634 389.867 96.2227C390.568 98.5023 391.61 100.663 392.958 102.631C393.074 102.816 393.212 102.995 393.335 103.173C393.459 103.352 393.466 103.345 393.528 103.434L393.61 103.544C399.551 111.752 412.813 115.385 422.49 118.056L422.758 118.125L424.908 118.723L427.236 119.348C432.28 120.582 437.214 122.227 441.989 124.265C444.482 125.363 446.681 127.031 448.411 129.135C450.011 131.085 451.095 133.407 451.563 135.886C452.017 138.358 451.831 140.904 451.021 143.283C450.071 146.022 448.498 148.502 446.426 150.529C444.153 152.553 441.484 154.082 438.589 155.021C435.774 155.929 432.85 156.453 429.894 156.58C425.165 156.808 420.429 156.272 415.87 154.993C408.143 152.548 401.089 147.83 396.515 142.067C396.363 141.881 396.248 141.666 396.179 141.436L396.089 132.452V132.335H387.023V165.22H396.096V155.605C399.885 158.939 404.277 161.518 409.036 163.201C414.599 165.252 420.464 166.371 426.392 166.511H427.126C432.161 166.511 443.94 166.511 453.177 158.688C455.735 156.475 457.853 153.8 459.42 150.804C460.928 147.918 461.911 144.788 462.326 141.559C462.748 138.466 462.604 135.322 461.9 132.28C461.235 129.321 459.948 126.537 458.122 124.114Z" fill="black"/>
<path d="M368.61 124.114C362.889 115.488 348.754 110.852 338.617 108.118C337.463 107.816 336.268 107.521 334.997 107.205C324.008 104.492 310.327 101.106 310.169 89.7254C310.169 88.0113 310.532 86.3166 311.234 84.7529C311.991 83.1099 313.043 81.62 314.338 80.3573C318.459 76.2913 324.922 73.9562 332.154 73.9562H332.381C337.742 74.0723 343.019 75.3149 347.868 77.6032C352.7 79.8015 357.061 82.9126 360.712 86.7652L360.89 97.2117V97.3284H369.956V65.8724H360.911V73.0015C360.91 73.0528 360.898 73.1032 360.874 73.1486C360.85 73.194 360.816 73.233 360.774 73.2625C360.705 73.2625 360.622 73.2625 360.519 73.1526C356.689 70.2406 352.427 67.9442 347.889 66.3463C343.022 64.6803 337.923 63.7948 332.779 63.7227C326.845 63.7227 322.01 64.4095 317.999 65.7213C314.663 66.8396 311.565 68.5702 308.864 70.8243C305.916 73.1279 303.548 76.0891 301.948 79.4713C300.393 82.7378 299.577 86.3069 299.558 89.9246C299.514 92.057 299.775 94.1848 300.334 96.2433C301.019 98.508 302.033 100.66 303.342 102.631C309.036 111.504 322.964 115.316 333.136 118.105L333.377 118.166L335.396 118.723L337.525 119.293L337.724 119.348C342.768 120.581 347.702 122.226 352.477 124.265C354.978 125.38 357.188 127.059 358.933 129.169C360.54 131.141 361.628 133.483 362.099 135.982C362.547 138.458 362.353 141.007 361.536 143.386C360.578 146.123 358.996 148.6 356.914 150.618C354.656 152.637 351.997 154.156 349.111 155.076C346.289 155.979 343.357 156.492 340.396 156.6C339.785 156.6 339.146 156.642 338.5 156.642C334.361 156.652 330.24 156.09 326.254 154.973C325.794 154.828 325.327 154.67 324.881 154.506H324.812C323.885 154.176 322.958 153.819 322.065 153.4C317.583 151.435 313.484 148.694 309.956 145.302L309.778 145.131C309.228 144.581 308.672 143.997 308.136 143.386L307.724 142.912C307.484 142.631 307.25 142.356 307.037 142.067C306.889 141.881 306.778 141.669 306.708 141.442L306.618 132.459V132.342H297.422V165.227H306.584V155.611C310.373 158.946 314.765 161.525 319.524 163.208C325.087 165.259 330.951 166.378 336.879 166.518H337.614C342.621 166.518 354.345 166.518 363.665 158.695C366.222 156.482 368.34 153.807 369.908 150.811C371.415 147.943 372.403 144.832 372.827 141.621C373.25 138.528 373.105 135.384 372.401 132.342C371.739 129.361 370.446 126.555 368.61 124.114Z" fill="black"/>
<path d="M275.624 157.407L250.844 119.942C255.043 120.103 259.222 119.292 263.055 117.572C268.474 114.825 272.829 111.343 275.501 106.192C277.672 101.939 278.797 97.2301 278.783 92.4554C278.778 84.9451 275.818 77.7385 270.542 72.3936C264.814 67.2013 257.664 64.6738 248.674 64.6738H200.658V75.0378H210.851V157.531H199.766V166.199H231.943V157.531H221.579V120.093H238.921L263.2 157.531H252.169V166.199H286.799V157.531H275.968C275.905 157.535 275.842 157.526 275.783 157.505C275.724 157.483 275.67 157.45 275.624 157.407ZM221.579 74.5708H248.138C256.297 74.5708 262.561 77.8126 265.734 83.3826C267.262 86.1792 268.039 89.3242 267.988 92.5107C267.938 95.6971 267.062 98.8159 265.446 101.563C262.19 107.057 258.344 110.093 249.814 110.093H221.579V74.5708Z" fill="black"/>
<path d="M545.059 136.175C545.059 123.737 538.775 114.753 528.349 110.9C537.188 106.258 541.09 98.6201 541.09 90.7561C541.09 72.6037 525.863 62.9883 506.007 62.9883C495.169 63.0707 483.617 66.6765 475.725 77.7548L483.967 83.1325C488.383 77.1916 494.675 72.6037 506.007 72.6037C520.43 72.6037 530.664 78.4622 530.664 89.616C530.664 100.303 520.403 106.258 509.894 106.258H495.581V116.56H510.725C524.125 116.56 534.716 123.778 534.386 136.058C533.638 149.108 522.14 156.12 507.085 156.12C497.401 156.12 486.646 153.071 478.617 144.486L478.205 144.328L471.172 152.027L471.502 152.109C481.598 161.58 493.596 166.477 507.085 166.477C527.855 166.436 545.059 155.2 545.059 136.175Z" fill="black"/>
<path d="M193.085 110.021H167V120.674H193.085V110.021Z" fill="#0B70FF"/>
<path d="M581.999 110.021H555.914V120.674H581.999V110.021Z" fill="#0B70FF"/>
</g>
<defs>
<clipPath id="clip0_1178_249">
<rect width="415" height="103.468" fill="white" transform="translate(167 63)"/>
</clipPath>
</defs>
</svg>
