<svg width="748" height="230" viewBox="0 0 748 230" fill="none" xmlns="http://www.w3.org/2000/svg">
<path fill-rule="evenodd" clip-rule="evenodd" d="M51 175.159C51 151.314 70.33 131.984 94.1748 131.984H141.667V175.159H51ZM189.159 131.984C189.159 155.829 169.829 175.159 145.984 175.159V131.984H189.159ZM145.984 84.4922C169.829 84.4922 189.159 103.822 189.159 127.667H145.984V84.4922ZM94.1748 84.4922V127.667C70.33 127.667 51 108.337 51 84.4922H94.1748ZM189.159 37C189.159 60.8448 169.829 80.1748 145.984 80.1748H98.4922V37H189.159ZM94.1748 37V80.1748H51C51 56.33 70.33 37 94.1748 37Z" fill="url(#paint0_linear_1178_284)"/>
<path d="M261.778 146.06C278.729 146.06 290.628 137.304 290.628 121.701V121.476C290.628 107.781 281.647 102.056 265.707 97.903C252.124 94.4231 248.757 92.7393 248.757 87.5756V87.3511C248.757 83.5344 252.237 80.5036 258.86 80.5036C264.248 80.5036 269.636 82.4119 275.361 85.7795C276.708 86.5653 278.055 87.0143 279.739 87.0143C284.229 87.0143 287.821 83.5344 287.821 79.0443C287.821 75.6766 285.913 73.3193 284.005 72.1967C276.933 67.7066 268.626 65.237 259.084 65.237C243.032 65.237 231.582 74.6663 231.582 88.9227V89.1472C231.582 104.751 241.797 109.128 257.625 113.17C270.759 116.537 273.453 118.782 273.453 123.16V123.385C273.453 127.987 269.187 130.794 262.115 130.794C254.482 130.794 247.971 128.099 242.022 123.722C240.899 122.936 239.327 122.15 237.082 122.15C232.592 122.15 229 125.63 229 130.12C229 132.814 230.347 135.284 232.255 136.631C241.011 142.917 251.451 146.06 261.778 146.06ZM350.459 145.611C355.174 145.611 358.991 141.794 358.991 137.08V105.985C358.991 92.178 351.47 83.6467 338.56 83.6467C329.917 83.6467 324.865 88.2491 320.936 93.3006V70.8497C320.936 66.135 317.12 62.3184 312.405 62.3184C307.69 62.3184 303.874 66.135 303.874 70.8497V137.08C303.874 141.794 307.69 145.611 312.405 145.611C317.12 145.611 320.936 141.794 320.936 137.08V111.374C320.936 103.291 325.09 99.1378 331.601 99.1378C338.111 99.1378 341.928 103.291 341.928 111.374V137.08C341.928 141.794 345.745 145.611 350.459 145.611ZM403.331 146.285C422.078 146.285 435.997 132.253 435.997 114.966V114.741C435.997 97.454 422.19 83.6467 403.556 83.6467C384.809 83.6467 370.89 97.6785 370.89 114.966V115.19C370.89 132.477 384.697 146.285 403.331 146.285ZM403.556 131.579C394.126 131.579 387.728 123.834 387.728 114.966V114.741C387.728 105.873 393.565 98.352 403.331 98.352C412.76 98.352 419.159 106.098 419.159 114.966V115.19C419.159 124.058 413.322 131.579 403.556 131.579ZM469.449 146.06C473.602 146.06 477.082 143.703 478.654 138.764L488.308 108.455L497.849 138.764C499.421 143.703 502.901 146.06 507.054 146.06H507.616C511.769 146.06 515.249 143.703 517.045 138.427L532.199 95.4334C532.424 94.6476 532.76 93.0761 532.76 91.9535C532.76 87.6879 529.505 84.0957 524.79 84.0957C520.3 84.0957 517.718 87.0143 516.596 90.6065L507.166 121.364L497.625 90.831C496.39 86.7898 493.247 83.9835 488.869 83.9835H487.859C483.481 83.9835 480.338 86.7898 479.103 90.831L469.673 121.252L460.469 90.7187C459.234 86.7898 456.427 84.0957 452.162 84.0957C447.11 84.0957 443.967 87.9124 443.967 91.8413C443.967 93.3006 444.416 94.9844 444.753 95.9947L459.458 138.427C461.254 143.703 464.734 146.06 468.888 146.06H469.449ZM615.38 145.611C620.207 145.611 624.023 141.794 624.023 136.968V74.5541C624.023 69.7272 620.207 65.9105 615.38 65.9105H613.471C609.991 65.9105 607.522 67.3698 605.726 70.2884L584.734 104.414L563.855 70.4007C562.283 67.8188 559.702 65.9105 555.997 65.9105H554.089C549.262 65.9105 545.445 69.7272 545.445 74.5541V137.192C545.445 141.907 549.15 145.611 553.864 145.611C558.579 145.611 562.396 141.907 562.396 137.192V98.1275L577.325 121.14C579.122 123.834 581.367 125.518 584.51 125.518C587.653 125.518 589.898 123.834 591.694 121.14L606.848 97.7908V136.968C606.848 141.682 610.665 145.611 615.38 145.611ZM669.599 146.285C678.354 146.285 685.202 143.478 690.478 138.988C691.713 137.866 692.723 136.182 692.723 133.937C692.723 130.12 689.917 127.201 686.1 127.201C684.304 127.201 683.181 127.65 681.947 128.548C678.467 131.13 674.538 132.59 669.823 132.59C662.19 132.59 656.802 128.548 655.118 120.803H688.906C693.397 120.803 696.876 117.548 696.876 112.608C696.876 100.148 688.008 83.6467 667.915 83.6467C650.403 83.6467 638.167 97.7908 638.167 114.966V115.19C638.167 133.6 651.526 146.285 669.599 146.285ZM680.6 110.139H654.893C656.24 102.393 660.843 97.3417 667.915 97.3417C675.099 97.3417 679.589 102.505 680.6 110.139Z" fill="black"/>
<defs>
<linearGradient id="paint0_linear_1178_284" x1="167.906" y1="37" x2="76.8336" y2="175.159" gradientUnits="userSpaceOnUse">
<stop stop-color="#0BCFFF"/>
<stop offset="0.536249" stop-color="#E2BEE2"/>
<stop offset="1" stop-color="#FF0034"/>
</linearGradient>
</defs>
</svg>
