<svg width="748" height="230" viewBox="0 0 748 230" fill="none" xmlns="http://www.w3.org/2000/svg">
<g opacity="0.9" filter="url(#filter0_d_1165_4)">
<path d="M281.881 137.618C281.557 136.971 281.282 136.228 281.056 135.388C280.83 134.547 280.636 133.659 280.475 132.721C279.731 133.529 278.875 134.289 277.905 135C276.936 135.711 275.853 136.341 274.657 136.89C273.493 137.408 272.201 137.811 270.779 138.102C269.357 138.426 267.821 138.587 266.173 138.587C263.491 138.587 261.018 138.199 258.755 137.424C256.525 136.648 254.603 135.565 252.986 134.176C251.371 132.786 250.11 131.138 249.205 129.231C248.3 127.292 247.848 125.191 247.848 122.929C247.848 117.402 249.9 113.137 254.005 110.131C258.142 107.093 264.299 105.574 272.476 105.574H279.99V102.471C279.99 99.9504 279.166 97.963 277.517 96.5088C275.869 95.0218 273.493 94.2788 270.391 94.2788C267.644 94.2788 265.64 94.8766 264.379 96.0725C263.119 97.2357 262.489 98.8034 262.489 100.775H249.011C249.011 98.5446 249.496 96.4276 250.466 94.4241C251.467 92.4201 252.906 90.6592 254.78 89.1399C256.687 87.6211 258.998 86.4253 261.713 85.5527C264.46 84.6478 267.595 84.1953 271.118 84.1953C274.285 84.1953 277.226 84.5832 279.941 85.3588C282.688 86.1344 285.064 87.2817 287.068 88.8005C289.072 90.3197 290.639 92.2425 291.77 94.5694C292.901 96.8639 293.467 99.5302 293.467 102.568V125.062C293.467 127.873 293.645 130.201 294.001 132.043C294.356 133.885 294.873 135.468 295.552 136.793V137.618H281.881ZM269.033 128.164C270.391 128.164 271.651 128.003 272.815 127.68C273.978 127.356 275.028 126.936 275.966 126.419C276.903 125.902 277.711 125.321 278.39 124.674C279.068 123.996 279.602 123.317 279.99 122.638V113.621H273.106C271.005 113.621 269.211 113.831 267.724 114.251C266.238 114.639 265.026 115.205 264.088 115.948C263.151 116.659 262.456 117.532 262.004 118.566C261.551 119.568 261.325 120.666 261.325 121.862C261.325 123.672 261.955 125.175 263.216 126.371C264.509 127.567 266.448 128.164 269.033 128.164Z" fill="#212123"/>
<path d="M346.411 84.1953C348.447 84.1953 350.322 84.3407 352.035 84.6316C353.78 84.8901 355.186 85.181 356.252 85.5042L354.265 98.9325C352.487 98.5123 350.661 98.2052 348.787 98.0115C346.944 97.785 345.183 97.672 343.502 97.672C339.721 97.672 336.683 98.3993 334.388 99.8536C332.126 101.308 330.429 103.392 329.298 106.107V137.618H315.82V85.1649H328.377L329.007 93.7452C331.14 90.7722 333.693 88.4453 336.667 86.7647C339.64 85.0518 342.888 84.1953 346.411 84.1953Z" fill="#212123"/>
<path d="M401.915 121.185L406.472 85.166H418.834L409.429 137.619H397.6L390.716 104.266L384.074 137.619H372.245L362.84 85.166H375.154L379.711 121.33L386.304 85.166H395.321L401.915 121.185Z" fill="#212123"/>
<path d="M453.459 138.587C449.419 138.587 445.751 137.925 442.454 136.6C439.158 135.275 436.33 133.481 433.97 131.219C431.611 128.924 429.785 126.242 428.492 123.171C427.232 120.069 426.602 116.756 426.602 113.233V111.294C426.602 107.287 427.232 103.635 428.492 100.338C429.753 97.0097 431.514 94.1492 433.777 91.7578C436.039 89.3664 438.722 87.5082 441.824 86.1829C444.927 84.8579 448.304 84.1953 451.956 84.1953C455.738 84.1953 459.099 84.8255 462.04 86.0859C465.014 87.314 467.519 89.0592 469.554 91.3215C471.623 93.5838 473.19 96.3146 474.257 99.5141C475.324 102.681 475.857 106.188 475.857 110.034V115.754H440.273C440.531 117.532 441.048 119.164 441.824 120.65C442.632 122.105 443.65 123.365 444.878 124.432C446.106 125.498 447.512 126.322 449.096 126.904C450.68 127.486 452.409 127.777 454.283 127.777C455.608 127.777 456.917 127.647 458.21 127.389C459.535 127.13 460.796 126.759 461.991 126.274C463.187 125.757 464.303 125.126 465.337 124.383C466.371 123.64 467.276 122.767 468.052 121.766L474.79 129.037C473.95 130.233 472.851 131.412 471.494 132.576C470.169 133.707 468.585 134.725 466.743 135.63C464.933 136.503 462.913 137.214 460.682 137.763C458.453 138.313 456.045 138.587 453.459 138.587ZM451.859 95.1026C450.34 95.1026 448.95 95.3774 447.69 95.9268C446.43 96.4438 445.314 97.2034 444.345 98.2052C443.408 99.2074 442.616 100.403 441.97 101.793C441.323 103.182 440.838 104.734 440.515 106.447H462.622V105.38C462.557 103.958 462.282 102.617 461.798 101.356C461.313 100.096 460.618 99.0132 459.713 98.1083C458.808 97.1711 457.693 96.4438 456.368 95.9268C455.075 95.3774 453.572 95.1026 451.859 95.1026Z" fill="#212123"/>
<path d="M520.404 137.618C520.081 136.971 519.806 136.228 519.578 135.388C519.355 134.547 519.16 133.659 518.999 132.721C518.253 133.529 517.399 134.289 516.43 135C515.457 135.711 514.374 136.341 513.182 136.89C512.014 137.408 510.723 137.811 509.303 138.102C507.879 138.426 506.345 138.587 504.698 138.587C502.015 138.587 499.542 138.199 497.277 137.424C495.05 136.648 493.126 135.565 491.51 134.176C489.894 132.786 488.633 131.138 487.728 129.231C486.824 127.292 486.371 125.191 486.371 122.929C486.371 117.402 488.423 113.137 492.528 110.131C496.665 107.093 502.823 105.574 510.998 105.574H518.514V102.471C518.514 99.9504 517.688 97.963 516.041 96.5088C514.393 95.0218 512.014 94.2788 508.914 94.2788C506.165 94.2788 504.161 94.8766 502.903 96.0725C501.64 97.2357 501.014 98.8034 501.014 100.775H487.534C487.534 98.5446 488.019 96.4276 488.989 94.4241C489.991 92.4201 491.429 90.6592 493.303 89.1399C495.212 87.6211 497.519 86.4253 500.235 85.5527C502.984 84.6478 506.118 84.1953 509.641 84.1953C512.807 84.1953 515.751 84.5832 518.467 85.3588C521.211 86.1344 523.585 87.2817 525.589 88.8005C527.597 90.3197 529.164 92.2425 530.294 94.5694C531.424 96.8639 531.989 99.5302 531.989 102.568V125.062C531.989 127.873 532.169 130.201 532.525 132.043C532.881 133.885 533.394 135.468 534.073 136.793V137.618H520.404ZM507.556 128.164C508.914 128.164 510.172 128.003 511.34 127.68C512.504 127.356 513.553 126.936 514.488 126.419C515.428 125.902 516.235 125.321 516.914 124.674C517.593 123.996 518.125 123.317 518.514 122.638V113.621H511.63C509.527 113.621 507.737 113.831 506.246 114.251C504.76 114.639 503.549 115.205 502.614 115.948C501.674 116.659 500.98 117.532 500.529 118.566C500.074 119.568 499.85 120.666 499.85 121.862C499.85 123.672 500.477 125.175 501.74 126.371C503.031 127.567 504.973 128.164 507.556 128.164Z" fill="#212123"/>
<path d="M569.582 122.057L570.261 125.839L570.94 122.203L582.477 85.166H596.536L576.609 137.619H563.955L543.934 85.166H557.992L569.582 122.057Z" fill="#212123"/>
<path d="M632.351 138.587C628.311 138.587 624.641 137.925 621.345 136.6C618.046 135.275 615.221 133.481 612.861 131.219C610.501 128.924 608.673 126.242 607.382 123.171C606.124 120.069 605.492 116.756 605.492 113.233V111.294C605.492 107.287 606.124 103.635 607.382 100.338C608.645 97.0097 610.406 94.1492 612.666 91.7578C614.931 89.3664 617.614 87.5082 620.714 86.1829C623.819 84.8579 627.195 84.1953 630.846 84.1953C634.63 84.1953 637.987 84.8255 640.931 86.0859C643.903 87.314 646.41 89.0592 648.446 91.3215C650.512 93.5838 652.079 96.3146 653.147 99.5141C654.215 102.681 654.747 106.188 654.747 110.034V115.754H619.161C619.423 117.532 619.94 119.164 620.714 120.65C621.521 122.105 622.542 123.365 623.767 124.432C624.997 125.498 626.402 126.322 627.988 126.904C629.569 127.486 631.297 127.777 633.172 127.777C634.497 127.777 635.808 127.647 637.099 127.389C638.424 127.13 639.687 126.759 640.883 126.274C642.08 125.757 643.191 125.126 644.226 124.383C645.261 123.64 646.167 122.767 646.941 121.766L653.679 129.037C652.838 130.233 651.742 131.412 650.384 132.576C649.059 133.707 647.473 134.725 645.631 135.63C643.822 136.503 641.804 137.214 639.573 137.763C637.341 138.313 634.934 138.587 632.351 138.587ZM630.751 95.1026C629.232 95.1026 627.841 95.3774 626.582 95.9268C625.319 96.4438 624.204 97.2034 623.235 98.2052C622.3 99.2074 621.507 100.403 620.861 101.793C620.215 103.182 619.726 104.734 619.404 106.447H641.51V105.38C641.448 103.958 641.173 102.617 640.688 101.356C640.204 100.096 639.506 99.0132 638.604 98.1083C637.697 97.1711 636.581 96.4438 635.257 95.9268C633.965 95.3774 632.46 95.1026 630.751 95.1026Z" fill="#212123"/>
<path d="M167.205 162.466C195.015 162.466 217.559 139.916 217.559 112.099C217.559 84.2824 195.015 61.7324 167.205 61.7324C139.396 61.7324 116.852 84.2824 116.852 112.099C116.852 139.916 139.396 162.466 167.205 162.466Z" stroke="#212123" stroke-width="12.8239"/>
<path d="M176.792 130.259C176.45 129.917 176.45 129.232 176.107 128.546C176.107 127.861 175.764 127.176 175.764 126.49C175.079 127.176 174.394 127.518 173.709 128.204C173.024 128.889 171.997 129.232 171.311 129.574C170.284 129.917 169.599 130.259 168.229 130.602C167.201 130.945 165.831 130.945 164.803 130.945C162.748 130.945 161.035 130.602 159.323 129.917C157.61 129.232 156.24 128.546 154.87 127.518C153.499 126.49 152.814 125.12 152.129 123.749C151.444 122.379 151.102 120.666 151.102 118.953C151.102 114.841 152.814 111.415 155.897 109.359C158.98 106.961 163.776 105.933 169.941 105.933H175.764V103.534C175.764 101.478 175.079 100.108 174.052 99.08C172.682 98.0521 170.969 97.3668 168.571 97.3668C166.516 97.3668 165.146 97.7095 164.118 98.7374C163.09 99.7653 162.748 100.793 162.748 102.164H152.472C152.472 100.451 152.814 98.7374 153.499 97.3668C154.184 95.9963 155.212 94.6258 156.925 93.2553C158.295 92.2274 160.008 91.1995 162.063 90.5142C164.118 89.829 166.516 89.4863 169.256 89.4863C171.654 89.4863 173.709 89.829 175.764 90.5142C177.82 91.1995 179.532 91.8847 181.245 93.2553C182.615 94.2832 183.985 95.9963 184.671 97.7095C185.356 99.4226 186.041 101.478 186.041 103.877V121.008C186.041 123.064 186.041 124.777 186.383 126.148C186.726 127.518 187.068 128.889 187.411 129.574V130.259H176.792ZM166.858 123.064C167.886 123.064 168.914 123.064 169.599 122.722C170.626 122.379 171.311 122.036 171.997 121.694C172.682 121.351 173.367 121.008 173.709 120.323L175.079 118.953V112.1H169.941C168.229 112.1 166.858 112.1 165.831 112.443C164.803 112.785 163.776 113.128 163.09 113.813C162.405 114.498 161.72 114.841 161.378 115.869C161.035 116.554 161.035 117.582 161.035 118.267C161.035 119.638 161.378 120.666 162.405 121.694C163.433 122.722 165.146 123.064 166.858 123.064Z" fill="#212123"/>
</g>
<defs>
<filter id="filter0_d_1165_4" x="45.9152" y="39" width="655.517" height="158.095" filterUnits="userSpaceOnUse" color-interpolation-filters="sRGB">
<feFlood flood-opacity="0" result="BackgroundImageFix"/>
<feColorMatrix in="SourceAlpha" type="matrix" values="0 0 0 0 0 0 0 0 0 0 0 0 0 0 0 0 0 0 127 0" result="hardAlpha"/>
<feOffset dy="3.08479"/>
<feGaussianBlur stdDeviation="1.5424"/>
<feComposite in2="hardAlpha" operator="out"/>
<feColorMatrix type="matrix" values="0 0 0 0 0 0 0 0 0 0 0 0 0 0 0 0 0 0 0.25 0"/>
<feBlend mode="normal" in2="BackgroundImageFix" result="effect1_dropShadow_1165_4"/>
<feBlend mode="normal" in="SourceGraphic" in2="effect1_dropShadow_1165_4" result="shape"/>
</filter>
</defs>
</svg>
