<svg width="660" height="237" viewBox="0 0 660 237" fill="none" xmlns="http://www.w3.org/2000/svg">
<g filter="url(#filter0_d_1158_173)">
<g clip-path="url(#clip0_1158_173)">
<path d="M156.113 56.0162C163.768 56.0162 170.23 58.7553 175.497 64.093C180.765 69.5009 183.433 76.3836 183.433 84.6711C183.433 92.9585 180.765 99.8412 175.497 105.249C170.23 110.657 163.768 113.326 156.113 113.326C149.16 113.326 143.612 110.798 139.327 105.741V111.711H125V36H139.327V63.6013C143.541 58.5446 149.16 56.0162 156.113 56.0162ZM143.26 95.9785C146.351 98.7175 149.933 100.122 154.076 100.122C158.22 100.122 161.732 98.7878 164.681 96.0487C167.631 93.3096 169.106 89.5873 169.106 84.6711C169.106 79.825 167.631 76.0325 164.611 73.2934C161.661 70.5543 158.079 69.2199 153.936 69.2199C149.792 69.2199 146.21 70.5543 143.19 73.2934C140.17 75.9622 138.695 79.7548 138.695 84.5306C138.625 89.4469 140.17 93.2394 143.26 95.9785Z" fill="black"/>
<path d="M209.14 57.6328H194.672V111.712H209.14V57.6328Z" fill="black"/>
<path d="M258.089 96.0471L267.008 105.528C262.022 110.726 256.263 113.395 249.591 113.395C242.287 113.395 236.598 111.358 232.524 107.284C228.451 103.211 226.414 97.7327 226.414 90.7797V72.1681L230.136 64.1616L226.414 57.7002V43.1621H240.882V90.7797C240.882 96.7494 243.972 99.6992 250.082 99.6992C253.032 99.6992 255.701 98.5052 258.089 96.0471Z" fill="black"/>
<path d="M294.47 113.468C285.129 113.468 277.544 110.026 271.926 103.214L281.548 95.6285C286.534 99.7722 291.169 101.879 295.594 101.879C298.193 101.879 300.229 101.388 301.634 100.334C303.039 99.2806 303.741 98.0164 303.741 96.4713C303.741 95.2773 303.179 94.2941 302.055 93.4513C300.932 92.6085 299.808 91.9764 298.684 91.6955C297.561 91.3443 295.735 90.7825 293.276 90.0801C290.537 89.2373 288.29 88.6052 286.675 88.1136C284.989 87.622 283.093 86.7792 280.916 85.515C278.738 84.3211 277.123 82.7057 276.14 80.7392C275.086 78.7727 274.595 76.3146 274.595 73.4351C274.595 68.0272 276.491 63.743 280.354 60.5825C284.216 57.4221 288.992 55.877 294.892 55.877C304.022 55.877 311.045 59.1779 316.102 65.85L306.621 73.5755C303.32 69.6425 299.457 67.6058 295.102 67.6058C292.855 67.6058 291.099 68.0974 289.835 69.1509C288.571 70.2044 287.939 71.4685 287.939 72.8732C287.939 74.0671 288.501 75.0504 289.554 75.9634C290.608 76.8062 291.731 77.4383 292.855 77.7192C293.979 78.0002 295.805 78.4918 298.263 79.1941C300.44 79.8262 302.126 80.2476 303.32 80.5988C304.514 80.9499 306.059 81.5118 308.095 82.3546C310.062 83.1974 311.607 84.1806 312.59 85.1639C313.574 86.2173 314.487 87.5518 315.329 89.3076C316.172 91.0634 316.523 93.0299 316.523 95.2773C316.523 100.685 314.557 105.11 310.554 108.481C306.48 111.782 301.142 113.468 294.47 113.468Z" fill="black"/>
<path d="M367.58 75.4719C363.647 71.3984 359.082 69.3617 354.096 69.3617C349.952 69.3617 346.44 70.7663 343.561 73.6458C340.681 76.4551 339.206 80.3179 339.206 85.0937C339.206 89.5184 340.681 93.1002 343.701 95.769C346.651 98.5081 350.303 99.8425 354.517 99.8425C359.714 99.8425 364.35 97.876 368.283 94.0132L377.343 102.511C371.092 109.745 363.366 113.327 354.096 113.327C345.598 113.327 338.645 110.658 333.166 105.25C327.688 99.9127 324.949 93.03 324.949 84.7425C324.949 76.4551 327.688 69.5724 333.237 64.0942C338.785 58.6161 345.808 55.9473 354.236 55.9473C363.366 55.9473 370.881 59.4589 376.781 66.4821L367.58 75.4719Z" fill="black"/>
<path d="M425.875 57.631H440.203V111.71H425.875V105.74C421.662 110.797 416.043 113.325 409.09 113.325C401.435 113.325 394.973 110.656 389.706 105.249C384.438 99.8406 381.77 93.0281 381.77 84.6704C381.77 76.383 384.438 69.5002 389.706 64.0924C394.973 58.6845 401.435 56.0156 409.09 56.0156C416.043 56.0156 421.591 58.544 425.875 63.6007V57.631ZM400.522 96.0481C403.471 98.7872 406.983 100.122 411.127 100.122C415.27 100.122 418.852 98.7169 421.942 95.9779C425.033 93.2388 426.508 89.4462 426.508 84.6704C426.508 79.8244 424.962 76.0319 422.013 73.2928C418.993 70.624 415.411 69.2193 411.267 69.2193C407.123 69.2193 403.542 70.5537 400.592 73.2928C397.642 76.0319 396.097 79.7542 396.097 84.6704C396.097 89.5867 397.572 93.309 400.522 96.0481Z" fill="black"/>
<path d="M469.632 36H455.164V111.711H469.632V36Z" fill="black"/>
<path d="M536 82.6356C536 84.9532 535.789 87.2007 535.438 89.3779L494.984 89.5183C495.967 93.2407 497.863 96.1904 500.602 98.5081C503.342 100.826 506.783 101.949 510.927 101.949C515.702 101.949 520.759 99.983 526.097 96.1202L533.822 104.478C527.782 110.307 519.987 113.257 510.435 113.257C501.656 113.257 494.563 110.588 489.084 105.18C483.606 99.7723 480.867 92.8193 480.867 84.3914C480.867 76.0337 483.536 69.151 488.944 63.8835C494.282 58.6161 501.164 55.9473 509.592 55.9473C517.599 55.9473 524.06 58.3352 528.836 63.1812C533.541 68.0975 536 74.5589 536 82.6356ZM509.522 67.3951C506.081 67.3951 503.061 68.3784 500.462 70.2747C497.863 72.2412 496.108 74.8398 495.195 78.2109H522.655C521.953 74.7695 520.408 72.1007 518.09 70.2044C515.632 68.3082 512.823 67.3951 509.522 67.3951Z" fill="black"/>
<path d="M259.006 57.6309H226.488V72.0987H259.006V57.6309Z" fill="url(#paint0_linear_1158_173)"/>
<path d="M324.887 162.558C324.887 152.585 332.402 145.281 342.023 145.281C349.538 145.281 355.859 149.846 357.966 157.01H354.595C352.839 151.813 347.993 148.301 342.094 148.301C334.228 148.301 328.188 154.341 328.188 162.558C328.188 170.776 334.228 176.816 342.023 176.816C347.993 176.816 352.839 173.234 354.595 168.107H357.966C355.929 175.341 349.468 179.836 342.023 179.836C332.402 179.836 324.887 172.531 324.887 162.558Z" fill="#00C1DE"/>
<path d="M397.017 145.913V179.203H393.786V171.267C391.188 176.394 386.131 179.836 379.88 179.836C370.54 179.836 364.078 172.531 364.078 162.558C364.078 152.585 370.61 145.281 379.81 145.281C386.131 145.281 391.188 148.723 393.786 153.92V145.913H397.017ZM393.857 162.558C393.857 154.341 387.957 148.301 380.302 148.301C372.646 148.301 367.309 154.271 367.309 162.558C367.309 170.776 372.646 176.745 380.302 176.745C388.027 176.745 393.857 170.846 393.857 162.558Z" fill="#00C1DE"/>
<path d="M440.205 162.559C440.205 172.532 433.743 179.836 424.473 179.836C418.152 179.836 413.095 176.395 410.496 171.197V194.304H407.266V145.914H410.496V153.92C413.095 148.723 418.152 145.282 424.473 145.282C433.673 145.212 440.205 152.586 440.205 162.559ZM436.974 162.559C436.974 154.342 431.707 148.302 423.981 148.302C416.326 148.302 410.426 154.271 410.426 162.559C410.426 170.846 416.326 176.746 423.981 176.746C431.636 176.746 436.974 170.776 436.974 162.559Z" fill="#00C1DE"/>
<path d="M451.797 145.912H448.566V179.202H451.797V145.912Z" fill="#00C1DE"/>
<path d="M485.227 177.938C483.542 178.781 480.17 179.905 476.729 179.905C469.355 179.905 465.071 174.989 465.071 166.561V148.932H458.398V145.912H465.071V137.555H468.301V145.912H484.595V148.932H468.301V166.42C468.301 172.952 471.181 176.815 477.291 176.815C479.819 176.815 482.348 176.182 484.665 175.199L485.227 177.938Z" fill="#00C1DE"/>
<path d="M522.521 145.913V179.203H519.29V171.267C516.692 176.394 511.635 179.836 505.384 179.836C496.043 179.836 489.582 172.531 489.582 162.558C489.582 152.585 496.114 145.281 505.314 145.281C511.635 145.281 516.692 148.723 519.29 153.92V145.913H522.521ZM519.431 162.558C519.431 154.341 513.531 148.301 505.876 148.301C498.221 148.301 492.883 154.271 492.883 162.558C492.883 170.776 498.221 176.745 505.876 176.745C513.531 176.745 519.431 170.846 519.431 162.558Z" fill="#00C1DE"/>
<path d="M536 132.568H532.699V179.132H536V132.568Z" fill="#00C1DE"/>
<path d="M258.937 57.6309H244.469V72.0987H258.937V57.6309Z" fill="#00C1DE"/>
</g>
</g>
<defs>
<filter id="filter0_d_1158_173" x="-24" y="-18" width="720" height="290" filterUnits="userSpaceOnUse" color-interpolation-filters="sRGB">
<feFlood flood-opacity="0" result="BackgroundImageFix"/>
<feColorMatrix in="SourceAlpha" type="matrix" values="0 0 0 0 0 0 0 0 0 0 0 0 0 0 0 0 0 0 127 0" result="hardAlpha"/>
<feOffset dx="6" dy="12"/>
<feGaussianBlur stdDeviation="15"/>
<feComposite in2="hardAlpha" operator="out"/>
<feColorMatrix type="matrix" values="0 0 0 0 0 0 0 0 0 0 0 0 0 0 0 0 0 0 0.05 0"/>
<feBlend mode="normal" in2="BackgroundImageFix" result="effect1_dropShadow_1158_173"/>
<feBlend mode="normal" in="SourceGraphic" in2="effect1_dropShadow_1158_173" result="shape"/>
</filter>
<linearGradient id="paint0_linear_1158_173" x1="226.618" y1="64.8988" x2="255.043" y2="64.8988" gradientUnits="userSpaceOnUse">
<stop stop-color="#FFFFFE"/>
<stop offset="1" stop-color="#00C1DE"/>
</linearGradient>
<clipPath id="clip0_1158_173">
<rect width="411" height="158.304" fill="white" transform="translate(125 36)"/>
</clipPath>
</defs>
</svg>
