<svg width="671" height="230" viewBox="0 0 671 230" fill="none" xmlns="http://www.w3.org/2000/svg">
<g clip-path="url(#clip0_1158_232)">
<path fill-rule="evenodd" clip-rule="evenodd" d="M593.481 128.588C595.904 128.461 598.286 129.244 600.156 130.782L600.179 130.855L602.462 128.246C599.942 126.082 596.687 124.949 593.359 125.077C591.812 125.03 590.27 125.245 588.795 125.711C587.415 126.142 586.177 126.934 585.212 128.002C584.203 129.108 583.668 130.559 583.715 132.05C583.673 133.135 583.946 134.21 584.5 135.146C585.056 136.016 585.857 136.704 586.806 137.121C587.747 137.59 588.736 137.965 589.752 138.243C590.888 138.527 592.046 138.731 593.21 138.852C594.903 138.983 596.562 139.395 598.12 140.071C598.645 140.255 599.089 140.612 599.383 141.081C599.68 141.551 599.804 142.106 599.739 142.656C599.755 143.257 599.589 143.849 599.261 144.353C598.931 144.858 598.458 145.252 597.899 145.484C596.585 146.09 595.15 146.391 593.702 146.362C592.098 146.45 590.496 146.165 589.022 145.53C587.547 144.896 586.242 143.928 585.212 142.704L582.929 145.435C584.232 146.959 585.875 148.158 587.729 148.933C589.586 149.708 591.596 150.038 593.603 149.897C596.107 149.991 598.585 149.346 600.72 148.044C601.622 147.498 602.363 146.727 602.873 145.807C603.38 144.887 603.637 143.851 603.616 142.802C603.671 141.78 603.453 140.761 602.977 139.852C602.602 139.082 602.067 138.401 601.406 137.853C600.673 137.297 599.841 136.883 598.954 136.633C598.086 136.343 597.199 136.107 596.302 135.926C595.592 135.804 594.659 135.682 593.53 135.561C589.604 135.097 587.591 133.927 587.591 132.05C587.573 131.508 587.716 130.973 588.005 130.512C588.294 130.052 588.715 129.688 589.211 129.465C590.532 128.808 592.004 128.506 593.481 128.588ZM577.31 145.411L577.308 145.413L574.684 143.021C573.808 144.029 572.672 144.779 571.395 145.191C570.025 145.713 568.571 145.985 567.102 145.996C564.97 146.05 562.887 145.359 561.213 144.046C560.422 143.418 559.77 142.635 559.296 141.746C558.823 140.856 558.54 139.88 558.464 138.877H578.759C579.094 137.059 579.021 135.19 578.545 133.403C578.072 131.616 577.206 129.955 576.01 128.539C574.819 127.328 573.382 126.382 571.795 125.764C570.209 125.146 568.509 124.87 566.808 124.955C565.168 124.904 563.535 125.184 562.008 125.779C560.482 126.374 559.091 127.272 557.924 128.417C556.772 129.577 555.869 130.957 555.269 132.474C554.671 133.992 554.387 135.614 554.439 137.243C554.364 138.9 554.634 140.555 555.235 142.104C555.836 143.652 556.751 145.06 557.924 146.24C559.133 147.381 560.558 148.269 562.118 148.852C563.678 149.434 565.339 149.698 567.003 149.629C568.977 149.637 570.935 149.273 572.771 148.556C574.526 147.907 576.088 146.826 577.308 145.413L577.36 145.459L577.31 145.411ZM574.856 135.658C574.871 134.672 574.674 133.693 574.276 132.789C573.878 131.884 573.288 131.075 572.549 130.416C570.919 129.119 568.868 128.46 566.782 128.563C564.754 128.523 562.775 129.187 561.189 130.441C559.593 131.724 558.568 133.582 558.342 135.61H574.856V135.658ZM539.176 125.442L539.182 125.491H535.546V149.214H539.496V136C539.462 135.053 539.626 134.109 539.977 133.228C540.326 132.347 540.856 131.548 541.532 130.879C542.845 129.608 544.608 128.898 546.441 128.905C547.931 128.906 549.385 129.357 550.612 130.197L552.403 126.832C550.817 125.602 548.844 124.971 546.834 125.052C545.352 124.924 543.864 125.229 542.557 125.931C541.249 126.634 540.175 127.701 539.47 129.002L539.182 125.491H539.202L539.176 125.442ZM448.701 145.412L448.703 145.41L448.753 145.459L448.701 145.412ZM448.701 145.412C447.487 146.83 445.924 147.912 444.164 148.555C442.336 149.272 440.385 149.636 438.422 149.628C436.756 149.706 435.092 149.446 433.531 148.863C431.969 148.28 430.544 147.388 429.343 146.239C428.165 145.062 427.247 143.655 426.646 142.106C426.046 140.557 425.778 138.9 425.858 137.242C425.801 135.613 426.079 133.989 426.68 132.471C427.278 130.953 428.185 129.573 429.343 128.416C430.507 127.269 431.896 126.37 433.425 125.775C434.951 125.179 436.584 124.9 438.225 124.954C439.928 124.87 441.628 125.146 443.214 125.764C444.801 126.382 446.236 127.327 447.427 128.538C448.623 129.954 449.489 131.615 449.959 133.403C450.43 135.191 450.495 137.06 450.152 138.876H429.857C429.935 139.881 430.224 140.859 430.7 141.748C431.178 142.638 431.833 143.42 432.629 144.045C434.298 145.366 436.386 146.057 438.519 145.995C439.98 145.988 441.428 145.716 442.788 145.191C444.072 144.783 445.219 144.032 446.103 143.021L448.701 145.412ZM445.802 132.786C446.205 133.69 446.407 134.669 446.397 135.658V135.609H429.857C430.094 133.578 431.124 131.721 432.728 130.44C434.317 129.186 436.295 128.522 438.324 128.563C440.401 128.458 442.445 129.118 444.065 130.416C444.808 131.074 445.401 131.882 445.802 132.786ZM409.22 144.313L397.662 115.592H392.977L406.986 149.311H411.526L425.489 115.592H420.85L409.22 144.313ZM459.991 125.442H456.358V149.214H460.285V136.487C460.23 134.462 460.968 132.494 462.346 131.001C463.015 130.276 463.831 129.702 464.741 129.315C465.651 128.928 466.634 128.738 467.622 128.758C468.6 128.706 469.575 128.855 470.493 129.194C471.408 129.534 472.243 130.058 472.947 130.733C473.616 131.463 474.128 132.317 474.461 133.246C474.794 134.175 474.939 135.161 474.887 136.146V149.214H478.837V136.097C478.912 134.63 478.694 133.163 478.192 131.782C477.69 130.4 476.918 129.132 475.917 128.051C474.929 127.07 473.746 126.302 472.446 125.795C471.145 125.287 469.754 125.051 468.358 125.101C466.756 125.063 465.173 125.422 463.745 126.146C462.318 126.87 461.096 127.935 460.188 129.246L459.991 125.442ZM492.407 125.54H499.768V128.905H492.407V141.437C492.407 144.46 493.684 145.996 496.185 145.996C497.353 145.97 498.497 145.67 499.524 145.118L500.676 148.385C499.225 149.08 497.646 149.47 496.039 149.531C491.016 149.629 488.504 146.931 488.504 141.437V128.905H483.72V125.54H488.504V119.006L492.456 118.567L492.407 125.54ZM523.817 145.41L524.012 149.214H527.645V125.491H523.669V138.218C523.726 140.231 522.995 142.188 521.633 143.679C520.96 144.406 520.138 144.984 519.225 145.375C518.313 145.766 517.327 145.96 516.331 145.947C515.356 145.999 514.378 145.85 513.463 145.51C512.545 145.171 511.711 144.647 511.006 143.972C510.346 143.239 509.836 142.384 509.508 141.455C509.178 140.526 509.038 139.542 509.092 138.559V125.491H505.117V138.583C505.036 140.047 505.247 141.512 505.738 142.893C506.232 144.274 506.997 145.545 507.99 146.629C508.962 147.616 510.135 148.388 511.427 148.896C512.722 149.404 514.108 149.637 515.497 149.579C517.122 149.609 518.726 149.244 520.177 148.518C521.625 147.791 522.876 146.725 523.817 145.41Z" fill="#9494A3"/>
<path fill-rule="evenodd" clip-rule="evenodd" d="M354.715 115.788L325.982 79.7775L310.231 79.7775V148.462L329.99 148.402L330.011 112.452L358.826 148.462H374.495V79.7168L354.715 79.7168V115.788ZM290.471 79.7168V148.462H270.691V79.7168L290.471 79.7168ZM255.368 79.7168L232.353 79.7168L218.738 98.1164L205.247 79.7168L182.231 79.7168L207.241 113.746L181.722 148.483H204.738L218.738 129.396L232.861 148.483H255.877L230.256 113.746L255.368 79.7168ZM166.908 148.462V79.7168L147.128 79.7168V148.462H166.908ZM121.711 111.987L121.121 112.371L121.752 112.675C122.83 113.2 132.252 118.154 132.252 129.012C132.252 140.395 123.583 148.483 111.21 148.483H68.0078L68.0078 79.7375L109.44 79.7375C121.06 79.7375 129.485 87.5422 129.485 98.3191C129.362 101.044 128.593 103.702 127.243 106.077C125.892 108.452 123.997 110.476 121.711 111.987ZM104.291 94.174H88.0116V106.184H104.291C109.318 106.184 111.088 103.111 111.088 100.24C111.088 96.6003 108.362 94.174 104.291 94.174ZM88.0116 134.269H104.393V134.289C108.89 134.289 112.045 131.559 112.045 127.394C112.045 123.229 109.033 120.54 104.393 120.54H88.0116V134.269Z" fill="#1C68F3"/>
</g>
<defs>
<clipPath id="clip0_1158_232">
<rect width="535.635" height="70.2151" fill="white" transform="translate(68.0039 79.7168)"/>
</clipPath>
</defs>
</svg>
