<svg width="589" height="230" viewBox="0 0 589 230" fill="none" xmlns="http://www.w3.org/2000/svg">
<path d="M189.156 74.796V57.546H193.065C198.263 57.546 201.391 61.732 201.391 66.194C201.391 70.656 198.263 74.842 193.065 74.842C193.019 74.796 189.156 74.796 189.156 74.796ZM211.925 66.148C211.925 57.132 205.255 48.806 193.755 48.806H178.806V83.536H193.755C205.393 83.536 211.925 75.21 211.925 66.148ZM216.341 48.806H226.783V83.536H216.341V48.806ZM249.875 84.456C259.719 84.456 265.929 79.028 267.171 71.07H270.115V64.262H250.933V71.07H256.683C256.177 73.738 254.107 75.992 250.059 75.992C244.401 75.992 241.641 71.622 241.641 66.47C241.641 61.41 244.263 56.718 249.599 56.718C253.187 56.718 255.119 58.88 255.441 60.904H266.849C266.205 53.774 259.443 47.886 249.737 47.886C237.915 47.886 231.153 56.488 231.153 66.378C231.153 76.13 237.731 84.456 249.875 84.456ZM273.749 48.806H284.191V83.536H273.749V48.806ZM296.979 83.536H307.283V57.638H315.148V48.806H289.113V57.638H296.979V83.536ZM332.352 59.202L336.032 71.99H328.672L332.352 59.202ZM325.314 83.536L326.51 79.534H338.194L339.39 83.536H350.89L337.78 48.806H326.97L314.182 83.536H325.314ZM354.708 48.806V83.536H374.12V74.704H365.058V48.806H354.708ZM195.917 133.308C206.681 133.308 213.029 126.454 214.133 118.68H203.231C202.541 121.67 199.919 123.924 195.963 123.924C190.811 123.924 187.5 120.06 187.5 115C187.5 110.308 190.397 106.076 195.871 106.076C200.195 106.076 202.679 108.652 203.277 111.918H214.087C213.213 103.592 206.681 96.692 195.871 96.692C183.774 96.692 176.92 105.386 176.92 115C176.874 124.66 183.866 133.308 195.917 133.308ZM233.131 133.308C242.147 133.308 247.621 127.834 247.621 120.29V97.612H237.317V120.198C237.317 122.59 235.569 124.568 233.131 124.568C230.693 124.568 228.899 122.59 228.899 120.198V97.612H218.595V120.29C218.595 127.834 224.115 133.308 233.131 133.308ZM268.275 115.46H263.997V105.662H268.321C271.081 105.662 272.875 107.916 272.875 110.584C272.921 113.252 271.081 115.46 268.275 115.46ZM283.409 110.584C283.409 103.592 278.303 97.612 270.345 97.612H253.693V132.342H263.997V123.464H265.929L271.863 132.342H284.007L277.061 121.762C281.017 119.554 283.409 115.276 283.409 110.584ZM298.635 105.662H302.959C305.719 105.662 307.513 107.916 307.513 110.584C307.513 113.252 305.673 115.506 302.913 115.506H298.635V105.662ZM298.635 123.464H300.567L306.455 132.342H318.598L311.652 121.762C315.608 119.554 318 115.276 318 110.538C318 103.546 312.894 97.566 304.937 97.566H288.285V132.342H298.589V123.464H298.635ZM345.324 105.34V97.612H322.968V132.342H345.324V124.614H333.272V118.818H345.324V111.412H333.272V105.34H345.324ZM373.062 118.22L361.746 97.612H351.212V132.342H361.562V112.424L372.924 132.342H383.458V97.612H373.062V118.22ZM406.872 123.924C401.72 123.924 398.408 120.06 398.408 115C398.408 110.308 401.306 106.076 406.78 106.076C411.104 106.076 413.588 108.652 414.186 111.918H424.996C424.122 103.592 417.59 96.692 406.78 96.692C394.682 96.692 387.828 105.386 387.828 115C387.828 124.66 394.82 133.308 406.872 133.308C417.636 133.308 423.984 126.454 425.088 118.68H414.186C413.496 121.624 410.828 123.924 406.872 123.924ZM447.443 97.612L442.199 109.986L436.587 97.612H424.49L436.127 120.106L430.102 132.342H441.693L458.897 97.612H447.443ZM196.653 168.728H202.403C201.897 171.396 199.827 173.65 195.825 173.65C190.168 173.65 187.408 169.28 187.408 164.128C187.408 159.068 190.03 154.376 195.365 154.376C198.953 154.376 200.885 156.584 201.207 158.562H212.615C211.971 151.432 205.209 145.544 195.503 145.544C183.682 145.544 176.874 154.146 176.874 164.036C176.874 173.788 183.406 182.16 195.595 182.16C205.393 182.16 211.649 176.732 212.891 168.774H215.835V161.966H196.653V168.728ZM234.051 164.312H229.773V154.468H234.097C236.857 154.468 238.651 156.722 238.651 159.39C238.651 162.058 236.811 164.312 234.051 164.312ZM249.139 159.39C249.139 152.398 244.033 146.464 236.075 146.464H219.423V181.194H229.727V172.316H231.659L237.547 181.194H249.691L242.745 170.614C246.793 168.36 249.139 164.082 249.139 159.39ZM271.127 172.684C265.883 172.684 262.755 168.406 262.755 163.806C262.755 159.206 265.883 154.928 271.127 154.928C276.417 154.928 279.499 159.206 279.499 163.806C279.499 168.406 276.417 172.684 271.127 172.684ZM271.127 145.498C259.213 145.498 252.313 154.238 252.313 163.806C252.313 173.374 259.213 182.114 271.127 182.114C283.087 182.114 289.987 173.374 289.987 163.806C289.987 154.238 283.087 145.498 271.127 145.498ZM323.704 169.096V146.418H313.4V169.004C313.4 171.396 311.652 173.374 309.215 173.374C306.777 173.374 304.983 171.396 304.983 169.004V146.418H294.679V169.096C294.679 176.64 300.199 182.114 309.215 182.114C318.276 182.114 323.704 176.64 323.704 169.096ZM344.404 164.312H340.126V154.468H344.45C347.21 154.468 349.004 156.722 349.004 159.39C349.004 162.058 347.164 164.312 344.404 164.312ZM346.474 146.418H329.822V181.148H340.126V172.27H346.474C354.386 172.27 359.538 166.336 359.538 159.39C359.538 152.398 354.386 146.418 346.474 146.418ZM130 48.806H164.73V83.536H130V48.806ZM305.397 195.27H340.126V230H305.397V195.27ZM330.282 0H365.012V34.73H330.282V0Z" fill="#212123"/>
</svg>
