<svg width="885" height="233" viewBox="0 0 885 233" fill="none" xmlns="http://www.w3.org/2000/svg">
<g filter="url(#filter0_d_1158_41)">
<path d="M211.925 135.903C211.925 134.473 210.673 133.221 209.242 133.221H147.361V41.6742C147.361 40.2438 146.11 38.9922 144.679 38.9922C143.248 38.9922 141.996 40.2438 141.996 41.6742V135.725C141.996 137.155 143.248 138.407 144.679 138.407H209.063C210.673 138.407 211.925 137.334 211.925 135.903Z" fill="url(#paint0_linear_1158_41)"/>
<path d="M175.477 44.3522H218.042C242.544 44.3522 262.575 64.3781 262.575 88.8741C262.575 106.397 252.202 122.489 236.105 129.641C234.854 130.178 234.138 131.787 234.854 133.038C235.211 133.932 236.284 134.648 237.179 134.648C237.536 134.648 237.894 134.648 238.252 134.469C256.315 126.602 267.94 108.721 267.94 89.0529C267.94 61.696 245.584 39.3457 218.221 39.3457H171.184C171.006 39.3457 170.827 39.3457 170.648 39.3457C170.469 39.3457 170.111 39.5245 169.932 39.7033C169.754 39.8821 169.575 40.0609 169.396 40.2397C169.396 40.2397 169.396 40.2397 169.396 40.4185C169.217 40.5973 169.217 40.7761 169.038 41.1337C169.038 41.1337 169.038 41.1337 169.038 41.3125C169.038 41.4913 168.859 41.8489 168.859 42.0277V121.416C168.859 122.847 170.111 124.098 171.542 124.098C172.973 124.098 174.225 122.847 174.225 121.416V51.6831L249.519 185.606H174.225V150.025C174.225 148.594 172.973 147.343 171.542 147.343C170.111 147.343 168.859 148.594 168.859 150.025V188.288C168.859 189.719 170.111 190.971 171.542 190.971H253.99C254.884 190.971 255.779 190.434 256.315 189.719C256.852 189.004 256.852 187.931 256.315 187.037L175.477 44.3522Z" fill="url(#paint1_linear_1158_41)"/>
<path d="M322.598 84.584C320.81 87.8025 318.306 90.3057 314.908 92.0937C311.51 93.8817 307.575 94.7758 303.104 94.7758H287.008V52.2207H303.104C307.754 52.2207 311.689 53.1147 314.908 54.9027C318.306 56.6908 320.81 59.194 322.598 62.4125C324.387 65.6309 325.281 69.3858 325.281 73.4982C325.281 77.6107 324.387 81.3656 322.598 84.584ZM311.51 82.4384C313.656 80.2927 314.908 77.2531 314.908 73.4982C314.908 69.7434 313.835 66.7037 311.51 64.5581C309.364 62.4125 306.144 61.3396 302.21 61.3396H297.381V85.6568H302.21C306.144 85.6568 309.185 84.584 311.51 82.4384Z" fill="#212123"/>
<path d="M346.025 52.2207V94.9546H335.652V52.3995H346.025V52.2207Z" fill="#212123"/>
<path d="M390.776 55.799C394.175 58.481 396.321 61.8783 397.215 66.3483H386.305C385.59 64.7391 384.517 63.6663 382.907 62.7723C381.476 61.8783 379.688 61.3419 377.542 61.3419C374.323 61.3419 371.64 62.4147 369.673 64.5603C367.705 66.7059 366.632 69.7456 366.632 73.5005C366.632 77.6129 367.705 80.6526 369.673 82.7982C371.819 84.9438 374.68 86.0167 378.436 86.0167C380.94 86.0167 383.086 85.3014 384.875 84.0498C386.663 82.6194 388.094 80.8314 388.809 78.3281H375.753V70.9972H397.394V81.189C396.678 83.6922 395.248 86.0167 393.459 88.1623C391.671 90.3079 389.346 92.096 386.663 93.3476C383.98 94.5992 380.761 95.3144 377.184 95.3144C372.892 95.3144 369.136 94.4204 365.917 92.6324C362.698 90.8443 360.194 88.1623 358.405 84.9438C356.617 81.7254 355.723 77.9705 355.723 73.6793C355.723 69.388 356.617 65.6331 358.405 62.4147C360.194 59.1962 362.698 56.5142 365.738 54.7262C368.957 52.9381 372.713 52.0441 377.005 52.0441C382.907 51.8653 387.378 53.1169 390.776 55.799Z" fill="#212123"/>
<path d="M418.459 52.2207V94.9546H408.086V52.3995H418.459V52.2207Z" fill="#212123"/>
<path d="M460.651 52.2207V60.4456H449.026V94.9546H438.653V60.4456H427.207V52.2207H460.651Z" fill="#212123"/>
<path d="M495.885 87.091H479.967L477.285 94.9583H466.375L481.935 52.582H493.738L509.298 94.9583H498.388L495.885 87.091ZM493.381 79.2237L488.015 63.489L482.65 79.2237H493.381Z" fill="#212123"/>
<path d="M528.486 86.9084H542.258V94.7758H518.113V52.2207H528.486V86.9084Z" fill="#212123"/>
<path d="M308.822 146.633L299.522 130.541H297.197V146.633H286.824V104.078H304.351C307.749 104.078 310.611 104.615 312.936 105.866C315.261 107.118 317.049 108.548 318.122 110.694C319.374 112.661 319.911 114.985 319.911 117.667C319.911 120.707 319.016 123.389 317.407 125.534C315.618 127.68 313.293 129.111 309.895 130.005L320.09 146.812H308.822V146.633ZM297.197 123.568H303.636C305.603 123.568 307.213 123.031 308.107 122.137C309.001 121.243 309.538 119.813 309.538 118.204C309.538 116.594 309.001 115.164 308.107 114.27C307.034 113.376 305.603 112.839 303.636 112.839H297.197V123.568Z" fill="#212123"/>
<path d="M340.104 112.302V121.242H354.591V129.109H340.104V138.586H356.379V146.811H329.91V104.256H356.379V112.481H340.104V112.302Z" fill="#212123"/>
<path d="M404.483 146.633H394.11L376.94 120.528V146.633H366.746V104.078H377.119L394.288 130.541V104.078H404.661V146.633H404.483Z" fill="#212123"/>
<path d="M442.572 138.943H426.655L423.972 146.81H413.062L428.622 104.434H440.426L455.986 146.81H445.076L442.572 138.943ZM439.889 131.075L434.524 115.341L429.159 131.075H439.889Z" fill="#212123"/>
<path d="M475.178 104.078V146.633H464.805V104.078H475.178Z" fill="#212123"/>
<path d="M515.706 140.913C514.633 142.88 512.845 144.31 510.699 145.383C508.552 146.456 505.691 146.992 502.651 146.992C497.822 146.992 493.887 145.741 490.847 143.416C487.806 141.092 486.018 137.873 485.839 133.582H496.749C496.927 135.191 497.464 136.443 498.537 137.337C499.61 138.231 500.862 138.767 502.293 138.767C503.545 138.767 504.618 138.41 505.512 137.694C506.406 136.979 506.585 136.085 506.585 134.834C506.585 133.761 506.227 132.867 505.512 132.152C504.797 131.436 503.902 130.9 502.829 130.364C501.756 129.827 500.326 129.291 498.537 128.754C495.854 127.86 493.708 126.966 491.92 126.072C490.131 125.178 488.701 123.927 487.449 122.139C486.197 120.351 485.66 118.205 485.66 115.523C485.66 113.02 486.376 110.874 487.627 108.907C488.879 107.119 490.668 105.689 492.993 104.616C495.318 103.722 497.822 103.186 500.862 103.186C505.691 103.186 509.447 104.258 512.129 106.583C514.991 108.907 516.422 111.947 516.779 115.881H505.691C505.512 114.45 504.976 113.377 504.081 112.483C503.187 111.589 502.114 111.232 500.683 111.232C499.431 111.232 498.537 111.589 497.822 112.126C497.106 112.841 496.749 113.735 496.749 114.987C496.749 116.059 497.106 116.775 497.822 117.49C498.537 118.205 499.252 118.741 500.326 119.278C501.399 119.635 502.829 120.351 504.618 120.887C507.301 121.781 509.625 122.675 511.235 123.569C512.845 124.463 514.454 125.715 515.706 127.503C516.958 129.291 517.495 131.436 517.495 134.297C517.316 136.979 516.779 138.946 515.706 140.913Z" fill="#212123"/>
<path d="M556.538 140.913C555.465 142.88 553.677 144.31 551.531 145.383C549.384 146.456 546.523 146.992 543.483 146.992C538.654 146.992 534.719 145.741 531.679 143.416C528.638 141.092 526.85 137.873 526.671 133.582H537.581C537.76 135.191 538.296 136.443 539.369 137.337C540.442 138.231 541.694 138.767 543.125 138.767C544.377 138.767 545.45 138.41 546.344 137.694C547.238 136.979 547.417 136.085 547.417 134.834C547.417 133.761 547.059 132.867 546.344 132.152C545.629 131.436 544.734 130.9 543.661 130.364C542.588 129.827 541.158 129.291 539.369 128.754C536.686 127.86 534.54 126.966 532.752 126.072C530.963 125.178 529.533 123.927 528.281 122.139C527.029 120.351 526.492 118.205 526.492 115.523C526.492 113.02 527.208 110.874 528.46 108.907C529.711 107.119 531.5 105.689 533.825 104.616C536.15 103.722 538.654 103.186 541.694 103.186C546.523 103.186 550.279 104.258 552.961 106.583C555.823 108.907 557.254 111.947 557.611 115.881H546.523C546.344 114.45 545.808 113.377 544.913 112.483C544.019 111.589 542.946 111.232 541.515 111.232C540.263 111.232 539.369 111.589 538.654 112.126C537.938 112.841 537.581 113.735 537.581 114.987C537.581 116.059 537.938 116.775 538.654 117.49C539.369 118.205 540.085 118.741 541.158 119.278C542.231 119.635 543.661 120.351 545.45 120.887C548.133 121.781 550.458 122.675 552.067 123.569C553.856 124.463 555.286 125.715 556.538 127.503C557.79 129.291 558.327 131.436 558.327 134.297C558.327 136.979 557.79 138.946 556.538 140.913Z" fill="#212123"/>
<path d="M595.006 138.943H579.088L576.406 146.81H565.496L581.056 104.434H592.86L608.419 146.81H597.51L595.006 138.943ZM592.323 131.075L586.958 115.341L581.592 131.075H592.323Z" fill="#212123"/>
<path d="M654.873 146.633H644.5L627.331 120.528V146.633H617.137V104.078H627.51L644.679 130.541V104.078H655.052V146.633H654.873Z" fill="#212123"/>
<path d="M699.64 108.015C703.217 110.876 705.542 114.81 706.615 119.637H695.705C694.99 117.67 693.738 116.061 691.95 114.988C690.34 113.915 688.373 113.379 686.048 113.379C683.007 113.379 680.682 114.452 678.715 116.776C676.927 118.922 675.854 121.962 675.854 125.716C675.854 129.471 676.748 132.332 678.715 134.478C680.504 136.623 683.007 137.696 686.048 137.696C688.373 137.696 690.34 137.16 691.95 136.087C693.559 135.014 694.811 133.405 695.705 131.438H706.615C705.542 136.266 703.217 140.2 699.64 143.06C696.063 145.921 691.592 147.352 686.227 147.352C682.113 147.352 678.357 146.458 675.317 144.67C672.098 142.882 669.773 140.2 667.984 136.981C666.196 133.763 665.48 130.008 665.48 125.716C665.48 121.425 666.375 117.67 667.984 114.452C669.773 111.233 672.098 108.551 675.317 106.763C678.536 104.975 682.113 104.081 686.227 104.081C691.592 103.724 696.063 105.154 699.64 108.015Z" fill="#212123"/>
<path d="M727.12 112.302V121.242H741.607V129.109H727.12V138.586H743.395V146.811H716.926V104.256H743.395V112.481H727.12V112.302Z" fill="#212123"/>
<path d="M325.119 173.104C324.403 174.355 323.33 175.428 321.9 176.143C320.469 176.858 318.859 177.216 316.892 177.216H311.348V159.693H316.892C318.859 159.693 320.469 160.051 321.9 160.766C323.33 161.481 324.403 162.554 325.119 163.806C325.834 165.057 326.192 166.667 326.192 168.455C326.192 170.243 325.834 171.852 325.119 173.104ZM322.078 173.461C323.33 172.21 323.867 170.6 323.867 168.455C323.867 166.309 323.33 164.7 322.078 163.448C320.827 162.197 319.217 161.66 316.892 161.66H313.851V175.07H316.892C319.038 175.249 320.827 174.713 322.078 173.461Z" fill="#212123"/>
<path d="M331.373 159.869V177.392H329.227V159.869H331.373Z" fill="#212123"/>
<path d="M348.215 161.13C349.646 162.203 350.54 163.455 351.077 165.243H348.752C348.394 164.17 347.679 163.276 346.605 162.739C345.711 162.024 344.459 161.845 343.207 161.845C341.955 161.845 340.882 162.203 339.988 162.739C339.094 163.276 338.379 164.17 337.842 165.064C337.305 166.137 336.948 167.209 336.948 168.64C336.948 170.07 337.305 171.322 337.842 172.395C338.379 173.468 339.094 174.183 340.167 174.719C341.061 175.256 342.313 175.613 343.565 175.613C344.638 175.613 345.711 175.434 346.605 174.898C347.5 174.362 348.215 173.825 348.752 172.931C349.288 172.037 349.646 170.964 349.825 169.891H343.029V168.282H351.792V170.428C351.613 171.858 351.255 173.11 350.54 174.183C349.825 175.256 348.93 176.15 347.679 176.865C346.427 177.58 345.175 177.938 343.565 177.938C341.955 177.938 340.346 177.58 339.094 176.865C337.842 176.15 336.769 175.077 336.054 173.646C335.338 172.216 334.98 170.785 334.98 168.997C334.98 167.209 335.338 165.779 336.054 164.349C336.769 162.918 337.842 162.024 339.094 161.13C340.346 160.415 341.955 160.057 343.565 160.057C344.996 159.7 346.784 160.236 348.215 161.13Z" fill="#212123"/>
<path d="M356.595 159.869V177.392H354.27V159.869H356.595Z" fill="#212123"/>
<path d="M371.102 159.869V161.657H366.094V177.392H363.769V161.657H358.762V159.869H371.102Z" fill="#212123"/>
<path d="M383.449 173.291H375.759L374.328 177.403H371.824L378.263 160.238H380.767L387.205 177.403H384.701L383.449 173.291ZM382.913 171.503L379.693 162.742L376.474 171.503H382.913Z" fill="#212123"/>
<path d="M298.445 173.291H290.755L289.324 177.403H286.82L293.259 160.238H295.763L302.201 177.403H299.697L298.445 173.291ZM297.909 171.503L294.69 162.742L291.47 171.503H297.909Z" fill="#212123"/>
<path d="M391.998 175.604H398.257V177.392H389.852V159.869H392.177V175.604H391.998Z" fill="#212123"/>
<path d="M420.252 177.392H417.927L408.805 163.624V177.392H406.48V159.869H408.805L417.927 173.637V159.869H420.252V177.392Z" fill="#212123"/>
<path d="M433.973 173.291H426.282L424.851 177.403H422.348L428.786 160.238H431.29L437.728 177.403H435.225L433.973 173.291ZM433.436 171.503L430.217 162.742L426.998 171.503H433.436Z" fill="#212123"/>
<path d="M451.024 159.869V161.657H446.016V177.392H443.691V161.657H438.684V159.869H451.024Z" fill="#212123"/>
<path d="M455.462 159.869V177.392H453.137V159.869H455.462Z" fill="#212123"/>
<path d="M471.614 160.77C472.866 161.485 473.939 162.558 474.655 163.988C475.37 165.418 475.728 166.849 475.728 168.637C475.728 170.425 475.37 171.855 474.655 173.286C473.939 174.716 472.866 175.789 471.614 176.504C470.362 177.219 468.932 177.577 467.143 177.577C465.534 177.577 464.103 177.219 462.672 176.504C461.42 175.789 460.347 174.716 459.632 173.286C458.916 171.855 458.559 170.425 458.559 168.637C458.559 166.849 458.916 165.418 459.632 163.988C460.347 162.558 461.42 161.485 462.672 160.77C463.924 160.054 465.534 159.697 467.143 159.697C468.753 159.518 470.184 160.054 471.614 160.77ZM463.924 162.558C463.03 163.094 462.314 163.988 461.599 164.882C461.062 165.955 460.705 167.207 460.705 168.458C460.705 169.889 461.062 170.961 461.599 172.034C462.136 173.107 462.851 173.822 463.924 174.359C464.818 174.895 465.891 175.253 467.143 175.253C468.395 175.253 469.468 174.895 470.362 174.359C471.257 173.822 471.972 172.928 472.687 172.034C473.224 170.961 473.582 169.71 473.582 168.458C473.582 167.028 473.224 165.776 472.687 164.882C472.151 163.809 471.436 163.094 470.362 162.558C469.468 162.021 468.395 161.664 467.143 161.664C465.891 161.664 464.818 162.021 463.924 162.558Z" fill="#212123"/>
<path d="M492.283 177.392H489.958L480.837 163.624V177.392H478.512V159.869H480.837L489.958 173.637V159.869H492.283V177.392Z" fill="#212123"/>
</g>
<defs>
<filter id="filter0_d_1158_41" x="-24" y="-18" width="945" height="290" filterUnits="userSpaceOnUse" color-interpolation-filters="sRGB">
<feFlood flood-opacity="0" result="BackgroundImageFix"/>
<feColorMatrix in="SourceAlpha" type="matrix" values="0 0 0 0 0 0 0 0 0 0 0 0 0 0 0 0 0 0 127 0" result="hardAlpha"/>
<feOffset dx="6" dy="12"/>
<feGaussianBlur stdDeviation="15"/>
<feComposite in2="hardAlpha" operator="out"/>
<feColorMatrix type="matrix" values="0 0 0 0 0 0 0 0 0 0 0 0 0 0 0 0 0 0 0.05 0"/>
<feBlend mode="normal" in2="BackgroundImageFix" result="effect1_dropShadow_1158_41"/>
<feBlend mode="normal" in="SourceGraphic" in2="effect1_dropShadow_1158_41" result="shape"/>
</filter>
<linearGradient id="paint0_linear_1158_41" x1="177.735" y1="138.074" x2="157.472" y2="67.4246" gradientUnits="userSpaceOnUse">
<stop offset="0.1005" stop-color="#1C68F3"/>
<stop offset="0.4948" stop-color="#936DD6"/>
<stop offset="0.8552" stop-color="#64B0FC"/>
<stop offset="1" stop-color="#87EFF4"/>
</linearGradient>
<linearGradient id="paint1_linear_1158_41" x1="248.364" y1="188.289" x2="166.53" y2="37.0238" gradientUnits="userSpaceOnUse">
<stop offset="0.1911" stop-color="#1C68F3"/>
<stop offset="0.5942" stop-color="#8056CC"/>
<stop offset="0.9095" stop-color="#87EFF4"/>
</linearGradient>
</defs>
</svg>
