<svg width="916" height="230" viewBox="0 0 916 230" fill="none" xmlns="http://www.w3.org/2000/svg">
<path d="M168.18 58.8379L207.022 97.2438" stroke="#212123" stroke-width="4.3643" stroke-linecap="round"/>
<path d="M128.898 58.8379L166.868 96.8073" stroke="#212123" stroke-width="4.3643" stroke-linecap="round"/>
<path d="M183.453 137.832L206.584 162.272" stroke="#212123" stroke-width="4.3643" stroke-linecap="round"/>
<path d="M168.18 151.359L193.056 176.236" stroke="#212123" stroke-width="4.3643" stroke-linecap="round"/>
<path d="M88.75 137.832L127.592 176.238" stroke="#212123" stroke-width="4.3643" stroke-linecap="round"/>
<path d="M88.3125 98.5527L128.028 136.522" stroke="#212123" stroke-width="4.3643" stroke-linecap="round"/>
<path d="M127.594 71.0567L102.281 57.5273H87.8789V71.9295L101.408 96.8061" stroke="#212123" stroke-width="4.3643" stroke-linecap="round"/>
<path d="M88.75 58.4023L128.029 97.2446" stroke="#212123" stroke-width="4.3643" stroke-linecap="round"/>
<path d="M127.155 98.9891H129.338V96.807V59.2739H206.149V175.364H89.1861V98.9891H127.155Z" stroke="#212123" stroke-width="4.3643" stroke-linecap="round"/>
<path d="M167.311 57.9648V176.237M128.469 97.68H206.59" stroke="#212123" stroke-width="4.3643" stroke-linecap="round"/>
<path d="M128.031 98.5527V175.801" stroke="#212123" stroke-width="4.3643" stroke-linecap="round"/>
<path d="M88.75 136.959H207.023" stroke="#212123" stroke-width="4.3643" stroke-linecap="round"/>
<path d="M252.842 144.011L253.016 120.967C253.016 112.937 252.929 105.954 252.754 100.019C252.696 98.7386 252.231 97.8948 251.358 97.4875C250.543 97.0219 249.03 96.731 246.819 96.6146L245.509 96.5273V93.2977C248.768 93.5305 252.754 93.6469 257.468 93.6469C262.181 93.6469 265.876 93.5596 268.553 93.385L289.327 93.2977L290.375 94.2579C290.258 94.7234 289.851 97.3711 289.153 102.201C288.454 107.031 288.076 109.766 288.018 110.406H285.05C283.944 104.47 283.246 101.153 282.955 100.455C282.722 99.6987 282.315 99.1168 281.733 98.7095C279.638 98.1857 276.438 97.9239 272.132 97.9239C267.826 97.9239 265.149 98.1276 264.101 98.5349C263.054 98.884 262.501 99.6696 262.443 100.892C262.21 113.694 262.094 120.618 262.094 121.666C270.357 121.666 277.543 121.52 283.653 121.229L282.781 127.688H281.209C279.231 126.292 274.488 125.535 266.982 125.419C263.898 125.419 262.268 125.419 262.094 125.419C261.919 138.337 261.832 146.688 261.832 150.47C261.832 152.274 263.083 153.467 265.585 154.049C266.516 154.223 267.884 154.369 269.688 154.485L273.005 154.747V157.715H244.898V154.485C246.644 154.369 247.983 154.223 248.914 154.049C249.903 153.874 250.776 153.496 251.532 152.914C252.347 152.332 252.754 151.518 252.754 150.47L252.842 144.011ZM295.889 152.565C294.667 150.877 293.649 148.55 292.834 145.582C292.02 142.556 291.612 138.774 291.612 134.235C291.612 129.638 292.805 125.39 295.191 121.491C296.762 119.047 299.497 116.836 303.396 114.857C307.295 112.821 310.524 111.802 313.085 111.802C318.264 111.802 322.686 113.461 326.352 116.778C330.018 120.095 331.851 125.274 331.851 132.315C331.851 139.297 330.571 144.738 328.011 148.637C324.577 153.234 321.231 156.26 317.973 157.715C315.761 158.704 313.463 159.199 311.077 159.199C308.691 159.199 306.742 159.024 305.229 158.675C303.716 158.384 302.087 157.715 300.341 156.667C298.653 155.62 297.169 154.252 295.889 152.565ZM299.904 135.37C299.904 141.654 301.097 146.164 303.483 148.899C305.927 151.634 309.448 153.001 314.045 153.001C315.79 153.001 317.071 152.856 317.885 152.565C321.9 150.994 323.908 144.942 323.908 134.409C323.908 129.463 323.239 125.855 321.9 123.586C320.62 121.258 318.38 119.6 315.179 118.611C313.55 118.203 312.066 118 310.728 118C309.389 118 308.4 118.029 307.76 118.087C307.178 118.145 306.393 118.32 305.403 118.611C304.414 118.902 303.658 119.396 303.134 120.095C302.61 120.735 302.057 121.637 301.476 122.8C300.428 124.895 299.904 129.085 299.904 135.37ZM336.355 157.715V154.747C336.821 154.689 337.432 154.602 338.188 154.485C338.945 154.311 339.439 154.223 339.672 154.223C339.905 154.165 340.254 154.049 340.719 153.874C341.243 153.7 341.563 153.554 341.68 153.438C341.796 153.321 342 153.089 342.291 152.74C342.582 152.39 342.727 152.041 342.727 151.692C342.785 151.343 342.873 150.877 342.989 150.296C343.105 149.655 343.163 148.986 343.163 148.288V129.521C343.163 123.528 343.076 113.955 342.902 100.804L342.814 96.6146C342.756 95.1598 342.407 94.2288 341.767 93.8214C341.127 93.4141 339.847 93.2104 337.926 93.2104H336.792L336.617 90.33C340.923 89.8063 344.124 89.3117 346.219 88.8461C348.313 88.3224 349.477 88.0606 349.71 88.0606C350.699 88.0606 351.194 88.497 351.194 89.3699C351.31 94.1415 351.368 100.106 351.368 107.263C351.368 114.421 351.223 122.073 350.932 130.22C350.641 138.308 350.496 144.709 350.496 149.423C350.496 151.634 350.816 153.001 351.456 153.525C352.154 153.991 353.987 154.398 356.955 154.747V157.715H336.355ZM371.547 104.907C370.616 104.907 369.569 104.208 368.405 102.812C367.241 101.357 366.659 100.31 366.659 99.6696C366.659 98.9713 367.125 97.7493 368.056 96.0036C369.045 94.2579 370.063 93.385 371.111 93.385C372.158 93.385 373.322 93.9378 374.602 95.0434C375.882 96.0909 376.522 97.3129 376.522 98.7095C376.522 100.106 375.911 101.503 374.689 102.899C373.526 104.238 372.478 104.907 371.547 104.907ZM361.509 157.715V154.747C364.477 154.514 366.339 154.136 367.096 153.612C367.852 153.03 368.23 151.867 368.23 150.121V131.965C368.23 126.903 368.085 123.382 367.794 121.404C367.561 119.425 367.154 118.174 366.572 117.651C365.99 117.069 364.884 116.778 363.255 116.778H361.946L361.771 113.897C366.077 113.49 369.278 113.053 371.373 112.588C373.526 112.064 374.689 111.802 374.864 111.802C375.853 111.802 376.348 112.268 376.348 113.199C376.348 113.897 376.319 115.818 376.261 118.96C376.028 131.413 375.911 142.149 375.911 151.168C375.911 152.332 376.377 153.205 377.308 153.787C378.239 154.311 379.723 154.631 381.76 154.747V157.715H361.509ZM417.654 144.797L417.829 124.11C417.829 119.92 417.45 117.621 416.694 117.214C416.286 116.981 415.559 116.865 414.512 116.865H411.719L411.544 113.985C416.083 113.577 419.341 113.141 421.32 112.675C423.357 112.152 424.462 111.89 424.637 111.89C425.684 111.89 426.208 112.326 426.208 113.199C426.208 120.531 426.092 127.659 425.859 134.584C425.626 141.509 425.51 145.611 425.51 146.891C425.51 148.172 426.15 149.859 427.43 151.954C428.768 153.991 429.438 155.184 429.438 155.533C429.438 155.824 429.176 156.056 428.652 156.231C424.579 157.569 422.28 158.239 421.756 158.239C421.291 158.239 420.796 157.831 420.273 157.017C419.807 156.144 419.371 155.096 418.963 153.874C418.556 152.652 418.323 152.012 418.265 151.954C414.774 154.398 411.573 156.115 408.664 157.104C405.754 158.035 403.397 158.5 401.593 158.5C399.848 158.5 397.986 157.657 396.007 155.969C394.087 154.282 392.807 152.187 392.166 149.685C391.585 147.822 391.294 144.215 391.294 138.861V124.808C391.294 123.353 391.032 121.346 390.508 118.785C390.392 118.378 390.013 118.029 389.373 117.738C388.733 117.447 388.239 117.301 387.889 117.301C387.54 117.243 386.784 117.214 385.62 117.214L385.445 114.246C389.17 113.839 392.108 113.344 394.261 112.763C396.414 112.181 397.607 111.89 397.84 111.89C398.887 111.89 399.411 112.326 399.411 113.199L399.062 138.686C399.062 142.993 399.295 145.844 399.76 147.241C400.284 148.637 401.07 149.714 402.117 150.47C403.223 151.227 404.299 151.605 405.347 151.605C406.452 151.605 407.965 151.401 409.886 150.994C411.864 150.586 413.464 150.063 414.686 149.423C415.966 148.724 416.781 148.142 417.13 147.677C417.479 147.153 417.654 146.193 417.654 144.797ZM443.549 137.464C441.454 136.65 439.65 135.341 438.137 133.537C436.682 131.733 435.955 129.405 435.955 126.554C435.955 123.702 436.449 121.52 437.439 120.007C439.533 116.632 441.512 114.45 443.374 113.461C445.236 112.413 447.622 111.89 450.531 111.89C453.441 111.89 456.06 112.384 458.387 113.374C459.027 113.606 459.493 113.839 459.784 114.072C460.831 114.712 461.355 115.905 461.355 117.651C461.355 117.825 461.326 118.262 461.268 118.96C461.151 120.473 461.093 122.888 461.093 126.205H457.864C457.805 125.448 457.543 124.342 457.078 122.888C456.671 121.433 456.205 120.327 455.681 119.571C454.518 117.883 452.335 117.04 449.135 117.04C446.051 117.04 444.014 117.796 443.025 119.309C442.21 120.531 441.803 121.898 441.803 123.411C441.803 124.866 442.53 126.175 443.985 127.339C445.44 128.445 447.215 129.347 449.309 130.045C451.404 130.743 453.499 131.529 455.594 132.402C457.747 133.217 459.551 134.613 461.006 136.592C462.461 138.512 463.188 140.985 463.188 144.011C463.188 147.037 462.752 149.277 461.879 150.732C460.308 153.234 458.445 155.329 456.292 157.017C455.42 157.657 454.052 158.18 452.19 158.588C450.328 158.995 448.931 159.199 448 159.199C441.774 159.199 438.05 158.151 436.828 156.056C436.362 155.3 436.129 154.311 436.129 153.089C436.129 148.375 436.246 145.495 436.478 144.447C436.769 143.342 437.38 142.789 438.311 142.789C439.301 142.789 439.912 143.196 440.144 144.011C440.377 144.826 440.581 145.96 440.755 147.415C441.396 151.547 444.247 153.612 449.309 153.612C451.87 153.612 453.877 153.03 455.332 151.867C456.787 150.703 457.514 149.132 457.514 147.153C457.514 145.117 456.758 143.516 455.245 142.352C453.79 141.189 451.986 140.287 449.833 139.647C447.738 138.948 445.643 138.221 443.549 137.464ZM486.751 96.5273V93.2977H510.842V96.5273C506.536 96.8765 504.383 97.8948 504.383 99.5823V99.9315C504.383 100.921 506.74 108.253 511.453 121.928C516.167 135.544 519.309 143.953 520.88 147.153C523.79 140.636 527.514 131.529 532.053 119.833C536.591 108.136 538.861 101.706 538.861 100.542C538.861 99.3205 538.395 98.4476 537.464 97.9239C536.591 97.4002 534.642 96.9928 531.616 96.7019V93.2977H552.216V96.44C549.888 96.6728 548.171 97.4584 547.066 98.7967C546.018 100.077 544.418 103.248 542.265 108.311L521.753 157.715H516.167L493.559 102.026C492.803 100.164 491.959 98.8258 491.028 98.0112C490.155 97.1383 488.73 96.6437 486.751 96.5273ZM556.755 122.888C557.686 120.735 559.926 118.407 563.476 115.905C567.025 113.344 570.226 112.064 573.077 112.064C575.987 112.064 578.46 112.384 580.496 113.024C582.533 113.664 584.133 114.625 585.297 115.905C586.461 117.127 587.392 118.349 588.09 119.571C588.847 120.735 589.341 122.219 589.574 124.022C590.04 126.932 590.272 129.143 590.272 130.656V133.187C588.41 134.351 585.355 134.933 581.107 134.933H563.214C563.214 141.16 563.679 145.146 564.61 146.891C566.007 149.452 567.753 151.052 569.847 151.692C571.186 152.099 572.757 152.303 574.561 152.303C579.623 152.303 584.25 150.237 588.439 146.106L590.36 148.113C590.127 148.346 589.574 148.928 588.701 149.859C587.828 150.732 587.246 151.314 586.956 151.605C586.665 151.896 586.112 152.449 585.297 153.263C584.482 154.02 583.842 154.543 583.377 154.834C582.969 155.125 582.358 155.562 581.544 156.144C580.787 156.726 580.118 157.133 579.536 157.366C579.012 157.598 578.343 157.889 577.529 158.239C576.19 158.762 574.619 159.024 572.815 159.024C569.324 159.024 566.327 158.355 563.825 157.017C561.381 155.62 559.548 153.758 558.326 151.43C555.998 147.182 554.834 142.12 554.834 136.242C554.834 130.365 555.474 125.914 556.755 122.888ZM563.388 131.005H568.364C576.103 131.005 580.7 130.482 582.155 129.434C582.155 126.932 581.747 124.779 580.933 122.975C579.42 119.484 576.743 117.738 572.902 117.738C569.062 117.738 566.501 118.727 565.221 120.706C563.999 122.626 563.388 126.059 563.388 131.005ZM595.754 114.683C598.139 114.45 600.525 113.897 602.911 113.024C605.355 112.152 606.926 111.715 607.625 111.715C608.381 111.715 608.905 112.064 609.196 112.763C609.487 113.403 609.632 114.596 609.632 116.341V117.563C616.324 113.781 621.561 111.89 625.344 111.89C629.184 111.89 631.832 112.937 633.287 115.032C634.741 117.069 635.469 119.425 635.469 122.102V151.256C635.469 152.536 635.731 153.409 636.254 153.874C636.836 154.34 638.117 154.631 640.095 154.747V157.715H622.289V154.747C624.5 154.573 625.867 154.223 626.391 153.7C626.973 153.176 627.264 152.245 627.264 150.907V123.237C627.264 121.782 626.798 120.676 625.867 119.92C624.994 119.105 624.063 118.64 623.074 118.523C622.143 118.349 621.038 118.262 619.757 118.262C618.535 118.262 616.877 118.611 614.782 119.309C612.687 119.949 611.058 120.676 609.894 121.491C609.836 124.924 609.749 128.503 609.632 132.227C609.399 139.792 609.283 145.029 609.283 147.939C609.283 150.79 609.574 152.623 610.156 153.438C610.738 154.194 612.163 154.631 614.433 154.747V157.715H596.103V154.747C597.849 154.514 599.071 154.194 599.769 153.787C600.525 153.321 600.991 152.652 601.165 151.779C601.398 150.266 601.515 148.521 601.515 146.542C601.515 144.506 601.427 139.792 601.253 132.402C601.078 124.953 600.962 121.113 600.904 120.88C600.845 120.589 600.758 120.327 600.642 120.095C600.583 119.804 600.467 119.571 600.293 119.396C600.176 119.222 600.06 119.076 599.943 118.96C599.885 118.843 599.74 118.727 599.507 118.611C599.274 118.494 599.1 118.436 598.983 118.436C598.867 118.378 598.634 118.32 598.285 118.262C597.994 118.203 597.79 118.145 597.674 118.087C597.325 118.029 596.772 118 596.016 118L595.754 114.683ZM650.349 141.305L650.611 118.611H643.017V115.992L650.611 114.508V106.478L657.332 104.383C658.205 104.383 658.641 104.819 658.641 105.692L658.467 111.017V113.723H669.552L669.29 118.611H658.467L658.205 140.17C658.205 144.651 658.467 147.881 658.99 149.859C659.572 151.838 660.62 152.827 662.133 152.827C663.646 152.827 665.828 151.983 668.679 150.296L670.512 152.041C666.031 156.697 662.365 159.024 659.514 159.024C655.732 159.024 653.259 157.744 652.095 155.184C650.931 152.623 650.349 147.997 650.349 141.305ZM705.51 144.797L705.685 124.11C705.685 119.92 705.307 117.621 704.55 117.214C704.143 116.981 703.416 116.865 702.368 116.865H699.575L699.4 113.985C703.939 113.577 707.198 113.141 709.176 112.675C711.213 112.152 712.319 111.89 712.493 111.89C713.541 111.89 714.064 112.326 714.064 113.199C714.064 120.531 713.948 127.659 713.715 134.584C713.483 141.509 713.366 145.611 713.366 146.891C713.366 148.172 714.006 149.859 715.286 151.954C716.625 153.991 717.294 155.184 717.294 155.533C717.294 155.824 717.032 156.056 716.508 156.231C712.435 157.569 710.137 158.239 709.613 158.239C709.147 158.239 708.653 157.831 708.129 157.017C707.664 156.144 707.227 155.096 706.82 153.874C706.412 152.652 706.18 152.012 706.121 151.954C702.63 154.398 699.43 156.115 696.52 157.104C693.61 158.035 691.254 158.5 689.45 158.5C687.704 158.5 685.842 157.657 683.863 155.969C681.943 154.282 680.663 152.187 680.023 149.685C679.441 147.822 679.15 144.215 679.15 138.861V124.808C679.15 123.353 678.888 121.346 678.364 118.785C678.248 118.378 677.87 118.029 677.23 117.738C676.59 117.447 676.095 117.301 675.746 117.301C675.397 117.243 674.64 117.214 673.476 117.214L673.302 114.246C677.026 113.839 679.965 113.344 682.118 112.763C684.271 112.181 685.464 111.89 685.697 111.89C686.744 111.89 687.268 112.326 687.268 113.199L686.919 138.686C686.919 142.993 687.151 145.844 687.617 147.241C688.141 148.637 688.926 149.714 689.974 150.47C691.079 151.227 692.156 151.605 693.203 151.605C694.309 151.605 695.822 151.401 697.742 150.994C699.72 150.586 701.321 150.063 702.543 149.423C703.823 148.724 704.638 148.142 704.987 147.677C705.336 147.153 705.51 146.193 705.51 144.797ZM736.817 126.117L736.73 149.772C736.73 151.576 737.253 152.769 738.301 153.351C739.348 153.874 740.919 154.282 743.014 154.573C745.167 154.863 746.331 155.009 746.506 155.009V157.715H722.065V154.747C723.462 154.573 724.393 154.485 724.859 154.485C725.324 154.427 725.906 154.252 726.604 153.962C727.361 153.612 727.797 153.321 727.914 153.089C728.03 152.798 728.205 152.216 728.437 151.343C728.67 150.47 728.787 149.597 728.787 148.724V141.829C728.787 130.132 728.583 123.266 728.176 121.229C727.71 118.96 726.022 117.825 723.113 117.825L722.938 114.508C725.266 114.275 727.652 113.723 730.096 112.85C732.54 111.977 734.111 111.541 734.809 111.541C735.508 111.541 736.002 111.89 736.293 112.588C736.584 113.228 736.73 114.421 736.73 116.167L736.817 119.484C741.938 114.537 745.982 112.064 748.95 112.064C751.103 112.064 752.587 112.326 753.401 112.85C754.216 113.374 754.623 114.334 754.623 115.73C754.623 116.196 754.158 119.338 753.227 125.157H750.084C749.793 120.793 748.309 118.611 745.633 118.611C744.12 118.611 742.258 119.309 740.046 120.706C737.893 122.044 736.817 123.848 736.817 126.117ZM759.2 122.888C760.131 120.735 762.372 118.407 765.921 115.905C769.471 113.344 772.671 112.064 775.523 112.064C778.432 112.064 780.905 112.384 782.942 113.024C784.979 113.664 786.579 114.625 787.743 115.905C788.907 117.127 789.838 118.349 790.536 119.571C791.292 120.735 791.787 122.219 792.02 124.022C792.485 126.932 792.718 129.143 792.718 130.656V133.187C790.856 134.351 787.801 134.933 783.553 134.933H765.659C765.659 141.16 766.125 145.146 767.056 146.891C768.453 149.452 770.198 151.052 772.293 151.692C773.632 152.099 775.203 152.303 777.007 152.303C782.069 152.303 786.695 150.237 790.885 146.106L792.805 148.113C792.573 148.346 792.02 148.928 791.147 149.859C790.274 150.732 789.692 151.314 789.401 151.605C789.11 151.896 788.557 152.449 787.743 153.263C786.928 154.02 786.288 154.543 785.823 154.834C785.415 155.125 784.804 155.562 783.989 156.144C783.233 156.726 782.564 157.133 781.982 157.366C781.458 157.598 780.789 157.889 779.974 158.239C778.636 158.762 777.065 159.024 775.261 159.024C771.769 159.024 768.773 158.355 766.27 157.017C763.826 155.62 761.993 153.758 760.771 151.43C758.444 147.182 757.28 142.12 757.28 136.242C757.28 130.365 757.92 125.914 759.2 122.888ZM765.834 131.005H770.809C778.549 131.005 783.146 130.482 784.6 129.434C784.6 126.932 784.193 124.779 783.378 122.975C781.866 119.484 779.189 117.738 775.348 117.738C771.508 117.738 768.947 118.727 767.667 120.706C766.445 122.626 765.834 126.059 765.834 131.005ZM806.928 137.464C804.833 136.65 803.029 135.341 801.516 133.537C800.062 131.733 799.334 129.405 799.334 126.554C799.334 123.702 799.829 121.52 800.818 120.007C802.913 116.632 804.891 114.45 806.753 113.461C808.616 112.413 811.001 111.89 813.911 111.89C816.82 111.89 819.439 112.384 821.767 113.374C822.407 113.606 822.872 113.839 823.163 114.072C824.211 114.712 824.734 115.905 824.734 117.651C824.734 117.825 824.705 118.262 824.647 118.96C824.531 120.473 824.473 122.888 824.473 126.205H821.243C821.185 125.448 820.923 124.342 820.457 122.888C820.05 121.433 819.584 120.327 819.061 119.571C817.897 117.883 815.715 117.04 812.514 117.04C809.43 117.04 807.394 117.796 806.404 119.309C805.59 120.531 805.182 121.898 805.182 123.411C805.182 124.866 805.91 126.175 807.364 127.339C808.819 128.445 810.594 129.347 812.689 130.045C814.784 130.743 816.879 131.529 818.973 132.402C821.127 133.217 822.93 134.613 824.385 136.592C825.84 138.512 826.567 140.985 826.567 144.011C826.567 147.037 826.131 149.277 825.258 150.732C823.687 153.234 821.825 155.329 819.672 157.017C818.799 157.657 817.431 158.18 815.569 158.588C813.707 158.995 812.311 159.199 811.38 159.199C805.153 159.199 801.429 158.151 800.207 156.056C799.741 155.3 799.509 154.311 799.509 153.089C799.509 148.375 799.625 145.495 799.858 144.447C800.149 143.342 800.76 142.789 801.691 142.789C802.68 142.789 803.291 143.196 803.524 144.011C803.757 144.826 803.96 145.96 804.135 147.415C804.775 151.547 807.626 153.612 812.689 153.612C815.249 153.612 817.257 153.03 818.712 151.867C820.166 150.703 820.894 149.132 820.894 147.153C820.894 145.117 820.137 143.516 818.624 142.352C817.17 141.189 815.366 140.287 813.213 139.647C811.118 138.948 809.023 138.221 806.928 137.464Z" fill="#212123"/>
</svg>
