<svg width="945" height="230" viewBox="0 0 945 230" fill="none" xmlns="http://www.w3.org/2000/svg">
<g clip-path="url(#clip0_1158_154)">
<path d="M233.975 97.8791L243.945 115.092L225.564 146.947L208.273 176.933H188.802L202.665 152.321H202.587L233.975 97.8791ZM187.478 108.394H167.227L181.792 83.1587L199.005 53.4062H177.041L167.695 69.6844H153.909L145.575 84.327H159.127L121.275 149.907L132.256 168.911L158.66 123.192H178.91L162.476 151.698L147.911 176.933H168.162L176.885 161.746H190.905L199.394 146.869C194.643 146.869 189.814 146.791 185.453 146.791L223.85 80.2769L213.725 62.7526L187.478 108.394ZM138.955 84.327L111.227 132.383L101.258 115.17L119.094 84.327L119.172 84.2491L119.249 84.1712L137.007 53.4062H156.868L148.768 67.4257L138.955 84.327Z" fill="#D5BA6D"/>
<path d="M819.587 134.886V85.7592H809.011V144.609H851.826V134.886H819.587ZM788.542 144.609H799.288L779.842 85.7592H768.243L748.115 144.609H758.179C765.513 122.263 765.172 123.457 773.531 98.5525C781.036 121.239 782.06 124.651 788.542 144.609ZM366.361 144.609H377.107L357.662 85.7592H346.233L325.934 144.609H335.998C343.504 122.263 342.992 123.457 351.521 98.5525C358.856 121.239 359.879 124.651 366.361 144.609ZM703.764 109.811V95.141H721.504C726.451 95.141 730.545 96.6761 730.545 102.305C730.545 107.934 726.963 109.981 721.675 109.981L703.764 109.811ZM703.764 135.227V119.192H723.21C728.498 119.192 732.08 121.751 732.08 127.38C732.08 132.839 727.986 135.056 723.04 135.056L703.764 135.227ZM731.91 114.416C737.709 112.71 741.121 108.958 741.121 102.305C741.121 90.5353 732.08 85.7592 722.016 85.7592H693.359V144.609H723.551C735.151 144.609 742.997 139.832 742.997 128.063C742.997 120.045 738.733 116.122 731.91 114.416ZM652.079 94.2881C663.508 94.2881 669.819 102.476 669.819 114.757C669.819 129.427 664.02 135.909 652.079 135.909C640.65 135.909 634.51 128.062 634.51 115.099C634.339 102.817 640.65 94.2881 652.079 94.2881ZM622.91 115.099C622.91 133.009 634.51 145.803 652.25 145.803C671.184 145.803 681.077 133.009 681.077 115.099C681.077 97.6996 669.649 84.9063 652.079 84.9063C634.339 84.7357 622.91 98.2113 622.91 115.099ZM584.701 134.886V85.7592H574.125V144.609H616.94V134.886H584.701ZM552.803 138.127L555.191 145.291H560.308V112.71H537.792V121.581H550.415V123.627C550.415 130.451 545.468 135.909 535.404 135.909C522.269 135.909 517.834 127.892 517.834 114.757C517.834 102.476 522.952 93.9469 535.404 93.9469C543.592 93.9469 548.368 97.1879 550.926 104.182L560.308 99.0642C555.873 89.1707 547.515 84.3945 535.574 84.3945C517.152 84.3945 506.406 97.0173 506.406 114.757C506.406 132.668 515.276 145.461 534.551 145.461C543.25 145.632 548.879 143.073 552.803 138.127ZM476.554 109.64H455.573V85.7592H444.997V144.609H455.573V119.363H476.554V109.64ZM483.377 134.033V144.609H493.953V85.7592H483.377V93.094H483.548L483.377 134.033ZM407.641 84.7357C392.971 84.7357 385.125 91.5588 385.125 101.964C385.125 114.928 395.018 117.487 406.788 119.534C418.387 121.41 423.163 122.604 423.163 128.745C423.163 133.862 418.728 136.25 410.37 136.25C400.135 136.25 395.871 132.327 392.971 126.016L383.419 130.28C386.319 139.662 395.018 145.803 409.858 145.803C424.528 145.803 434.08 140.856 434.08 128.745C434.08 115.099 424.699 111.516 410.711 109.299C400.477 107.593 395.7 107.081 395.7 101.282C395.7 96.335 399.112 94.1175 407.641 94.1175C415.829 94.1175 420.605 97.8702 423.505 103.499L432.375 97.8702C428.281 89.6825 420.605 84.7357 407.641 84.7357ZM300.006 109.64H279.196V85.7592H268.449V144.609H279.196V119.363H300.006V109.64ZM306.829 119.363V144.609H317.405V85.7592H306.829V119.363Z" fill="#D5BA6D"/>
</g>
<defs>
<clipPath id="clip0_1158_154">
<rect width="742.982" height="219.796" fill="white" transform="translate(101.254 5.12305)"/>
</clipPath>
</defs>
</svg>
