<svg width="689" height="230" viewBox="0 0 689 230" fill="none" xmlns="http://www.w3.org/2000/svg">
<g filter="url(#filter0_d_1158_42)">
<g clip-path="url(#clip0_1158_42)">
<path d="M391.582 115.615C391.582 127.334 391.582 139.054 391.582 150.773C391.582 152.509 391.582 152.509 389.845 152.509C385.505 152.509 380.73 152.509 376.39 152.509C374.654 152.509 374.654 152.509 374.654 150.773C374.654 142.526 374.654 134.279 374.654 126.032C374.654 125.598 374.654 124.73 374.654 124.296C374.654 123.428 374.22 122.994 373.352 122.56C372.918 122.56 372.484 122.56 372.05 122.56C363.803 122.56 355.556 122.56 347.309 122.56C346.875 122.56 346.875 122.56 346.441 122.56C345.573 122.56 344.705 122.994 344.705 124.296C344.705 126.466 344.705 128.636 344.705 130.807C344.705 137.317 344.705 144.262 344.705 150.773C344.705 152.509 344.705 152.509 342.969 152.509C338.194 152.509 333.419 152.509 329.079 152.509C328.645 152.509 328.211 152.509 328.211 151.641C328.211 151.207 328.211 150.339 328.211 149.905C328.211 126.9 328.211 103.896 328.211 80.8914C328.211 80.4573 328.211 79.5892 328.211 79.1552C328.211 78.2871 328.645 78.2871 329.079 78.2871C333.854 78.2871 339.062 78.2871 343.837 78.2871C344.705 78.2871 344.705 78.7212 344.705 79.5892C344.705 81.7595 344.705 84.3637 344.705 86.534C344.705 92.6106 344.705 98.2532 344.705 104.33C344.705 104.764 344.705 105.198 344.705 106.066C344.705 107.802 345.139 108.236 346.441 108.236C347.743 108.236 349.045 108.236 350.347 108.236C357.726 108.236 365.105 108.236 372.05 108.236C374.22 108.236 374.654 107.802 374.654 105.632C374.654 97.3851 374.654 88.7042 374.654 80.4573C374.654 78.7212 374.654 78.7212 375.956 78.7212C380.73 78.7212 385.505 78.7212 389.845 78.7212C391.148 78.7212 391.148 78.7212 391.148 80.4573C391.582 91.7425 391.582 103.462 391.582 115.615Z" fill="#2C6A9E"/>
<path d="M172.386 115.619C172.386 127.339 172.386 139.058 172.386 150.777C172.386 152.513 172.386 152.513 171.084 152.513C166.31 152.513 161.969 152.513 157.195 152.513C155.458 152.513 155.458 152.513 155.458 150.777C155.458 142.53 155.458 133.849 155.458 125.602C155.458 125.168 155.458 124.3 155.458 123.866C155.458 122.998 155.458 122.564 154.156 122.564C145.041 122.564 136.36 122.564 127.245 122.564C126.377 122.564 126.377 122.998 126.377 123.866C126.377 132.113 126.377 140.794 126.377 149.041C126.377 149.909 126.377 151.211 126.377 152.079C125.075 152.079 124.207 152.513 122.905 152.513C118.999 152.513 114.658 152.513 110.752 152.513C109.45 152.513 109.45 152.079 109.45 151.211C109.45 150.777 109.45 149.909 109.45 149.475C109.45 126.905 109.45 104.768 109.45 82.1979C109.45 81.3298 109.884 80.0276 109.45 79.5936C108.581 78.7255 109.45 78.7255 109.884 78.7255C114.658 78.7255 119.867 78.7255 124.641 78.7255C126.377 78.2915 126.377 78.2915 126.377 80.0276C126.377 88.2745 126.377 96.5214 126.377 104.768C126.377 105.636 126.377 106.07 126.377 106.938C126.377 107.373 126.811 107.373 127.245 107.807C127.679 107.807 128.114 107.807 128.548 107.807C137.228 107.807 145.909 107.807 154.59 107.807C155.892 107.807 155.892 107.807 155.892 106.504C155.892 97.8235 155.892 89.1426 155.892 80.4617C155.892 78.7255 155.892 78.7255 157.629 78.7255C162.403 78.7255 166.744 78.7255 171.518 78.7255C172.82 78.7255 172.82 78.7255 172.82 80.4617C172.386 91.7469 172.386 103.9 172.386 115.619Z" fill="#2C6A9E"/>
<path d="M447.559 115.615C447.559 103.896 447.559 92.6106 447.559 80.8914C447.559 80.4573 447.559 79.5892 447.559 79.1552C447.559 78.7212 447.993 78.7212 447.993 78.2871C448.427 78.2871 448.427 78.2871 448.861 78.2871C466.657 78.2871 484.452 78.2871 502.682 78.2871C504.419 78.2871 504.853 78.7212 503.985 80.0233C503.55 80.8914 504.419 80.8914 504.419 81.3254C504.419 84.3637 504.419 87.8361 504.419 90.8744C504.419 91.7425 503.985 92.1766 503.116 92.6106C502.248 92.6106 501.814 92.6106 500.946 92.6106C489.227 92.6106 477.942 92.6106 466.223 92.6106C464.486 92.6106 464.486 92.1766 464.486 94.3468C464.486 98.2532 464.486 102.594 464.486 106.5C464.486 107.368 464.92 107.802 465.789 107.802C476.206 107.802 486.189 107.802 496.606 107.802C497.474 107.802 497.908 107.802 498.776 107.802C499.21 107.802 499.644 108.236 499.644 108.67C499.644 113.011 499.644 117.785 499.644 122.126C499.644 122.994 499.21 122.994 498.776 122.994C494.002 122.994 488.793 122.994 484.018 122.994C477.942 122.994 472.299 122.994 466.223 122.994C464.486 122.994 464.486 122.994 464.486 124.73C464.486 128.636 464.486 132.977 464.486 136.883C464.486 138.619 464.486 138.619 466.223 138.619C478.376 138.619 490.095 138.619 502.248 138.619C504.419 138.619 504.419 138.619 504.419 140.79C504.419 144.696 504.419 148.168 504.419 152.075C504.419 152.943 504.419 153.377 503.551 152.943C503.116 152.943 503.116 152.943 502.682 152.943C484.887 152.943 467.525 152.943 449.729 152.943C447.993 152.943 447.993 152.943 447.993 151.207C447.559 139.054 447.559 127.334 447.559 115.615Z" fill="#2C6A9E"/>
<path d="M250.083 152.516C247.479 152.516 245.309 152.516 242.705 152.516C241.403 152.516 240.968 152.082 240.534 150.78C239.666 148.175 238.798 146.005 237.496 143.401C236.628 141.665 235.76 139.928 235.326 137.758C234.892 136.456 234.458 136.022 233.156 136.022C225.777 136.022 218.398 136.022 211.453 136.022C208.849 136.022 206.679 136.022 204.075 136.022C203.207 136.022 203.207 136.022 202.772 136.89C201.036 139.494 200.602 142.967 199.3 145.571C198.866 146.439 198.432 147.307 197.998 147.741C197.564 149.043 197.13 150.345 196.262 151.648C194.526 151.648 192.789 151.648 191.053 151.648C187.581 151.648 184.108 151.648 180.636 151.648C179.334 151.648 178.9 151.214 179.768 149.911C180.202 149.043 180.636 147.741 181.07 146.873C182.372 143.401 184.109 140.362 185.411 136.89C187.147 132.116 189.751 127.775 191.053 123.001C191.487 121.264 192.789 119.528 193.223 118.226C194.96 114.754 196.696 110.847 197.998 106.941C199.734 102.6 201.47 97.8259 203.641 93.4855C205.377 90.0131 206.679 86.1067 208.415 82.6343C208.849 83.5024 208.849 82.6343 209.283 82.2003C209.717 80.8981 210.585 79.596 211.019 77.8598C212.321 77.8598 213.624 77.4258 214.926 77.4258C218.832 77.4258 222.305 77.4258 226.211 77.4258C226.645 77.4258 227.079 77.4258 227.079 78.2939C227.513 80.0301 228.815 82.2003 229.249 83.9365C230.551 87.8429 232.722 91.3152 234.024 95.2217C235.326 98.694 236.628 102.166 238.364 105.205C239.232 107.375 240.534 109.545 241.403 112.149C242.271 114.32 243.139 116.49 244.007 118.66C244.875 120.83 246.177 123.001 247.045 125.605C249.649 131.247 251.82 136.89 254.424 142.533C254.424 144.269 255.726 145.571 256.16 146.873C256.594 148.609 257.462 149.911 257.896 151.214C258.33 152.082 258.33 152.516 257.462 152.516C255.292 152.516 252.688 152.516 250.083 152.516ZM218.832 121.264C221.87 121.264 224.909 121.264 227.947 121.264C228.381 121.264 228.381 121.264 228.381 120.396C227.079 117.358 225.777 113.886 224.475 110.847C223.173 107.375 221.436 104.337 220.568 100.864C220.134 99.9962 219.7 99.1281 219.266 98.26H218.832C218.398 98.694 218.398 98.694 218.398 99.1281C216.662 103.903 214.926 107.809 213.19 111.715C211.887 114.754 211.019 117.792 209.717 120.83C209.283 121.264 209.717 121.264 210.151 121.264C213.19 121.264 215.794 121.264 218.832 121.264Z" fill="#2C6A9E"/>
<path d="M290.476 153.816C287.872 153.816 284.399 153.816 281.361 152.948C277.021 152.08 273.114 150.344 269.208 148.607C266.169 146.871 263.565 145.135 260.961 143.399C259.659 142.097 259.659 141.663 260.527 140.36C263.131 136.888 266.169 134.284 268.34 130.377C268.34 130.377 268.774 129.943 269.208 130.377C270.076 130.811 270.944 131.245 271.812 132.114C274.85 134.718 278.323 136.454 281.795 137.756C284.833 139.058 291.778 139.492 294.816 139.058C297.421 138.624 299.591 137.322 301.327 135.152C301.327 133.85 302.629 132.548 301.761 131.246C301.327 129.509 300.459 128.207 298.723 127.339C295.251 125.603 291.778 124.735 288.306 123.433C283.531 122.131 278.757 121.262 274.416 119.092C271.378 117.356 268.34 115.62 266.169 113.016C263.999 110.845 263.565 108.241 262.697 105.637C262.263 103.467 261.829 100.862 261.829 98.258C263.131 93.0495 265.301 85.6707 271.378 81.7643C274.85 79.5941 277.021 78.726 282.229 77.4238C284.399 76.9898 286.136 77.4238 288.306 76.9898C290.476 76.9898 292.646 76.5557 294.382 76.9898C297.421 77.4238 300.459 77.8579 303.063 78.726C306.97 80.4622 310.442 81.7643 313.915 84.3686C314.349 84.8026 315.217 85.2367 315.651 85.6707C316.519 86.1047 316.519 86.5388 316.085 87.8409C313.48 91.3133 311.31 94.3516 308.706 97.824C307.838 99.1261 307.838 99.1261 306.536 98.258C304.8 96.9559 303.063 96.0878 301.327 95.2197C298.723 93.4835 295.685 93.0495 292.646 92.1814C290.476 91.7473 287.438 91.7473 285.267 92.1814C283.097 92.6154 280.927 93.4835 280.059 96.0878C279.625 97.824 279.191 99.5602 280.059 101.296C280.493 102.164 280.927 103.033 281.795 103.467C284.399 104.769 287.438 105.637 290.476 106.505C295.685 108.241 300.893 109.109 306.102 111.713C310.008 113.45 313.046 115.62 315.651 119.092C317.387 121.262 318.255 124.301 318.689 127.339C318.689 128.207 318.255 129.509 319.123 130.377C319.123 130.377 319.123 130.811 319.123 131.246V131.68C317.821 132.982 318.689 135.152 318.255 136.888C317.387 138.624 316.953 140.795 316.085 142.965C314.783 145.569 312.612 147.739 310.008 149.475C305.668 152.514 303.497 152.948 298.289 153.816C295.685 153.816 293.514 153.816 290.476 153.816Z" fill="#2C6A9E"/>
<path d="M535.697 137.761C535.697 133.42 535.697 129.08 535.697 125.173C535.697 123.871 535.263 123.003 534.829 122.135C533.093 119.531 531.357 116.927 529.621 113.888C527.45 110.416 525.714 106.943 523.544 103.905C520.506 99.1306 517.033 93.9221 513.995 89.1476C511.825 85.6752 509.655 82.2028 507.484 79.1645V78.7305H507.918C513.561 78.7305 519.638 78.7305 525.28 78.7305C526.148 78.7305 526.582 79.1645 527.016 80.0326C529.187 83.939 531.791 87.8454 533.961 91.3178C535.697 94.3561 536.999 96.9604 538.736 99.9987C540.038 102.603 541.774 105.207 543.076 107.377C543.51 107.812 543.944 108.68 543.944 107.377C546.548 103.471 548.719 99.1306 551.323 95.2242C553.493 91.7518 555.663 88.2795 557.834 84.3731C558.702 83.0709 559.136 81.7688 560.004 80.4667C560.872 79.1645 561.74 78.7305 563.042 78.7305C568.251 78.7305 573.459 78.7305 579.102 78.7305C579.97 78.7305 579.97 78.7305 579.536 79.5986C578.234 81.3347 577.366 83.505 576.064 85.2412C573.459 89.1476 571.289 92.6199 568.685 96.5263C566.081 100.433 563.476 104.773 560.872 108.68C558.702 112.152 556.532 115.624 554.361 119.097C553.927 119.531 553.927 119.965 553.493 120.399C552.625 122.135 551.757 123.871 551.757 126.041C551.757 134.722 551.757 143.403 551.757 152.084C551.757 152.952 551.757 153.386 550.455 153.386C545.68 153.386 540.906 153.386 536.131 153.386C535.263 153.386 534.829 153.386 534.829 152.084C535.697 146.876 535.697 142.535 535.697 137.761Z" fill="#2C6A9E"/>
<path d="M441.499 78.2871C441.499 78.7212 441.499 78.7212 441.499 78.2871C440.631 79.1552 440.197 79.5892 439.763 80.0233C429.346 90.4404 418.929 100.857 408.512 111.275C408.512 111.709 408.078 112.143 407.644 112.577C407.21 112.577 406.342 112.577 405.908 112.577C405.474 112.143 405.039 111.709 404.171 111.275C401.567 108.67 398.529 105.632 395.925 103.028C395.056 102.16 395.056 101.726 395.925 100.857C401.567 95.2149 407.644 89.1383 413.286 83.4957C415.023 81.7595 416.325 80.4573 418.061 78.7212C420.231 78.7212 422.401 78.7212 424.572 78.7212C429.78 78.7212 434.989 78.7212 440.631 78.7212C440.631 78.2871 441.065 78.2871 441.499 78.2871Z" fill="#2C6A9E"/>
<path d="M429.785 152.516C426.313 152.516 422.841 152.516 419.368 152.516C418.066 152.516 417.632 152.082 416.764 151.214C409.819 144.269 402.875 137.324 395.93 130.379C395.496 129.945 394.628 129.511 395.93 128.643C399.402 125.605 402.441 122.133 405.913 118.66C407.215 117.358 407.215 117.358 408.083 118.66C418.934 129.511 429.785 140.362 441.071 151.648C441.071 151.648 441.505 152.082 441.505 152.516H441.071C437.164 152.516 433.258 152.516 429.785 152.516Z" fill="#5DC4FC"/>
</g>
</g>
<defs>
<filter id="filter0_d_1158_42" x="-24" y="-18" width="749" height="290" filterUnits="userSpaceOnUse" color-interpolation-filters="sRGB">
<feFlood flood-opacity="0" result="BackgroundImageFix"/>
<feColorMatrix in="SourceAlpha" type="matrix" values="0 0 0 0 0 0 0 0 0 0 0 0 0 0 0 0 0 0 127 0" result="hardAlpha"/>
<feOffset dx="6" dy="12"/>
<feGaussianBlur stdDeviation="15"/>
<feComposite in2="hardAlpha" operator="out"/>
<feColorMatrix type="matrix" values="0 0 0 0 0 0 0 0 0 0 0 0 0 0 0 0 0 0 0.05 0"/>
<feBlend mode="normal" in2="BackgroundImageFix" result="effect1_dropShadow_1158_42"/>
<feBlend mode="normal" in="SourceGraphic" in2="effect1_dropShadow_1158_42" result="shape"/>
</filter>
<clipPath id="clip0_1158_42">
<rect width="471.374" height="76.8261" fill="white" transform="translate(109 76.9863)"/>
</clipPath>
</defs>
</svg>
