<svg width="829" height="230" viewBox="0 0 829 230" fill="none" xmlns="http://www.w3.org/2000/svg">
<path d="M163.925 129.738H120.445V63.2847H129.939V121.384H163.925V129.738ZM166.001 83.0309C171.697 80.3095 178.754 78.9488 187.172 78.9488C190.969 78.9488 194.007 79.4551 196.285 80.4677C198.627 81.4171 200.431 82.6512 201.697 84.1701C202.962 85.6891 203.785 87.3979 204.165 89.2965C204.608 91.1319 204.829 92.9673 204.829 94.8027C204.829 98.2836 204.703 101.796 204.45 105.34C204.196 108.821 204.07 112.619 204.07 116.732C204.07 119.137 204.165 121.479 204.355 123.757C204.608 125.973 204.988 128.029 205.494 129.928H199.133L196.76 122.333H195.811C195.114 123.283 194.26 124.264 193.247 125.276C192.235 126.226 191.032 127.08 189.64 127.84C188.248 128.599 186.634 129.232 184.798 129.738C183.026 130.245 180.969 130.498 178.628 130.498C176.286 130.498 174.134 130.181 172.172 129.548C170.21 128.852 168.501 127.903 167.046 126.7C165.653 125.498 164.546 124.042 163.723 122.333C162.9 120.561 162.489 118.599 162.489 116.448C162.489 113.6 163.09 111.131 164.293 109.043C165.558 106.954 167.172 105.245 169.134 103.916C171.096 102.587 173.311 101.606 175.78 100.973C178.311 100.34 180.811 100.024 183.279 100.024C185.241 100.024 186.887 100.056 188.216 100.119C189.608 100.182 190.748 100.277 191.634 100.404C192.583 100.467 193.374 100.562 194.007 100.689C194.64 100.752 195.209 100.815 195.716 100.878C195.842 99.9291 195.937 99.1064 196.001 98.4102C196.064 97.714 196.095 96.828 196.095 95.752C196.095 93.9799 195.906 92.4926 195.526 91.2902C195.146 90.0877 194.513 89.1383 193.627 88.4421C192.804 87.6827 191.665 87.1447 190.21 86.8283C188.754 86.5118 186.982 86.3536 184.893 86.3536C183.691 86.3536 182.362 86.4485 180.906 86.6384C179.45 86.8283 177.995 87.1131 176.539 87.4928C175.083 87.8093 173.628 88.2206 172.172 88.7269C170.78 89.2333 169.514 89.7712 168.375 90.3408L166.001 83.0309ZM195.716 107.144C195.209 107.081 194.671 106.986 194.102 106.859C193.532 106.733 192.804 106.638 191.918 106.574C191.096 106.511 190.083 106.448 188.88 106.385C187.741 106.321 186.317 106.29 184.608 106.29C180.685 106.29 177.552 106.986 175.21 108.378C172.932 109.771 171.792 112.144 171.792 115.498C171.792 118.03 172.678 119.928 174.451 121.194C176.286 122.46 178.628 123.093 181.476 123.093C183.564 123.093 185.4 122.84 186.982 122.333C188.627 121.764 190.02 121.099 191.159 120.34C192.361 119.517 193.311 118.631 194.007 117.682C194.766 116.669 195.336 115.688 195.716 114.739V107.144ZM231.604 111.416L234.547 121.004H235.781L238.154 111.321L248.502 79.8981H257.426L241.097 124.992C239.894 128.093 238.66 131.099 237.395 134.01C236.192 136.922 234.831 139.485 233.312 141.7C231.857 143.978 230.211 145.782 228.376 147.111C226.604 148.503 224.547 149.2 222.205 149.2C219.674 149.2 217.522 148.915 215.75 148.345L217.174 140.94C218.123 141.257 219.072 141.415 220.022 141.415C221.287 141.415 222.427 141.257 223.439 140.94C224.515 140.624 225.496 140.054 226.382 139.232C227.268 138.409 228.059 137.238 228.756 135.719C229.515 134.263 230.211 132.365 230.844 130.023L208.535 79.8981H218.882L231.604 111.416ZM301.404 125.656C299.188 127.302 296.435 128.631 293.144 129.643C289.853 130.593 286.277 131.067 282.417 131.067C278.24 131.067 274.601 130.466 271.499 129.264C268.462 127.998 265.962 126.226 264 123.947C262.038 121.669 260.582 118.916 259.633 115.688C258.683 112.46 258.209 108.853 258.209 104.866C258.209 96.3216 260.297 89.8029 264.474 85.3093C268.715 80.7525 274.727 78.4741 282.512 78.4741C284.98 78.4741 287.448 78.7589 289.917 79.3285C292.385 79.8348 294.6 80.8475 296.562 82.3664C298.524 83.822 300.106 85.8473 301.309 88.4421C302.574 91.037 303.207 94.423 303.207 98.6C303.207 99.6127 303.176 100.784 303.112 102.113C303.049 103.442 302.922 104.739 302.733 106.005H267.132C267.259 111.827 268.651 116.226 271.31 119.201C273.968 122.175 278.493 123.663 284.885 123.663C287.543 123.663 290.075 123.22 292.48 122.333C294.885 121.384 296.752 120.277 298.081 119.011L301.404 125.656ZM294.853 99.7392C294.98 94.6761 293.935 91.1003 291.72 89.0117C289.568 86.9232 286.531 85.8789 282.607 85.8789C278.176 85.8789 274.664 86.9232 272.069 89.0117C269.474 91.1003 267.955 94.6761 267.512 99.7392H294.853ZM337.92 88.1573C336.844 87.8409 335.8 87.5561 334.788 87.3029C333.775 87.0498 332.826 86.9232 331.94 86.9232C328.585 86.9232 325.959 87.7776 324.06 89.4864C322.225 91.1952 321.085 93.3471 320.642 95.9419V129.738H311.909V79.8981H317.984L319.693 86.5435H320.548C322.003 84.0752 323.68 82.1765 325.579 80.8475C327.541 79.4551 329.978 78.7589 332.889 78.7589C333.775 78.7589 334.819 78.8538 336.022 79.0437C337.224 79.1703 338.427 79.4235 339.629 79.8032L337.92 88.1573ZM360.503 95.9419L338.574 63.2847H349.871L364.206 85.1195L366.769 90.6256L369.237 85.1195L384.237 63.2847H394.68L372.085 95.2774L395.724 129.738H384.617L368.763 106.574L365.82 100.784L363.162 106.574L346.928 129.738H336.485L360.503 95.9419Z" fill="#3E8CC2"/>
<path d="M477.719 164.388C475.63 165.907 472.972 166.952 469.744 167.521C466.516 168.154 463.099 168.47 459.491 168.47C455.251 168.47 451.2 167.806 447.34 166.477C443.542 165.084 440.188 162.996 437.277 160.211C434.366 157.363 432.056 153.787 430.347 149.484C428.638 145.117 427.783 139.959 427.783 134.01C427.783 127.807 428.733 122.523 430.632 118.156C432.53 113.789 434.998 110.244 438.036 107.523C441.074 104.738 444.492 102.713 448.289 101.447C452.087 100.182 455.852 99.5486 459.586 99.5486C463.763 99.5486 467.181 99.7702 469.839 100.213C472.497 100.656 474.744 101.226 476.579 101.922L474.491 110.086C471.39 108.631 466.675 107.903 460.346 107.903C457.498 107.903 454.713 108.377 451.992 109.327C449.333 110.213 446.928 111.7 444.777 113.789C442.688 115.814 441.011 118.504 439.745 121.858C438.479 125.149 437.846 129.2 437.846 134.01C437.846 138.313 438.448 142.111 439.65 145.402C440.853 148.629 442.498 151.351 444.587 153.566C446.739 155.718 449.238 157.363 452.087 158.502C454.998 159.578 458.162 160.116 461.58 160.116C464.681 160.116 467.371 159.832 469.649 159.262C471.928 158.692 473.858 157.964 475.44 157.078L477.719 164.388ZM482.031 120.529C487.727 117.808 494.783 116.447 503.201 116.447C506.998 116.447 510.036 116.953 512.314 117.966C514.656 118.915 516.46 120.149 517.726 121.668C518.991 123.187 519.814 124.896 520.194 126.795C520.637 128.63 520.859 130.465 520.859 132.301C520.859 135.782 520.732 139.294 520.479 142.838C520.226 146.319 520.099 150.117 520.099 154.23C520.099 156.635 520.194 158.977 520.384 161.256C520.637 163.471 521.017 165.528 521.523 167.426H515.162L512.789 159.832H511.84C511.144 160.781 510.289 161.762 509.277 162.774C508.264 163.724 507.061 164.578 505.669 165.338C504.277 166.097 502.663 166.73 500.828 167.236C499.055 167.743 496.999 167.996 494.657 167.996C492.315 167.996 490.163 167.679 488.201 167.046C486.239 166.35 484.531 165.401 483.075 164.198C481.683 162.996 480.575 161.54 479.752 159.832C478.929 158.059 478.518 156.097 478.518 153.946C478.518 151.098 479.119 148.629 480.322 146.541C481.588 144.452 483.202 142.743 485.163 141.414C487.125 140.085 489.341 139.104 491.809 138.471C494.34 137.839 496.84 137.522 499.309 137.522C501.271 137.522 502.916 137.554 504.245 137.617C505.637 137.68 506.777 137.775 507.663 137.902C508.612 137.965 509.403 138.06 510.036 138.187C510.669 138.25 511.239 138.313 511.745 138.376C511.871 137.427 511.966 136.604 512.03 135.908C512.093 135.212 512.125 134.326 512.125 133.25C512.125 131.478 511.935 129.991 511.555 128.788C511.175 127.586 510.542 126.636 509.656 125.94C508.834 125.181 507.694 124.643 506.239 124.326C504.783 124.01 503.011 123.852 500.922 123.852C499.72 123.852 498.391 123.947 496.935 124.136C495.48 124.326 494.024 124.611 492.568 124.991C491.113 125.307 489.657 125.719 488.201 126.225C486.809 126.731 485.543 127.269 484.404 127.839L482.031 120.529ZM511.745 144.642C511.239 144.579 510.701 144.484 510.131 144.357C509.561 144.231 508.834 144.136 507.948 144.073C507.125 144.009 506.112 143.946 504.91 143.883C503.77 143.819 502.346 143.788 500.638 143.788C496.714 143.788 493.581 144.484 491.239 145.876C488.961 147.269 487.822 149.642 487.822 152.996C487.822 155.528 488.708 157.427 490.48 158.692C492.315 159.958 494.657 160.591 497.505 160.591C499.593 160.591 501.429 160.338 503.011 159.832C504.657 159.262 506.049 158.597 507.188 157.838C508.391 157.015 509.34 156.129 510.036 155.18C510.796 154.167 511.365 153.186 511.745 152.237V144.642ZM532.159 117.396H538.044L539.753 123.757H540.608C542.316 121.288 544.532 119.39 547.253 118.061C549.974 116.668 553.044 115.972 556.462 115.972C563.677 115.972 569.056 117.997 572.6 122.048C576.145 126.035 577.917 132.427 577.917 141.225C577.917 145.402 577.315 149.199 576.113 152.617C574.974 155.971 573.296 158.851 571.081 161.256C568.93 163.597 566.271 165.401 563.107 166.667C560.006 167.933 556.525 168.565 552.664 168.565C551.398 168.565 550.228 168.502 549.152 168.376C548.139 168.312 547.19 168.154 546.304 167.901C545.418 167.711 544.532 167.489 543.646 167.236C542.76 166.92 541.842 166.572 540.892 166.192V186.223H532.159V117.396ZM554.468 123.377C550.671 123.377 547.696 124.326 545.544 126.225C543.392 128.124 541.842 131.035 540.892 134.959V157.933C542.348 158.945 543.93 159.737 545.639 160.306C547.348 160.876 549.531 161.161 552.19 161.161C557.316 161.161 561.335 159.483 564.246 156.129C567.157 152.775 568.613 147.775 568.613 141.13C568.613 135.75 567.537 131.446 565.385 128.219C563.234 124.991 559.594 123.377 554.468 123.377ZM588.728 117.396H597.462V167.236H588.728V117.396ZM586.924 105.529C586.924 104.074 587.494 102.776 588.633 101.637C589.772 100.435 591.259 99.8334 593.095 99.8334C594.93 99.8334 596.449 100.435 597.652 101.637C598.854 102.776 599.455 104.074 599.455 105.529C599.455 106.985 598.854 108.283 597.652 109.422C596.449 110.498 594.93 111.036 593.095 111.036C591.259 111.036 589.772 110.498 588.633 109.422C587.494 108.283 586.924 106.985 586.924 105.529ZM604.618 117.396H613.067V107.333L621.801 105.055V117.396H636.801V124.801H621.801V150.243C621.801 154.23 622.307 157.047 623.32 158.692C624.333 160.338 626.073 161.161 628.541 161.161C630.124 161.161 631.548 161.002 632.813 160.686C634.143 160.306 635.63 159.832 637.275 159.262L639.269 165.433C637.244 166.319 635.06 167.046 632.719 167.616C630.44 168.249 627.972 168.565 625.314 168.565C620.883 168.565 617.719 167.363 615.82 164.958C613.985 162.553 613.067 158.629 613.067 153.186V124.801H604.618V117.396ZM642.902 120.529C648.598 117.808 655.655 116.447 664.073 116.447C667.87 116.447 670.908 116.953 673.186 117.966C675.528 118.915 677.332 120.149 678.597 121.668C679.863 123.187 680.686 124.896 681.066 126.795C681.509 128.63 681.73 130.465 681.73 132.301C681.73 135.782 681.604 139.294 681.351 142.838C681.097 146.319 680.971 150.117 680.971 154.23C680.971 156.635 681.066 158.977 681.256 161.256C681.509 163.471 681.888 165.528 682.395 167.426H676.034L673.661 159.832H672.712C672.015 160.781 671.161 161.762 670.148 162.774C669.136 163.724 667.933 164.578 666.541 165.338C665.149 166.097 663.535 166.73 661.699 167.236C659.927 167.743 657.87 167.996 655.529 167.996C653.187 167.996 651.035 167.679 649.073 167.046C647.111 166.35 645.402 165.401 643.947 164.198C642.554 162.996 641.447 161.54 640.624 159.832C639.801 158.059 639.39 156.097 639.39 153.946C639.39 151.098 639.991 148.629 641.194 146.541C642.459 144.452 644.073 142.743 646.035 141.414C647.997 140.085 650.212 139.104 652.681 138.471C655.212 137.839 657.712 137.522 660.18 137.522C662.142 137.522 663.788 137.554 665.117 137.617C666.509 137.68 667.648 137.775 668.534 137.902C669.484 137.965 670.275 138.06 670.908 138.187C671.541 138.25 672.11 138.313 672.617 138.376C672.743 137.427 672.838 136.604 672.901 135.908C672.965 135.212 672.996 134.326 672.996 133.25C672.996 131.478 672.806 129.991 672.427 128.788C672.047 127.586 671.414 126.636 670.528 125.94C669.705 125.181 668.566 124.643 667.11 124.326C665.655 124.01 663.883 123.852 661.794 123.852C660.592 123.852 659.263 123.947 657.807 124.136C656.351 124.326 654.896 124.611 653.44 124.991C651.984 125.307 650.529 125.719 649.073 126.225C647.681 126.731 646.415 127.269 645.276 127.839L642.902 120.529ZM672.617 144.642C672.11 144.579 671.572 144.484 671.003 144.357C670.433 144.231 669.705 144.136 668.819 144.073C667.997 144.009 666.984 143.946 665.781 143.883C664.642 143.819 663.218 143.788 661.509 143.788C657.585 143.788 654.453 144.484 652.111 145.876C649.833 147.269 648.693 149.642 648.693 152.996C648.693 155.528 649.579 157.427 651.351 158.692C653.187 159.958 655.529 160.591 658.377 160.591C660.465 160.591 662.3 160.338 663.883 159.832C665.528 159.262 666.921 158.597 668.06 157.838C669.262 157.015 670.212 156.129 670.908 155.18C671.667 154.167 672.237 153.186 672.617 152.237V144.642ZM702.903 154.041C702.903 156.635 703.378 158.471 704.327 159.547C705.34 160.623 706.669 161.161 708.315 161.161C709.327 161.161 710.308 161.097 711.258 160.971C712.207 160.844 713.346 160.591 714.675 160.211L715.814 166.667C715.181 166.92 714.422 167.141 713.536 167.331C712.65 167.584 711.732 167.806 710.783 167.996C709.834 168.186 708.884 168.312 707.935 168.376C706.986 168.502 706.131 168.565 705.372 168.565C701.954 168.565 699.233 167.711 697.207 166.002C695.182 164.23 694.17 161.319 694.17 157.268V100.783H702.903V154.041Z" fill="#3E8CC2"/>
<rect x="409.766" y="48.916" width="5.14676" height="122.787" fill="#3E8CC2"/>
</svg>
