<svg width="956" height="230" viewBox="0 0 956 230" fill="none" xmlns="http://www.w3.org/2000/svg">
<path d="M112.888 146V139.952L120.712 138.608V83.553L112.888 82.209V76.1131H120.712H130.168H137.992V82.209L130.168 83.553V138.752H154.887L155.991 127.712H163.239V146H112.888ZM170.295 146V139.952L178.119 138.608V101.505L170.295 100.161V94.0648H187.575V138.608L195.399 139.952V146H170.295ZM177.639 81.249V71.1212H187.575V81.249H177.639ZM229.526 147.008C226.134 147.008 223.19 146.368 220.694 145.088C218.198 143.776 216.118 141.856 214.454 139.328L213.59 146H205.43V78.5611L197.607 77.2171V71.1212H214.886V100.209C216.518 97.9048 218.534 96.1448 220.934 94.9288C223.366 93.7128 226.198 93.1048 229.43 93.1048C233.718 93.1048 237.366 94.2728 240.374 96.6088C243.414 98.9127 245.734 102.161 247.334 106.353C248.966 110.545 249.782 115.424 249.782 120.992V122C249.782 126.992 248.966 131.36 247.334 135.104C245.734 138.848 243.414 141.776 240.374 143.888C237.366 145.968 233.75 147.008 229.526 147.008ZM227.126 139.328C231.574 139.328 234.87 137.744 237.014 134.576C239.19 131.408 240.278 127.216 240.278 122V120.992C240.278 116.992 239.798 113.489 238.838 110.481C237.878 107.441 236.422 105.073 234.47 103.377C232.518 101.649 230.038 100.785 227.03 100.785C224.118 100.785 221.654 101.489 219.638 102.897C217.654 104.305 216.07 106.193 214.886 108.561V131.504C216.07 133.904 217.67 135.808 219.686 137.216C221.734 138.624 224.214 139.328 227.126 139.328ZM282.517 147.008C277.717 147.008 273.541 145.92 269.989 143.744C266.437 141.536 263.686 138.48 261.734 134.576C259.814 130.672 258.854 126.16 258.854 121.04V118.928C258.854 114.001 259.862 109.601 261.878 105.729C263.926 101.825 266.629 98.7528 269.989 96.5128C273.381 94.2408 277.077 93.1048 281.077 93.1048C285.749 93.1048 289.653 94.0648 292.789 95.9848C295.957 97.9048 298.341 100.609 299.941 104.097C301.541 107.553 302.341 111.633 302.341 116.336V122.24H268.645L268.501 122.48C268.565 125.808 269.141 128.768 270.229 131.36C271.349 133.92 272.949 135.936 275.029 137.408C277.109 138.88 279.605 139.616 282.517 139.616C285.717 139.616 288.517 139.168 290.917 138.272C293.349 137.344 295.445 136.08 297.205 134.48L300.901 140.624C299.045 142.416 296.581 143.936 293.509 145.184C290.469 146.4 286.805 147.008 282.517 147.008ZM268.933 114.848H292.885V113.601C292.885 111.105 292.437 108.881 291.541 106.929C290.677 104.945 289.365 103.393 287.605 102.273C285.877 101.121 283.701 100.545 281.077 100.545C278.965 100.545 277.045 101.169 275.317 102.417C273.589 103.633 272.165 105.297 271.045 107.409C269.925 109.521 269.189 111.921 268.837 114.608L268.933 114.848ZM309.637 146V139.952L317.461 138.608V101.505L309.637 100.161V94.0648H325.909L326.725 100.689L326.821 101.601C328.293 98.9447 330.1 96.8648 332.244 95.3608C334.42 93.8568 336.9 93.1048 339.684 93.1048C340.676 93.1048 341.684 93.2008 342.708 93.3928C343.764 93.5528 344.516 93.7128 344.964 93.8728L343.716 102.657L337.14 102.273C334.644 102.113 332.548 102.689 330.852 104.001C329.156 105.281 327.845 107.009 326.917 109.185V138.608L334.74 139.952V146H309.637ZM370.596 146.816C366.756 146.816 363.7 145.696 361.428 143.456C359.188 141.184 358.068 137.568 358.068 132.608V101.073H349.86V94.0648H358.068V81.537H367.524V94.0648H378.804V101.073H367.524V132.608C367.524 135.104 368.02 136.944 369.012 138.128C370.004 139.312 371.332 139.904 372.996 139.904C374.116 139.904 375.364 139.808 376.74 139.616C378.116 139.392 379.188 139.2 379.956 139.04L381.252 145.232C379.876 145.648 378.18 146.016 376.164 146.336C374.18 146.656 372.324 146.816 370.596 146.816ZM410.147 147.008C404.515 147.008 400.115 145.2 396.947 141.584C393.779 137.968 392.195 132.336 392.195 124.688V101.505L386.244 100.161V94.0648H392.195H401.651V124.784C401.651 130.32 402.467 134.128 404.099 136.208C405.731 138.288 408.275 139.328 411.731 139.328C415.091 139.328 417.859 138.656 420.035 137.312C422.243 135.936 423.907 134 425.027 131.504V101.505L418.067 100.161V94.0648H425.027H434.483V138.608L440.435 139.952V146H425.987L425.363 138.32C423.731 141.104 421.619 143.248 419.027 144.752C416.467 146.256 413.507 147.008 410.147 147.008ZM468.13 147.008C464.642 147.008 461.378 146.656 458.338 145.952C455.299 145.248 452.067 144.16 448.643 142.688L448.547 130.352H455.698L457.474 137.792C459.266 138.528 460.994 139.072 462.658 139.424C464.354 139.744 466.178 139.904 468.13 139.904C471.97 139.904 474.722 139.168 476.386 137.696C478.05 136.224 478.882 134.4 478.882 132.224C478.882 130.176 478.034 128.448 476.338 127.04C474.674 125.6 471.634 124.384 467.218 123.392C460.946 121.952 456.322 120.032 453.347 117.632C450.403 115.2 448.931 111.969 448.931 107.937C448.931 105.121 449.747 102.609 451.379 100.401C453.011 98.1608 455.283 96.3848 458.194 95.0728C461.106 93.7608 464.498 93.1048 468.37 93.1048C472.306 93.1048 475.666 93.5528 478.45 94.4488C481.266 95.3448 483.714 96.5448 485.794 98.0488L486.274 109.905H479.17L477.634 102.993C476.514 102.161 475.186 101.521 473.65 101.073C472.114 100.625 470.354 100.401 468.37 100.401C465.426 100.401 463.026 101.089 461.17 102.465C459.346 103.841 458.434 105.569 458.434 107.649C458.434 108.865 458.69 109.921 459.202 110.817C459.746 111.713 460.77 112.529 462.274 113.265C463.778 113.969 465.986 114.672 468.898 115.376C476.13 117.072 481.17 119.232 484.018 121.856C486.898 124.48 488.338 127.712 488.338 131.552C488.338 135.936 486.706 139.616 483.442 142.592C480.21 145.536 475.106 147.008 468.13 147.008ZM552.561 147.008C545.553 147.008 539.697 145.472 534.993 142.4C530.321 139.328 526.801 135.12 524.433 129.776C522.097 124.432 520.929 118.368 520.929 111.585V110.577C520.929 103.729 522.161 97.6488 524.625 92.3369C527.089 86.9929 530.625 82.785 535.233 79.7131C539.841 76.6411 545.345 75.1051 551.745 75.1051C556.257 75.1051 560.385 75.8091 564.129 77.2171C567.873 78.6251 570.977 80.417 573.441 82.593V97.6648H565.905L564.897 86.6249C563.873 85.825 562.689 85.153 561.345 84.609C560.033 84.065 558.561 83.649 556.929 83.361C555.329 83.073 553.585 82.929 551.697 82.929C547.121 82.929 543.249 84.113 540.081 86.4809C536.913 88.8169 534.513 92.0489 532.881 96.1768C531.249 100.305 530.433 105.073 530.433 110.481V111.585C530.433 117.44 531.297 122.448 533.025 126.608C534.785 130.736 537.329 133.888 540.657 136.064C544.017 138.24 548.097 139.328 552.897 139.328C555.137 139.328 557.329 139.056 559.473 138.512C561.617 137.968 563.393 137.264 564.801 136.4L565.857 126.656H573.249V141.824C570.625 143.456 567.489 144.736 563.841 145.664C560.193 146.56 556.433 147.008 552.561 147.008ZM599.36 147.008C593.952 147.008 589.84 145.696 587.024 143.072C584.208 140.416 582.8 136.688 582.8 131.888C582.8 128.592 583.696 125.728 585.488 123.296C587.312 120.832 589.936 118.928 593.36 117.584C596.784 116.208 600.88 115.52 605.648 115.52H614.912V110.433C614.912 107.297 613.952 104.865 612.032 103.137C610.144 101.409 607.472 100.545 604.016 100.545C601.84 100.545 599.952 100.817 598.352 101.361C596.752 101.873 595.296 102.593 593.984 103.521L592.976 110.769H585.68V98.8647C588.016 96.9768 590.736 95.5528 593.84 94.5928C596.944 93.6008 600.384 93.1048 604.16 93.1048C610.464 93.1048 615.408 94.6088 618.992 97.6168C622.576 100.625 624.368 104.929 624.368 110.529V135.536C624.368 136.208 624.368 136.864 624.368 137.504C624.4 138.144 624.448 138.784 624.512 139.424L629.552 139.952V146H615.968C615.68 144.592 615.456 143.328 615.296 142.208C615.136 141.088 615.024 139.968 614.96 138.848C613.136 141.184 610.848 143.136 608.096 144.704C605.376 146.24 602.464 147.008 599.36 147.008ZM600.752 139.088C603.888 139.088 606.752 138.336 609.344 136.832C611.936 135.328 613.792 133.52 614.912 131.408V122H605.312C600.96 122 597.696 123.04 595.52 125.12C593.344 127.2 592.256 129.52 592.256 132.08C592.256 134.352 592.96 136.096 594.368 137.312C595.776 138.496 597.904 139.088 600.752 139.088ZM635.456 165.968V159.872L642.8 158.528V101.505L634.976 100.161V94.0648H650.911L651.775 100.401C653.503 98.0328 655.599 96.2248 658.063 94.9768C660.559 93.7288 663.439 93.1048 666.703 93.1048C670.991 93.1048 674.655 94.2728 677.695 96.6088C680.735 98.9127 683.055 102.161 684.655 106.353C686.255 110.513 687.055 115.392 687.055 120.992V122C687.055 126.992 686.239 131.36 684.607 135.104C683.007 138.848 680.703 141.776 677.695 143.888C674.687 145.968 671.071 147.008 666.847 147.008C663.647 147.008 660.831 146.48 658.399 145.424C655.999 144.336 653.951 142.736 652.255 140.624V158.528L660.511 159.872V165.968H635.456ZM663.919 139.616C668.399 139.616 671.791 137.984 674.095 134.72C676.399 131.456 677.551 127.216 677.551 122V120.992C677.551 117.024 677.039 113.537 676.015 110.529C674.991 107.489 673.455 105.105 671.407 103.377C669.391 101.649 666.863 100.785 663.823 100.785C661.135 100.785 658.831 101.393 656.911 102.609C654.991 103.825 653.439 105.489 652.255 107.601V132.896C653.439 135.04 654.975 136.704 656.863 137.888C658.783 139.04 661.135 139.616 663.919 139.616ZM694.063 146V139.952L701.887 138.608V101.505L694.063 100.161V94.0648H711.342V138.608L719.166 139.952V146H694.063ZM701.407 81.249V71.1212H711.342V81.249H701.407ZM744.03 146.816C740.19 146.816 737.134 145.696 734.862 143.456C732.622 141.184 731.502 137.568 731.502 132.608V101.073H723.294V94.0648H731.502V81.537H740.958V94.0648H752.238V101.073H740.958V132.608C740.958 135.104 741.454 136.944 742.446 138.128C743.438 139.312 744.766 139.904 746.43 139.904C747.55 139.904 748.798 139.808 750.174 139.616C751.55 139.392 752.622 139.2 753.39 139.04L754.686 145.232C753.31 145.648 751.614 146.016 749.598 146.336C747.614 146.656 745.758 146.816 744.03 146.816ZM777.533 147.008C772.125 147.008 768.014 145.696 765.198 143.072C762.382 140.416 760.974 136.688 760.974 131.888C760.974 128.592 761.87 125.728 763.662 123.296C765.486 120.832 768.11 118.928 771.533 117.584C774.957 116.208 779.053 115.52 783.821 115.52H793.085V110.433C793.085 107.297 792.125 104.865 790.205 103.137C788.317 101.409 785.645 100.545 782.189 100.545C780.013 100.545 778.125 100.817 776.525 101.361C774.925 101.873 773.469 102.593 772.157 103.521L771.149 110.769H763.854V98.8647C766.19 96.9768 768.91 95.5528 772.013 94.5928C775.117 93.6008 778.557 93.1048 782.333 93.1048C788.637 93.1048 793.581 94.6088 797.165 97.6168C800.749 100.625 802.541 104.929 802.541 110.529V135.536C802.541 136.208 802.541 136.864 802.541 137.504C802.573 138.144 802.621 138.784 802.685 139.424L807.725 139.952V146H794.141C793.853 144.592 793.629 143.328 793.469 142.208C793.309 141.088 793.197 139.968 793.133 138.848C791.309 141.184 789.021 143.136 786.269 144.704C783.549 146.24 780.637 147.008 777.533 147.008ZM778.925 139.088C782.061 139.088 784.925 138.336 787.517 136.832C790.109 135.328 791.965 133.52 793.085 131.408V122H783.485C779.133 122 775.869 123.04 773.693 125.12C771.517 127.2 770.429 129.52 770.429 132.08C770.429 134.352 771.133 136.096 772.541 137.312C773.949 138.496 776.077 139.088 778.925 139.088ZM814.589 146V139.952L822.413 138.608V78.5611L814.589 77.2171V71.1212H831.869V138.608L839.692 139.952V146H814.589Z" fill="#212123"/>
</svg>
