<svg width="748" height="230" viewBox="0 0 748 230" fill="none" xmlns="http://www.w3.org/2000/svg">
<path d="M245.822 62.4805H151.758C145.264 62.4805 140 67.7447 140 74.2385V168.303C140 174.797 145.264 180.061 151.758 180.061H245.822C252.316 180.061 257.58 174.797 257.58 168.303V74.2385C257.58 67.7447 252.316 62.4805 245.822 62.4805Z" fill="#1C68F3"/>
<mask id="mask0_1158_21" style="mask-type:alpha" maskUnits="userSpaceOnUse" x="156" y="78" width="86" height="86">
<path d="M241.131 104.809V128.325H170.582V128.325L167.547 128.326C170.76 142.594 183.509 153.252 198.748 153.252C211.347 153.252 222.244 145.968 227.457 135.38L241.131 135.38V155.134C241.131 159.809 237.34 163.599 232.665 163.599H164.938C160.263 163.599 156.473 159.809 156.473 155.134V104.809H241.131ZM219.337 135.38C214.848 141.944 207.301 146.252 198.748 146.252C190.195 146.252 182.649 141.944 178.159 135.38H219.337ZM180.694 110.453C174.06 110.453 168.571 115.359 167.659 121.741L174.875 121.741C175.668 119.284 177.974 117.508 180.694 117.508C183.415 117.508 185.72 119.284 186.514 121.741L193.73 121.741C192.817 115.359 187.329 110.453 180.694 110.453ZM216.909 110.453C210.275 110.453 204.786 115.359 203.873 121.741L211.09 121.741C211.883 119.284 214.189 117.508 216.909 117.508C219.629 117.508 221.935 119.284 222.728 121.741L229.945 121.741C229.032 115.359 223.543 110.453 216.909 110.453ZM232.665 78.9414C237.34 78.9414 241.131 82.7317 241.131 87.4072V97.7543H156.473V87.4072C156.473 82.7317 160.263 78.9414 164.938 78.9414H232.665Z" fill="white"/>
</mask>
<g mask="url(#mask0_1158_21)">
<path d="M241.107 104.809V128.325H170.559V128.325L167.524 128.326C170.736 142.594 183.486 153.252 198.725 153.252C211.323 153.252 222.22 145.968 227.434 135.38L241.107 135.38V155.134C241.107 159.809 237.317 163.599 232.641 163.599H164.915C160.239 163.599 156.449 159.809 156.449 155.134V104.809H241.107ZM219.314 135.38C214.824 141.944 207.278 146.252 198.725 146.252C190.172 146.252 182.625 141.944 178.135 135.38H219.314ZM180.671 110.453C174.036 110.453 168.548 115.359 167.635 121.741L174.851 121.741C175.645 119.284 177.95 117.508 180.671 117.508C183.391 117.508 185.697 119.284 186.49 121.741L193.706 121.741C192.794 115.359 187.305 110.453 180.671 110.453ZM216.886 110.453C210.251 110.453 204.763 115.359 203.85 121.741L211.066 121.741C211.86 119.284 214.165 117.508 216.886 117.508C219.606 117.508 221.911 119.284 222.705 121.741L229.921 121.741C229.008 115.359 223.52 110.453 216.886 110.453ZM232.641 78.9414C237.317 78.9414 241.107 82.7317 241.107 87.4072V97.7543H156.449V87.4072C156.449 82.7317 160.239 78.9414 164.915 78.9414H232.641Z" fill="white"/>
</g>
<path d="M505.828 103.224C518.097 103.224 532.034 108 532.867 123.285H515.715C515.357 118.867 511.307 116.837 505.947 116.837C500.944 116.837 498.681 118.747 498.681 121.016C498.681 122.927 500.11 124.718 504.637 125.554L515.476 127.345C526.316 129.375 533.463 134.629 533.463 144.898C533.463 158.272 521.432 164.481 506.423 164.481C491.296 164.481 479.027 158.153 477.836 142.749L494.988 142.868C495.822 147.883 499.991 150.152 506.066 150.152C511.188 150.152 514.285 148.6 514.285 146.092C514.285 144.182 512.498 142.629 508.687 142.032L497.013 140.002C487.007 138.331 480.099 132.718 480.099 122.568C480.099 110.388 490.462 103.224 505.828 103.224ZM433.524 103.449C439.826 103.449 445.058 105.119 449.339 107.862V104.761H468.602V162.613H449.339V159.392C445.058 162.136 439.826 163.806 433.524 163.806C417.947 163.806 404.867 150.804 404.867 133.627C404.867 116.331 417.947 103.449 433.524 103.449ZM320.693 81.3782L349.577 124.779L378.342 81.3782H393.381V162.68H373.21V121.909L355.187 149.767V149.887H343.967V149.767L325.825 121.67L325.945 162.68H305.773V81.3782H320.693ZM563.371 78V126.542L583.529 104.835H606.55L584.603 128.45L608.459 162.68H585.318L571.482 142.643L563.371 151.349V162.68H544.048V78H563.371ZM437.329 119.194C429.481 119.194 423.773 125.635 423.773 133.627C423.773 141.619 429.481 147.941 437.329 147.941C441.61 147.941 445.771 146.748 449.339 142.574V124.681C445.771 120.506 441.61 119.194 437.329 119.194Z" fill="#1C68F3"/>
</svg>
