<svg width="773" height="230" viewBox="0 0 773 230" fill="none" xmlns="http://www.w3.org/2000/svg">
<g filter="url(#filter0_d_1158_175)">
<path d="M464.1 116.081C462.373 114.755 460.458 113.639 458.352 112.733C456.245 111.827 454.151 111.059 452.067 110.428C449.982 109.796 448.076 109.144 446.35 108.47C444.623 107.796 443.212 106.881 442.117 105.723C441.022 104.565 440.476 103.122 440.476 101.395C440.476 99.4159 441.096 97.8784 442.338 96.7838C443.58 95.6874 445.317 95.1413 447.55 95.1413C449.782 95.1413 451.55 95.8149 452.856 97.1621C454.162 98.5099 454.814 100.426 454.814 102.911H469.849C469.849 96.8057 467.774 91.8563 463.626 88.0667C459.478 84.2766 454.12 82.3809 447.55 82.3809C441.527 82.3809 436.559 84.1503 432.642 87.6872C428.726 91.2248 426.767 95.7935 426.767 101.395C426.767 104.007 427.094 106.333 427.747 108.375C428.399 110.418 429.273 112.102 430.369 113.428C431.463 114.755 432.715 115.913 434.127 116.902C435.537 117.893 437.022 118.693 438.58 119.303C440.138 119.914 441.696 120.483 443.254 121.009C444.813 121.536 446.297 122.051 447.708 122.557C449.118 123.062 450.372 123.63 451.466 124.261C452.561 124.893 453.435 125.704 454.088 126.695C454.74 127.684 455.067 128.853 455.067 130.2C455.067 132.305 454.425 133.938 453.14 135.095C451.855 136.254 450.097 136.832 447.867 136.832C445.592 136.832 443.791 136.147 442.464 134.78C441.138 133.412 440.476 131.464 440.476 128.936H425.566C425.566 135.085 427.652 140.066 431.82 143.876C435.99 147.688 441.339 149.592 447.867 149.592C454.393 149.592 459.71 147.802 463.815 144.224C467.922 140.644 469.975 135.969 469.975 130.2C469.975 126.915 469.427 124.073 468.332 121.672C467.238 119.272 465.826 117.408 464.1 116.081Z" fill="black"/>
<path d="M373.276 108.977C374.456 104.766 376.613 101.471 379.751 99.0908C382.888 96.7107 386.71 95.5221 391.216 95.5221C395.68 95.5221 399.482 96.7107 402.619 99.0908C405.755 101.471 407.873 104.766 408.967 108.977H373.276ZM391.216 82.3828C381.404 82.3828 373.35 85.5305 367.054 91.8265C360.759 98.1219 357.609 106.176 357.609 115.988C357.609 125.842 360.748 133.907 367.022 140.182C373.298 146.457 381.362 149.594 391.216 149.594C398.628 149.594 405.177 147.846 410.861 144.351C416.547 140.855 420.273 136.097 422.042 130.075H405.492C402.629 134.329 397.87 136.454 391.216 136.454C386.457 136.454 382.477 135.15 379.276 132.539C376.076 129.927 373.949 126.307 372.898 121.674H424.379C424.715 119.231 424.886 117.336 424.886 115.988C424.886 106.176 421.725 98.1219 415.409 91.8265C409.093 85.5305 401.029 82.3828 391.216 82.3828Z" fill="black"/>
<path d="M492.649 69H477.93V83.6464H470.793V97.3549H477.93V125.465C477.93 140.709 485.594 148.33 500.924 148.33H512.609V134.623H501.997C495.763 134.623 492.649 131.571 492.649 125.465V97.3549H512.609V83.6464H492.649V69Z" fill="black"/>
<path d="M358.765 83.6445L339.119 92.1724V83.6445H324.148V148.329H339.119V107.081L358.765 99.0572V83.6445Z" fill="black"/>
<path d="M560.719 130.454C557.308 134.076 552.803 135.886 547.203 135.886C541.518 135.886 536.948 134.065 533.495 130.422C530.041 126.78 528.315 121.969 528.315 115.989C528.315 110.009 530.041 105.198 533.495 101.555C536.948 97.9127 541.518 96.0902 547.203 96.0902C552.803 96.0902 557.308 97.9029 560.719 101.523C564.132 105.145 565.836 109.968 565.836 115.989C565.836 122.01 564.132 126.833 560.719 130.454ZM547.203 82.3828C537.391 82.3828 529.337 85.5311 523.039 91.8284C516.744 98.1225 513.598 106.177 513.598 115.989C513.598 125.843 516.734 133.907 523.009 140.182C529.284 146.457 537.349 149.594 547.203 149.594C557.057 149.594 565.131 146.457 571.427 140.182C577.722 133.907 580.87 125.843 580.87 115.989C580.87 106.177 577.713 98.1225 571.395 91.8284C565.078 85.5311 557.015 82.3828 547.203 82.3828Z" fill="black"/>
<path d="M271.722 101.555C275.176 97.9108 279.744 96.0902 285.429 96.0902C291.03 96.0902 295.536 97.9005 298.948 101.523C302.358 105.143 304.065 109.966 304.065 115.988C304.065 122.011 302.358 126.831 298.948 130.454C295.536 134.074 291.03 135.886 285.429 135.886C279.744 135.886 275.176 134.066 271.722 130.423C268.269 126.78 266.542 121.969 266.542 115.988C266.542 110.007 268.269 105.197 271.722 101.555ZM261.236 140.182C267.511 146.456 275.575 149.594 285.429 149.594C292.883 149.594 299.095 147.363 304.065 142.898V148.33H319.098V83.6464H304.065V89.0785C298.926 84.6147 292.715 82.3828 285.429 82.3828C275.617 82.3828 267.563 85.5299 261.267 91.8271C254.971 98.1225 251.824 106.176 251.824 115.988C251.824 125.842 254.962 133.907 261.236 140.182Z" fill="black"/>
<path d="M614.559 82.3828C608.241 82.3828 603.02 84.4463 598.893 88.5733V83.6464H583.922V148.331H598.893V109.545C598.893 105.503 600.104 102.249 602.525 99.7864C604.947 97.3227 608.221 96.0902 612.348 96.0902C616.306 96.0902 619.518 97.3324 621.982 99.8169C624.444 102.302 625.677 105.545 625.677 109.545V148.331H640.584V109.545C640.584 101.586 638.152 95.0694 633.288 89.9955C628.424 84.9204 622.181 82.3828 614.559 82.3828Z" fill="black"/>
<path d="M233.33 107.08L252.976 99.0584V83.6445L233.33 92.1724V83.6445H218.359V148.329H233.33V107.08Z" fill="black"/>
<path d="M659.584 108.977C660.763 104.766 662.921 101.47 666.059 99.0908C669.197 96.7107 673.019 95.5221 677.523 95.5221C681.987 95.5221 685.789 96.7107 688.927 99.0908C692.063 101.47 694.179 104.766 695.274 108.977H659.584ZM711.193 115.988C711.193 106.176 708.034 98.1219 701.718 91.8259C695.4 85.5305 687.335 82.3828 677.523 82.3828C667.711 82.3828 659.657 85.5305 653.362 91.8259C647.066 98.1219 643.918 106.176 643.918 115.988C643.918 125.842 647.055 133.907 653.33 140.182C659.605 146.457 667.669 149.594 677.523 149.594C684.935 149.594 691.484 147.847 697.17 144.35C702.854 140.855 706.581 136.097 708.35 130.075H691.8C688.936 134.329 684.179 136.454 677.523 136.454C672.765 136.454 668.785 135.15 665.584 132.539C662.384 129.927 660.259 126.306 659.205 121.673H710.687C711.023 119.231 711.193 117.336 711.193 115.988Z" fill="black"/>
<path d="M104.011 142.624H145.245L165.861 106.915L145.245 71.2051H104.011L83.3945 106.915L104.011 142.624Z" stroke="black" stroke-width="4.34981"/>
<path d="M129.937 97.7227H119.322L114.016 106.915L119.322 116.107H129.937L135.243 106.915L129.937 97.7227Z" stroke="black" stroke-width="4.34981" stroke-miterlimit="10"/>
<path d="M145.248 71.2051L104.014 142.624M92.6719 122.981L156.589 90.85L92.6719 122.981ZM155.923 124.134L93.3379 89.6956L155.923 124.134ZM124.63 159.136V71.2051V159.136ZM104.014 71.2051L145.248 142.624L104.014 71.2051Z" stroke="black" stroke-width="4.34981" stroke-miterlimit="10"/>
<path d="M124.627 106.916C93.8139 106.916 63 106.916 63 106.916" stroke="black" stroke-width="4.34981" stroke-miterlimit="10"/>
<path d="M124.633 106.916C155.446 106.916 186.26 106.916 186.26 106.916" stroke="black" stroke-width="4.34981" stroke-miterlimit="10"/>
<path d="M124.383 160.547L145.398 142.828L186.254 106.915L145.243 71.2051H104.009L63 106.915L108.164 146.719L124.383 160.547Z" stroke="black" stroke-width="4.34981" stroke-miterlimit="10"/>
</g>
<defs>
<filter id="filter0_d_1158_175" x="-24" y="-18" width="833" height="290" filterUnits="userSpaceOnUse" color-interpolation-filters="sRGB">
<feFlood flood-opacity="0" result="BackgroundImageFix"/>
<feColorMatrix in="SourceAlpha" type="matrix" values="0 0 0 0 0 0 0 0 0 0 0 0 0 0 0 0 0 0 127 0" result="hardAlpha"/>
<feOffset dx="6" dy="12"/>
<feGaussianBlur stdDeviation="15"/>
<feComposite in2="hardAlpha" operator="out"/>
<feColorMatrix type="matrix" values="0 0 0 0 0 0 0 0 0 0 0 0 0 0 0 0 0 0 0.05 0"/>
<feBlend mode="normal" in2="BackgroundImageFix" result="effect1_dropShadow_1158_175"/>
<feBlend mode="normal" in="SourceGraphic" in2="effect1_dropShadow_1158_175" result="shape"/>
</filter>
</defs>
</svg>
