<svg width="867" height="238" viewBox="0 0 867 238" fill="none" xmlns="http://www.w3.org/2000/svg">
<g filter="url(#filter0_d_1158_75)">
<path fill-rule="evenodd" clip-rule="evenodd" d="M248.078 55.9501C241.627 65.667 235.158 75.3725 228.849 85.1803C227.213 87.7189 226.356 87.8381 224.652 85.2371C220.012 78.1155 214.958 71.2552 210.454 64.0428C209.097 61.8734 207.802 61.3055 205.502 61.3111C182.763 61.3566 160.02 61.3566 137.273 61.3111C140.732 68.3021 145.673 74.3219 149.887 80.8529C151.539 83.4084 152.828 86.2934 155.373 88.2016C166.475 88.1675 177.578 88.2016 188.68 88.0426C190.844 88.0426 191.702 89.2238 192.656 90.6834C197.956 98.5432 203.257 106.395 208.557 114.24C208.642 115.751 207.615 116.745 206.854 117.852C195.533 134.787 184.207 151.72 172.876 168.651C178.01 176.477 183.149 184.303 188.294 192.129C188.964 193.151 189.856 194.054 189.998 195.349C191.702 195.315 192.043 193.742 192.752 192.697C198.079 184.905 203.344 177.068 208.654 169.248C214.072 159.866 220.58 151.228 226.645 141.727C231.921 149.564 236.941 156.992 241.928 164.443C248.087 173.655 254.236 182.874 260.373 192.1C261.049 193.117 261.941 194.026 262.077 195.32C263.332 195.44 263.741 194.446 264.28 193.617C275.355 177.075 286.438 160.538 297.531 144.004C298.497 142.567 298.588 141.466 297.594 140.029C292.023 131.794 286.508 123.503 280.943 115.211C275.923 122.662 270.88 130.102 265.899 137.576C262.861 142.119 262.855 142.187 259.856 137.746C255.245 130.931 250.707 124.037 246.13 117.188C245.659 116.472 244.994 115.836 245.204 114.865L253.326 101.803C262.151 88.7411 270.987 75.6792 279.835 62.6173C280.812 61.1862 280.432 60.2548 279.597 59.0225C275.207 52.5426 270.948 45.9606 266.535 39.5262C265.331 37.8111 264.644 35.5338 262.492 34.5059C257.664 41.6558 252.837 48.766 248.078 55.9501Z" fill="url(#paint0_linear_1158_75)"/>
<path fill-rule="evenodd" clip-rule="evenodd" d="M153.053 36.3227C148.169 43.7623 143.143 51.0884 138.247 58.528C137.73 59.306 136.419 59.9704 137.293 61.2994C160.04 61.2994 182.783 61.2994 205.522 61.2994C207.793 61.2994 209.116 61.8673 210.474 64.031C214.96 71.2434 220.015 78.1038 224.671 85.2253C226.375 87.8264 227.233 87.7071 228.868 85.1685C235.178 75.3608 241.646 65.6552 248.098 55.9383C252.84 48.7656 257.667 41.6554 262.494 34.5054C261.62 33.8467 260.597 34.0568 259.655 34.0568C225.485 34.0454 191.335 34.0265 157.204 34C155.205 34 154.115 34.7212 153.064 36.3227H153.053Z" fill="url(#paint1_linear_1158_75)"/>
<path fill-rule="evenodd" clip-rule="evenodd" d="M188.666 88.041C177.563 88.1944 166.461 88.166 155.358 88.2C155.33 89.7107 156.494 90.6307 157.209 91.7267C161.753 98.6325 166.358 105.538 171.072 112.353C172.316 114.148 172.39 115.454 171.117 117.277C166.943 123.263 162.923 129.351 158.896 135.45C151.623 146.456 144.36 157.485 137.105 168.536L172.94 168.644C184.272 151.717 195.598 134.786 206.918 117.851C207.662 116.715 208.69 115.749 208.622 114.239C203.322 106.39 198.021 98.5379 192.721 90.6818C191.75 89.2393 190.898 88.041 188.796 88.041H188.666Z" fill="url(#paint2_linear_1158_75)"/>
<path fill-rule="evenodd" clip-rule="evenodd" d="M209.188 168.945C214.605 159.563 221.114 150.925 227.179 141.424C232.455 149.261 237.475 156.689 242.461 164.14C248.625 173.348 254.772 182.565 260.901 191.792C261.583 192.808 262.474 193.711 262.605 195.012C262.065 195.676 261.31 195.636 260.572 195.636C250.219 195.636 239.86 195.568 229.502 195.693C227.366 195.693 226.475 194.557 225.481 193.092C220.086 185.028 214.655 176.979 209.188 168.945Z" fill="#D4C8B8"/>
<path fill-rule="evenodd" clip-rule="evenodd" d="M137.582 168.238L173.417 168.346L188.836 191.829C189.506 192.851 190.397 193.754 190.539 195.049C189.744 195.89 188.705 195.617 187.751 195.617C177.767 195.617 167.778 195.617 157.794 195.617C156.277 195.617 155.034 195.521 154.017 193.982C148.673 185.912 143.176 177.898 137.724 169.851C137.377 169.334 136.986 168.829 137.582 168.238Z" fill="#D4C8B8"/>
<path fill-rule="evenodd" clip-rule="evenodd" d="M281.427 114.93C276.407 122.381 271.364 129.815 266.378 137.295C263.345 141.838 263.339 141.906 260.341 137.465C255.729 130.65 251.192 123.756 246.614 116.901C246.137 116.191 245.479 115.555 245.689 114.584C256.259 114.584 266.83 114.607 277.401 114.652C278.741 114.641 280.098 114.834 281.427 114.93Z" fill="#E2BF91"/>
<path fill-rule="evenodd" clip-rule="evenodd" d="M375.441 62.2771C383.733 62.2771 392.03 62.3453 400.322 62.2317C402.497 62.2033 403.292 62.6633 403.32 65.0712C403.434 74.9301 403.53 74.9244 393.666 74.9244C382.773 74.9244 371.875 74.9926 360.988 74.8847C357.711 74.8847 355.718 75.7365 355.792 79.4279C355.866 83.1193 356.729 83.9087 360.903 83.9201C372.29 83.9201 383.676 83.9201 395.068 83.9201C400.969 83.9201 403.206 86.1349 403.218 91.9446C403.218 102.712 403.218 113.48 403.218 124.247C403.218 129.603 400.884 131.942 395.5 131.954C379.031 131.994 362.561 131.954 346.092 132.011C343.934 132.011 343.099 131.585 343.065 129.171C342.917 119.318 342.821 119.318 352.748 119.318C363.515 119.318 374.285 119.318 385.056 119.318C389.69 119.318 390.536 118.494 390.565 114.019C390.565 109.811 390.468 105.597 390.605 101.395C390.718 97.885 389.134 96.4766 385.715 96.4936C374.203 96.5504 362.692 96.4936 351.18 96.4936C345.234 96.4936 343.156 94.4094 343.133 88.4747C343.133 82.2845 343.099 76.1 343.133 69.9098C343.167 64.5601 345.467 62.2941 350.885 62.2714C359.103 62.2544 367.275 62.2771 375.441 62.2771Z" fill="#472F8E"/>
<path fill-rule="evenodd" clip-rule="evenodd" d="M570.017 96.5142H556.302C554.479 96.5142 552.617 96.6278 552.548 99.0244C552.48 101.421 554.309 101.625 556.16 101.625C565.054 101.625 573.951 101.625 582.852 101.625C584.72 101.625 586.583 101.444 586.651 99.155C586.72 96.8663 584.857 96.5142 582.994 96.5142H570.017ZM569.637 83.8726C576.94 83.8726 584.243 83.8385 591.547 83.8726C597.118 83.9066 599.39 86.218 599.418 91.8233C599.418 96.5256 599.418 101.228 599.418 105.93C599.418 112.069 597.283 114.239 591.234 114.25C579.967 114.25 568.705 114.222 557.444 114.284C555.519 114.284 552.634 113.404 552.617 116.664C552.617 120.116 555.598 119.27 557.66 119.293C564.344 119.373 571.028 119.401 577.707 119.293C579.916 119.248 580.666 119.861 580.705 122.172C580.876 131.974 580.961 131.974 571.289 131.974C563.339 131.974 555.445 132.008 547.528 131.974C542.088 131.94 539.765 129.703 539.736 124.364C539.661 113.472 539.661 102.583 539.736 91.6983C539.771 86.1158 542.071 83.9294 547.744 83.901C555.036 83.8442 562.351 83.8726 569.637 83.8726Z" fill="#472F8E"/>
<path fill-rule="evenodd" clip-rule="evenodd" d="M438.892 96.5128C434.44 96.5128 429.991 96.5128 425.546 96.5128C423.65 96.5128 421.9 96.8876 421.952 99.2161C421.997 101.351 423.655 101.618 425.41 101.618C434.432 101.618 443.455 101.618 452.477 101.618C454.356 101.618 456.117 101.385 456.055 98.9776C455.998 96.8138 454.305 96.5299 452.607 96.5242C448.064 96.5242 443.464 96.5242 438.892 96.5242V96.5128ZM460.865 83.8825C466.544 83.8825 468.759 86.1087 468.815 91.697C468.842 96.6491 468.842 101.599 468.815 106.548C468.776 112.022 466.623 114.226 461.194 114.243C449.558 114.277 437.91 114.243 426.29 114.243C424.303 114.243 421.883 113.965 422.008 116.901C422.111 119.479 424.388 119.297 426.245 119.303C433.298 119.303 440.358 119.382 447.411 119.269C449.529 119.235 450.086 119.905 450.131 121.995C450.364 131.95 450.432 131.95 440.539 131.95C432.742 131.95 424.939 131.979 417.141 131.95C411.462 131.922 409.23 129.679 409.219 124.102C409.193 113.209 409.193 102.319 409.219 91.43C409.219 86.3189 411.565 83.9337 416.693 83.8825C424.104 83.8201 453.561 83.8428 460.865 83.8825Z" fill="#472F8E"/>
<path fill-rule="evenodd" clip-rule="evenodd" d="M671.129 62.2727C675.439 62.2727 679.006 62.3635 682.567 62.2329C684.236 62.1704 684.963 63.0791 685.764 64.2433C689.694 69.9451 693.652 75.6242 697.639 81.2806C700.155 84.8413 701.927 84.8527 704.454 81.3146C708.316 75.8627 712.206 70.4335 715.874 64.8453C717.198 62.8406 718.629 62.0398 720.986 62.2045C724.058 62.4146 727.147 62.2556 730.89 62.2556C729.186 64.7544 727.789 66.8614 726.347 68.9399C722.894 73.9205 719.532 78.9521 715.914 83.8248C714.245 86.0964 714.103 88.0955 715.119 90.6851C719.918 102.855 724.552 115.105 729.237 127.315C729.76 128.678 730.208 130.075 730.867 131.938C726.761 131.938 722.99 131.887 719.225 131.938C717.277 131.978 717.198 130.444 716.738 129.263C713.228 120.177 709.733 111.071 706.254 101.947C705.317 99.4934 704.499 96.9378 701.143 96.9321C697.787 96.9264 696.901 99.2889 695.941 101.822C692.499 110.942 688.921 119.995 685.525 129.161C684.776 131.183 683.822 132.171 681.55 132C679.082 131.793 676.601 131.793 674.133 132C671.356 132.233 671.413 131.166 672.236 129.059C677.171 116.406 681.959 103.702 686.939 91.0656C688.075 88.2261 687.899 86.0623 686.054 83.5465C681.045 76.7827 676.382 69.8202 671.129 62.2727Z" fill="#472F8E"/>
<path fill-rule="evenodd" clip-rule="evenodd" d="M635.075 83.9051C642.372 83.9051 649.664 83.9051 656.962 83.9051C662.641 83.9051 664.85 86.0802 664.867 91.7252C664.896 104.089 664.827 116.452 664.924 128.815C664.924 131.121 664.47 132.013 661.903 132.024C652.203 132.064 652.203 132.166 652.203 122.551C652.203 115.384 652.118 108.212 652.243 101.045C652.294 97.87 650.942 96.5013 647.858 96.5013C639.328 96.5013 630.797 96.5013 622.263 96.5013C619.122 96.5013 617.879 97.9267 617.907 101.045C618.009 110.319 617.867 119.592 617.998 128.872C618.032 131.286 617.367 132.007 614.908 132.024C605.254 132.075 605.254 132.166 605.254 122.5C605.254 112.244 605.254 101.982 605.254 91.7195C605.254 86.0859 607.457 83.9392 613.165 83.9108C620.48 83.8824 627.777 83.9051 635.075 83.9051Z" fill="#472F8E"/>
<path fill-rule="evenodd" clip-rule="evenodd" d="M533.959 83.8737C533.931 84.4255 533.849 84.9733 533.715 85.5092C528.172 100.036 522.622 114.565 517.064 129.096C516.291 131.135 514.928 131.976 512.833 131.97C507.262 131.97 501.696 131.936 496.131 131.97C494.194 131.97 492.695 131.356 491.985 129.499C486.204 114.421 480.451 99.3378 474.527 83.8396C478.65 83.8396 482.33 83.9475 485.999 83.7998C488.14 83.709 488.271 85.2537 488.793 86.5712C492.382 95.902 495.983 105.233 499.504 114.586C500.424 117.034 501.486 119.288 504.502 119.266C507.517 119.243 508.534 116.886 509.442 114.49C512.935 105.25 516.53 96.0496 519.926 86.7814C520.727 84.5949 521.76 83.6465 524.174 83.8112C527.343 84.044 530.552 83.8737 533.959 83.8737Z" fill="#472F8E"/>
<path fill-rule="evenodd" clip-rule="evenodd" d="M711.013 155.127C716.561 155.127 721.19 155.127 725.818 155.127C730.447 155.127 730.884 155.576 730.929 160.238C730.969 167.712 730.969 167.712 723.393 167.712C719.066 167.712 714.733 167.78 710.405 167.712C708.701 167.672 706.356 168.723 706.305 165.225C706.248 161.857 708.366 162.55 710.223 162.538C714.199 162.504 718.146 162.567 722.104 162.499C723.24 162.499 725.176 163.067 725.245 161.522C725.307 159.864 723.365 160.437 722.257 160.42C718.282 160.346 714.335 160.301 710.377 160.42C707.611 160.5 706.367 159.568 706.328 156.587C706.208 147.784 706.112 147.79 714.846 147.79C719.179 147.79 723.513 147.858 727.84 147.756C729.89 147.71 731.026 148.034 730.998 150.527C730.998 152.861 730.163 153.514 727.959 153.446C723.757 153.31 719.549 153.372 715.34 153.446C714.182 153.418 712.87 152.946 711.013 155.127Z" fill="#9E9F9E"/>
<path fill-rule="evenodd" clip-rule="evenodd" d="M410.445 155.11C412.302 155.11 414.154 155.11 416.011 155.11C416.647 155.11 417.317 154.905 417.294 154.127C417.271 153.349 416.669 153.082 416.005 153.082C412.421 153.082 408.832 153.048 405.249 153.082C404.488 153.082 403.715 153.389 403.801 154.343C403.88 155.149 404.658 155.115 405.254 155.121C406.987 155.121 408.713 155.121 410.445 155.121V155.11ZM412.717 160.34C410.615 160.34 408.514 160.306 406.413 160.34C405.51 160.34 404.067 160.022 404.141 161.476C404.227 162.822 405.635 162.441 406.555 162.464C408.531 162.515 410.53 162.595 412.484 162.464C414.614 162.311 415.261 163.14 415.238 165.224C415.238 167.2 414.511 167.797 412.614 167.74C409.037 167.626 405.447 167.683 401.858 167.74C399.399 167.74 398.195 166.604 398.195 164.139C398.195 159.937 398.195 155.734 398.195 151.526C398.195 149.112 399.303 147.801 401.75 147.795C407.566 147.795 413.375 147.795 419.185 147.795C421.752 147.795 422.956 149.078 423.161 151.634C423.842 159.585 423.161 160.368 415.295 160.368L412.717 160.34Z" fill="#9E9F9E"/>
<path fill-rule="evenodd" clip-rule="evenodd" d="M663.094 155.088C664.945 155.088 666.797 155.088 668.648 155.088C669.301 155.088 669.96 154.826 669.863 154.071C669.795 153.85 669.672 153.65 669.505 153.49C669.338 153.33 669.133 153.215 668.909 153.157C665.085 153.092 661.263 153.092 657.443 153.157C657.288 153.149 657.134 153.178 656.992 153.24C656.85 153.302 656.725 153.397 656.625 153.515C656.526 153.634 656.455 153.774 656.418 153.925C656.382 154.075 656.381 154.232 656.415 154.384C656.512 154.991 657.057 155.099 657.551 155.105C659.402 155.105 661.254 155.105 663.105 155.105L663.094 155.088ZM663.094 147.762C665.933 147.762 668.773 147.762 671.612 147.762C674.452 147.762 675.724 149.102 675.707 151.845C675.707 151.97 675.707 152.095 675.707 152.214C676.036 160.085 675.792 160.341 668.001 160.341C664.906 160.341 661.816 160.341 658.721 160.341C657.886 160.341 656.733 160.21 656.671 161.363C656.608 162.516 657.773 162.459 658.607 162.499C660.828 162.533 663.065 162.624 665.28 162.499C667.296 162.38 667.802 163.26 667.79 165.111C667.779 166.963 667.393 167.849 665.326 167.78C661.623 167.65 657.909 167.741 654.195 167.741C651.923 167.741 650.787 166.514 650.787 164.288C650.753 159.96 650.753 155.633 650.787 151.305C650.787 148.841 652.179 147.767 654.57 147.784C657.415 147.779 660.26 147.762 663.105 147.762H663.094Z" fill="#9E9F9E"/>
<path fill-rule="evenodd" clip-rule="evenodd" d="M466.084 147.763C468.924 147.763 471.763 147.763 474.603 147.763C476.806 147.763 478.158 148.802 478.181 151.091C478.226 155.907 478.135 160.745 478.226 165.55C478.272 167.856 476.818 167.662 475.284 167.736C473.507 167.821 472.445 167.413 472.553 165.323C472.666 162.483 472.45 159.644 472.615 156.804C472.757 154.294 471.951 153.357 469.287 153.317C458.912 153.164 458.877 153.073 458.889 163.75C458.889 166.163 459.014 168.202 455.481 167.787C453.687 167.577 453.164 166.953 453.21 165.289C453.267 160.842 453.21 156.389 453.21 151.943C453.21 149.075 454.482 147.604 457.52 147.735C460.399 147.86 463.245 147.757 466.084 147.763Z" fill="#9E9F9E"/>
<path fill-rule="evenodd" clip-rule="evenodd" d="M564.51 167.713C561.67 167.713 558.831 167.656 555.991 167.713C553.413 167.781 552.016 166.713 552.016 164.05C552.016 159.353 552.078 154.657 551.982 149.972C551.936 147.7 553.293 147.762 554.884 147.7C556.587 147.654 557.723 147.933 557.661 150.068C557.547 153.152 557.7 156.247 557.615 159.331C557.558 161.46 558.268 162.579 560.58 162.488C563.294 162.38 566.015 162.414 568.735 162.488C570.649 162.528 571.381 161.614 571.353 159.785C571.313 156.696 571.438 153.606 571.319 150.522C571.239 148.484 571.887 147.62 574.045 147.683C575.902 147.745 577.089 147.938 577.015 150.267C576.884 154.81 576.975 159.404 576.981 163.976C576.981 166.606 575.663 167.77 573.045 167.702C570.189 167.656 567.349 167.713 564.51 167.713Z" fill="#9E9F9E"/>
<path fill-rule="evenodd" clip-rule="evenodd" d="M355.526 167.626C351.613 168.762 350.13 166.769 349.205 163.373C347.739 158.017 345.837 152.787 344.27 147.471C343.963 146.443 342.271 144.74 344.423 144.206C346.2 143.769 348.591 143.098 349.455 146.245C350.653 150.64 352.198 154.951 353.663 159.272C353.998 160.261 353.981 161.8 355.367 161.879C356.991 161.976 357.036 160.414 357.411 159.255C358.723 155.144 360.251 151.089 361.386 146.92C362.039 144.461 363.34 143.837 365.64 143.996C367.298 144.115 367.826 144.518 367.253 146.267C365.114 152.704 363.045 159.166 361.046 165.656C360.006 168.916 357.366 167.246 355.526 167.626Z" fill="#9E9F9E"/>
<path fill-rule="evenodd" clip-rule="evenodd" d="M513.655 167.676C511.679 167.994 510.974 167.109 511.06 165.2C511.168 162.611 511.133 160.015 511.06 157.426C511.014 155.807 511.662 153.961 509.356 153.053C508.294 152.638 508.743 151.292 508.743 150.35C508.743 148.078 511.804 144.103 513.519 144.046C514.91 144.017 516.279 143.909 516.387 145.954C516.472 147.607 517.755 147.851 519.073 147.743C521.117 147.567 521.537 148.629 521.549 150.423C521.549 152.309 521.259 153.581 518.971 153.394C516.773 153.218 516.273 154.586 516.301 156.449C516.347 159.288 516.228 162.128 516.335 164.968C516.438 166.989 515.824 168.068 513.655 167.676Z" fill="#9E9F9E"/>
<path fill-rule="evenodd" clip-rule="evenodd" d="M606.968 158.443V151.395C606.968 149.391 607.808 147.937 609.904 147.823C612.743 147.675 615.583 147.761 618.422 147.783C620.609 147.783 620.086 149.487 620.126 150.754C620.166 152.02 620.274 153.241 618.422 153.389C616.571 153.536 614.316 152.508 613.129 154.059C611.761 155.859 612.743 158.363 612.562 160.556C612.468 161.913 612.468 163.276 612.562 164.633C612.715 166.695 612.272 167.819 609.784 167.791C607.456 167.791 606.729 166.962 606.888 164.747C607.081 162.657 606.962 160.544 606.968 158.443Z" fill="#9E9F9E"/>
</g>
<defs>
<filter id="filter0_d_1158_75" x="-24" y="-18" width="927" height="290" filterUnits="userSpaceOnUse" color-interpolation-filters="sRGB">
<feFlood flood-opacity="0" result="BackgroundImageFix"/>
<feColorMatrix in="SourceAlpha" type="matrix" values="0 0 0 0 0 0 0 0 0 0 0 0 0 0 0 0 0 0 127 0" result="hardAlpha"/>
<feOffset dx="6" dy="12"/>
<feGaussianBlur stdDeviation="15"/>
<feComposite in2="hardAlpha" operator="out"/>
<feColorMatrix type="matrix" values="0 0 0 0 0 0 0 0 0 0 0 0 0 0 0 0 0 0 0.05 0"/>
<feBlend mode="normal" in2="BackgroundImageFix" result="effect1_dropShadow_1158_75"/>
<feBlend mode="normal" in="SourceGraphic" in2="effect1_dropShadow_1158_75" result="shape"/>
</filter>
<linearGradient id="paint0_linear_1158_75" x1="203.582" y1="148.065" x2="236.129" y2="42.4055" gradientUnits="userSpaceOnUse">
<stop stop-color="#904A99"/>
<stop offset="1" stop-color="#422F8E"/>
</linearGradient>
<linearGradient id="paint1_linear_1158_75" x1="215.244" y1="19.8704" x2="152.15" y2="131.476" gradientUnits="userSpaceOnUse">
<stop stop-color="#F1B92C"/>
<stop offset="1" stop-color="#ED7300"/>
</linearGradient>
<linearGradient id="paint2_linear_1158_75" x1="216.573" y1="39.7915" x2="143.131" y2="171.319" gradientUnits="userSpaceOnUse">
<stop stop-color="#F1B92C"/>
<stop offset="1" stop-color="#ED7300"/>
</linearGradient>
</defs>
</svg>
