<svg width="1000" height="230" viewBox="0 0 1000 230" fill="none" xmlns="http://www.w3.org/2000/svg">
<g filter="url(#filter0_d_1158_179)">
<g clip-path="url(#clip0_1158_179)">
<path d="M527.783 132.818C526.723 136.36 525.306 139.726 523.717 142.737C523.187 143.799 522.658 144.685 522.125 145.748C519.297 149.821 514.348 152.655 509.044 152.655C504.273 152.655 499.853 150.53 497.026 147.165C496.847 146.987 496.672 146.81 496.496 146.633C493.49 143.268 489.249 141.142 484.475 141.142C483.237 141.142 482.177 141.32 481.118 141.497V174.618C477.582 175.326 473.692 175.681 469.981 175.681C436.396 175.681 409.352 148.405 409.352 114.929C409.352 81.4534 436.219 54 469.805 54C476.169 54 482.353 55.0627 488.186 56.8339L470.156 74.9L481.118 85.8814L519.652 124.493L521.241 126.088L527.783 132.818Z" fill="url(#paint0_linear_1158_179)"/>
<path d="M94.0078 131.931L99.6642 129.098C102.669 136.005 109.563 139.725 118.401 139.725C127.946 139.725 135.193 134.765 135.193 126.263C135.193 117.053 126.886 115.282 117.871 113.334C107.442 111.032 95.5987 108.02 95.5987 94.2052C95.5987 83.4008 105.674 75.0762 117.694 75.0762C127.593 75.0762 136.608 79.8584 140.32 88.8915L134.84 91.7254C131.658 84.9948 125.648 81.2753 117.517 81.2753C109.386 81.2753 102.316 86.5889 102.316 93.8509C102.316 103.061 110.8 104.832 119.992 106.781C130.421 109.083 142.087 112.094 142.087 126.087C141.734 138.308 131.481 146.101 118.401 146.101C107.442 146.101 97.8966 141.141 94.0078 131.931Z" fill="#212123"/>
<path d="M153.57 145.39V76.1367H160.11V107.841H201.119V76.1367H207.66V145.39H201.119V113.863H160.11V145.213H153.57V145.39Z" fill="#212123"/>
<path d="M231.173 76.1367V145.39H224.633V76.1367H231.173Z" fill="#212123"/>
<path d="M243.012 145.394L252.91 82.5165C253.794 77.5572 257.329 74.9004 261.748 74.9004C265.637 74.9004 269.172 76.8487 270.41 81.2767L285.258 133.881C285.611 135.475 285.965 136.006 286.849 136.006C287.732 136.006 288.086 135.298 288.439 133.881L303.287 81.4538C304.525 77.0258 308.06 74.9004 311.949 74.9004C316.191 74.9004 319.726 77.5572 320.61 82.6936L329.625 145.039H323.085L314.6 84.4648C314.247 82.1623 313.716 80.7453 311.772 80.7453C310.358 80.7453 309.297 81.9852 308.767 84.1106L293.389 136.892C292.505 140.08 289.853 141.851 286.849 141.851C284.02 141.851 281.192 140.257 280.308 137.069L264.93 83.9335C264.223 81.8081 263.516 80.7453 262.102 80.7453C260.688 80.7453 259.45 81.9852 259.097 84.4648L249.728 145.217H243.012V145.394Z" fill="#212123"/>
<path d="M354.205 83.4008C355.973 77.733 360.038 75.0762 365.342 75.0762C370.468 75.0762 374.71 77.733 376.477 83.4008L395.921 145.392H389.204L383.371 126.087L347.665 126.263L341.478 145.392H334.762L354.205 83.4008ZM349.256 119.887H381.25L370.644 85.3491C369.76 82.5152 367.993 81.0982 365.342 81.0982C362.513 81.0982 360.922 82.5152 360.038 85.3491L349.256 119.887Z" fill="#212123"/>
<path d="M541.223 110.677C541.223 90.8397 556.776 75.0762 575.691 75.0762C587.358 75.0762 597.607 80.9211 603.087 90.4857L597.786 93.6738C593.191 86.0576 584.881 81.2753 575.691 81.2753C560.667 81.2753 548.116 94.2052 548.116 110.677C548.116 127.326 560.488 140.256 575.691 140.256C584.881 140.256 593.191 135.651 597.786 128.035L603.087 131.223C597.607 140.787 587.358 146.632 575.691 146.632C556.776 146.455 541.223 130.692 541.223 110.677Z" fill="#212123"/>
<path d="M622.874 83.4008C624.642 77.733 628.707 75.0762 634.011 75.0762C639.315 75.0762 643.38 77.733 645.145 83.4008L664.589 145.392H657.875L652.041 126.087L616.335 126.263L610.147 145.392H603.43L622.874 83.4008ZM617.924 119.887H649.919L639.315 85.3491C638.431 82.5152 636.663 81.0982 634.011 81.0982C631.184 81.0982 629.591 82.5152 628.707 85.3491L617.924 119.887Z" fill="#212123"/>
<path d="M674.504 145.39V76.1367H694.481C712.157 76.1367 724.175 83.9299 724.175 100.048C724.175 116.697 711.624 124.136 694.656 124.136H681.046V145.567H674.504V145.39ZM681.046 82.3359V117.76H694.481C707.207 117.76 717.282 112.623 717.282 99.8705C717.282 87.6495 707.912 82.1588 694.481 82.1588H681.046V82.3359Z" fill="#212123"/>
<path d="M739.902 76.1367V145.39H733.359V76.1367H739.902Z" fill="#212123"/>
<path d="M797.172 82.3359H775.08V145.39H768.538V82.3359H746.621V76.1367H797.172V82.3359Z" fill="#212123"/>
<path d="M812.202 83.4008C813.97 77.733 818.035 75.0762 823.335 75.0762C828.639 75.0762 832.705 77.733 834.473 83.4008L853.917 145.392H847.024L841.19 126.086L805.484 126.263L799.475 145.57H792.758L812.202 83.4008ZM807.252 119.887H839.243L828.639 85.3491C827.755 82.5152 825.987 81.0982 823.335 81.0982C820.508 81.0982 818.919 82.5152 818.035 85.3491L807.252 119.887Z" fill="#212123"/>
<path d="M870.343 139.191H906.404V145.39H870.343C865.394 145.39 863.805 142.91 863.805 138.837V76.1367H870.343V139.191Z" fill="#212123"/>
</g>
</g>
<defs>
<filter id="filter0_d_1158_179" x="-24" y="-18" width="1060" height="290" filterUnits="userSpaceOnUse" color-interpolation-filters="sRGB">
<feFlood flood-opacity="0" result="BackgroundImageFix"/>
<feColorMatrix in="SourceAlpha" type="matrix" values="0 0 0 0 0 0 0 0 0 0 0 0 0 0 0 0 0 0 127 0" result="hardAlpha"/>
<feOffset dx="6" dy="12"/>
<feGaussianBlur stdDeviation="15"/>
<feComposite in2="hardAlpha" operator="out"/>
<feColorMatrix type="matrix" values="0 0 0 0 0 0 0 0 0 0 0 0 0 0 0 0 0 0 0.05 0"/>
<feBlend mode="normal" in2="BackgroundImageFix" result="effect1_dropShadow_1158_179"/>
<feBlend mode="normal" in="SourceGraphic" in2="effect1_dropShadow_1158_179" result="shape"/>
</filter>
<linearGradient id="paint0_linear_1158_179" x1="415.575" y1="167.987" x2="506.528" y2="77.2164" gradientUnits="userSpaceOnUse">
<stop stop-color="#AEC6E2"/>
<stop offset="1" stop-color="#3B4B5D"/>
</linearGradient>
<clipPath id="clip0_1158_179">
<rect width="812.398" height="121.681" fill="white" transform="translate(94.0039 54)"/>
</clipPath>
</defs>
</svg>
