<svg width="648" height="230" viewBox="0 0 648 230" fill="none" xmlns="http://www.w3.org/2000/svg">
<g filter="url(#filter0_d_1158_53)">
<path d="M116.798 122.595V184.976H104V122.595H116.798ZM131.864 122.428C134.108 122.428 136.226 122.942 138.229 123.967C140.227 124.996 141.959 126.396 143.42 128.175C144.881 129.954 146.041 132.047 146.892 134.464C147.743 136.881 148.173 139.478 148.173 142.253C148.173 145.141 147.748 147.805 146.892 150.25C146.037 152.695 144.881 154.788 143.42 156.539C141.959 158.286 140.214 159.65 138.19 160.619C136.166 161.592 133.983 162.079 131.645 162.079H127.184C128.259 161.357 129.256 160.344 130.184 159.04C131.108 157.736 131.916 156.224 132.599 154.501C133.282 152.782 133.807 150.88 134.172 148.798C134.537 146.716 134.722 144.539 134.722 142.261C134.722 139.928 134.537 137.723 134.172 135.641C133.807 133.559 133.282 131.673 132.599 129.978C131.916 128.282 131.112 126.783 130.184 125.479C129.256 124.175 128.259 123.162 127.184 122.44H130.768H131.864V122.428Z" fill="#A4B0B2"/>
<path fill-rule="evenodd" clip-rule="evenodd" d="M153.571 174.814C154.692 176.593 156.033 178.412 157.593 180.27C159.153 182.133 160.906 183.7 162.857 184.976H138.504C140.158 183.477 141.684 181.77 143.076 179.855C144.464 177.941 145.672 176.15 146.695 174.483C147.911 172.541 149.011 170.543 149.987 168.485C151.057 170.651 152.251 172.76 153.571 174.814ZM182.823 184.976H196.57L168.56 120.682L162.049 137.588L182.819 184.976H182.823Z" fill="#A4B0B2"/>
<path d="M217.036 122.762V184.975H204.238V122.762H217.036ZM250.384 171.068C250.384 174.286 251.007 177.162 252.249 179.686C253.491 182.215 255.137 184.005 257.186 185.058H250.603C247.724 185.058 245.313 184.616 243.362 183.726C241.411 182.841 239.851 181.716 238.682 180.352C237.513 178.992 236.684 177.477 236.194 175.814C235.708 174.146 235.463 172.563 235.463 171.068C235.463 167.901 234.827 165.069 233.559 162.573C232.292 160.076 230.684 158.297 228.733 157.244H228.66C229.877 156.634 231.002 155.761 232.025 154.62C233.048 153.483 233.925 152.163 234.66 150.664C235.39 149.164 235.962 147.497 236.379 145.666C236.791 143.836 237.002 141.917 237.002 139.919C237.002 135.923 236.232 132.381 234.698 129.298C233.164 126.216 231.153 124.038 228.665 122.762H235.321C238.05 122.762 240.405 123.304 242.378 124.385C244.354 125.47 245.975 126.858 247.242 128.549C248.51 130.244 249.438 132.102 250.023 134.128C250.607 136.154 250.899 138.085 250.899 139.915C250.899 141.746 250.667 143.676 250.203 145.702C249.739 147.728 249.034 149.603 248.085 151.322C247.135 153.045 245.949 154.46 244.539 155.569C243.125 156.682 241.492 157.236 239.64 157.236H241.982C243.297 157.236 244.479 157.667 245.528 158.528C246.576 159.39 247.453 160.499 248.162 161.859C248.867 163.219 249.417 164.718 249.808 166.357C250.199 167.997 250.392 169.564 250.392 171.064L250.384 171.068Z" fill="#A4B0B2"/>
<path d="M272.615 122.594C270.419 124.093 268.481 126.024 266.801 128.381C265.12 130.742 263.694 133.031 262.52 135.252C261.154 137.861 259.933 140.557 258.863 143.333V122.594H272.611H272.615ZM292.727 184.974H279.929V122.761H292.727V184.974ZM314.081 143.333C312.568 140.002 311.008 137.059 309.401 134.507C307.793 131.954 306.302 129.789 304.94 128.01C303.333 125.956 301.747 124.209 300.187 122.765H314.081V143.337V143.333Z" fill="#A4B0B2"/>
<path d="M331.843 164.817C332.72 167.43 333.794 169.954 335.062 172.395C336.183 174.505 337.546 176.714 339.157 179.016C340.765 181.321 342.668 183.303 344.86 184.97H331.843H324.383C325.99 183.526 327.284 181.668 328.259 179.39C329.235 177.113 329.991 174.892 330.524 172.726C331.108 170.174 331.547 167.537 331.839 164.813L331.843 164.817ZM324.456 122.59H343.91L374.039 160.985L374.258 184.97L324.456 122.59ZM373.455 138.08C372.969 136.413 372.26 134.666 371.336 132.832C370.507 131.276 369.411 129.585 368.044 127.75C366.678 125.92 364.899 124.169 362.707 122.502H374.19H379.965C378.599 124.225 377.503 126 376.673 127.83C375.844 129.661 375.187 131.328 374.697 132.828C374.16 134.658 373.747 136.409 373.455 138.076V138.08Z" fill="#A4B0B2"/>
<path fill-rule="evenodd" clip-rule="evenodd" d="M401.61 184.89H388.812V122.594H401.61V184.89ZM413.239 149.742C414.507 148.801 415.809 147.564 417.15 146.037C418.49 144.509 419.599 142.695 420.476 140.581V164.151C419.5 162.042 418.331 160.267 416.965 158.823C415.598 157.379 414.309 156.187 413.088 155.242C411.627 154.189 410.162 153.299 408.701 152.578C410.261 151.8 411.774 150.859 413.235 149.746L413.239 149.742ZM429.694 163.816V185.054H414.043C416.088 183.056 418.086 180.918 420.037 178.641C421.696 176.699 423.411 174.449 425.194 171.893C426.973 169.34 428.473 166.644 429.694 163.812V163.816ZM414.408 122.59H429.548V143.078C428.426 140.469 427.111 137.913 425.598 135.416C424.33 133.306 422.745 131.085 420.845 128.752C418.942 126.419 416.797 124.365 414.408 122.59Z" fill="#A4B0B2"/>
<path d="M453.497 122.762V184.975H440.699V122.762H453.497ZM486.845 171.068C486.845 174.286 487.468 177.162 488.71 179.686C489.952 182.215 491.598 184.005 493.647 185.058H487.064C484.185 185.058 481.774 184.616 479.823 183.726C477.872 182.841 476.312 181.716 475.143 180.352C473.974 178.992 473.145 177.477 472.655 175.814C472.169 174.146 471.924 172.563 471.924 171.068C471.924 167.901 471.288 165.069 470.02 162.573C468.753 160.076 467.145 158.297 465.194 157.244H465.121C466.338 156.634 467.463 155.761 468.486 154.62C469.509 153.483 470.386 152.163 471.12 150.664C471.851 149.164 472.423 147.497 472.839 145.666C473.252 143.836 473.463 141.917 473.463 139.919C473.463 135.923 472.693 132.381 471.159 129.298C469.625 126.216 467.614 124.038 465.126 122.762H471.782C474.511 122.762 476.866 123.304 478.839 124.385C480.815 125.47 482.436 126.858 483.703 128.549C484.971 130.244 485.899 132.102 486.484 134.128C487.068 136.154 487.36 138.085 487.36 139.915C487.36 141.746 487.128 143.676 486.664 145.702C486.2 147.728 485.495 149.603 484.546 151.322C483.596 153.045 482.41 154.46 481 155.569C479.586 156.682 477.953 157.236 476.101 157.236H478.443C479.758 157.236 480.94 157.667 481.989 158.528C483.037 159.39 483.914 160.499 484.623 161.859C485.328 163.219 485.878 164.718 486.269 166.357C486.66 167.997 486.853 169.564 486.853 171.064L486.845 171.068Z" fill="#A4B0B2"/>
<path d="M500.02 165.904C501.042 167.794 502.142 169.501 503.311 171.025C504.48 172.552 505.701 173.94 506.968 175.188C508.236 176.437 509.504 177.533 510.772 178.479C512.039 179.424 513.26 180.257 514.429 180.975C517.158 182.642 519.959 183.919 522.839 184.808H500.02V165.904ZM527.226 148.495C529.663 149.663 531.859 151.147 533.81 152.95C535.761 154.756 537.381 156.81 538.675 159.112C539.968 161.417 540.931 163.901 541.562 166.566C542.194 169.23 542.413 171.978 542.22 174.809L518.013 163.65V163.566C515.576 162.458 513.234 160.93 510.991 158.984C508.748 157.042 506.797 154.848 505.142 152.403C503.483 149.963 502.19 147.338 501.266 144.535C500.338 141.731 499.977 138.911 500.17 136.079L527.231 148.487L527.226 148.495ZM542.512 137.419C542.173 138.42 541.67 139.282 541.012 140C540.355 140.722 539.624 141.264 538.816 141.623C538.013 141.986 537.158 142.177 536.255 142.205C535.353 142.233 534.463 142.054 533.586 141.663C532.71 141.276 531.954 140.706 531.318 139.956C530.681 139.206 530.196 138.361 529.856 137.415C529.517 136.474 529.332 135.485 529.306 134.46C529.281 133.435 529.465 132.422 529.856 131.421C530.394 129.977 530.626 128.713 530.553 127.632C530.48 126.551 530.295 125.622 530.002 124.844C529.663 124.011 529.173 123.289 528.541 122.679C529.663 122.623 530.832 122.707 532.052 122.93C533.075 123.153 534.223 123.528 535.49 124.055C536.758 124.581 538.026 125.403 539.293 126.512C542.899 129.79 543.973 133.423 542.512 137.423V137.419Z" fill="#A4B0B2"/>
<path d="M118.302 107.028H104L141.284 44.875H155.586L118.302 107.028Z" fill="#212123"/>
<path d="M119.544 48.1592C118.083 49.4035 116.72 50.7237 115.457 52.1076C114.193 53.4915 113.025 54.9193 111.954 56.387C110.884 57.8547 109.935 59.2825 109.11 60.6664C107.116 63.9368 105.414 67.3427 104 70.8883V44.8809H124.211C122.556 45.8221 121 46.9149 119.539 48.1632L119.544 48.1592Z" fill="#212123"/>
<path d="M185.369 106.943C182.546 106.943 179.761 106.125 177.015 104.49C174.265 102.855 171.811 100.614 169.645 97.7579C167.479 94.9063 165.73 91.5801 164.394 87.7873C163.057 83.9944 162.387 79.9344 162.387 75.6151C162.387 71.3517 163.092 67.3195 164.501 63.5267C165.911 59.7339 167.737 56.4236 169.972 53.5959C172.206 50.7723 174.725 48.5269 177.522 46.8638C180.32 45.2007 183.126 44.3711 185.949 44.3711C184.974 45.6473 183.99 47.3224 182.993 49.3963C181.996 51.4742 181.085 53.8711 180.255 56.5831C179.426 59.2991 178.747 62.2624 178.214 65.473C177.677 68.6875 177.41 72.0656 177.41 75.6111C177.41 79.1567 177.642 82.5507 178.102 85.7892C178.562 89.0316 179.185 92.0069 179.963 94.7229C180.741 97.4389 181.592 99.8478 182.516 101.954C183.44 104.059 184.389 105.722 185.361 106.939L185.369 106.943Z" fill="#212123"/>
<path d="M196.906 44.373C199.725 44.373 202.509 45.1906 205.26 46.8258C208.006 48.461 210.477 50.7024 212.664 53.558C214.851 56.4136 216.613 59.7358 217.954 63.5286C219.291 67.3255 219.961 71.3815 219.961 75.7008C219.961 79.9682 219.256 83.9964 217.847 87.7892C216.437 91.586 214.611 94.8923 212.376 97.72C210.137 100.544 207.619 102.789 204.826 104.452C202.028 106.115 199.218 106.945 196.398 106.945C197.322 105.728 198.294 104.065 199.316 101.959C200.339 99.8537 201.263 97.4448 202.088 94.7288C202.913 92.0168 203.597 89.0495 204.129 85.839C204.662 82.6284 204.933 79.2464 204.933 75.7008C204.933 72.1552 204.688 68.7612 204.203 65.5228C203.717 62.2803 203.094 59.3051 202.342 56.5891C201.585 53.8771 200.726 51.4801 199.75 49.4022C198.775 47.3244 197.829 45.6493 196.906 44.377V44.373Z" fill="#212123"/>
<path d="M231.345 86.8379C232.222 89.4422 233.292 91.9628 234.556 94.3996C235.673 96.5054 237.035 98.7069 238.642 101.004C240.25 103.305 242.145 105.284 244.332 106.947H231.345H223.902C225.51 105.507 226.794 103.652 227.77 101.379C228.741 99.1098 229.498 96.8923 230.03 94.7307C230.615 92.1822 231.053 89.5499 231.345 86.8379Z" fill="#212123"/>
<path d="M152.306 94.7307C152.843 96.8923 153.595 99.1058 154.566 101.379C155.542 103.652 156.826 105.507 158.434 106.947H150.991H138.004C140.191 105.284 142.091 103.305 143.694 101.004C145.297 98.7069 146.663 96.5054 147.78 94.3996C149.044 91.9628 150.114 89.4422 150.991 86.8379C151.283 89.5539 151.721 92.1861 152.306 94.7307Z" fill="#212123"/>
<path d="M223.297 44.7129H242.704L272.764 83.0201L272.983 106.95L223.297 44.7129Z" fill="#212123"/>
<path d="M272.187 60.1633C271.701 58.5002 270.996 56.7574 270.073 54.9267C269.243 53.3753 268.152 51.6843 266.789 49.8577C265.427 48.0311 263.652 46.2842 261.465 44.6211H272.922H278.684C277.322 46.34 276.226 48.1108 275.401 49.9374C274.572 51.7641 273.919 53.4272 273.433 54.9228C272.896 56.7494 272.483 58.4962 272.191 60.1593L272.187 60.1633Z" fill="#212123"/>
<path fill-rule="evenodd" clip-rule="evenodd" d="M301.697 44.7107V106.947H288.93V44.7107H301.697ZM312.277 71.6314C313.3 70.6344 314.379 69.3462 315.522 67.7668C316.665 66.1875 317.696 64.2931 318.625 62.0756V85.8416C317.748 83.8475 316.738 82.1445 315.595 80.7327C314.452 79.3208 313.369 78.1443 312.351 77.203C311.134 76.1501 309.918 75.2647 308.702 74.5429C309.871 73.7691 311.061 72.8 312.277 71.6354V71.6314ZM313.227 44.627H328.767V67.0609C327.598 63.958 326.235 60.9948 324.68 58.1711C323.317 55.7342 321.689 53.2575 319.789 50.733C317.894 48.2124 315.702 46.1784 313.223 44.627H313.227Z" fill="#212123"/>
<path fill-rule="evenodd" clip-rule="evenodd" d="M352.787 44.7107V106.947H340.02V44.7107H352.787ZM363.367 71.6314C364.39 70.6344 365.469 69.3462 366.612 67.7668C367.755 66.1875 368.786 64.2931 369.715 62.0756V85.8416C368.838 83.8475 367.828 82.1445 366.685 80.7327C365.542 79.3208 364.459 78.1443 363.44 77.203C362.224 76.1501 361.008 75.2647 359.792 74.5429C360.961 73.7691 362.151 72.8 363.367 71.6354V71.6314ZM364.317 44.627H379.856V67.0609C378.687 63.958 377.325 60.9948 375.77 58.1711C374.407 55.7342 372.779 53.2575 370.879 50.733C368.984 48.2124 366.792 46.1784 364.313 44.627H364.317Z" fill="#212123"/>
</g>
<defs>
<filter id="filter0_d_1158_53" x="-24" y="-18" width="708" height="290" filterUnits="userSpaceOnUse" color-interpolation-filters="sRGB">
<feFlood flood-opacity="0" result="BackgroundImageFix"/>
<feColorMatrix in="SourceAlpha" type="matrix" values="0 0 0 0 0 0 0 0 0 0 0 0 0 0 0 0 0 0 127 0" result="hardAlpha"/>
<feOffset dx="6" dy="12"/>
<feGaussianBlur stdDeviation="15"/>
<feComposite in2="hardAlpha" operator="out"/>
<feColorMatrix type="matrix" values="0 0 0 0 0 0 0 0 0 0 0 0 0 0 0 0 0 0 0.05 0"/>
<feBlend mode="normal" in2="BackgroundImageFix" result="effect1_dropShadow_1158_53"/>
<feBlend mode="normal" in="SourceGraphic" in2="effect1_dropShadow_1158_53" result="shape"/>
</filter>
</defs>
</svg>
